<svg id="Group_12625" data-name="Group 12625" xmlns="http://www.w3.org/2000/svg" width="24" height="24" viewBox="0 0 24 24">
  <path id="Path_14619" data-name="Path 14619" d="M0,0H24V24H0Z" fill="none"/>
  <path id="Path_14620" data-name="Path 14620" d="M10,5a2,2,0,1,1,4,0,7,7,0,0,1,4,6v3a4,4,0,0,0,2,3H4a4,4,0,0,0,2-3V11a7,7,0,0,1,4-6" fill="none" stroke="#263238" stroke-linecap="round" stroke-linejoin="round" stroke-width="1.5"/>
  <path id="Path_14621" data-name="Path 14621" d="M9,17v1a3,3,0,0,0,6,0V17" fill="none" stroke="#263238" stroke-linecap="round" stroke-linejoin="round" stroke-width="1.5"/>
  <path id="Path_14622" data-name="Path 14622" d="M21,6.727A11.05,11.05,0,0,0,18.206,3" fill="none" stroke="#263238" stroke-linecap="round" stroke-linejoin="round" stroke-width="1.5"/>
  <path id="Path_14623" data-name="Path 14623" d="M3,6.727A11.05,11.05,0,0,1,5.792,3" fill="none" stroke="#263238" stroke-linecap="round" stroke-linejoin="round" stroke-width="1.5"/>
</svg>
