<svg xmlns="http://www.w3.org/2000/svg" xmlns:xlink="http://www.w3.org/1999/xlink" width="263" height="264.422" viewBox="0 0 263 264.422">
  <defs>
    <radialGradient id="radial-gradient" cx="0.5" cy="0.5" r="0.5" gradientUnits="objectBoundingBox">
      <stop offset="0" stop-color="#00aeef"/>
      <stop offset="1" stop-color="#004e96"/>
    </radialGradient>
  </defs>
  <g id="Group_11500" data-name="Group 11500" transform="translate(-13853.106 -776.4)">
    <path id="Path_3481" data-name="Path 3481" d="M76.308,53.96a.432.432,0,0,0,.381-.229,3.772,3.772,0,0,0-.263-3.764.424.424,0,0,0-.585-.11.432.432,0,0,0-.11.593,2.9,2.9,0,0,1,.2,2.907.432.432,0,0,0,.178.576A.576.576,0,0,0,76.308,53.96Z" transform="translate(14039.034 811.888)" fill="#d1d3d4"/>
    <path id="Path_3491" data-name="Path 3491" d="M126.756,55a.432.432,0,0,0,.305-.127l3.34-3.34a.407.407,0,0,0,0-.593.424.424,0,0,0-.6,0l-3.34,3.34a.424.424,0,0,0,.3.72Z" transform="translate(13942.619 811.731)" fill="#d1d3d4"/>
    <g id="Character--inject-5" transform="translate(13853.106 776.4)">
      <path id="Path_3515" data-name="Path 3515" d="M278.272,155.21c-2.645,4.4-5.044,8.79-7.29,13.367-1.119,2.28-2.2,4.586-3.2,6.959s-1.975,4.764-2.806,7.29l-.314.949-.153.483-.17.593c-.212.771-.348,1.475-.475,2.161-.246,1.373-.4,2.687-.526,3.984-.271,2.543-.39,5.086-.483,7.629-.153,5.086-.068,10.07.254,15.122l4.823.212,2.323-14.63c.373-2.424.805-4.823,1.255-7.154.229-1.161.492-2.306.78-3.391a19.131,19.131,0,0,1,1.034-2.941c1.789-4.289,4-8.629,6.281-12.918s4.687-8.6,7.052-12.791Z" transform="translate(-154.527 -112.048)" fill="#a6a6a6"/>
      <path id="Path_3516" data-name="Path 3516" d="M292.342,223.856l-1.7,4.442-5.747-6.044a7.72,7.72,0,0,1,4.238-1.814Z" transform="translate(-178.964 -121.986)" fill="#a6a6a6"/>
      <path id="Path_3517" data-name="Path 3517" d="M291.349,230.768l-4.459-4.62,1.975-3.569,5.747,6.044Z" transform="translate(-182.921 -122.312)" fill="#a6a6a6"/>
      <path id="Path_3518" data-name="Path 3518" d="M237.1,120.629c.119.509.483.848.848.771s.5-.551.373-1.06-.483-.848-.848-.763S236.974,120.129,237.1,120.629Z" transform="translate(-84.435 -106.617)" fill="#263238"/>
      <path id="Path_3519" data-name="Path 3519" d="M233.92,121.84a18.58,18.58,0,0,0,3.458,3.721,2.992,2.992,0,0,1-2.3,1.043Z" transform="translate(-80.788 -106.964)" fill="#a6a6a6"/>
      <path id="Path_3520" data-name="Path 3520" d="M238.768,117.759a.288.288,0,0,1-.212-.076.3.3,0,0,1,0-.424,3.026,3.026,0,0,1,2.543-1.11.308.308,0,0,1-.076.61h0a2.407,2.407,0,0,0-2.017.9.3.3,0,0,1-.237.1Z" transform="translate(-88.628 -106.096)" fill="#263238"/>
      <path id="Path_3521" data-name="Path 3521" d="M236.406,128.32c.924,4.7,1.839,13.325-1.45,16.461,0,0,1.288,4.781,10.028,4.781,9.621,0,4.6-4.781,4.6-4.781-5.255-1.246-5.086-5.145-4.238-8.8Z" transform="translate(-95.183 -107.951)" fill="#a6a6a6"/>
      <path id="Path_3522" data-name="Path 3522" d="M236.329,148.6c-.492-1.772-1.026-3.789.526-4.238,1.7-.517,10.74-.348,13.715,1.212s1.771,4.933,1.771,4.933Z" transform="translate(-97.607 -110.355)"/>
      <path id="Path_3523" data-name="Path 3523" d="M291.424,404.915a2.06,2.06,0,0,0,1.6-.085.619.619,0,0,0,.153-.712.721.721,0,0,0-.4-.449c-.848-.415-2.856.4-2.95.441a.161.161,0,0,0-.093.136.144.144,0,0,0,.093.136,7.477,7.477,0,0,0,1.593.534Zm1.051-.983.178.059a.416.416,0,0,1,.229.263c.085.271,0,.356-.051.382-.348.3-1.628,0-2.543-.339A5,5,0,0,1,292.475,403.932Z" transform="translate(-183.954 -149.885)"/>
      <path id="Path_3524" data-name="Path 3524" d="M291.034,404.086h.068c.729-.212,2.289-1.314,2.306-2.043a.492.492,0,0,0-.39-.492.848.848,0,0,0-.678.051c-.848.441-1.4,2.221-1.424,2.3a.153.153,0,0,0,.042.153.163.163,0,0,0,.076.034Zm1.814-2.28h.068c.186.059.186.153.186.195,0,.432-1.034,1.3-1.788,1.653a3.653,3.653,0,0,1,1.17-1.814.568.568,0,0,1,.364-.034Z" transform="translate(-185.124 -149.573)"/>
      <path id="Path_3525" data-name="Path 3525" d="M235.612,408.6c.848,0,1.619-.119,1.89-.483a.593.593,0,0,0,0-.67.754.754,0,0,0-.483-.356c-1.068-.288-3.314.992-3.39,1.043a.16.16,0,0,0,.051.288A11.864,11.864,0,0,0,235.612,408.6Zm1.017-1.246a1.083,1.083,0,0,1,.3,0,.465.465,0,0,1,.3.212c.11.186.068.28,0,.339-.305.415-1.933.424-3.128.254A6.925,6.925,0,0,1,236.629,407.355Z" transform="translate(-80.708 -150.418)"/>
      <path id="Path_3526" data-name="Path 3526" d="M235.678,408.149h.068c.771-.347,2.314-1.7,2.2-2.467,0-.169-.153-.381-.568-.424a1.119,1.119,0,0,0-.848.263,4.074,4.074,0,0,0-.992,2.475.153.153,0,0,0,.059.144A.163.163,0,0,0,235.678,408.149Zm1.577-2.611h.085c.28,0,.3.136.305.169.068.441-.975,1.526-1.772,2.009a3.6,3.6,0,0,1,.848-1.983.848.848,0,0,1,.534-.2Z" transform="translate(-82.724 -150.144)"/>
      <path id="Path_3527" data-name="Path 3527" d="M238.21,405.811h6.434l.636-14.9h-6.425Z" transform="translate(-92.325 -147.959)" fill="#b55b52"/>
      <path id="Path_3528" data-name="Path 3528" d="M287.31,400.036l6.281,1.365,6.315-13.876-6.289-1.365Z" transform="translate(-188.571 -147.235)" fill="#b55b52"/>
      <path id="Path_3529" data-name="Path 3529" d="M293.468,403.113l-7.069-1.526a.56.56,0,0,0-.627.314l-2.45,5.315a.949.949,0,0,0,.678,1.322c2.475.492,3.7.6,6.781,1.28,1.916.415,6.23,1.466,8.866,2.034s3.552-1.967,2.543-2.433c-4.611-2.11-6.544-3.967-7.79-5.7A1.56,1.56,0,0,0,293.468,403.113Z" transform="translate(-187.804 -149.584)" fill="#263238"/>
      <path id="Path_3530" data-name="Path 3530" d="M229.528,407.61H222.5a.568.568,0,0,0-.551.441l-1.263,5.713a.933.933,0,0,0,.924,1.144c2.543-.042,6.2-.187,9.375-.187,3.73,0,6.942.2,11.316.2,2.636,0,3.391-2.67,2.263-2.916-5.035-1.1-9.138-1.221-13.486-3.9A3.026,3.026,0,0,0,229.528,407.61Z" transform="translate(-77.243 -150.503)" fill="#263238"/>
      <path id="Path_3531" data-name="Path 3531" d="M186.69,161.127c1.738,1.7,3.441,3.085,5.213,4.552s3.594,2.823,5.45,4.179a74.33,74.33,0,0,0,12.079,7.18c.542.263,1.1.5,1.7.721l.848.348.432.17.11.042.178.068.559.178a6.705,6.705,0,0,0,2.543.144,6.543,6.543,0,0,0,2.255-.771,8.112,8.112,0,0,0,2.458-2.2,16.044,16.044,0,0,0,2.077-3.874,32.762,32.762,0,0,0,1.1-3.56,62.724,62.724,0,0,0,1.7-13.732l-4.781-.687a124.778,124.778,0,0,1-4.137,12.045,27.12,27.12,0,0,1-1.255,2.628,7.425,7.425,0,0,1-1.255,1.822c-.153.144-.28.144,0-.042a1.906,1.906,0,0,1,.687-.254,2.474,2.474,0,0,1,.941,0l.169.051h-.076l-.331-.161-.653-.322c-.432-.2-.848-.424-1.305-.678a82.472,82.472,0,0,1-10.307-6.925c-1.7-1.28-3.331-2.619-4.984-3.958s-3.3-2.78-4.815-4.1Z" transform="translate(-28.76 -111.845)" fill="#a6a6a6"/>
      <path id="Path_3532" data-name="Path 3532" d="M272.856,149.425c-6.027,1.382-13.113,23.03-13.113,23.03l10.307,6.781a189.281,189.281,0,0,0,9.977-17.249C283.612,154.426,279.026,148.009,272.856,149.425Z" transform="translate(-146.585 -111.137)" fill="url(#radial-gradient)"/>
      <path id="Path_3533" data-name="Path 3533" d="M264.426,162.52c.526-.687,1.958.848,3.035,2.874-1.492,2.958-3.391,6.23-5.086,9.027C261.366,169.013,263.07,164.258,264.426,162.52Z" transform="translate(-134.731 -113.136)" opacity="0.3"/>
      <path id="Path_3534" data-name="Path 3534" d="M259.483,149.489s6.849,7.739.381,55.605H225.459c-.237-5.281,3.077-31.049-2.017-55.944a89.534,89.534,0,0,1,11.519-1.458,127.535,127.535,0,0,1,14.63,0A64.475,64.475,0,0,1,259.483,149.489Z" transform="translate(-97.171 -110.871)" fill="url(#radial-gradient)"/>
      <path id="Path_3535" data-name="Path 3535" d="M230.481,165.085a140.321,140.321,0,0,1,0,17.173c-2.6-4.357-6.468-12.418-7.061-18.868Z" transform="translate(-65.252 -113.294)" opacity="0.3"/>
      <path id="Path_3536" data-name="Path 3536" d="M203.813,155.912c-.314,8.858,26.226,20.055,26.226,20.055l7.137-11.206s-10.824-6.646-16.215-12.494C214.3,145.045,204.05,149.165,203.813,155.912Z" transform="translate(-55.063 -111.021)" fill="url(#radial-gradient)"/>
      <path id="Path_3537" data-name="Path 3537" d="M206.531,165.619c-1.331,2.823-4.331,8.985-6,11.019a.737.737,0,0,0,.093,1.017c1.2,1.068,3.535,2.416,4.662,2.178,1.331-.288,8.663-10.333,8.349-11.706-.22-.932-3.128-2.45-4.95-3.314a1.619,1.619,0,0,0-2.153.805Z" transform="translate(-28.613 -113.489)"/>
      <path id="Path_3538" data-name="Path 3538" d="M283.809,178.163c-2.8-1.4-8.883-4.552-10.909-6.264a.737.737,0,0,0-1.017.068c-1.093,1.178-2.5,3.475-2.289,4.6.246,1.339,10.112,8.917,11.494,8.629.941-.195,2.543-3.06,3.433-4.865a1.611,1.611,0,0,0-.712-2.17Z" transform="translate(-158.327 -114.565)"/>
      <path id="Path_3539" data-name="Path 3539" d="M188.167,153.77l-2.619-6.264,6.781-1.856s3.051,4.789.28,8.57Z" transform="translate(3.822 -110.592)" fill="#a6a6a6"/>
      <path id="Path_3540" data-name="Path 3540" d="M187.825,139.617l4.086-2.687,2.119,7.391-6.79,1.856Z" transform="translate(2.129 -109.263)" fill="#a6a6a6"/>
      <path id="Path_3541" data-name="Path 3541" d="M244.974,390.92l-.322,7.68H238.21l.331-7.68Z" transform="translate(-92.02 -147.96)" opacity="0.2"/>
      <path id="Path_3542" data-name="Path 3542" d="M290.565,386.17l6.29,1.356L293.6,394.68l-6.289-1.365Z" transform="translate(-185.519 -147.237)" opacity="0.2"/>
      <path id="Path_3543" data-name="Path 3543" d="M236.27,122.338c1.89,6.1,2.687,9.765,6.586,12.181,5.866,3.636,12.816-1.06,12.791-7.629,0-5.933-3.1-14.876-9.765-15.868a8.714,8.714,0,0,0-9.612,11.316Z" transform="translate(-100.684 -105.3)" fill="#d9d9d9"/>
      <path id="Path_3544" data-name="Path 3544" d="M258.338,121.135c0-.348,1.45-3.848.72-5.213-1.7-3.128-10.7.636-13.088,1.933-3.077,1.7-6.213,4.6-3.391,6.781,2.662,2.077,4.84,8.129,6.832,8.985s5.883.093,6.908-1.39S260.457,124.28,258.338,121.135Z" transform="translate(-109.079 -105.878)" fill="#263238"/>
      <path id="Path_3545" data-name="Path 3545" d="M260.835,113.283c2.221-.1,4.238-1.873,2.89-4.459a4.526,4.526,0,0,0-3.992-2.475s2.077,1.7-2.263,2.06-3.569-3.068-2.3-4.12c-2.187.559-4.857,1.653-4.984,3.975s-5.255,4.077-4.942,1.348c0,0-4.06,3.67-.848,4.8s-5.535,2.28-5.255,4.789c.712-.3,3.5-.932,2.9,1.314s1.449,3.391,4.594,2.662S257.377,118,260.835,113.283Z" transform="translate(-111.991 -104.29)" fill="#263238"/>
      <path id="Path_3546" data-name="Path 3546" d="M239.7,122.945a5.849,5.849,0,0,0,2.873,3.874c1.873.907,2.916.11,2.857-1.789-.051-1.7-.966-4.442-2.8-5S239.374,121.064,239.7,122.945Z" transform="translate(-93.709 -106.671)" fill="#a6a6a6"/>
      <path id="Path_3547" data-name="Path 3547" d="M291.8,215.445s-7.3,49.163-11.308,67.574c-4.391,20.174-27.853,84.824-27.853,84.824l-11.519-2.492s17.572-60.53,20.072-80.526c2.721-21.674,8.409-69.4,8.409-69.4Z" transform="translate(-141.313 -121.222)"/>
      <path id="Path_3548" data-name="Path 3548" d="M299.116,388.694c.042,0-2.467,5.484-2.467,5.484l-12.96-2.806,1.416-5.213Z" transform="translate(-184.713 -147.235)" fill="#263238"/>
      <path id="Path_3549" data-name="Path 3549" d="M251.448,236.1c-8.476,1.653-7.552,33.134-6.535,49.324,2.433-11.443,6-33.465,8.476-49.1A2.916,2.916,0,0,0,251.448,236.1Z" transform="translate(-105.572 -124.361)" opacity="0.3"/>
      <path id="Path_3550" data-name="Path 3550" d="M248.775,215.45s.848,48.1.186,67.71c-.729,20.4-7.858,87.214-7.858,87.214H230.212s-.407-65.616-.848-85.654c-.525-21.844-3.162-69.269-3.162-69.269Z" transform="translate(-86.081 -121.226)"/>
      <path id="Path_3551" data-name="Path 3551" d="M247.519,391.54c.051,0-.619,5.849-.619,5.849H233.643l-.356-5.366Z" transform="translate(-90.394 -148.055)" fill="#263238"/>
      <rect id="Rectangle_26083" data-name="Rectangle 26083" width="57.267" height="90.342" rx="12" transform="translate(54.42 254.968) rotate(-161.86)" fill="#72bf44"/>
      <path id="Path_3552" data-name="Path 3552" d="M369.511,384.949A11.062,11.062,0,0,0,380,377.38l21.793-66.514a11.02,11.02,0,0,0-7.035-13.91L359.67,285.461a11.019,11.019,0,0,0-13.91,7.044l-21.793,66.514a11.019,11.019,0,0,0,7.044,13.9l35.084,11.494A10.79,10.79,0,0,0,369.511,384.949Zm-13.266-98.326a9.375,9.375,0,0,1,2.89.466l35.084,11.46a9.324,9.324,0,0,1,5.934,11.765L378.36,376.837a9.324,9.324,0,0,1-11.765,5.934l-35.1-11.477a9.324,9.324,0,0,1-5.933-11.765l21.793-66.514a9.324,9.324,0,0,1,4.653-5.408,9.435,9.435,0,0,1,4.238-1.017Zm38.237,11.155Z" transform="translate(-321.613 -131.809)" fill="#263238"/>
      <path id="Path_3553" data-name="Path 3553" d="M298.507,294.51a.848.848,0,0,0,.805-.585l19.792-60.4a11.019,11.019,0,0,0-4.5-12.715,2.89,2.89,0,0,0-2.543-.288,2.95,2.95,0,0,0-1.822,1.865L288.1,289.958a.848.848,0,1,0,1.611.526l22.191-67.54a1.221,1.221,0,0,1,.78-.8,1.17,1.17,0,0,1,1.034.11A9.324,9.324,0,0,1,317.528,233l-19.792,60.394a.848.848,0,0,0,.542,1.076A.894.894,0,0,0,298.507,294.51Z" transform="translate(-208.947 -121.972)" fill="#263238"/>
      <path id="Path_3554" data-name="Path 3554" d="M336.82,408.784a5.476,5.476,0,1,1,1.6,3.877A5.484,5.484,0,0,1,336.82,408.784Z" transform="translate(-278.42 -149.847)" fill="#263238"/>
      <path id="Path_3555" data-name="Path 3555" d="M355.41,405.9a5.476,5.476,0,1,1,5.476,5.476A5.476,5.476,0,0,1,355.41,405.9Z" transform="translate(-312.75 -149.408)" fill="#263238"/>
      <rect id="Rectangle_26084" data-name="Rectangle 26084" width="57.267" height="90.342" rx="12" transform="translate(68.3 259.522) rotate(-161.86)"/>
      <path id="Path_3556" data-name="Path 3556" d="M353.136,390.316a11.1,11.1,0,0,0,10.485-7.587l21.793-66.523a11.019,11.019,0,0,0-7.044-13.9l-35.084-11.494a11.019,11.019,0,0,0-13.9,7.035l-21.793,66.523a11.019,11.019,0,0,0,7.035,13.9l35.084,11.494A10.847,10.847,0,0,0,353.136,390.316Zm24.972-87.205-.263.805a9.324,9.324,0,0,1,5.934,11.765L361.985,382.2a9.324,9.324,0,0,1-11.765,5.933l-35.084-11.494A9.324,9.324,0,0,1,309.2,364.87L331,298.355a9.324,9.324,0,0,1,11.765-5.933l35.084,11.494Z" transform="translate(-291.353 -132.624)" fill="#263238"/>
      <rect id="Rectangle_26085" data-name="Rectangle 26085" width="47.926" height="18.711" transform="translate(75.517 224.326) rotate(-161.928)" fill="#72bf44" opacity="0.2"/>
      <ellipse id="Ellipse_1264" data-name="Ellipse 1264" cx="7.307" cy="7.307" rx="7.307" ry="7.307" transform="translate(47.19 186.511) rotate(-96.44)" fill="#fff"/>
      <path id="Path_3557" data-name="Path 3557" d="M344.581,336.864,346.81,347.5a2.9,2.9,0,0,1-3.738,3.348l-10.324-3.391a2.9,2.9,0,0,1-1.034-4.916l8.095-7.256a2.9,2.9,0,0,1,4.772,1.577Z" transform="translate(-272.356 -139.372)" fill="#fff"/>
      <rect id="Rectangle_26086" data-name="Rectangle 26086" width="7.205" height="21.615" rx="2.6" transform="translate(29.051 240.057) rotate(-90.59)" fill="#fff"/>
    </g>
  </g>
</svg>
