<svg xmlns="http://www.w3.org/2000/svg" width="177.78" height="159.019" viewBox="0 0 177.78 159.019">
  <g id="Make_it_rain-pana" data-name="Make it rain-pana" transform="translate(-23.57 -55.02)">
    <g id="Floor--inject-103" transform="translate(23.57 213.831)">
      <path id="Path_4181" data-name="Path 4181" d="M201.35,459.662c0,.059-39.8.106-88.886.106s-88.894-.035-88.894-.106,39.791-.1,88.894-.1S201.35,459.607,201.35,459.662Z" transform="translate(-23.57 -459.56)" fill="#263238"/>
    </g>
    <g id="Character--inject-103" transform="translate(30.493 112.614)">
      <path id="Path_4182" data-name="Path 4182" d="M224.712,216.891a21.688,21.688,0,0,1-1.4-4.02,7.255,7.255,0,0,1,.247-4.2,4.4,4.4,0,0,1,3.074-2.7,16.842,16.842,0,0,0,2.607-.33,7.72,7.72,0,0,0,2.332-1.924,7.427,7.427,0,0,1,4.259-1.939,4.4,4.4,0,0,1,2.442.353,2.477,2.477,0,0,1,1.4,1.935,11.777,11.777,0,0,1,2.984-.718,3.953,3.953,0,0,1,2.874.852,2.41,2.41,0,0,1,.663,2.779,1.963,1.963,0,0,1,2.528.714,2.532,2.532,0,0,1-.161,2.748,4.711,4.711,0,0,1-2.823,1.621,6.838,6.838,0,0,1-2.987-.082" transform="translate(-151.699 -201.73)" fill="#263238"/>
      <path id="Path_4183" data-name="Path 4183" d="M229.7,255.132l13.74-1.1c.086-1.606-.027-7.812-.027-7.812s5.716-.891,5.786-6.607-.919-18.843-.919-18.843h0a19.868,19.868,0,0,0-19.966,2.509l-.848.652Z" transform="translate(-154.348 -212.314)" fill="#b78876"/>
      <path id="Path_4184" data-name="Path 4184" d="M256.579,284.61a13.293,13.293,0,0,1-7.459-2.12s1.763,4.114,7.459,3.6Z" transform="translate(-167.498 -250.786)" fill="#aa6550"/>
      <path id="Path_4185" data-name="Path 4185" d="M223.385,246.124c-.094-.043-3.926-1.178-3.8,2.748s4.02,2.98,4.024,2.866S223.385,246.124,223.385,246.124Z" transform="translate(-149.556 -228.584)" fill="#b78876"/>
      <path id="Path_4186" data-name="Path 4186" d="M223.866,252.244a1.693,1.693,0,0,1-.181.106.675.675,0,0,1-.506.024,1.685,1.685,0,0,1-.828-1.484,2.258,2.258,0,0,1,.157-.981.785.785,0,0,1,.5-.538.349.349,0,0,1,.393.173c.055.106.031.185.051.192s.082-.071.047-.228a.448.448,0,0,0-.161-.243.534.534,0,0,0-.393-.086.962.962,0,0,0-.691.628,2.277,2.277,0,0,0-.2,1.1,1.766,1.766,0,0,0,1.044,1.657.722.722,0,0,0,.62-.126C223.862,252.35,223.881,252.244,223.866,252.244Z" transform="translate(-151.053 -230.547)" fill="#aa6550"/>
      <path id="Path_4187" data-name="Path 4187" d="M273.2,244.694a.817.817,0,0,1-.785.82.785.785,0,0,1-.844-.734.817.817,0,0,1,.785-.824.785.785,0,0,1,.844.738Z" transform="translate(-181.135 -227.378)" fill="#263238"/>
      <path id="Path_4188" data-name="Path 4188" d="M272.721,242.432c-.1.11-.718-.349-1.6-.345s-1.523.44-1.617.334.055-.239.338-.448a2.246,2.246,0,0,1,1.3-.393,2.183,2.183,0,0,1,1.272.393C272.678,242.192,272.772,242.384,272.721,242.432Z" transform="translate(-179.865 -225.936)" fill="#263238"/>
      <path id="Path_4189" data-name="Path 4189" d="M251.2,244.694a.817.817,0,0,1-.785.82.785.785,0,0,1-.844-.734.817.817,0,0,1,.785-.824.785.785,0,0,1,.844.738Z" transform="translate(-167.772 -227.378)" fill="#263238"/>
      <path id="Path_4190" data-name="Path 4190" d="M250.748,242.851c-.1.106-.718-.349-1.6-.349s-1.523.444-1.617.334c-.047-.047.055-.24.338-.444a2.218,2.218,0,0,1,1.3-.393,2.155,2.155,0,0,1,1.272.393C250.7,242.612,250.8,242.8,250.748,242.851Z" transform="translate(-166.528 -226.191)" fill="#263238"/>
      <path id="Path_4191" data-name="Path 4191" d="M263.226,249.441a5.741,5.741,0,0,1,1.429-.259c.224-.024.436-.067.475-.22a1.177,1.177,0,0,0-.149-.663l-.663-1.712a29.3,29.3,0,0,1-1.492-4.467,29.658,29.658,0,0,1,1.845,4.318q.334.9.636,1.719a1.292,1.292,0,0,1,.118.879.565.565,0,0,1-.369.33,1.438,1.438,0,0,1-.393.051A5.567,5.567,0,0,1,263.226,249.441Z" transform="translate(-175.817 -226.263)" fill="#263238"/>
      <path id="Path_4192" data-name="Path 4192" d="M257.056,262.32c.141,0,.145.942.962,1.621s1.829.573,1.837.707c0,.059-.228.184-.656.2a2.383,2.383,0,0,1-1.535-.538,2.069,2.069,0,0,1-.746-1.358C256.884,262.547,256.99,262.312,257.056,262.32Z" transform="translate(-172.232 -238.534)" fill="#263238"/>
      <path id="Path_4193" data-name="Path 4193" d="M272.287,238.439c-.157.2-.762,0-1.488,0s-1.347.133-1.488-.075c-.063-.1.035-.3.306-.491a2.155,2.155,0,0,1,2.395.075C272.272,238.117,272.354,238.341,272.287,238.439Z" transform="translate(-179.752 -223.486)" fill="#263238"/>
      <path id="Path_4194" data-name="Path 4194" d="M247.506,234.273c-.1.11-.322.063-.616,0a5.437,5.437,0,0,0-2.175-.071c-.3.035-.526.067-.616-.047s0-.357.306-.608a2.312,2.312,0,0,1,2.838.094C247.529,233.92,247.6,234.175,247.506,234.273Z" transform="translate(-164.428 -220.789)" fill="#263238"/>
      <path id="Path_4195" data-name="Path 4195" d="M247.5,219.746a13.414,13.414,0,0,1-8.33-.424c-2.964-1.123-6.32-1.476-6.988-.836s-.526,3.561-3.235,4.691c0,0,.754,5.523-1.476,5.547s-1.716-8.7-1.716-8.7l5.139-3.188,5.779-1.7,5.527-.557,5.3,1.06Z" transform="translate(-153.272 -209.535)" fill="#263238"/>
      <path id="Path_4196" data-name="Path 4196" d="M302.545,320.528s9.956,10.25,13.465,8.727c9.543-4.122,17.3-12.853,19.97-15.982.114-.589.228-1.28.326-2.1a6.283,6.283,0,0,0-.118-2.132,9.707,9.707,0,0,0-.84-2.536c-.436-.7.192-1.547.879-1.26a6.773,6.773,0,0,1,2.7,4.758,1.072,1.072,0,0,0,1.484.679c1.727-.569,7.6-2.846,8.636-3.089.93-.216,2.041-.161,1.421.518a49.4,49.4,0,0,1-4.946,3.211s5.606-3.431,6.069-2.591c.318.581-.864,1.916-4.8,3.816,0,0,4.64-2.791,5.433-2.7,1.782.208-3.769,3.623-3.769,3.623,3.926-2.355,3.726-2.516,4.15-2.057.318.342-.369,1.123-2.3,2.693-1.57,1.276-2.929,2.909-5.206,4.978h0s-23.554,32.76-38.374,22.706c-7.989-5.421-10.183-8.154-14.717-12.26" transform="translate(-193.557 -264.571)" fill="#b78876"/>
      <path id="Path_4197" data-name="Path 4197" d="M429.877,324.787a23.472,23.472,0,0,0,5.272-3.36,12.006,12.006,0,0,0-2.748,1.507A12.717,12.717,0,0,0,429.877,324.787Z" transform="translate(-277.294 -274.432)" fill="#aa6550"/>
      <path id="Path_4198" data-name="Path 4198" d="M427.166,321.416a13.729,13.729,0,0,0,3.019-1.441,13.544,13.544,0,0,0,2.815-1.8,13.613,13.613,0,0,0-3.019,1.441A13.037,13.037,0,0,0,427.166,321.416Z" transform="translate(-275.647 -272.455)" fill="#aa6550"/>
      <path id="Path_4199" data-name="Path 4199" d="M424.377,318.061a12.138,12.138,0,0,0,2.878-1.311,11.38,11.38,0,0,0,2.681-1.68,11.557,11.557,0,0,0-2.878,1.311A12.02,12.02,0,0,0,424.377,318.061Z" transform="translate(-273.954 -270.568)" fill="#aa6550"/>
      <path id="Path_4200" data-name="Path 4200" d="M91.252,363.871s-5.017,13.379-8.841,13.391c-10.4.031-21-4.848-24.7-6.646-.338-.495-.722-1.083-1.142-1.8a6.367,6.367,0,0,1-.746-2,9.924,9.924,0,0,1-.243-2.662.8.8,0,0,0-1.311-.785,6.735,6.735,0,0,0-.573,5.445,1.072,1.072,0,0,1-1.087,1.217c-1.81.169-8.1.432-9.155.628-.938.177-1.935.671-1.1,1.044a35.262,35.262,0,0,0,4.891.844c-1.8-.2-5.606-.554-5.669.173-.039.428.628.891,2.273,1.209A6.959,6.959,0,0,0,41.45,374c-1.57.9,4.9,1.806,4.9,1.806-4.53-.593-4.424-.809-4.628-.22-.153.44.785.883,3.184,1.57,1.963.542,3.847,1.488,6.764,2.473,0,0,34.711,20.579,44.255,5.433,5.147-8.165,6.065-11.549,8.574-17.132Z" transform="translate(-41.204 -299.776)" fill="#b78876"/>
      <path id="Path_4201" data-name="Path 4201" d="M51.654,394.848a11.549,11.549,0,0,1-3.141-.279,12.068,12.068,0,0,1-3.054-.687,11.5,11.5,0,0,1,3.141.279A12.429,12.429,0,0,1,51.654,394.848Z" transform="translate(-43.789 -318.422)" fill="#aa6550"/>
      <path id="Path_4202" data-name="Path 4202" d="M52.012,390.914a13.593,13.593,0,0,1-3.341-.106,12.387,12.387,0,0,1-3.3-.526,12.638,12.638,0,0,1,3.341.11A14.475,14.475,0,0,1,52.012,390.914Z" transform="translate(-43.735 -316.22)" fill="#aa6550"/>
      <path id="Path_4203" data-name="Path 4203" d="M53.595,386.592a12.045,12.045,0,0,1-3.164-.051,12.643,12.643,0,0,1-3.141-.463,12.253,12.253,0,0,1,3.164.051A12.344,12.344,0,0,1,53.595,386.592Z" transform="translate(-44.901 -313.665)" fill="#aa6550"/>
      <path id="Path_4204" data-name="Path 4204" d="M227.568,327.6l-16.421-18.325c-4.573-4.495-7.015-5.838-13.379-6.591-1.04-.122-1.869-.2-2.461-.275a24.308,24.308,0,0,1-14.655,0h0a35.568,35.568,0,0,0-6.065,1.178c-6.069,1.178-10.435,5.582-11.648,9.661h0L149.25,339.987l11.561,9.716,10.56-16.763.644,17.842-.656,13.347,40.533.118-1.841-31.3,10.91,8.88Z" transform="translate(-106.834 -262.886)" fill="#72bf44"/>
      <path id="Path_4205" data-name="Path 4205" d="M205.763,351.57a2.52,2.52,0,0,1,.051.6c0,.393.027.934.039,1.621,0,1.366.027,3.258,0,5.347s-.035,3.981-.067,5.347c0,.687-.035,1.24-.051,1.621a2.4,2.4,0,0,1-.059.593,2.355,2.355,0,0,1-.055-.593c0-.393-.027-.938-.039-1.621-.02-1.37-.027-3.258,0-5.351s.035-3.977.067-5.347c0-.683.035-1.237.055-1.621A2.214,2.214,0,0,1,205.763,351.57Z" transform="translate(-141.042 -292.747)" fill="#263238"/>
      <path id="Path_4206" data-name="Path 4206" d="M303.293,373.688a6.058,6.058,0,0,1-.118-.919c-.059-.644-.134-1.492-.228-2.512-.177-2.124-.393-5.06-.628-8.3s-.424-6.163-.55-8.287c-.051-1.025-.1-1.877-.13-2.52a5.577,5.577,0,0,1,0-.926,5.678,5.678,0,0,1,.122.919c.059.644.133,1.492.224,2.512.177,2.124.393,5.06.632,8.3s.42,6.179.546,8.307c.055,1.025.1,1.876.133,2.52A5.8,5.8,0,0,1,303.293,373.688Z" transform="translate(-199.389 -291.927)" fill="#263238"/>
      <g id="Group_11470" data-name="Group 11470" transform="translate(54.954 52.455)" opacity="0.3">
        <path id="Path_4207" data-name="Path 4207" d="M236.15,335.452c0,.055-12.3.1-27.48.1s-27.48-.047-27.48-.1,12.3-.1,27.48-.1S236.15,335.393,236.15,335.452Z" transform="translate(-181.19 -335.35)" fill="#ebebeb"/>
      </g>
      <g id="Group_11471" data-name="Group 11471" transform="translate(47.213 68.739)" opacity="0.3">
        <path id="Path_4208" data-name="Path 4208" d="M228.415,376.932c0,.059-14.988.1-33.471.1s-33.474-.043-33.474-.1,14.984-.1,33.474-.1S228.415,376.9,228.415,376.932Z" transform="translate(-161.47 -376.83)" fill="#ebebeb"/>
      </g>
      <g id="Group_11472" data-name="Group 11472" transform="translate(65.353 87.308)" opacity="0.3">
        <path id="Path_4209" data-name="Path 4209" d="M246.56,424.232c0,.059-8.7.1-19.44.1s-19.44-.043-19.44-.1,8.7-.1,19.44-.1S246.56,424.177,246.56,424.232Z" transform="translate(-207.68 -424.13)" fill="#ebebeb"/>
      </g>
      <g id="Group_11473" data-name="Group 11473" transform="translate(69.601 40.227)" opacity="0.3">
        <path id="Path_4210" data-name="Path 4210" d="M218.6,365.292c-.055,0-.1-13.677-.1-30.542s.047-30.55.1-30.55.094,13.661.094,30.542S218.661,365.292,218.6,365.292Z" transform="translate(-218.5 -304.2)" fill="#ebebeb"/>
      </g>
      <g id="Group_11474" data-name="Group 11474" transform="translate(92.794 40.062)" opacity="0.3">
        <path id="Path_4211" data-name="Path 4211" d="M277.98,365.041v-.624c0-.416,0-1.017-.02-1.782,0-1.57-.031-3.8-.051-6.564-.051-5.555-.122-13.206-.2-21.658s-.13-16.119-.133-21.662v-6.564c0-.785,0-1.366.02-1.782v-.467a.833.833,0,0,1,0-.157v.624c0,.416,0,1.017.02,1.782,0,1.57.031,3.8.051,6.564.051,5.551.122,13.206.2,21.662s.13,16.1.134,21.654v8.817A.835.835,0,0,1,277.98,365.041Z" transform="translate(-277.58 -303.78)" fill="#ebebeb"/>
      </g>
      <g id="Group_11475" data-name="Group 11475" transform="translate(109.71 53.119)" opacity="0.3">
        <path id="Path_4212" data-name="Path 4212" d="M320.772,359.134c-.055,0-.1-4.946-.1-11.047s.047-11.047.1-11.047.1,4.942.1,11.047S320.831,359.134,320.772,359.134Z" transform="translate(-320.67 -337.04)" fill="#ebebeb"/>
      </g>
      <g id="Group_11476" data-name="Group 11476" transform="translate(51.213 58.897)" opacity="0.3">
        <path id="Path_4213" data-name="Path 4213" d="M171.762,372.6c-.059,0-.1-4.664-.1-10.419s.043-10.423.1-10.423.1,4.664.1,10.423S171.817,372.6,171.762,372.6Z" transform="translate(-171.66 -351.76)" fill="#ebebeb"/>
      </g>
      <path id="Path_4214" data-name="Path 4214" d="M225.38,296.5l2.238-4.7,7.329,5.166,7.231-4.86,2.544,4.13-7.247,4.711h-4.844l-7.251-3.9" transform="translate(-153.078 -256.441)" fill="#070707"/>
      <path id="Path_4215" data-name="Path 4215" d="M235.1,303.676a.547.547,0,0,1-.137.039,1.46,1.46,0,0,0-.393.106,2.3,2.3,0,0,0-1.091.922,11.711,11.711,0,0,0-1.009,1.963c-.173.393-.345.785-.565,1.205a4.5,4.5,0,0,1-.844,1.178l-.071.067-.071-.075-.416-.432c-1.453-1.523-2.689-2.972-3.533-4.047-.432-.538-.785-.977-1-1.288a3,3,0,0,1-.338-.495,3.016,3.016,0,0,1,.393.444l1.044,1.248c.887,1.048,2.14,2.481,3.584,4l.416.432h-.141a4.184,4.184,0,0,0,.809-1.127c.216-.393.393-.8.569-1.178a11.175,11.175,0,0,1,1.064-1.963,2.309,2.309,0,0,1,1.178-.915,1.313,1.313,0,0,1,.393-.071C235.054,303.652,235.1,303.652,235.1,303.676Z" transform="translate(-153.236 -263.135)" fill="#263238"/>
      <path id="Path_4216" data-name="Path 4216" d="M259.42,303.33a2.749,2.749,0,0,1-.357.471c-.247.294-.609.711-1.08,1.2a29.176,29.176,0,0,1-4.04,3.47c-.318.224-.636.44-.942.64l-.141.09v-.173a9.225,9.225,0,0,0-.6-2.41,6.179,6.179,0,0,0-.97-1.735,2.407,2.407,0,0,0-1.04-.785c-.291-.1-.467-.11-.463-.129s.043,0,.126,0a1.394,1.394,0,0,1,.361.059,2.4,2.4,0,0,1,1.119.766,6.1,6.1,0,0,1,1.036,1.759,9.315,9.315,0,0,1,.632,2.469l-.157-.078c.3-.2.616-.416.934-.64a32.6,32.6,0,0,0,4.051-3.4c.487-.475.864-.875,1.127-1.15A3.46,3.46,0,0,1,259.42,303.33Z" transform="translate(-167.905 -263.445)" fill="#263238"/>
      <path id="Path_4217" data-name="Path 4217" d="M252.585,366.28v-.616c0-.412,0-1.005-.024-1.763,0-1.543-.043-3.757-.079-6.489-.079-5.476-.255-13.041-.636-21.391s-.907-15.9-1.327-21.36c-.22-2.724-.393-4.931-.518-6.47-.059-.754-.106-1.343-.141-1.755,0-.2-.023-.345-.027-.459a.682.682,0,0,1,0-.157.77.77,0,0,0,.024.153c.024.1.027.267.051.459.043.412.1,1,.177,1.755.153,1.523.353,3.729.585,6.462.459,5.457,1,13.01,1.386,21.364s.534,15.919.577,21.4c.024,2.748.024,4.958,0,6.489v2.222A.834.834,0,0,1,252.585,366.28Z" transform="translate(-167.929 -264.957)" fill="#263238"/>
      <g id="Group_11477" data-name="Group 11477" transform="translate(81.696 40.529)" opacity="0.2">
        <path id="Path_4218" data-name="Path 4218" d="M249.31,304.982a2.979,2.979,0,0,1,1.225,2.654c0,1.021-.24,2.041-.153,3.062a1.739,1.739,0,0,0,.683,1.386c.62.393,1.409.024,2.045-.326a17.279,17.279,0,0,0,3.867-2.607,5.583,5.583,0,0,0,1.57-4.181,43.46,43.46,0,0,1-5.845,4.837,8.536,8.536,0,0,0-1.036-3.058c-.534-.926-1.292-1.884-2.355-1.766" transform="translate(-249.31 -304.97)"/>
      </g>
      <g id="Group_11478" data-name="Group 11478" transform="translate(74.964 41.09)" opacity="0.2">
        <path id="Path_4219" data-name="Path 4219" d="M232.16,308.174a10.952,10.952,0,0,0,2.622,3.718,1.634,1.634,0,0,0,1.861.345,1.886,1.886,0,0,0,.554-1.48c.094-1.382.5-2.972.6-4.358-1.1,1.237-1.7,3.415-2.85,4.911a11.76,11.76,0,0,1-2.7-3.113" transform="translate(-232.16 -306.4)"/>
      </g>
      <g id="Group_11479" data-name="Group 11479" transform="translate(102.883 65.701)" opacity="0.2">
        <path id="Path_4220" data-name="Path 4220" d="M311.021,379.261l5.469-10.172c-1.617.161-2.7,1.688-3.533,3.086s-1.845,2.948-3.451,3.227a4.849,4.849,0,0,1-3.2-.887A10.594,10.594,0,0,0,303.28,373Z" transform="translate(-303.28 -369.09)"/>
      </g>
      <g id="Group_11480" data-name="Group 11480" transform="translate(47.637 73.124)" opacity="0.2">
        <path id="Path_4221" data-name="Path 4221" d="M177.5,388s-3.808,4.008-6.375,4.6a9.339,9.339,0,0,1-7.506-1.57,1.406,1.406,0,0,0-.569-.3.428.428,0,0,0-.5.306.62.62,0,0,0,.267.483q3.926,3.655,8.181,6.956Z" transform="translate(-162.55 -388)"/>
      </g>
      <g id="Group_11481" data-name="Group 11481" transform="translate(77.651 45.801)" opacity="0.2">
        <path id="Path_4222" data-name="Path 4222" d="M241.874,318.4q-2.167,17.309-2.83,34.758a13.668,13.668,0,0,0,.534,5.39,13.879,13.879,0,0,0,3.926,4.931c.663.612,1.57,1.272,2.379.891a2.218,2.218,0,0,0,.766-.714,11.2,11.2,0,0,0,2.265-4.193c1.138-4.891-3.478-9.732-2.438-14.647" transform="translate(-239.007 -318.4)"/>
      </g>
      <path id="Path_4223" data-name="Path 4223" d="M243.738,308.03l3.466-.09.926,1.865-1.111,3.117h-2.83l-1.5-2.791Z" transform="translate(-163.593 -266.245)" fill="#455a64"/>
      <path id="Path_4224" data-name="Path 4224" d="M244,320.63,242.38,360.3l4.711,5.123,4.354-6.187-4.613-38.609Z" transform="translate(-163.404 -273.953)" fill="#455a64"/>
      <path id="Path_4225" data-name="Path 4225" d="M249.248,320.453a6.809,6.809,0,0,1-1.311,0,6.739,6.739,0,0,1-1.307-.043,4.786,4.786,0,0,1,2.618.043Z" transform="translate(-165.986 -273.721)" fill="#263238"/>
      <path id="Path_4226" data-name="Path 4226" d="M249.125,309.648a2.358,2.358,0,0,1-.44.6,9.693,9.693,0,0,1-1.3,1.233,9.846,9.846,0,0,1-1.5.981,2.228,2.228,0,0,1-.687.291c-.027-.055.978-.573,2.057-1.433S249.078,309.6,249.125,309.648Z" transform="translate(-165.116 -267.281)" fill="#263238"/>
      <path id="Path_4227" data-name="Path 4227" d="M249.343,330.5a15.354,15.354,0,0,1-1.692,1.822A15.006,15.006,0,0,1,245.81,334a15.2,15.2,0,0,1,1.7-1.822A14.818,14.818,0,0,1,249.343,330.5Z" transform="translate(-165.488 -279.949)" fill="#263238"/>
      <path id="Path_4228" data-name="Path 4228" d="M249.334,337.78a38.383,38.383,0,0,1-3.934,3.894,18.841,18.841,0,0,1,1.9-2.022A18.632,18.632,0,0,1,249.334,337.78Z" transform="translate(-165.239 -284.371)" fill="#ebebeb"/>
      <path id="Path_4229" data-name="Path 4229" d="M249.5,344.5a25.243,25.243,0,0,1-2.206,2.332,25.671,25.671,0,0,1-2.355,2.191,24.987,24.987,0,0,1,2.206-2.336A24.618,24.618,0,0,1,249.5,344.5Z" transform="translate(-164.959 -288.453)" fill="#263238"/>
      <path id="Path_4230" data-name="Path 4230" d="M249.684,351.58a31.056,31.056,0,0,1-2.406,2.536,30.611,30.611,0,0,1-2.548,2.387,29.441,29.441,0,0,1,2.4-2.532A29.968,29.968,0,0,1,249.684,351.58Z" transform="translate(-164.832 -292.753)" fill="#ebebeb"/>
      <path id="Path_4231" data-name="Path 4231" d="M249.827,358.71a35.634,35.634,0,0,1-2.6,2.724,34.012,34.012,0,0,1-2.748,2.583,35.244,35.244,0,0,1,2.6-2.748,33.5,33.5,0,0,1,2.748-2.559Z" transform="translate(-164.68 -297.084)" fill="#263238"/>
      <path id="Path_4232" data-name="Path 4232" d="M249.925,365.679c.043.039-1.241,1.378-2.858,2.991a41.007,41.007,0,0,1-3.007,2.846,84.532,84.532,0,0,1,5.865-5.838Z" transform="translate(-164.425 -301.317)" fill="#ebebeb"/>
      <path id="Path_4233" data-name="Path 4233" d="M250.018,372.8c.039.039-1.339,1.472-3.074,3.2s-3.176,3.093-3.215,3.054,1.335-1.472,3.07-3.2S249.974,372.759,250.018,372.8Z" transform="translate(-164.223 -305.642)" fill="#263238"/>
      <path id="Path_4234" data-name="Path 4234" d="M250.242,379.8c.039.039-1.433,1.57-3.286,3.411s-3.388,3.305-3.427,3.266,1.429-1.57,3.286-3.411S250.2,379.76,250.242,379.8Z" transform="translate(-164.102 -309.894)" fill="#ebebeb"/>
      <path id="Path_4235" data-name="Path 4235" d="M250.154,387.118c.039.039-1.523,1.661-3.49,3.616s-3.592,3.513-3.635,3.474,1.523-1.661,3.49-3.616S250.115,387.071,250.154,387.118Z" transform="translate(-163.798 -314.34)" fill="#263238"/>
      <path id="Path_4236" data-name="Path 4236" d="M250.523,394c.039.039-1.61,1.747-3.682,3.812s-3.792,3.71-3.831,3.671,1.61-1.747,3.686-3.816S250.483,393.968,250.523,394Z" transform="translate(-163.786 -318.52)" fill="#ebebeb"/>
      <path id="Path_4237" data-name="Path 4237" d="M250.71,400.359c.039.043-1.806,1.943-4.118,4.248s-4.224,4.146-4.263,4.106,1.8-1.943,4.118-4.252S250.671,400.32,250.71,400.359Z" transform="translate(-163.373 -322.383)" fill="#263238"/>
      <path id="Path_4238" data-name="Path 4238" d="M246.139,414.718c-.039-.039,1.519-1.672,3.486-3.647s3.588-3.533,3.631-3.5-1.523,1.672-3.486,3.647S246.178,414.757,246.139,414.718Z" transform="translate(-165.687 -326.762)" fill="#ebebeb"/>
      <path id="Path_4239" data-name="Path 4239" d="M250.729,421.256a38.347,38.347,0,0,1,2.748-3.019,39.753,39.753,0,0,1,2.881-2.878,40.558,40.558,0,0,1-2.748,3.019A39.728,39.728,0,0,1,250.729,421.256Z" transform="translate(-168.475 -331.495)" fill="#263238"/>
      <path id="Path_4240" data-name="Path 4240" d="M249.054,323.73a12.167,12.167,0,0,1-1.5,1.629,11.966,11.966,0,0,1-1.645,1.488,12.349,12.349,0,0,1,1.5-1.633A12.035,12.035,0,0,1,249.054,323.73Z" transform="translate(-165.549 -275.836)" fill="#ebebeb"/>
      <path id="Path_4241" data-name="Path 4241" d="M149.088,391.852c-.573-.051-.785-.828-.6-1.374s.616-.985.785-1.535c.106-.31.153-.683.424-.871a.852.852,0,0,1,.981.043c1.6,1.366,2.775,2.7,4.518,4.177,1.68,1.421,3.49,3.247,5.264,4.554,1,.738,2.218,1.5,2.355,2.748a1.99,1.99,0,0,1-1.759,2.108,3.878,3.878,0,0,1-2.646-1.323q-4.742-4.232-9.488-8.46" transform="translate(-106.33 -314.837)" fill="#070707"/>
      <path id="Path_4242" data-name="Path 4242" d="M165.766,398.718a3.555,3.555,0,0,1-.487-.349c-.306-.236-.758-.557-1.323-.958a19.256,19.256,0,0,1-1.9-1.507l-2.194-1.994c-1.57-1.425-2.952-2.721-3.957-3.667l-1.178-1.131a2.949,2.949,0,0,1-.393-.432,3.4,3.4,0,0,1,.467.393l1.229,1.08c1.029.919,2.438,2.2,3.992,3.62.785.714,1.507,1.39,2.179,2.01a21.079,21.079,0,0,0,1.869,1.531c.553.416.993.762,1.288,1.013A2.985,2.985,0,0,1,165.766,398.718Z" transform="translate(-109.92 -315.289)" fill="#263238"/>
      <path id="Path_4243" data-name="Path 4243" d="M162.887,402.208a3.062,3.062,0,0,1-.51-.291c-.318-.2-.785-.495-1.331-.872-1.115-.754-2.626-1.841-4.228-3.141s-3-2.52-3.973-3.443c-.491-.459-.883-.84-1.142-1.111a2.973,2.973,0,0,1-.393-.432,3.9,3.9,0,0,1,.451.393l1.178,1.06c1,.9,2.406,2.108,4,3.392s3.093,2.383,4.185,3.164l1.292.923A3.5,3.5,0,0,1,162.887,402.208Z" transform="translate(-108.086 -317.864)" fill="#263238"/>
      <g id="Group_11482" data-name="Group 11482" transform="translate(45.164 76.551)" opacity="0.3">
        <path id="Path_4244" data-name="Path 4244" d="M158.9,396.73a8.828,8.828,0,0,1-1.252,1.394,8.706,8.706,0,0,1-1.4,1.252,17.346,17.346,0,0,1,2.65-2.646Z" transform="translate(-156.25 -396.73)" fill="#ebebeb"/>
      </g>
      <g id="Group_11483" data-name="Group 11483" transform="translate(51.115 82.063)" opacity="0.3">
        <path id="Path_4245" data-name="Path 4245" d="M174.26,410.77a9.661,9.661,0,0,1-1.354,1.445,9.919,9.919,0,0,1-1.5,1.3,9.423,9.423,0,0,1,1.354-1.445A9.71,9.71,0,0,1,174.26,410.77Z" transform="translate(-171.41 -410.77)" fill="#ebebeb"/>
      </g>
      <g id="Group_11484" data-name="Group 11484" transform="translate(74.54 37.577)" opacity="0.5">
        <path id="Path_4246" data-name="Path 4246" d="M233.926,297.45a17.063,17.063,0,0,1-1.339,2.261,16.719,16.719,0,0,1-1.507,2.151,17.674,17.674,0,0,1,1.339-2.261A16.271,16.271,0,0,1,233.926,297.45Z" transform="translate(-231.08 -297.45)" fill="#ebebeb"/>
      </g>
      <g id="Group_11485" data-name="Group 11485" transform="translate(86.862 37.408)" opacity="0.5">
        <path id="Path_4247" data-name="Path 4247" d="M264.641,301.747a17.226,17.226,0,0,1-1.178-2.32,16.46,16.46,0,0,1-.993-2.406,32.7,32.7,0,0,1,2.175,4.711Z" transform="translate(-262.47 -297.02)" fill="#ebebeb"/>
      </g>
      <path id="Path_4248" data-name="Path 4248" d="M326.839,376.652a1.248,1.248,0,0,1-1.3.742c-.573-.063-1.1-.393-1.672-.436-.326-.035-.7,0-.942-.224a1.041,1.041,0,0,1-.177-.962,14.909,14.909,0,0,1,2.807-5.916,32.724,32.724,0,0,0,3.533-5.563c.495-1.138.966-2.5,2.14-2.9a1.99,1.99,0,0,1,2.454,1.256,3.869,3.869,0,0,1-.7,2.874l-6.136,11.133" transform="translate(-212.19 -298.66)" fill="#070707"/>
      <path id="Path_4249" data-name="Path 4249" d="M333.495,366.68a3.38,3.38,0,0,1-.184.554c-.13.349-.33.852-.581,1.468-.506,1.233-1.241,2.925-2.108,4.766s-1.716,3.482-2.355,4.656c-.314.585-.577,1.056-.766,1.378a3.224,3.224,0,0,1-.31.491,3.535,3.535,0,0,1,.239-.526l.711-1.413c.6-1.178,1.421-2.834,2.289-4.672s1.625-3.533,2.163-4.738c.259-.581.475-1.064.64-1.441A3.25,3.25,0,0,1,333.495,366.68Z" transform="translate(-214.92 -301.925)" fill="#263238"/>
      <path id="Path_4250" data-name="Path 4250" d="M330.235,361.14a3.356,3.356,0,0,1-.3.53l-.852,1.405c-.718,1.178-1.688,2.834-2.7,4.711s-1.869,3.572-2.477,4.817l-.715,1.48a3.734,3.734,0,0,1-.283.534,3.2,3.2,0,0,1,.208-.565c.149-.361.373-.875.659-1.507.573-1.264,1.413-2.991,2.426-4.856s2.01-3.506,2.748-4.676c.393-.585.687-1.052.907-1.37a3.044,3.044,0,0,1,.377-.5Z" transform="translate(-212.321 -298.56)" fill="#263238"/>
      <g id="Group_11486" data-name="Group 11486" transform="translate(111.971 73.395)" opacity="0.5">
        <path id="Path_4251" data-name="Path 4251" d="M330.473,390.5a6.676,6.676,0,0,1-2.128-.663,6.822,6.822,0,0,1-1.916-1.142c.031-.051.883.463,2,.958S330.489,390.445,330.473,390.5Z" transform="translate(-326.43 -388.691)" fill="#ebebeb"/>
      </g>
      <g id="Group_11487" data-name="Group 11487" transform="translate(116.725 64.629)" opacity="0.5">
        <path id="Path_4252" data-name="Path 4252" d="M342.646,368.825a17.768,17.768,0,0,1-2.081-1.178,18.176,18.176,0,0,1-2.026-1.288,11.833,11.833,0,0,1,2.132,1.115A11.652,11.652,0,0,1,342.646,368.825Z" transform="translate(-338.54 -366.36)" fill="#ebebeb"/>
      </g>
    </g>
    <g id="Stars--inject-103" transform="translate(56.876 55.02)">
      <path id="Path_4253" data-name="Path 4253" d="M361.274,55.02l-.785,1.433-1.429.781,1.429.785.785,1.429.781-1.429,1.433-.785-1.433-.781Z" transform="translate(-260.662 -55.02)" fill="#455a64"/>
      <path id="Path_4254" data-name="Path 4254" d="M432.734,271.3l-.785,1.429-1.429.785,1.429.781.785,1.429.781-1.429,1.433-.781-1.433-.785Z" transform="translate(-304.069 -186.395)" fill="#455a64"/>
      <path id="Path_4255" data-name="Path 4255" d="M110.624,66.36l-.785,1.429-1.429.785,1.429.781.785,1.429.781-1.429,1.433-.781-1.433-.785Z" transform="translate(-108.41 -61.908)" fill="#455a64"/>
      <path id="Path_4256" data-name="Path 4256" d="M407.8,170.51l-.483.879-.879.479.879.483.483.879.483-.879.875-.483-.875-.479Z" transform="translate(-289.442 -125.172)" fill="#455a64"/>
      <path id="Path_4257" data-name="Path 4257" d="M245.212,106.92l-.483.883-.879.479.879.479.483.883.479-.883.879-.479-.879-.479Z" transform="translate(-190.68 -86.546)" fill="#455a64"/>
      <path id="Path_4258" data-name="Path 4258" d="M175.619,164.61l-.432.781-.777.428.777.428.432.781.428-.781.777-.428-.777-.428Z" transform="translate(-148.5 -121.588)" fill="#455a64"/>
      <path id="Path_4259" data-name="Path 4259" d="M307.519,260.54l-.428.785-.781.428.781.428.428.781.432-.781.777-.428-.777-.428Z" transform="translate(-228.62 -179.859)" fill="#455a64"/>
      <path id="Path_4260" data-name="Path 4260" d="M115.7,279.33l-.428.781-.781.428.781.428.428.781.428-.781.781-.428-.781-.428Z" transform="translate(-112.103 -191.272)" fill="#455a64"/>
    </g>
    <g id="floating-money--inject-103" transform="translate(33.09 55.825)">
      <path id="Path_4261" data-name="Path 4261" d="M72.43,101.728a4.91,4.91,0,0,1,4.993.636c1.625,1.178,5.076,2.968,6.14,1.873l1.307-4.22a12.025,12.025,0,0,1-4.738-2.147c-2.085-1.649-6.238-1.57-6.238-1.57Z" transform="translate(-62.769 -80.899)" fill="#070707"/>
      <g id="Group_11488" data-name="Group 11488" transform="translate(13.746 17.097)" opacity="0.4">
        <path id="Path_4262" data-name="Path 4262" d="M86.115,101.029a2.112,2.112,0,0,1,.616,3.141c-.711.84-2.355.62-3.192-.094a1.99,1.99,0,0,1-.232-2.807A2.131,2.131,0,0,1,86.115,101.029Z" transform="translate(-82.836 -100.62)" fill="#fff"/>
      </g>
      <path id="Path_4263" data-name="Path 4263" d="M87.775,102.841c0,.027-.1,0-.232-.051a2.457,2.457,0,0,0-.534-.169.892.892,0,0,0-.338,0,.451.451,0,0,0-.263.165.341.341,0,0,0-.031.294c.031.086.133.165.3.247.079.039.169.079.263.13a.985.985,0,0,1,.283.212.785.785,0,0,1,.114.161.6.6,0,0,1,.063.2.636.636,0,0,1-.055.393.687.687,0,0,1-.224.271.726.726,0,0,1-.294.122,1.021,1.021,0,0,1-.5-.043,1.288,1.288,0,0,1-.338-.173,1.59,1.59,0,0,1-.212-.169c-.106-.106-.153-.177-.133-.2s.1,0,.232.047a2.357,2.357,0,0,0,.534.173.785.785,0,0,0,.33,0,.3.3,0,0,0,.2-.181.212.212,0,0,0,0-.13.228.228,0,0,0,0-.055.31.31,0,0,0-.047-.059,1.743,1.743,0,0,0-.42-.236,1.327,1.327,0,0,1-.291-.185,1.139,1.139,0,0,1-.133-.141.66.66,0,0,1-.094-.181.75.75,0,0,1,.1-.75.809.809,0,0,1,.55-.3,1.139,1.139,0,0,1,.487.051,1.46,1.46,0,0,1,.554.342C87.744,102.743,87.795,102.818,87.775,102.841Z" transform="translate(-70.792 -84.496)" fill="#070707"/>
      <path id="Path_4264" data-name="Path 4264" d="M87.515,101.48a5.429,5.429,0,0,1-.393,1.57,5.5,5.5,0,0,1-.612,1.492,5.79,5.79,0,0,1,.393-1.57A5.657,5.657,0,0,1,87.515,101.48Z" transform="translate(-71.321 -84.046)" fill="#070707"/>
      <path id="Path_4265" data-name="Path 4265" d="M88.471,102a4.565,4.565,0,0,1-.342,1.425,4.191,4.191,0,0,1-.569,1.347,4.773,4.773,0,0,1,.345-1.421A4.636,4.636,0,0,1,88.471,102Z" transform="translate(-71.959 -84.362)" fill="#070707"/>
      <g id="Group_11489" data-name="Group 11489" transform="translate(10.179 15.944)" opacity="0.5">
        <path id="Path_4266" data-name="Path 4266" d="M85.142,101.129l-1.205,3.831H83.9c-1.888.393-4.283-1.256-5.865-2.355-.275-.188-.534-.365-.758-.51a3.533,3.533,0,0,0-3.4-.13l-.126-.051,1.233-4.157h.043A8.244,8.244,0,0,1,81.405,99.6a9.476,9.476,0,0,0,3.659,1.5Zm-1.315,3.71,1.135-3.6a9.133,9.133,0,0,1-3.647-1.515,8.091,8.091,0,0,0-6.222-1.814l-1.154,3.883a2.632,2.632,0,0,1,.369-.141A3.8,3.8,0,0,1,77.35,102l.762.51C79.662,103.574,82.006,105.176,83.827,104.838Z" transform="translate(-73.75 -97.683)" fill="#fff"/>
      </g>
      <path id="Path_4267" data-name="Path 4267" d="M428.66,196.65a8.411,8.411,0,0,1-4.97,7.019c-3.062,1.511-8.558,5.288-7.745,7.749l5.308,5.359a20.609,20.609,0,0,1,7.043-5.418c4.157-1.818,7.353-8.154,7.353-8.154Z" transform="translate(-271.38 -141.855)" fill="#070707"/>
      <g id="Group_11490" data-name="Group 11490" transform="translate(151.001 62.019)" opacity="0.4">
        <path id="Path_4268" data-name="Path 4268" d="M437.841,221.6a3.6,3.6,0,0,1-5.213-1.57c-.695-1.747.954-4.04,2.7-4.734a3.4,3.4,0,0,1,4.416,1.888C440.44,218.926,439.439,220.61,437.841,221.6Z" transform="translate(-432.465 -215.052)" fill="#fff"/>
      </g>
      <path id="Path_4269" data-name="Path 4269" d="M439.528,223.1c-.024-.055.079-.157.263-.31a4.248,4.248,0,0,0,.687-.667,1.571,1.571,0,0,0,.255-.522.738.738,0,0,0-.043-.526.557.557,0,0,0-.42-.283.938.938,0,0,0-.6.247c-.126.09-.255.2-.393.294a1.9,1.9,0,0,1-.546.259,1.222,1.222,0,0,1-.338.039.946.946,0,0,1-.345-.063,1.127,1.127,0,0,1-.526-.393,1.209,1.209,0,0,1-.173-1.1,1.766,1.766,0,0,1,.463-.718,2.356,2.356,0,0,1,.534-.373,2.535,2.535,0,0,1,.428-.181c.239-.079.393-.09.393-.043s-.071.161-.255.318a4.395,4.395,0,0,0-.691.663,1.327,1.327,0,0,0-.239.51.5.5,0,0,0,.114.455.393.393,0,0,0,.184.118.283.283,0,0,0,.1,0,.464.464,0,0,0,.122-.02,2.958,2.958,0,0,0,.7-.444,2.386,2.386,0,0,1,.506-.294,1.681,1.681,0,0,1,.322-.082,1.044,1.044,0,0,1,.349,0,1.284,1.284,0,0,1,.981.738,1.378,1.378,0,0,1,0,1.068,1.964,1.964,0,0,1-.467.695,2.587,2.587,0,0,1-.958.561C439.708,223.16,439.559,223.16,439.528,223.1Z" transform="translate(-284.392 -155.273)" fill="#070707"/>
      <path id="Path_4270" data-name="Path 4270" d="M442.242,222.543A9.479,9.479,0,0,1,440.2,220.7a9.72,9.72,0,0,1-1.759-2.12,9.512,9.512,0,0,1,2.049,1.841A9.277,9.277,0,0,1,442.242,222.543Z" transform="translate(-285.092 -155.174)" fill="#070707"/>
      <path id="Path_4271" data-name="Path 4271" d="M441.427,223.937a7.79,7.79,0,0,1-1.869-1.657,7.473,7.473,0,0,1-1.57-1.939A7.621,7.621,0,0,1,439.857,222,7.464,7.464,0,0,1,441.427,223.937Z" transform="translate(-284.815 -156.242)" fill="#070707"/>
      <g id="Group_11491" data-name="Group 11491" transform="translate(145.082 56.083)" opacity="0.5">
        <path id="Path_4272" data-name="Path 4272" d="M422.2,217.753l-4.809-4.891.024-.067c.934-3.141,5.327-5.445,8.244-6.964.5-.259.974-.506,1.374-.73a6.021,6.021,0,0,0,2.921-5.017l.185-.153,5.272,5.194-.024.071a14.05,14.05,0,0,1-7.891,8.142c-2.5.958-5.17,4.279-5.2,4.318Zm-4.538-4.958,4.522,4.6c.483-.589,2.874-3.388,5.213-4.279a13.811,13.811,0,0,0,7.726-7.926l-4.931-4.836a4.614,4.614,0,0,1-.086.663,6.561,6.561,0,0,1-2.976,4.318c-.393.224-.875.475-1.378.734C422.906,207.534,418.615,209.772,417.661,212.794Z" transform="translate(-417.39 -199.93)" fill="#fff"/>
      </g>
      <path id="Path_4273" data-name="Path 4273" d="M433.436,89.177a5.478,5.478,0,0,1-5.174-2.14c-1.4-1.727-4.573-4.668-6.034-3.8l-2.638,4.13a13.4,13.4,0,0,1,4.456,3.69c1.755,2.355,6.234,3.49,6.234,3.49Z" transform="translate(-273.644 -72.87)" fill="#070707"/>
      <g id="Group_11492" data-name="Group 11492" transform="translate(150.241 13.911)" opacity="0.4">
        <path id="Path_4274" data-name="Path 4274" d="M431.209,96.316a2.355,2.355,0,0,1,.255-3.533c1.009-.695,2.7.024,3.4,1.029a2.218,2.218,0,0,1-.573,3.082A2.387,2.387,0,0,1,431.209,96.316Z" transform="translate(-430.53 -92.507)" fill="#fff"/>
      </g>
      <path id="Path_4275" data-name="Path 4275" d="M432.984,97.155c.031-.024.11.027.236.122a2.618,2.618,0,0,0,.522.338.9.9,0,0,0,.369.086.459.459,0,0,0,.326-.1.365.365,0,0,0,.122-.306.616.616,0,0,0-.247-.349c-.075-.067-.161-.133-.243-.216a1.176,1.176,0,0,1-.243-.31.784.784,0,0,1-.075-.208.742.742,0,0,1,0-.228.722.722,0,0,1,.173-.393.75.75,0,0,1,.318-.224.738.738,0,0,1,.349-.043,1.178,1.178,0,0,1,.522.188,1.507,1.507,0,0,1,.314.283,1.674,1.674,0,0,1,.177.247c.086.141.114.232.086.255s-.11-.024-.239-.118a2.749,2.749,0,0,0-.522-.342.856.856,0,0,0-.353-.079.322.322,0,0,0-.275.137.252.252,0,0,0-.047.133.129.129,0,0,0,0,.067.393.393,0,0,0,.031.075,1.8,1.8,0,0,0,.393.393,1.517,1.517,0,0,1,.259.283,1,1,0,0,1,.1.192.716.716,0,0,1,.051.22.844.844,0,0,1-.33.73.9.9,0,0,1-.675.161,1.178,1.178,0,0,1-.506-.2,1.571,1.571,0,0,1-.495-.53C432.984,97.25,432.957,97.155,432.984,97.155Z" transform="translate(-281.774 -80.302)" fill="#070707"/>
      <path id="Path_4276" data-name="Path 4276" d="M434.471,98.369a6.4,6.4,0,0,1,.871-1.57,5.883,5.883,0,0,1,1.1-1.421,6.12,6.12,0,0,1-.875,1.57A5.962,5.962,0,0,1,434.471,98.369Z" transform="translate(-282.679 -80.338)" fill="#070707"/>
      <path id="Path_4277" data-name="Path 4277" d="M433.74,98.081a10.16,10.16,0,0,1,1.786-2.7,5.09,5.09,0,0,1-.785,1.425A5.142,5.142,0,0,1,433.74,98.081Z" transform="translate(-282.235 -80.337)" fill="#070707"/>
      <g id="Group_11493" data-name="Group 11493" transform="translate(146.594 10.615)" opacity="0.5">
        <path id="Path_4278" data-name="Path 4278" d="M421.24,87.871l2.414-3.761h.043c2.136.141,4.224,2.6,5.61,4.224.236.279.463.542.66.785a3.926,3.926,0,0,0,3.608,1.131l.122.094-2.536,4.1h-.047a9.135,9.135,0,0,1-6.3-3.839,10.6,10.6,0,0,0-3.49-2.673Zm2.493-3.6-2.265,3.533a10.258,10.258,0,0,1,3.47,2.689,8.97,8.97,0,0,0,6.144,3.777l2.355-3.824a2.917,2.917,0,0,1-.436.039,4.208,4.208,0,0,1-3.16-1.264c-.2-.224-.428-.491-.667-.785C427.819,86.846,425.786,84.459,423.733,84.275Z" transform="translate(-421.24 -84.11)" fill="#fff"/>
      </g>
      <path id="Path_4279" data-name="Path 4279" d="M332.423,103.181a8.465,8.465,0,0,1-8.593.338c-3.062-1.507-9.386-3.568-10.866-1.421l-1.013,7.459a20.569,20.569,0,0,1,8.586,2.285c3.977,2.187,10.945.86,10.945.86Z" transform="translate(-208.26 -83.859)" fill="#070707"/>
      <g id="Group_11494" data-name="Group 11494" transform="translate(110.336 20.531)" opacity="0.4">
        <path id="Path_4280" data-name="Path 4280" d="M331.239,115.835a3.6,3.6,0,0,1-1.92-5.1c.958-1.613,3.784-1.7,5.4-.746a3.4,3.4,0,0,1,1.178,4.664C334.941,116.266,332.994,116.5,331.239,115.835Z" transform="translate(-328.88 -109.368)" fill="#fff"/>
      </g>
      <path id="Path_4281" data-name="Path 4281" d="M334.463,116.529c.024-.051.169-.035.393.02a4.008,4.008,0,0,0,.946.133,1.461,1.461,0,0,0,.569-.114.73.73,0,0,0,.393-.353.573.573,0,0,0-.031-.506.958.958,0,0,0-.569-.326c-.145-.043-.306-.086-.479-.145a2,2,0,0,1-.538-.275,1.4,1.4,0,0,1-.239-.243,1.038,1.038,0,0,1-.161-.314,1.155,1.155,0,0,1,0-.652,1.21,1.21,0,0,1,.3-.518,1.229,1.229,0,0,1,.459-.283,1.719,1.719,0,0,1,.852-.071,2.269,2.269,0,0,1,.62.192,2.747,2.747,0,0,1,.393.228c.208.145.306.251.283.3s-.169.039-.393,0a4.277,4.277,0,0,0-.946-.141,1.319,1.319,0,0,0-.55.118.506.506,0,0,0-.291.369.362.362,0,0,0,0,.216.3.3,0,0,0,.051.09.668.668,0,0,0,.094.082,2.854,2.854,0,0,0,.785.283,2.356,2.356,0,0,1,.538.224,1.655,1.655,0,0,1,.267.2,1.284,1.284,0,0,1,.212.275,1.307,1.307,0,0,1,0,1.233,1.37,1.37,0,0,1-.84.656,1.877,1.877,0,0,1-.836.055,2.541,2.541,0,0,1-1.029-.42C334.529,116.69,334.435,116.576,334.463,116.529Z" transform="translate(-221.932 -90.957)" fill="#070707"/>
      <path id="Path_4282" data-name="Path 4282" d="M338.433,117.149a10.182,10.182,0,0,1,.216-2.748,9.015,9.015,0,0,1,.608-2.681,10.249,10.249,0,0,1-.212,2.748A8.713,8.713,0,0,1,338.433,117.149Z" transform="translate(-224.321 -90.266)" fill="#070707"/>
      <path id="Path_4283" data-name="Path 4283" d="M336.923,117.376a7.923,7.923,0,0,1,.173-2.493,7.778,7.778,0,0,1,.577-2.434,7.858,7.858,0,0,1-.177,2.493A8,8,0,0,1,336.923,117.376Z" transform="translate(-223.399 -90.709)" fill="#070707"/>
      <g id="Group_11495" data-name="Group 11495" transform="translate(104.494 17.931)" opacity="0.5">
        <path id="Path_4284" data-name="Path 4284" d="M314,109.912l.95-6.791.067-.027c3.07-1.178,7.561.907,10.537,2.285.514.239,1,.463,1.417.644a6.031,6.031,0,0,0,5.759-.738l.232.051-.9,7.361-.071.024a14.042,14.042,0,0,1-11.263-1.3c-2.289-1.4-6.544-1.492-6.587-1.492Zm1.178-6.619-.9,6.387c.766.024,4.44.212,6.572,1.523a13.807,13.807,0,0,0,10.992,1.3l.844-6.862a4.418,4.418,0,0,1-.581.338,6.467,6.467,0,0,1-5.225.267c-.424-.185-.911-.393-1.425-.648-2.909-1.339-7.306-3.376-10.281-2.293Z" transform="translate(-314 -102.746)" fill="#fff"/>
      </g>
      <path id="Path_4285" data-name="Path 4285" d="M331.649,216.473a6.813,6.813,0,0,1-4.738-5.1c-.687-2.681-2.748-7.663-4.852-7.459l-5.139,3.313a16.714,16.714,0,0,1,3.117,6.5c.75,3.6,5.241,7.2,5.241,7.2Z" transform="translate(-211.279 -146.262)" fill="#070707"/>
      <g id="Group_11496" data-name="Group 11496" transform="translate(109.416 63.291)" opacity="0.4">
        <path id="Path_4286" data-name="Path 4286" d="M326.719,222.19a2.921,2.921,0,0,1,2.132-3.871c1.5-.259,3.046,1.433,3.305,2.932a2.748,2.748,0,0,1-2.249,3.188A2.96,2.96,0,0,1,326.719,222.19Z" transform="translate(-326.537 -218.293)" fill="#fff"/>
      </g>
      <path id="Path_4287" data-name="Path 4287" d="M328.9,223.92q.065,0,.2.259a3.488,3.488,0,0,0,.416.656,1.224,1.224,0,0,0,.369.29.6.6,0,0,0,.428.051.451.451,0,0,0,.294-.283.785.785,0,0,0-.1-.522c-.051-.114-.11-.236-.165-.373a1.589,1.589,0,0,1-.114-.475,1.063,1.063,0,0,1,.024-.275.907.907,0,0,1,.5-.616.993.993,0,0,1,.483-.086,1.041,1.041,0,0,1,.416.133,1.418,1.418,0,0,1,.491.487,1.964,1.964,0,0,1,.208.483,2.114,2.114,0,0,1,.071.369c.024.208,0,.322-.035.334s-.114-.082-.208-.255a3.406,3.406,0,0,0-.412-.66,1.028,1.028,0,0,0-.361-.275.416.416,0,0,0-.393,0,.361.361,0,0,0-.126.13.23.23,0,0,0-.023.078.29.29,0,0,0,0,.1,2.316,2.316,0,0,0,.235.624,1.823,1.823,0,0,1,.145.455,1.2,1.2,0,0,1,0,.267.954.954,0,0,1-.059.279,1.056,1.056,0,0,1-.754.656,1.1,1.1,0,0,1-.844-.173,1.547,1.547,0,0,1-.475-.487,2.03,2.03,0,0,1-.283-.852C328.838,224.046,328.857,223.928,328.9,223.92Z" transform="translate(-218.514 -157.583)" fill="#070707"/>
      <path id="Path_4288" data-name="Path 4288" d="M329.076,226.643a7.47,7.47,0,0,1,1.8-1.315,8.254,8.254,0,0,1,1.963-1.04,8.108,8.108,0,0,1-1.8,1.319A7.762,7.762,0,0,1,329.076,226.643Z" transform="translate(-218.662 -158.638)" fill="#070707"/>
      <path id="Path_4289" data-name="Path 4289" d="M328.646,225.752a6.22,6.22,0,0,1,1.625-1.205,6.437,6.437,0,0,1,1.806-.93,6.286,6.286,0,0,1-1.629,1.205A6.634,6.634,0,0,1,328.646,225.752Z" transform="translate(-218.4 -158.23)" fill="#070707"/>
      <g id="Group_11497" data-name="Group 11497" transform="translate(106.457 58.155)" opacity="0.5">
        <path id="Path_4290" data-name="Path 4290" d="M319,208.205l4.687-3,.051.027c2.355,1.268,3.427,5.135,4.146,7.694.122.444.239.86.349,1.213a4.882,4.882,0,0,0,3.494,3.16l.086.169-5,3.317-.051-.031a11.384,11.384,0,0,1-5.139-7.624c-.342-2.147-2.528-4.821-2.552-4.848Zm4.711-2.772-4.436,2.834a12.7,12.7,0,0,1,2.524,4.852,11.176,11.176,0,0,0,4.993,7.459l4.672-3.093a4.288,4.288,0,0,1-.514-.181,5.251,5.251,0,0,1-2.917-3.082c-.11-.357-.228-.785-.353-1.217-.7-2.528-1.767-6.309-4-7.573Z" transform="translate(-319 -205.21)" fill="#fff"/>
      </g>
      <path id="Path_4291" data-name="Path 4291" d="M245.767,153.455a5.4,5.4,0,0,1-5.033-2.269c-1.327-1.739-4.369-4.734-5.834-3.926l-2.721,4a13.242,13.242,0,0,1,4.279,3.769c1.657,2.395,6.038,3.627,6.038,3.627Z" transform="translate(-159.806 -111.771)" fill="#070707"/>
      <g id="Group_11498" data-name="Group 11498" transform="translate(76.547 39.085)" opacity="0.4">
        <path id="Path_4292" data-name="Path 4292" d="M243.438,160.356a2.316,2.316,0,0,1,.357-3.482c1.013-.652,2.662.106,3.317,1.119a2.183,2.183,0,0,1-.656,3.015A2.345,2.345,0,0,1,243.438,160.356Z" transform="translate(-242.809 -156.632)" fill="#fff"/>
      </g>
      <path id="Path_4293" data-name="Path 4293" d="M245.192,161.184c.031-.024.11.027.228.126a2.544,2.544,0,0,0,.506.349.986.986,0,0,0,.357.1.456.456,0,0,0,.326-.094.353.353,0,0,0,.13-.3.64.64,0,0,0-.232-.349c-.075-.067-.153-.137-.236-.22a1.229,1.229,0,0,1-.232-.314.86.86,0,0,1-.067-.208.709.709,0,0,1,0-.224.75.75,0,0,1,.5-.589.785.785,0,0,1,.345-.031,1.115,1.115,0,0,1,.51.2,1.511,1.511,0,0,1,.3.291,1.646,1.646,0,0,1,.169.247c.078.141.1.232.075.251s-.106-.024-.228-.122a3,3,0,0,0-.506-.353.9.9,0,0,0-.349-.086.31.31,0,0,0-.271.126.236.236,0,0,0-.051.133.178.178,0,0,0,0,.063.25.25,0,0,0,.031.075,1.731,1.731,0,0,0,.365.393,1.5,1.5,0,0,1,.243.287.786.786,0,0,1,.094.192.7.7,0,0,1,.043.216.825.825,0,0,1-.346.711.868.868,0,0,1-.671.137,1.178,1.178,0,0,1-.495-.208,1.653,1.653,0,0,1-.471-.534C245.184,161.294,245.164,161.219,245.192,161.184Z" transform="translate(-167.702 -119.242)" fill="#070707"/>
      <path id="Path_4294" data-name="Path 4294" d="M246.571,162.539a6.007,6.007,0,0,1,.907-1.511,6.37,6.37,0,0,1,1.119-1.37,6.141,6.141,0,0,1-.907,1.515A6.408,6.408,0,0,1,246.571,162.539Z" transform="translate(-168.544 -119.383)" fill="#070707"/>
      <path id="Path_4295" data-name="Path 4295" d="M245.87,162.171a5.048,5.048,0,0,1,.817-1.382,5.144,5.144,0,0,1,1.025-1.233,5.1,5.1,0,0,1-.813,1.382A5.214,5.214,0,0,1,245.87,162.171Z" transform="translate(-168.118 -119.322)" fill="#070707"/>
      <g id="Group_11499" data-name="Group 11499" transform="translate(73.014 35.751)" opacity="0.5">
        <path id="Path_4296" data-name="Path 4296" d="M233.81,151.771l2.489-3.631h.047c2.1.2,4.083,2.685,5.4,4.318.228.283.44.554.628.785a3.871,3.871,0,0,0,3.533,1.221l.118.1-2.622,3.961h-.047a8.994,8.994,0,0,1-6.1-3.969,10.662,10.662,0,0,0-3.356-2.748Zm2.563-3.47-2.355,3.411a10.227,10.227,0,0,1,3.341,2.748,8.876,8.876,0,0,0,5.947,3.9l2.45-3.7a2.926,2.926,0,0,1-.428.027,4.149,4.149,0,0,1-3.082-1.343c-.188-.224-.393-.495-.632-.785C240.335,150.959,238.4,148.529,236.373,148.3Z" transform="translate(-233.81 -148.14)" fill="#fff"/>
      </g>
      <path id="Path_4297" data-name="Path 4297" d="M61.407,289.295a5.4,5.4,0,0,1-5.033-2.269c-1.327-1.739-4.369-4.734-5.834-3.926l-2.721,4a13.241,13.241,0,0,1,4.279,3.769c1.657,2.395,6.038,3.627,6.038,3.627Z" transform="translate(-47.82 -194.285)" fill="#070707"/>
      <g id="Group_11500" data-name="Group 11500" transform="translate(4.175 92.427)" opacity="0.4">
        <path id="Path_4298" data-name="Path 4298" d="M59.084,296.236a2.312,2.312,0,0,1,.357-3.482c1.013-.652,2.662.106,3.313,1.119a2.183,2.183,0,0,1-.656,3.015A2.376,2.376,0,0,1,59.084,296.236Z" transform="translate(-58.454 -292.512)" fill="#fff"/>
      </g>
      <path id="Path_4299" data-name="Path 4299" d="M60.839,297.023c.027-.024.106.027.224.126a2.545,2.545,0,0,0,.506.349.988.988,0,0,0,.361.1.467.467,0,0,0,.326-.094.361.361,0,0,0,.126-.3.616.616,0,0,0-.232-.349c-.071-.067-.153-.137-.236-.22a1.221,1.221,0,0,1-.236-.3.718.718,0,0,1-.067-.208.612.612,0,0,1,0-.224.718.718,0,0,1,.177-.393.734.734,0,0,1,.326-.212.746.746,0,0,1,.342-.031,1.115,1.115,0,0,1,.51.2,1.434,1.434,0,0,1,.3.29,1.57,1.57,0,0,1,.165.247c.079.141.106.232.079.255s-.11-.028-.232-.126a2.954,2.954,0,0,0-.5-.353.934.934,0,0,0-.349-.086.33.33,0,0,0-.275.126.271.271,0,0,0-.051.133.168.168,0,0,0,0,.063.25.25,0,0,0,.031.075,1.73,1.73,0,0,0,.365.393,1.516,1.516,0,0,1,.247.287,1.255,1.255,0,0,1,.094.192.7.7,0,0,1,.039.216.828.828,0,0,1-.338.726.9.9,0,0,1-.667.137,1.177,1.177,0,0,1-.495-.212,1.57,1.57,0,0,1-.487-.553C60.831,297.122,60.807,297.043,60.839,297.023Z" transform="translate(-55.719 -201.754)" fill="#070707"/>
      <path id="Path_4300" data-name="Path 4300" d="M62.211,298.359a6.013,6.013,0,0,1,.907-1.511,6.372,6.372,0,0,1,1.119-1.37,5.994,5.994,0,0,1-.907,1.515A6.168,6.168,0,0,1,62.211,298.359Z" transform="translate(-56.558 -201.884)" fill="#070707"/>
      <path id="Path_4301" data-name="Path 4301" d="M61.52,298.011a4.971,4.971,0,0,1,.813-1.382,5.251,5.251,0,0,1,1.025-1.233,5.093,5.093,0,0,1-.813,1.382A5.147,5.147,0,0,1,61.52,298.011Z" transform="translate(-56.138 -201.836)" fill="#070707"/>
      <g id="Group_11501" data-name="Group 11501" transform="translate(0.64 89.086)" opacity="0.5">
        <path id="Path_4302" data-name="Path 4302" d="M49.45,287.623,51.943,284h.043c2.1.2,4.087,2.685,5.4,4.318.228.287.44.554.632.785a3.863,3.863,0,0,0,3.533,1.221l.118.1-2.618,3.961H59a8.994,8.994,0,0,1-6.112-3.981,10.663,10.663,0,0,0-3.356-2.748Zm2.571-3.47-2.355,3.411A10.222,10.222,0,0,1,53,290.313a8.86,8.86,0,0,0,5.955,3.894l2.446-3.7a2.908,2.908,0,0,1-.428.028A4.142,4.142,0,0,1,57.91,289.2c-.192-.224-.393-.495-.632-.785C55.978,286.811,54.035,284.393,52.021,284.153Z" transform="translate(-49.45 -284)" fill="#fff"/>
      </g>
      <path id="Path_4303" data-name="Path 4303" d="M169.9,204.84a6.719,6.719,0,0,1-5.414,4.228c-2.689.451-7.753,2.065-7.71,4.149l2.826,5.319a16.465,16.465,0,0,1,6.638-2.524c3.6-.436,7.5-4.55,7.5-4.55Z" transform="translate(-114.005 -146.83)" fill="#070707"/>
      <g id="Group_11502" data-name="Group 11502" transform="translate(48.413 62.915)" opacity="0.4">
        <path id="Path_4304" data-name="Path 4304" d="M174.773,222.758a2.874,2.874,0,0,1-3.623-2.41c-.134-1.5,1.657-2.874,3.141-3a2.721,2.721,0,0,1,2.944,2.473A2.907,2.907,0,0,1,174.773,222.758Z" transform="translate(-171.142 -217.334)" fill="#fff"/>
      </g>
      <path id="Path_4305" data-name="Path 4305" d="M176.6,223.661c0-.047.094-.1.275-.177a3.231,3.231,0,0,0,.675-.353,1.142,1.142,0,0,0,.314-.342.561.561,0,0,0,.09-.412.451.451,0,0,0-.255-.31.754.754,0,0,0-.522.051c-.114.039-.239.09-.393.13a1.374,1.374,0,0,1-.475.071,1.023,1.023,0,0,1-.267-.043.785.785,0,0,1-.251-.13.883.883,0,0,1-.31-.416.915.915,0,0,1-.047-.479.986.986,0,0,1,.165-.393,1.385,1.385,0,0,1,.518-.444,1.964,1.964,0,0,1,.495-.165,2.356,2.356,0,0,1,.369-.039c.2,0,.314.02.322.063s-.09.106-.267.185a3.315,3.315,0,0,0-.683.349,1.013,1.013,0,0,0-.3.334.393.393,0,0,0-.02.373.3.3,0,0,0,.114.133.251.251,0,0,0,.075.031.39.39,0,0,0,.1,0,2.31,2.31,0,0,0,.632-.181,1.927,1.927,0,0,1,.459-.106,1.181,1.181,0,0,1,.263,0,.879.879,0,0,1,.267.082,1.036,1.036,0,0,1,.585.785,1.1,1.1,0,0,1-.239.817,1.472,1.472,0,0,1-.518.424,1.962,1.962,0,0,1-.86.208C176.718,223.731,176.6,223.7,176.6,223.661Z" transform="translate(-125.326 -156.166)" fill="#070707"/>
      <path id="Path_4306" data-name="Path 4306" d="M179.492,223.23a7.278,7.278,0,0,1-1.142-1.876,7.773,7.773,0,0,1-.856-2.026,7.24,7.24,0,0,1,1.142,1.876A7.941,7.941,0,0,1,179.492,223.23Z" transform="translate(-126.582 -155.629)" fill="#070707"/>
      <path id="Path_4307" data-name="Path 4307" d="M178.536,224.109a6.2,6.2,0,0,1-1.048-1.7,6.436,6.436,0,0,1-.766-1.845,6.337,6.337,0,0,1,1.052,1.7A6.221,6.221,0,0,1,178.536,224.109Z" transform="translate(-126.113 -156.382)" fill="#070707"/>
      <g id="Group_11503" data-name="Group 11503" transform="translate(43.297 59.117)" opacity="0.5">
        <path id="Path_4308" data-name="Path 4308" d="M160.666,219.48l-2.556-4.852.031-.047c1.441-2.194,5.331-2.94,7.9-3.435.444-.086.86-.165,1.217-.243a4.818,4.818,0,0,0,3.392-3.168l.177-.075,2.842,5.186-.035.051a11.232,11.232,0,0,1-7.914,4.416c-2.136.153-4.939,2.085-4.966,2.1Zm-2.332-4.84,2.4,4.558a12.6,12.6,0,0,1,4.974-2.077,11.035,11.035,0,0,0,7.734-4.287l-2.654-4.844a3.879,3.879,0,0,1-.22.491,5.163,5.163,0,0,1-3.266,2.611c-.361.078-.785.157-1.225.243C163.563,211.821,159.755,212.547,158.334,214.64Z" transform="translate(-158.11 -207.66)" fill="#fff"/>
      </g>
      <path id="Path_4309" data-name="Path 4309" d="M98.751,177.013a8.407,8.407,0,0,1-8.586.495c-3.09-1.449-9.449-3.392-10.89-1.221l-.875,7.49a20.642,20.642,0,0,1,8.637,2.128c4.012,2.112,10.957.66,10.957.66Z" transform="translate(-66.395 -128.896)" fill="#070707"/>
      <g id="Group_11504" data-name="Group 11504" transform="translate(18.611 49.521)" opacity="0.4">
        <path id="Path_4310" data-name="Path 4310" d="M97.647,189.7a3.6,3.6,0,0,1-2.014-5.064c.934-1.633,3.757-1.774,5.386-.844a3.4,3.4,0,0,1,1.268,4.64C101.356,190.059,99.417,190.33,97.647,189.7Z" transform="translate(-95.227 -183.215)" fill="#fff"/>
      </g>
      <path id="Path_4311" data-name="Path 4311" d="M100.9,190.355c.024-.051.169-.035.393,0a3.974,3.974,0,0,0,.95.118,1.457,1.457,0,0,0,.565-.126.726.726,0,0,0,.393-.361.565.565,0,0,0-.039-.5.962.962,0,0,0-.573-.318c-.149-.043-.31-.079-.483-.137a1.912,1.912,0,0,1-.542-.263,1.405,1.405,0,0,1-.243-.239,1.1,1.1,0,0,1-.192-.962,1.2,1.2,0,0,1,.746-.817,1.743,1.743,0,0,1,.852-.086,2.354,2.354,0,0,1,.624.185,3.109,3.109,0,0,1,.393.22c.212.141.31.247.287.294s-.165.043-.393,0a4.42,4.42,0,0,0-.95-.122,1.3,1.3,0,0,0-.546.13.5.5,0,0,0-.283.369.393.393,0,0,0,0,.22.421.421,0,0,0,.059.086.459.459,0,0,0,.09.082,2.925,2.925,0,0,0,.785.267,2.51,2.51,0,0,1,.542.216,1.821,1.821,0,0,1,.271.2,1.213,1.213,0,0,1,.216.275,1.292,1.292,0,0,1,.035,1.229,1.374,1.374,0,0,1-.828.675,1.939,1.939,0,0,1-.832.067,2.528,2.528,0,0,1-1.036-.393C100.975,190.516,100.881,190.4,100.9,190.355Z" transform="translate(-80.063 -135.776)" fill="#070707"/>
      <path id="Path_4312" data-name="Path 4312" d="M104.917,190.951a9.338,9.338,0,0,1,.161-2.748,9.523,9.523,0,0,1,.561-2.693,9.5,9.5,0,0,1-.161,2.748A9.363,9.363,0,0,1,104.917,190.951Z" transform="translate(-82.47 -135.088)" fill="#070707"/>
      <path id="Path_4313" data-name="Path 4313" d="M103.413,191.168a7.77,7.77,0,0,1,.13-2.493,8.042,8.042,0,0,1,.53-2.446,7.939,7.939,0,0,1-.13,2.5A7.825,7.825,0,0,1,103.413,191.168Z" transform="translate(-81.554 -135.525)" fill="#070707"/>
      <g id="Group_11505" data-name="Group 11505" transform="translate(12.814 47.065)" opacity="0.5">
        <path id="Path_4314" data-name="Path 4314" d="M80.46,184.159l.824-6.791.063-.024c3.046-1.237,7.581.785,10.6,2.089.514.232,1,.444,1.429.62a5.977,5.977,0,0,0,5.743-.848l.232.051-.785,7.361-.071.024a14.05,14.05,0,0,1-11.286-1.087c-2.308-1.362-6.568-1.374-6.611-1.374ZM81.5,177.52l-.785,6.4c.762,0,4.44.133,6.6,1.405a13.826,13.826,0,0,0,11.023,1.1l.718-6.874a4.474,4.474,0,0,1-.577.345,6.456,6.456,0,0,1-5.221.361c-.424-.173-.915-.393-1.433-.62C88.888,178.337,84.456,176.378,81.5,177.52Z" transform="translate(-80.46 -176.958)" fill="#fff"/>
      </g>
      <path id="Path_4315" data-name="Path 4315" d="M188.833,57.07a7.413,7.413,0,0,1-3.533,6.705c-2.5,1.676-6.87,5.59-5.889,7.671l5.249,4.071A18.219,18.219,0,0,1,190.2,69.97c3.427-2.065,5.5-7.973,5.5-7.973Z" transform="translate(-127.667 -57.07)" fill="#070707"/>
      <g id="Group_11506" data-name="Group 11506" transform="translate(56.956 6.524)" opacity="0.4">
        <path id="Path_4316" data-name="Path 4316" d="M197.908,79.307a3.18,3.18,0,0,1-4.742-.785c-.809-1.449.393-3.643,1.818-4.452a3,3,0,0,1,4.083,1.154C199.875,76.673,199.192,78.259,197.908,79.307Z" transform="translate(-192.905 -73.689)" fill="#fff"/>
      </g>
      <path id="Path_4317" data-name="Path 4317" d="M199.171,80.913c-.027-.039.051-.141.2-.3a3.715,3.715,0,0,0,.522-.663,1.323,1.323,0,0,0,.161-.483.64.64,0,0,0-.1-.455.491.491,0,0,0-.393-.2.848.848,0,0,0-.5.287c-.1.094-.2.2-.322.306a1.79,1.79,0,0,1-.448.287,1.264,1.264,0,0,1-.29.075.911.911,0,0,1-.31,0,1,1,0,0,1-.5-.279,1.025,1.025,0,0,1-.263-.459,1.154,1.154,0,0,1,0-.475,1.57,1.57,0,0,1,.322-.683,2.064,2.064,0,0,1,.424-.393,2.453,2.453,0,0,1,.353-.208c.2-.1.326-.126.353-.086s-.043.149-.188.306a3.979,3.979,0,0,0-.526.663,1.123,1.123,0,0,0-.149.471.44.44,0,0,0,.149.393.35.35,0,0,0,.177.082.361.361,0,0,0,.09,0,.392.392,0,0,0,.1-.031,2.552,2.552,0,0,0,.557-.471,2.36,2.36,0,0,1,.393-.314,1.631,1.631,0,0,1,.271-.11,1.024,1.024,0,0,1,.306-.039,1.146,1.146,0,0,1,.946.534,1.2,1.2,0,0,1,.13.93,1.648,1.648,0,0,1-.326.66,2.28,2.28,0,0,1-.785.6C199.324,80.936,199.2,80.956,199.171,80.913Z" transform="translate(-138.374 -69.277)" fill="#070707"/>
      <path id="Path_4318" data-name="Path 4318" d="M201.145,80.415a8.418,8.418,0,0,1-2-1.374,8.171,8.171,0,0,1-1.778-1.653,8.141,8.141,0,0,1,2,1.374A8.051,8.051,0,0,1,201.145,80.415Z" transform="translate(-138.656 -69.408)" fill="#070707"/>
      <path id="Path_4319" data-name="Path 4319" d="M200.609,81.738a6.9,6.9,0,0,1-1.825-1.233,6.609,6.609,0,0,1-1.6-1.515,13.7,13.7,0,0,1,3.427,2.748Z" transform="translate(-138.544 -70.38)" fill="#070707"/>
      <g id="Group_11507" data-name="Group 11507" transform="translate(52.137 1.087)" opacity="0.5">
        <path id="Path_4320" data-name="Path 4320" d="M185.4,76.312l-4.766-3.726v-.063c.459-2.862,4.032-5.374,6.4-7.035.393-.287.785-.557,1.119-.785a5.245,5.245,0,0,0,1.963-4.711l.141-.153,5.209,3.926v.063a12.378,12.378,0,0,1-5.963,8.028c-2.081,1.123-4.028,4.318-4.047,4.365ZM180.858,72.5l4.483,3.5c.353-.573,2.12-3.294,4.063-4.346a12.17,12.17,0,0,0,5.845-7.824l-4.864-3.674a3.593,3.593,0,0,1,0,.593,5.686,5.686,0,0,1-2.1,4.106c-.326.243-.714.514-1.123.785C184.838,67.291,181.344,69.748,180.858,72.5Z" transform="translate(-180.63 -59.84)" fill="#fff"/>
      </g>
    </g>
    <g id="Money--inject-103" transform="translate(44.942 196.102)">
      <rect id="Rectangle_26151" data-name="Rectangle 26151" width="20.673" height="4.471" transform="translate(118.207 4.424)" fill="#263238"/>
      <path id="Path_4321" data-name="Path 4321" d="M400.03,425.67l.342,4.471h2.917l.153-4.471Z" transform="translate(-273.614 -421.246)" fill="#e0e0e0"/>
      <rect id="Rectangle_26152" data-name="Rectangle 26152" width="20.673" height="4.471" transform="translate(113.194 4.424)" fill="#455a64"/>
      <path id="Path_4322" data-name="Path 4322" d="M387.053,427.292c0,.059-4.6.1-10.27.1s-10.274-.043-10.274-.1,4.6-.1,10.274-.1S387.053,427.237,387.053,427.292Z" transform="translate(-253.253 -422.169)" fill="#263238"/>
      <path id="Path_4323" data-name="Path 4323" d="M387.033,429.9c0,.055-4.6.1-10.27.1s-10.274-.047-10.274-.1,4.6-.1,10.274-.1S387.033,429.847,387.033,429.9Z" transform="translate(-253.241 -423.754)" fill="#263238"/>
      <path id="Path_4324" data-name="Path 4324" d="M387.033,432.512c0,.055-4.6.1-10.27.1s-10.274-.047-10.274-.1,4.6-.1,10.274-.1S387.033,432.453,387.033,432.512Z" transform="translate(-253.241 -425.34)" fill="#263238"/>
      <path id="Path_4325" data-name="Path 4325" d="M387.033,435.112c0,.059-4.6.1-10.27.1s-10.274-.043-10.274-.1,4.6-.1,10.274-.1S387.033,435.057,387.033,435.112Z" transform="translate(-253.241 -426.919)" fill="#263238"/>
      <path id="Path_4326" data-name="Path 4326" d="M387.25,425.67l.342,4.471h2.921l.149-4.471Z" transform="translate(-265.851 -421.246)" fill="#e0e0e0"/>
      <rect id="Rectangle_26153" data-name="Rectangle 26153" width="20.673" height="4.471" transform="translate(120.716)" fill="#263238"/>
      <path id="Path_4327" data-name="Path 4327" d="M406.42,414.4l.342,4.471h2.917l.153-4.471Z" transform="translate(-277.496 -414.4)" fill="#e0e0e0"/>
      <rect id="Rectangle_26154" data-name="Rectangle 26154" width="20.673" height="4.471" transform="translate(115.702)" fill="#455a64"/>
      <path id="Path_4328" data-name="Path 4328" d="M393.443,416.032c0,.055-4.6.1-10.27.1s-10.274-.047-10.274-.1,4.6-.1,10.274-.1S393.443,415.957,393.443,416.032Z" transform="translate(-257.135 -415.329)" fill="#263238"/>
      <path id="Path_4329" data-name="Path 4329" d="M393.423,418.632c0,.059-4.6.1-10.27.1s-10.274-.043-10.274-.1,4.6-.1,10.274-.1S393.423,418.577,393.423,418.632Z" transform="translate(-257.123 -416.909)" fill="#263238"/>
      <path id="Path_4330" data-name="Path 4330" d="M393.423,421.242c0,.055-4.6.1-10.27.1s-10.274-.047-10.274-.1,4.6-.1,10.274-.1S393.423,421.187,393.423,421.242Z" transform="translate(-257.123 -418.494)" fill="#263238"/>
      <path id="Path_4331" data-name="Path 4331" d="M393.423,423.842c0,.055-4.6.1-10.27.1s-10.274-.047-10.274-.1,4.6-.1,10.274-.1S393.423,423.787,393.423,423.842Z" transform="translate(-257.123 -420.073)" fill="#263238"/>
      <path id="Path_4332" data-name="Path 4332" d="M393.64,414.4l.342,4.471H396.9l.153-4.471Z" transform="translate(-269.733 -414.4)" fill="#e0e0e0"/>
      <rect id="Rectangle_26155" data-name="Rectangle 26155" width="20.673" height="4.471" transform="translate(119.314 13.32)" fill="#263238"/>
      <path id="Path_4333" data-name="Path 4333" d="M402.84,448.32l.342,4.475H406.1l.149-4.475Z" transform="translate(-275.321 -435.004)" fill="#e0e0e0"/>
      <rect id="Rectangle_26156" data-name="Rectangle 26156" width="20.673" height="4.471" transform="translate(114.297 13.316)" fill="#455a64"/>
      <path id="Path_4334" data-name="Path 4334" d="M389.863,449.952c0,.059-4.6.1-10.27.1s-10.274-.043-10.274-.1,4.6-.1,10.274-.1S389.863,449.909,389.863,449.952Z" transform="translate(-254.96 -435.933)" fill="#263238"/>
      <path id="Path_4335" data-name="Path 4335" d="M389.853,452.562c0,.055-4.6.1-10.274.1s-10.27-.047-10.27-.1,4.6-.1,10.27-.1S389.853,452.5,389.853,452.562Z" transform="translate(-254.954 -437.519)" fill="#263238"/>
      <path id="Path_4336" data-name="Path 4336" d="M389.853,455.162c0,.059-4.6.106-10.274.106s-10.27-.047-10.27-.106,4.6-.1,10.27-.1S389.853,455.107,389.853,455.162Z" transform="translate(-254.954 -439.098)" fill="#263238"/>
      <path id="Path_4337" data-name="Path 4337" d="M389.853,457.772c0,.059-4.6.1-10.274.1s-10.27-.043-10.27-.1,4.6-.1,10.27-.1S389.853,457.717,389.853,457.772Z" transform="translate(-254.954 -440.683)" fill="#263238"/>
      <path id="Path_4338" data-name="Path 4338" d="M390.07,448.32l.341,4.475h2.917l.149-4.475Z" transform="translate(-267.564 -435.004)" fill="#e0e0e0"/>
      <rect id="Rectangle_26157" data-name="Rectangle 26157" width="20.673" height="4.471" transform="translate(121.823 8.896)" fill="#263238"/>
      <path id="Path_4339" data-name="Path 4339" d="M409.23,437.06l.342,4.471h2.921l.149-4.471Z" transform="translate(-279.203 -428.164)" fill="#e0e0e0"/>
      <rect id="Rectangle_26158" data-name="Rectangle 26158" width="20.673" height="4.471" transform="translate(116.806 8.896)" fill="#455a64"/>
      <path id="Path_4340" data-name="Path 4340" d="M396.213,438.682c0,.059-4.6.106-10.27.106s-10.274-.047-10.274-.106,4.6-.1,10.274-.1S396.213,438.627,396.213,438.682Z" transform="translate(-258.817 -429.088)" fill="#263238"/>
      <path id="Path_4341" data-name="Path 4341" d="M396.219,441.292c0,.059-4.6.1-10.27.1s-10.27-.043-10.27-.1,4.6-.1,10.27-.1S396.219,441.237,396.219,441.292Z" transform="translate(-258.823 -430.673)" fill="#263238"/>
      <path id="Path_4342" data-name="Path 4342" d="M396.219,443.9c0,.055-4.6.1-10.27.1s-10.27-.047-10.27-.1,4.6-.1,10.27-.1S396.219,443.843,396.219,443.9Z" transform="translate(-258.823 -432.258)" fill="#263238"/>
      <path id="Path_4343" data-name="Path 4343" d="M396.219,446.5c0,.059-4.6.106-10.27.106s-10.27-.047-10.27-.106,4.6-.1,10.27-.1S396.219,446.447,396.219,446.5Z" transform="translate(-258.823 -433.838)" fill="#263238"/>
      <path id="Path_4344" data-name="Path 4344" d="M396.45,437.06l.342,4.471h2.921l.149-4.471Z" transform="translate(-271.44 -428.164)" fill="#e0e0e0"/>
      <rect id="Rectangle_26159" data-name="Rectangle 26159" width="20.673" height="4.471" transform="translate(105.405 8.849)" fill="#070707"/>
      <rect id="Rectangle_26160" data-name="Rectangle 26160" width="20.673" height="4.471" transform="translate(105.405 8.849)" opacity="0.2"/>
      <path id="Path_4345" data-name="Path 4345" d="M367.42,436.94l.342,4.471h2.917l.153-4.471Z" transform="translate(-253.806 -428.091)" fill="#e0e0e0"/>
      <rect id="Rectangle_26161" data-name="Rectangle 26161" width="20.673" height="4.471" transform="translate(103.136 13.32)" fill="#070707"/>
      <rect id="Rectangle_26162" data-name="Rectangle 26162" width="20.673" height="4.471" transform="translate(103.136 13.32)" opacity="0.2"/>
      <path id="Path_4346" data-name="Path 4346" d="M361.64,448.32l.338,4.475H364.9l.149-4.475Z" transform="translate(-250.295 -435.004)" fill="#e0e0e0"/>
      <rect id="Rectangle_26163" data-name="Rectangle 26163" width="20.673" height="4.471" transform="translate(98.119 13.32)" fill="#070707"/>
      <g id="Group_11508" data-name="Group 11508" transform="translate(98.186 13.917)" opacity="0.2">
        <path id="Path_4347" data-name="Path 4347" d="M348.663,449.952c0,.059-4.6.1-10.274.1s-10.27-.043-10.27-.1,4.6-.1,10.27-.1S348.663,449.909,348.663,449.952Z" transform="translate(-328.12 -449.85)"/>
      </g>
      <g id="Group_11509" data-name="Group 11509" transform="translate(98.178 14.941)" opacity="0.2">
        <path id="Path_4348" data-name="Path 4348" d="M348.643,452.562c0,.055-4.6.1-10.27.1s-10.274-.047-10.274-.1,4.6-.1,10.274-.1S348.643,452.5,348.643,452.562Z" transform="translate(-328.1 -452.46)"/>
      </g>
      <g id="Group_11510" data-name="Group 11510" transform="translate(98.178 15.962)" opacity="0.2">
        <path id="Path_4349" data-name="Path 4349" d="M348.643,455.162c0,.059-4.6.106-10.27.106s-10.274-.047-10.274-.106,4.6-.1,10.274-.1S348.643,455.107,348.643,455.162Z" transform="translate(-328.1 -455.06)"/>
      </g>
      <g id="Group_11511" data-name="Group 11511" transform="translate(98.178 16.987)" opacity="0.2">
        <path id="Path_4350" data-name="Path 4350" d="M348.643,457.772c0,.059-4.6.1-10.27.1s-10.274-.043-10.274-.1,4.6-.1,10.274-.1S348.643,457.717,348.643,457.772Z" transform="translate(-328.1 -457.67)"/>
      </g>
      <path id="Path_4351" data-name="Path 4351" d="M348.86,448.32l.342,4.475h2.917l.153-4.475Z" transform="translate(-242.532 -435.004)" fill="#e0e0e0"/>
      <rect id="Rectangle_26164" data-name="Rectangle 26164" width="20.673" height="4.471" transform="translate(101.103 8.849)" fill="#070707"/>
      <g id="Group_11512" data-name="Group 11512" transform="translate(101.169 9.445)" opacity="0.2">
        <path id="Path_4352" data-name="Path 4352" d="M356.263,438.562c0,.059-4.6.1-10.27.1s-10.274-.043-10.274-.1,4.6-.1,10.274-.1S356.263,438.507,356.263,438.562Z" transform="translate(-335.72 -438.46)"/>
      </g>
      <g id="Group_11513" data-name="Group 11513" transform="translate(101.15 10.47)" opacity="0.2">
        <path id="Path_4353" data-name="Path 4353" d="M356.213,441.172c0,.055-4.6.1-10.27.1s-10.274-.047-10.274-.1,4.6-.1,10.274-.1S356.213,441.113,356.213,441.172Z" transform="translate(-335.67 -441.07)"/>
      </g>
      <g id="Group_11514" data-name="Group 11514" transform="translate(101.15 11.494)" opacity="0.2">
        <path id="Path_4354" data-name="Path 4354" d="M356.213,443.782c0,.055-4.6.1-10.27.1s-10.274-.047-10.274-.1,4.6-.1,10.274-.1S356.213,443.723,356.213,443.782Z" transform="translate(-335.67 -443.68)"/>
      </g>
      <g id="Group_11515" data-name="Group 11515" transform="translate(101.15 12.515)" opacity="0.2">
        <path id="Path_4355" data-name="Path 4355" d="M356.213,446.382c0,.059-4.6.1-10.27.1s-10.274-.043-10.274-.1,4.6-.1,10.274-.1S356.213,446.327,356.213,446.382Z" transform="translate(-335.67 -446.28)"/>
      </g>
      <path id="Path_4356" data-name="Path 4356" d="M356.46,436.94l.342,4.471h2.917l.153-4.471Z" transform="translate(-247.149 -428.091)" fill="#e0e0e0"/>
      <rect id="Rectangle_26165" data-name="Rectangle 26165" width="20.673" height="4.471" transform="translate(7.533 13.32)" fill="#263238"/>
      <path id="Path_4357" data-name="Path 4357" d="M118.1,448.32l.342,4.475h2.921l.149-4.475Z" transform="translate(-102.362 -435.004)" fill="#e0e0e0"/>
      <rect id="Rectangle_26166" data-name="Rectangle 26166" width="20.673" height="4.471" transform="translate(2.516 13.316)" fill="#455a64"/>
      <path id="Path_4358" data-name="Path 4358" d="M105.123,449.952c0,.059-4.6.1-10.27.1s-10.274-.043-10.274-.1,4.6-.1,10.274-.1S105.123,449.909,105.123,449.952Z" transform="translate(-82.001 -435.933)" fill="#263238"/>
      <path id="Path_4359" data-name="Path 4359" d="M105.109,452.562c0,.055-4.6.1-10.27.1s-10.27-.047-10.27-.1,4.6-.1,10.27-.1S105.109,452.5,105.109,452.562Z" transform="translate(-81.995 -437.519)" fill="#263238"/>
      <path id="Path_4360" data-name="Path 4360" d="M105.109,455.162c0,.059-4.6.106-10.27.106s-10.27-.047-10.27-.106,4.6-.1,10.27-.1S105.109,455.107,105.109,455.162Z" transform="translate(-81.995 -439.098)" fill="#263238"/>
      <path id="Path_4361" data-name="Path 4361" d="M105.109,457.772c0,.059-4.6.1-10.27.1s-10.27-.043-10.27-.1,4.6-.1,10.27-.1S105.109,457.717,105.109,457.772Z" transform="translate(-81.995 -440.683)" fill="#263238"/>
      <path id="Path_4362" data-name="Path 4362" d="M105.32,448.32l.342,4.475h2.921l.149-4.475Z" transform="translate(-94.599 -435.004)" fill="#f5f5f5"/>
      <rect id="Rectangle_26167" data-name="Rectangle 26167" width="20.673" height="4.471" transform="translate(5.017 8.896)" fill="#263238"/>
      <path id="Path_4363" data-name="Path 4363" d="M111.7,437.06l.338,4.471h2.921l.153-4.471Z" transform="translate(-98.474 -428.164)" fill="#e0e0e0"/>
      <rect id="Rectangle_26168" data-name="Rectangle 26168" width="20.673" height="4.471" transform="translate(0 8.896)" fill="#455a64"/>
      <path id="Path_4364" data-name="Path 4364" d="M98.723,438.682c0,.059-4.6.106-10.274.106s-10.27-.047-10.27-.106,4.6-.1,10.27-.1S98.723,438.627,98.723,438.682Z" transform="translate(-78.113 -429.088)" fill="#263238"/>
      <path id="Path_4365" data-name="Path 4365" d="M98.7,441.292c0,.059-4.6.1-10.274.1s-10.27-.043-10.27-.1,4.6-.1,10.27-.1S98.7,441.237,98.7,441.292Z" transform="translate(-78.101 -430.673)" fill="#263238"/>
      <path id="Path_4366" data-name="Path 4366" d="M98.7,443.9c0,.055-4.6.1-10.274.1s-10.27-.047-10.27-.1,4.6-.1,10.27-.1S98.7,443.843,98.7,443.9Z" transform="translate(-78.101 -432.258)" fill="#263238"/>
      <path id="Path_4367" data-name="Path 4367" d="M98.7,446.5c0,.059-4.6.106-10.274.106s-10.27-.047-10.27-.106,4.6-.1,10.27-.1S98.7,446.447,98.7,446.5Z" transform="translate(-78.101 -433.838)" fill="#263238"/>
      <path id="Path_4368" data-name="Path 4368" d="M98.92,437.06l.342,4.471h2.917l.153-4.471Z" transform="translate(-90.711 -428.164)" fill="#f5f5f5"/>
    </g>
  </g>
</svg>
