<svg xmlns="http://www.w3.org/2000/svg" width="147.999" height="147.993" viewBox="0 0 147.999 147.993">
  <g id="_252_money_transfer_flatline" data-name="#252_money_transfer_flatline" transform="translate(-69.7 -18.65)">
    <path id="Path_3300" data-name="Path 3300" d="M217.635,92.86a73.54,73.54,0,0,1-4.508,25.354c-.123.329-.241.656-.371.983a73.766,73.766,0,0,1-18.506,27.475c-.653.608-1.313,1.206-1.989,1.786A73.709,73.709,0,0,1,70.2,92.86v-.22a74.631,74.631,0,0,1,.772-10.484l.051-.321A73.185,73.185,0,0,1,84.216,49.611h0A73.721,73.721,0,0,1,217.635,92.86Z" transform="translate(-0.218 -0.213)" fill="#fff"/>
    <path id="Path_3301" data-name="Path 3301" d="M143.7,166.643a74.075,74.075,0,0,1-74-74v-.22a74.626,74.626,0,0,1,.777-10.484l.051-.327a73.045,73.045,0,0,1,8.214-24.461,73.985,73.985,0,0,1,5.031-7.932h0v-.034a74.025,74.025,0,0,1,129.419,68.926l-.09.248c-.1.254-.186.5-.287.744a74.43,74.43,0,0,1-18.591,27.6c-.732.676-1.38,1.262-1.994,1.791A73.935,73.935,0,0,1,143.7,166.643ZM84.212,49.578a74,74,0,0,0-4.974,7.887A72.752,72.752,0,0,0,71.08,81.689l-.051.327a75.127,75.127,0,0,0-.766,10.428v.2A73.428,73.428,0,0,0,191.88,148.052c.608-.524,1.256-1.127,1.983-1.78A73.839,73.839,0,0,0,212.3,118.9c.1-.248.192-.49.282-.732l.09-.248A73.449,73.449,0,0,0,84.235,49.55.056.056,0,0,1,84.212,49.578Z" fill="#231f20"/>
    <path id="Path_3302" data-name="Path 3302" d="M94.2,74.006s16.968-2.558,20.6-3.459,11.267-5.172,11.391-5.256a33.845,33.845,0,0,1,4.09-1.831,30.5,30.5,0,0,1,3.808-.834,16.833,16.833,0,0,1,7.831.563c4.051,1.386,7.138,4.625,10.292,7.521,5.155,4.7,10.833,8.366,16.534,12.309a10.943,10.943,0,0,1,3.814,3.763,2.5,2.5,0,0,1-2.417,3.943,16.374,16.374,0,0,1-4.828-1.177c-1.42-.445-4.681-1.127-5.487.7-.642,1.47,2.214,2.687,1.775,4.473-.355,1.42-1.842,1.47-2.98,1.369a25.281,25.281,0,0,1-3.69-.732c.777,1.014-.079,2.642-1.318,2.958s-2.434-.4-3.42-1.076a3.481,3.481,0,0,1-2.321,2.918c-2.817,1.166-5.634.231-8.45-.355-2.546-.53-5.16-.608-7.7-1.206a108.392,108.392,0,0,1-11.267-3.853c-4.163-1.482-13.881.839-13.881.839Z" transform="translate(-10.698 -19.104)" fill="#fff"/>
    <path id="Path_3303" data-name="Path 3303" d="M144.7,100.789a19.893,19.893,0,0,1-4.343-.653l-1.211-.265c-1.172-.242-2.383-.394-3.56-.563a39.629,39.629,0,0,1-4.146-.665,63.576,63.576,0,0,1-8.09-2.676c-1.065-.4-2.129-.806-3.205-1.189-4.034-1.437-13.622.828-13.718.851a.282.282,0,0,1-.31-.135L93.724,73.877a.265.265,0,0,1,0-.259.27.27,0,0,1,.208-.158c.169,0,17-2.569,20.574-3.459s11.267-5.177,11.312-5.222a34.45,34.45,0,0,1,4.163-1.859,29.915,29.915,0,0,1,3.882-.8,17.1,17.1,0,0,1,7.96.563c3.583,1.222,6.417,3.87,9.16,6.434l1.234,1.127a113.77,113.77,0,0,0,13.475,10.3c1,.682,1.994,1.363,2.991,2.062a11.494,11.494,0,0,1,3.9,3.865,2.777,2.777,0,0,1-2.67,4.327,11.582,11.582,0,0,1-3.882-.845c-.344-.118-.687-.237-1.031-.344-.721-.225-4.355-1.256-5.143.563-.248.563.22,1.127.761,1.814s1.279,1.577,1.025,2.614c-.451,1.837-2.575,1.645-3.273,1.583,0,0-2.011-.276-3.144-.563a2.045,2.045,0,0,1-.068,1.155,2.569,2.569,0,0,1-1.69,1.622,4.183,4.183,0,0,1-3.29-.879,3.746,3.746,0,0,1-2.411,2.7,7.887,7.887,0,0,1-3.07.569Zm-28.263-7.031a12.135,12.135,0,0,1,3.9.513c1.076.383,2.141.789,3.211,1.194a64.619,64.619,0,0,0,8.022,2.653,39.078,39.078,0,0,0,4.09.654c1.183.146,2.406.3,3.6.563l1.222.27c2.428.563,4.721,1.065,7.059.1a3.228,3.228,0,0,0,2.152-2.7.276.276,0,0,1,.163-.22.287.287,0,0,1,.276,0,4.059,4.059,0,0,0,3.189,1.037,1.994,1.994,0,0,0,1.307-1.262,1.335,1.335,0,0,0-.141-1.256h0a.287.287,0,0,1,.056-.394.27.27,0,0,1,.349,0,30.724,30.724,0,0,0,3.532.676c1.622.141,2.451-.214,2.682-1.16.186-.761-.349-1.425-.918-2.124s-1.222-1.5-.839-2.394c.958-2.186,4.7-1.211,5.831-.862l1.048.349a10.9,10.9,0,0,0,3.69.834,2.642,2.642,0,0,0,2.287-1.014,2.608,2.608,0,0,0-.118-2.518,10.659,10.659,0,0,0-3.718-3.656l-2.986-2.062a119.082,119.082,0,0,1-13.571-10.3l-1.239-1.127c-2.7-2.524-5.487-5.127-8.952-6.315a16.608,16.608,0,0,0-7.7-.535,29.787,29.787,0,0,0-3.78.811,33.8,33.8,0,0,0-4.022,1.8c-.068.039-7.819,4.377-11.47,5.284-3.284.822-17.61,3.014-20.219,3.38l12.078,21.075a50.843,50.843,0,0,1,9.932-1.29Z" transform="translate(-10.475 -18.88)" fill="#231f20"/>
    <rect id="Rectangle_26003" data-name="Rectangle 26003" width="30.402" height="57.677" rx="3.352" transform="translate(161.606 31.436) rotate(60.113)" fill="#fff"/>
    <path id="Path_3304" data-name="Path 3304" d="M159.985,95.6a2.152,2.152,0,0,1-1.882-1.087h0L144.91,71.491a2.175,2.175,0,0,1,.806-2.958l46.6-26.7a2.175,2.175,0,0,1,2.958.806l13.188,23.019a2.152,2.152,0,0,1-.8,2.952L161.056,95.321A2.107,2.107,0,0,1,159.985,95.6Zm-1.4-1.369a1.611,1.611,0,0,0,2.191.6l46.589-26.7a1.594,1.594,0,0,0,.761-.969,1.611,1.611,0,0,0-.152-1.217L194.784,42.929a1.6,1.6,0,0,0-2.186-.563L146,69.068a1.6,1.6,0,0,0-.6,2.141Z" transform="translate(-32.716 -9.998)" fill="#231f20"/>
    <path id="Path_3305" data-name="Path 3305" d="M171.014,93.56a.282.282,0,0,1-.242-.141L157.291,69.893a.282.282,0,0,1,.1-.383l38.387-21.971a.259.259,0,0,1,.214-.028.293.293,0,0,1,.169.13l13.481,23.526a.287.287,0,0,1-.107.389L171.155,93.526a.253.253,0,0,1-.141.034Zm-13.1-23.706,13.205,23.041,37.891-21.712-13.2-23.041Z" transform="translate(-38.23 -12.597)" fill="#d1d3d4"/>
    <path id="Path_3306" data-name="Path 3306" d="M161.213,112.943a1.442,1.442,0,0,1-1.251-.727l-2.591-4.507a1.437,1.437,0,0,1,.535-1.966l1.577-.907a1.437,1.437,0,0,1,1.966.563l2.591,4.507a1.437,1.437,0,0,1-.563,1.966l-1.577.907A1.464,1.464,0,0,1,161.213,112.943Zm-1.014-7.752a.839.839,0,0,0-.434.118l-1.56.907a.868.868,0,0,0-.321,1.194l2.591,4.507h0a.873.873,0,0,0,1.194.327l1.583-.907a.84.84,0,0,0,.406-.53.856.856,0,0,0-.084-.665l-2.591-4.507a.879.879,0,0,0-.53-.411A.851.851,0,0,0,160.2,105.192Z" transform="translate(-38.198 -37.552)" fill="#d1d3d4"/>
    <path id="Path_3307" data-name="Path 3307" d="M240.634,64.783a.282.282,0,0,1-.248-.141l-3.836-6.7a.276.276,0,0,1,.1-.383.287.287,0,0,1,.389.1l3.836,6.7a.276.276,0,0,1-.107.383A.237.237,0,0,1,240.634,64.783Z" transform="translate(-72.837 -16.974)" fill="#d1d3d4"/>
    <path id="Path_3308" data-name="Path 3308" d="M245.2,72.44a.282.282,0,0,1-.242-.141l-.513-.9a.282.282,0,1,1,.484-.282l.518.9a.287.287,0,0,1-.107.383.3.3,0,0,1-.141.034Z" transform="translate(-76.28 -22.839)" fill="#d1d3d4"/>
    <path id="Path_3309" data-name="Path 3309" d="M148.987,64.31s8.6-5.848,12.394-2.5c2.513,2.253,7.324,16.112,4.146,16.168s-6.343-8.67-6.343-8.67-7.51,6.856-13.813,5.363" transform="translate(-33.041 -18.394)" fill="#fff"/>
    <path id="Path_3310" data-name="Path 3310" d="M165.229,78.056c-2.958,0-5.763-6.76-6.434-8.45-1.5,1.29-8.039,6.507-13.763,5.16a.287.287,0,0,1-.208-.344.282.282,0,0,1,.338-.208c6.09,1.437,13.487-5.228,13.566-5.3a.276.276,0,0,1,.451.113c.868,2.372,3.651,8.529,6.079,8.484.175,0,.434-.062.6-.518.98-2.637-2.783-13.239-4.935-15.154-3.56-3.166-11.937,2.462-12.022,2.524a.282.282,0,0,1-.389-.079.276.276,0,0,1,.073-.389c.361-.242,8.828-5.932,12.709-2.479,1.234,1.093,2.817,4.558,3.8,7.5.49,1.437,2.028,6.276,1.29,8.264a1.189,1.189,0,0,1-1.127.89Z" transform="translate(-32.799 -18.191)" fill="#231f20"/>
    <path id="Path_3311" data-name="Path 3311" d="M105.415,73.09l-5.07,30L71.67,105.4A73.185,73.185,0,0,1,84.858,73.169h0Z" transform="translate(-0.86 -23.771)" fill="#72bf44"/>
    <path id="Path_3312" data-name="Path 3312" d="M247.682,195.847s-16.788-3.56-20.354-4.676-10.929-5.836-11.053-5.91a34.047,34.047,0,0,0-3.977-2.068,30.287,30.287,0,0,0-3.763-1.042,16.9,16.9,0,0,0-7.853.079c-4.129,1.127-7.4,4.2-10.7,6.9-5.414,4.411-11.3,7.712-17.233,11.34a10.936,10.936,0,0,0-4.022,3.527,2.5,2.5,0,0,0,2.175,4.079,15.994,15.994,0,0,0,4.89-.89c1.442-.355,4.738-.862,5.431,1.031.563,1.5-2.366,2.552-2.034,4.355a2.287,2.287,0,0,0,2.152,1.634,8.3,8.3,0,0,0,2.817-.524,37.69,37.69,0,0,1,7.679-1.127c2.608-.18.856-.563,2.817.856,2.355,1.69,5.036,3.943,7.887,4.834,4.507,1.391,13.475-1.983,17.723-3.217s13.8,1.69,13.8,1.69Z" transform="translate(-42.986 -71.207)" fill="#fff"/>
    <path id="Path_3313" data-name="Path 3313" d="M204.811,218.594a9.121,9.121,0,0,1-2.648-.338c-2.445-.749-4.777-2.5-6.839-4.051l-1.127-.828a5.481,5.481,0,0,1-1.065-.946l-.034-.039h-.141a10.767,10.767,0,0,1-1.369.163,37.8,37.8,0,0,0-7.628,1.1l-.355.107a7.407,7.407,0,0,1-2.58.428,2.569,2.569,0,0,1-2.406-1.865c-.208-1.121.563-1.842,1.183-2.546s1.082-1.177.868-1.763c-.682-1.848-4.372-1.037-5.1-.851-.349.084-.7.18-1.053.276a11.706,11.706,0,0,1-3.943.62,2.777,2.777,0,0,1-2.406-4.507,11.159,11.159,0,0,1,4.124-3.628c1.037-.637,2.073-1.256,3.11-1.882a117.77,117.77,0,0,0,14.084-9.431l1.3-1.076c2.884-2.389,5.876-4.867,9.521-5.876a17.092,17.092,0,0,1,7.983-.085,30.982,30.982,0,0,1,3.8,1.048,34.853,34.853,0,0,1,4.045,2.107c.068.045,7.47,4.789,10.98,5.887s20.162,4.636,20.331,4.67a.3.3,0,0,1,.2.169.293.293,0,0,1-.028.265l-13.65,20.844a.282.282,0,0,1-.315.118c-.1-.034-9.532-2.862-13.644-1.69-.7.2-1.521.462-2.428.749C213.926,216.954,208.727,218.594,204.811,218.594Zm-11.65-6.76c.158,0,.259.056.411.237a4.8,4.8,0,0,0,.969.856l1.127.834c2.022,1.521,4.321,3.239,6.67,3.943,3.7,1.127,10.574-1.037,15.12-2.467.913-.293,1.741-.563,2.439-.755,3.983-1.127,12.321,1.183,13.763,1.606l13.312-20.32c-2.58-.563-16.754-3.589-19.982-4.6-3.589-1.127-11.07-5.915-11.132-5.96a34.3,34.3,0,0,0-3.91-2.034,29.578,29.578,0,0,0-3.724-1.031,16.648,16.648,0,0,0-7.718.073c-3.532.98-6.473,3.414-9.318,5.769-.434.366-.868.721-1.3,1.076a120.707,120.707,0,0,1-14.163,9.481c-1.031.62-2.068,1.245-3.1,1.876a10.857,10.857,0,0,0-3.944,3.431,2.225,2.225,0,0,0,1.938,3.7,11.268,11.268,0,0,0,3.735-.6c.355-.1.71-.2,1.065-.282,1.127-.287,4.941-1.037,5.763,1.206.338.907-.332,1.634-.975,2.338s-1.189,1.29-1.042,2.062a2.075,2.075,0,0,0,1.887,1.4,7.041,7.041,0,0,0,2.383-.406l.361-.107a38.358,38.358,0,0,1,7.74-1.127,11.894,11.894,0,0,0,1.313-.152,1.556,1.556,0,0,1,.3-.051Z" transform="translate(-42.727 -70.952)" fill="#231f20"/>
    <rect id="Rectangle_26004" data-name="Rectangle 26004" width="30.297" height="57.479" rx="3.34" transform="translate(176.463 127.81) rotate(123.22)" fill="#fff"/>
    <path id="Path_3314" data-name="Path 3314" d="M192.261,213.23a2.141,2.141,0,0,1-1.183-.355l-44.927-29.43a2.163,2.163,0,0,1-.625-3l14.535-22.207a2.163,2.163,0,0,1,3-.625l44.933,29.43a2.163,2.163,0,0,1,.625,3l-14.529,22.207a2.169,2.169,0,0,1-1.369.935,2.04,2.04,0,0,1-.456.045Zm-30.387-55.389a1.69,1.69,0,0,0-.332.034,1.589,1.589,0,0,0-1.014.693l-14.535,22.207a1.611,1.611,0,0,0,.462,2.22l44.933,29.43a1.611,1.611,0,0,0,2.22-.462h0l14.535-22.2a1.6,1.6,0,0,0-.462-2.22l-44.933-29.43a1.617,1.617,0,0,0-.873-.276Z" transform="translate(-32.954 -60.524)" fill="#231f20"/>
    <path id="Path_3315" data-name="Path 3315" d="M190.377,211.013a.259.259,0,0,1-.152-.051l-37.007-24.224a.276.276,0,0,1-.085-.389l14.856-22.686a.265.265,0,0,1,.18-.118.27.27,0,0,1,.208.039l37.007,24.224a.282.282,0,0,1,.085.389l-14.856,22.686a.287.287,0,0,1-.237.13Zm-36.618-24.6,36.534,23.926,14.574-22.207L168.3,164.2Z" transform="translate(-36.411 -63.265)" fill="#d1d3d4"/>
    <path id="Path_3316" data-name="Path 3316" d="M235.006,232.613a1.465,1.465,0,0,1-.789-.231l-1.521-1a1.448,1.448,0,0,1-.417-1.994l2.856-4.366a1.442,1.442,0,0,1,1.994-.417l1.521,1a1.431,1.431,0,0,1,.625.913,1.414,1.414,0,0,1-.208,1.082l-2.856,4.366a1.431,1.431,0,0,1-.913.62,1.289,1.289,0,0,1-.293.028Zm1.335-7.673h-.18a.862.862,0,0,0-.563.377l-2.856,4.36A.884.884,0,0,0,233,230.9l1.521,1a.851.851,0,0,0,.659.124.834.834,0,0,0,.563-.377h0l2.862-4.36a.884.884,0,0,0-.254-1.217l-1.527-1a.851.851,0,0,0-.479-.146Z" transform="translate(-70.888 -89.828)" fill="#d1d3d4"/>
    <path id="Path_3317" data-name="Path 3317" d="M160.531,179.9a.27.27,0,0,1-.158-.045.282.282,0,0,1-.079-.389L164.525,173a.282.282,0,1,1,.468.31l-4.231,6.462A.276.276,0,0,1,160.531,179.9Z" transform="translate(-39.537 -67.334)" fill="#d1d3d4"/>
    <path id="Path_3318" data-name="Path 3318" d="M158.332,187.311a.3.3,0,0,1-.152-.045.282.282,0,0,1-.085-.389l.563-.868a.282.282,0,0,1,.389-.085.287.287,0,0,1,.084.394l-.563.862a.27.27,0,0,1-.237.13Z" transform="translate(-38.578 -73.021)" fill="#d1d3d4"/>
    <path id="Path_3319" data-name="Path 3319" d="M189.543,226.408a3.144,3.144,0,0,1,1.228,5.02,3.544,3.544,0,0,1-1.431.963,3.667,3.667,0,0,1-3.065-.214,3.442,3.442,0,0,1-1.211-4.445C185.774,226.3,188.157,225.873,189.543,226.408Z" transform="translate(-50.212 -90.62)" fill="#fff"/>
    <path id="Path_3320" data-name="Path 3320" d="M187.756,232.686a3.577,3.577,0,0,1-3.2-5.3c.766-1.549,3.267-2.068,4.834-1.465a3.431,3.431,0,0,1,1.341,5.47,3.87,3.87,0,0,1-1.549,1.042A4.158,4.158,0,0,1,187.756,232.686Zm.231-6.445a3.3,3.3,0,0,0-2.924,1.391,3.183,3.183,0,0,0,1.093,4.079,3.38,3.38,0,0,0,2.817.192,3.307,3.307,0,0,0,1.324-.884,2.867,2.867,0,0,0-1.127-4.574,3.38,3.38,0,0,0-1.177-.2Z" transform="translate(-49.958 -90.397)" fill="#231f20"/>
    <path id="Path_3321" data-name="Path 3321" d="M201.924,234.129a2.372,2.372,0,0,1,1.887.839,2.817,2.817,0,0,1,.462,1.206,3.977,3.977,0,0,1-.744,3.38,4.839,4.839,0,0,1-1.842,1.161,5.548,5.548,0,0,1-3.679.445c-1.741-.563-3.194-3.02-1.848-4.6A9.331,9.331,0,0,1,201.924,234.129Z" transform="translate(-54.988 -94.088)" fill="#fff"/>
    <path id="Path_3322" data-name="Path 3322" d="M198.883,241.364a3.876,3.876,0,0,1-1.183-.175,3.944,3.944,0,0,1-2.451-2.58,2.591,2.591,0,0,1,.468-2.467c1.127-1.358,4.236-2.513,5.96-2.513h0a2.642,2.642,0,0,1,2.113.952,3.116,3.116,0,0,1,.518,1.324,4.214,4.214,0,0,1-.817,3.6,5.144,5.144,0,0,1-1.944,1.239A7.166,7.166,0,0,1,198.883,241.364Zm2.817-7.172c-1.577,0-4.507,1.082-5.526,2.315a2.028,2.028,0,0,0-.361,1.949,3.38,3.38,0,0,0,2.079,2.2,5.116,5.116,0,0,0,3.487-.434,4.625,4.625,0,0,0,1.741-1.087,3.69,3.69,0,0,0,.676-3.127,2.439,2.439,0,0,0-.411-1.087,2.084,2.084,0,0,0-1.662-.727Z" transform="translate(-54.763 -93.869)" fill="#231f20"/>
    <path id="Path_3323" data-name="Path 3323" d="M211.229,240.979a3.312,3.312,0,0,1,1.42-.242,2.884,2.884,0,0,1,2.383,1.944,4.073,4.073,0,0,1-.3,3.149,4.586,4.586,0,0,1-2.879,2.383,3.7,3.7,0,0,1-3.538-.969C205.978,244.776,208.851,241.88,211.229,240.979Z" transform="translate(-60.147 -96.971)" fill="#fff"/>
    <path id="Path_3324" data-name="Path 3324" d="M210.712,248.388a3.876,3.876,0,0,1-2.817-1.166,3.025,3.025,0,0,1-.862-2.851c.394-1.729,2.253-3.256,3.882-3.876h0a3.645,3.645,0,0,1,1.544-.259,3.143,3.143,0,0,1,2.625,2.135,4.327,4.327,0,0,1-.321,3.38,4.839,4.839,0,0,1-3.053,2.524A4.028,4.028,0,0,1,210.712,248.388Zm.406-7.363c-1.493.563-3.183,1.938-3.538,3.47a2.473,2.473,0,0,0,.721,2.338,3.431,3.431,0,0,0,3.267.884,4.282,4.282,0,0,0,2.693-2.253,3.786,3.786,0,0,0,.293-2.929,2.6,2.6,0,0,0-2.141-1.758,3.042,3.042,0,0,0-1.3.225Z" transform="translate(-59.934 -96.753)" fill="#231f20"/>
    <path id="Path_3325" data-name="Path 3325" d="M232.953,184.781a23.479,23.479,0,0,0-7.3-2.817c-4.462-1.076-18.2-1.161-18.3,2.141s15.143,5.07,15.143,5.07,7.093,7.29,13.475,6.2" transform="translate(-60.108 -71.019)" fill="#fff"/>
    <path id="Path_3326" data-name="Path 3326" d="M234.374,195.5c-5.741,0-11.481-5.566-12.219-6.31-1.989-.237-15.4-1.955-15.3-5.352a1.73,1.73,0,0,1,.783-1.324c2.879-2.2,13.746-2.073,17.864-1.082a23.958,23.958,0,0,1,7.386,2.879.282.282,0,0,1,.073.394.287.287,0,0,1-.394.073,24.2,24.2,0,0,0-7.2-2.817c-3.943-.952-14.675-1.1-17.391.975a1.2,1.2,0,0,0-.563.9c-.062,2.22,9.1,4.112,14.9,4.788a.287.287,0,0,1,.169.085c.068.073,7.064,7.166,13.222,6.1a.276.276,0,0,1,.327.231.282.282,0,0,1-.231.327,8.7,8.7,0,0,1-1.425.141Z" transform="translate(-59.89 -70.778)" fill="#231f20"/>
    <path id="Path_3327" data-name="Path 3327" d="M298.864,196.676a73.766,73.766,0,0,1-18.506,27.475c-.654.608-1.313,1.206-1.989,1.786l-11.019-1.966,6.5-27.441Z" transform="translate(-86.303 -77.671)" fill="#72bf44"/>
    <path id="Path_3328" data-name="Path 3328" d="M183,178.567l1.645,1.893c1.053,1.307,4.383.383,7.442-2.062s4.687-5.5,3.634-6.811l-1.645-1.887Z" transform="translate(-49.472 -65.955)"/>
    <path id="Path_3329" data-name="Path 3329" d="M185.955,181.12a2.152,2.152,0,0,1-1.769-.7l-1.639-1.882a.282.282,0,0,1,.039-.406l11.076-8.867a.282.282,0,0,1,.389.034l1.645,1.887c.592.738.5,1.9-.242,3.3a14.816,14.816,0,0,1-8.005,6.439,5.634,5.634,0,0,1-1.493.2Zm-2.817-2.732,1.453,1.69c.434.563,1.408.642,2.676.293a14.309,14.309,0,0,0,7.662-6.135c.62-1.161.732-2.135.3-2.665l-1.459-1.69Z" transform="translate(-49.244 -65.737)" fill="#231f20"/>
    <ellipse id="Ellipse_1252" data-name="Ellipse 1252" cx="7.093" cy="3.042" rx="7.093" ry="3.042" transform="matrix(0.781, -0.625, 0.625, 0.781, 131.615, 110.239)"/>
    <path id="Path_3330" data-name="Path 3330" d="M184.07,178.767a2.163,2.163,0,0,1-1.769-.7c-.563-.727-.5-1.893.248-3.284a14.816,14.816,0,0,1,8.005-6.411c1.521-.423,2.682-.254,3.262.473h0c.563.727.5,1.893-.248,3.284a14.878,14.878,0,0,1-8.005,6.411A5.633,5.633,0,0,1,184.07,178.767Zm7.977-10.061a5.2,5.2,0,0,0-1.341.208,14.27,14.27,0,0,0-7.656,6.135c-.625,1.161-.738,2.135-.31,2.665s1.4.637,2.67.287a14.337,14.337,0,0,0,7.656-6.135c.625-1.166.738-2.135.31-2.67h0a1.645,1.645,0,0,0-1.329-.49Z" transform="translate(-49.004 -65.277)" fill="#231f20"/>
    <path id="Path_3331" data-name="Path 3331" d="M193.465,171.52l-.738.693c-.045.045-.045.056,0,.068a.845.845,0,0,1,.676.434c.107.254,0,.563-.355.975-.084.1-.192.208-.287.321l-1.284-.079a.868.868,0,0,0,.282-.451.969.969,0,0,0-.062-.259h-.039l-1.369,1.29.09.039a1.871,1.871,0,0,1,.642.361c.276.259.18.648-.276,1.127a4.783,4.783,0,0,1-1.566,1.127,4.1,4.1,0,0,1-1.391.377h-.727l-.5.479-.789-.254.5-.468a2.292,2.292,0,0,1-.3-.259.625.625,0,0,1-.073-.715,2.53,2.53,0,0,1,.608-.8l.828.141c-.321.349-.423.625-.186.794l1.346-1.284-.366-.225a.423.423,0,0,1-.22-.383,1.166,1.166,0,0,1,.315-.6,4.361,4.361,0,0,1,.879-.789,5.362,5.362,0,0,1,1.729-.811c.237-.062.456-.09.687-.135h.079l.721-.682Zm-5.476,5.172a1.628,1.628,0,0,0,.608-.1c.4-.13.822-.473.856-.7s-.124-.254-.242-.355Zm2.693-3.577c-.2.062-.377.1-.563.169-.434.158-.851.53-.822.727,0,.107.124.152.225.208Z" transform="translate(-50.681 -66.75)" fill="#fff"/>
    <path id="Path_3332" data-name="Path 3332" d="M193.535,108l-1.228,2.18c-.884,1.431,1.093,4.259,4.428,6.326s6.76,2.58,7.628,1.127l1.234-2.18Z" transform="translate(-53.444 -39.014)"/>
    <path id="Path_3333" data-name="Path 3333" d="M202.166,118.441a6.646,6.646,0,0,1-.963-.079,14.867,14.867,0,0,1-8.715-5.4c-.907-1.3-1.127-2.439-.642-3.234l1.222-2.175a.293.293,0,0,1,.175-.13.271.271,0,0,1,.22,0l12.061,7.476a.282.282,0,0,1,.1.377l-1.228,2.186A2.357,2.357,0,0,1,202.166,118.441Zm-8.749-10.354-1.087,1.927c-.366.563-.135,1.544.62,2.62a14.3,14.3,0,0,0,8.338,5.172c1.307.2,2.253,0,2.62-.6L205,115.264Z" transform="translate(-53.225 -38.752)" fill="#231f20"/>
    <ellipse id="Ellipse_1253" data-name="Ellipse 1253" cx="3.047" cy="7.105" rx="3.047" ry="7.105" transform="matrix(0.529, -0.849, 0.849, 0.529, 138.842, 71.731)"/>
    <path id="Path_3334" data-name="Path 3334" d="M204.349,115.68a11.884,11.884,0,0,1-5.791-2c-3.515-2.18-5.5-5.127-4.507-6.71s4.507-1.127,8.022,1.059,5.5,5.127,4.507,6.71h0A2.484,2.484,0,0,1,204.349,115.68Zm-8.112-9.1a1.93,1.93,0,0,0-1.724.676c-.783,1.273,1.2,3.989,4.338,5.938s6.456,2.513,7.245,1.245-1.2-3.989-4.338-5.938A11.685,11.685,0,0,0,196.237,106.577Zm10.1,8.005Z" transform="translate(-54.185 -38.154)" fill="#231f20"/>
    <path id="Path_3335" data-name="Path 3335" d="M206.681,114.519l-.9-.462h-.062a.828.828,0,0,1-.186.783c-.2.18-.563.175-1.037,0-.13-.045-.259-.107-.4-.163l-.355-1.239a.89.89,0,0,0,.524.118,1,1,0,0,0,.22-.146h-.028l-1.69-.862a.611.611,0,0,0,0,.1,1.977,1.977,0,0,1-.124.721c-.158.349-.563.383-1.172.124a4.743,4.743,0,0,1-1.572-1.127,4.011,4.011,0,0,1-.823-1.189c-.1-.231-.169-.451-.254-.676l-.614-.315-.028-.828.6.31a2.752,2.752,0,0,1,.146-.366.625.625,0,0,1,.653-.31,2.631,2.631,0,0,1,.958.3l.141.828c-.434-.18-.727-.186-.811.09l1.69.845c.028-.146.051-.287.09-.423a.4.4,0,0,1,.282-.332,1.127,1.127,0,0,1,.665.09,4.822,4.822,0,0,1,1.042.563,5.375,5.375,0,0,1,1.341,1.358c.135.2.237.4.355.6l.039.073.884.451Zm-6.7-3.431a1.566,1.566,0,0,0,.293.563,1.386,1.386,0,0,0,.952.563c.18-.034.2-.208.248-.349Zm4.27,1.346c-.124-.175-.22-.327-.344-.479-.3-.355-.789-.625-.963-.563s-.1.169-.124.287Z" transform="translate(-56.1 -39.444)" fill="#fff"/>
    <path id="Path_3336" data-name="Path 3336" d="M181.5,127.086c-2.541.918-4.58,5.881-4.58,5.881l.648,2.467a6.529,6.529,0,1,0,12.281-4.422L188.8,128.7S184.041,126.173,181.5,127.086Z" transform="translate(-46.817 -47.261)"/>
    <path id="Path_3337" data-name="Path 3337" d="M183.519,139.819a6.833,6.833,0,0,1-6.4-4.507l-.659-2.49a.332.332,0,0,1,0-.18c.084-.2,2.118-5.07,4.749-6.039h0c2.631-.946,7.324,1.521,7.51,1.628a.3.3,0,0,1,.124.13l1.065,2.315a6.811,6.811,0,0,1-6.388,9.143Zm-6.49-7.048.631,2.372a6.244,6.244,0,0,0,11.74-4.253l-1.02-2.2c-.637-.327-4.755-2.355-6.969-1.555s-4.124,4.986-4.405,5.639Z" transform="translate(-46.611 -47.043)" fill="#231f20"/>
    <circle id="Ellipse_1254" data-name="Ellipse 1254" cx="6.524" cy="6.524" r="6.524" transform="translate(129.81 77.881)"/>
    <path id="Path_3338" data-name="Path 3338" d="M182.71,136.9a6.8,6.8,0,1,1,5.561-2.892A6.805,6.805,0,0,1,182.71,136.9Zm0-13.053a6.245,6.245,0,1,0,5.871,4.135h0a6.2,6.2,0,0,0-3.217-3.538A6.265,6.265,0,0,0,182.71,123.848Z" transform="translate(-46.365 -45.691)" fill="#231f20"/>
    <path id="Path_3339" data-name="Path 3339" d="M184.46,127.16l.321.89c0,.062.045.073.107.062a2.783,2.783,0,0,1,1.391.13,2.051,2.051,0,0,1,1.127.935c.068.118.118.242.186.372l-1.38.5a1.02,1.02,0,0,0-.411-.5,5.19,5.19,0,0,0-.49-.192v.028l.62,1.724h.163a5.069,5.069,0,0,1,1.206-.045,1.69,1.69,0,0,1,1.414.969,2.2,2.2,0,0,1-.563,2.76c-.225.18-.468.332-.715.507l.242.67-1.273.456-.248-.687c-.282,0-.563.056-.811.062a2.327,2.327,0,0,1-1.442-.439,2.253,2.253,0,0,1-.749-1.065l1.358-.49a1.127,1.127,0,0,0,1.194.71c-.22-.62-.445-1.234-.665-1.848l-.851.056a2.09,2.09,0,0,1-1-.169,1.639,1.639,0,0,1-.749-.7,2.3,2.3,0,0,1-.344-1.211,2.107,2.107,0,0,1,.766-1.617,6.762,6.762,0,0,1,.625-.423l.079-.045-.4-.93Zm2.484,6.9a1.2,1.2,0,0,0,.484-.451.789.789,0,0,0-.231-1.014,1.571,1.571,0,0,0-.822-.118Zm-3-4.332a3.974,3.974,0,0,0-.4.428.715.715,0,0,0,.293,1.059,1.532,1.532,0,0,0,.659.051Z" transform="translate(-49.079 -47.38)" fill="#fff"/>
    <path id="Path_3340" data-name="Path 3340" d="M201.974,81.163c-2.4-1.239-7.425.648-7.425.648l-1.363,2.158a6.523,6.523,0,1,0,11.594,5.983l.969-2.361S204.38,82.4,201.974,81.163Z" transform="translate(-53.602 -27.112)"/>
    <path id="Path_3341" data-name="Path 3341" d="M198.727,93.552a6.813,6.813,0,0,1-6.045-9.932l1.375-2.18a.31.31,0,0,1,.141-.113c.208-.079,5.172-1.915,7.656-.637h0c2.484,1.284,3.865,6.394,3.943,6.608a.327.327,0,0,1,0,.18l-.969,2.36A6.828,6.828,0,0,1,198.727,93.552ZM194.5,81.822,193.19,83.9A6.243,6.243,0,1,0,204.3,89.6l.924-2.253c-.2-.687-1.515-5.07-3.611-6.163S195.173,81.586,194.5,81.822Z" transform="translate(-53.369 -26.892)" fill="#231f20"/>
    <circle id="Ellipse_1255" data-name="Ellipse 1255" cx="6.524" cy="6.524" r="6.524" transform="translate(139.618 51.854)"/>
    <path id="Path_3342" data-name="Path 3342" d="M200.111,90.7a6.805,6.805,0,1,1,2.073-.321A6.918,6.918,0,0,1,200.111,90.7Zm0-13.053a6.236,6.236,0,1,0,6,4.558,6.264,6.264,0,0,0-6-4.558Z" transform="translate(-53.975 -25.517)" fill="#231f20"/>
    <path id="Path_3343" data-name="Path 3343" d="M205.289,81.82l-.434.845a.079.079,0,0,0,0,.118,2.85,2.85,0,0,1,.856,1.127,2.022,2.022,0,0,1,.062,1.442c-.039.13-.09.254-.141.389l-1.307-.67a.98.98,0,0,0,.084-.642,3.611,3.611,0,0,0-.192-.484h-.034l-.817,1.628.124.107a5.353,5.353,0,0,1,.856.856,1.69,1.69,0,0,1,.248,1.69,2.18,2.18,0,0,1-2.406,1.459c-.287-.039-.563-.113-.862-.175l-.327.631-1.2-.625.338-.648c-.208-.192-.417-.361-.6-.563a2.177,2.177,0,0,1-.389-2.625l1.284.659a1.127,1.127,0,0,0,.3,1.358q.445-.879.9-1.741c-.2-.2-.417-.389-.62-.592a2.1,2.1,0,0,1-.563-.845,1.69,1.69,0,0,1,0-1.02,2.321,2.321,0,0,1,.659-1.076,2.1,2.1,0,0,1,1.69-.563,6.565,6.565,0,0,1,.732.169h.09l.451-.879Zm-3.38,6.518a1.228,1.228,0,0,0,.659.045.783.783,0,0,0,.563-.862,1.561,1.561,0,0,0-.468-.676Zm1.127-5.149a3.985,3.985,0,0,0-.563,0,.715.715,0,0,0-.563.935,1.527,1.527,0,0,0,.411.518Z" transform="translate(-56.404 -27.29)" fill="#fff"/>
    <path id="Path_3344" data-name="Path 3344" d="M205.422,148.4c-1.391,2.315.169,7.453.169,7.453l2.062,1.5a6.525,6.525,0,0,0,6.726-11.183l-2.293-1.127S206.814,146.1,205.422,148.4Z" transform="translate(-59.01 -55.188)"/>
    <path id="Path_3345" data-name="Path 3345" d="M210.786,158.375a6.76,6.76,0,0,1-3.5-.975l-2.084-1.515a.253.253,0,0,1-.1-.141c-.068-.22-1.577-5.29-.141-7.684h0c1.442-2.394,6.631-3.436,6.85-3.482a.281.281,0,0,1,.18,0l2.287,1.127a6.805,6.805,0,0,1-1.837,12.45A6.939,6.939,0,0,1,210.786,158.375Zm-5.172-2.862,1.983,1.442a6.242,6.242,0,0,0,6.417-10.7l-2.186-1.07c-.7.152-5.166,1.183-6.383,3.2h0C204.229,150.37,205.417,154.8,205.615,155.513Z" transform="translate(-58.791 -54.98)" fill="#231f20"/>
    <circle id="Ellipse_1256" data-name="Ellipse 1256" cx="6.524" cy="6.524" r="6.524" transform="translate(144.063 89.21)"/>
    <path id="Path_3346" data-name="Path 3346" d="M208,157.011a6.805,6.805,0,1,1,3.515-12.642h0A6.805,6.805,0,0,1,208,157.011Zm0-13.047a6.236,6.236,0,1,0,3.234.9h0a6.231,6.231,0,0,0-3.217-.9Z" transform="translate(-57.422 -54.472)" fill="#231f20"/>
    <path id="Path_3347" data-name="Path 3347" d="M206.217,149.862c.27.163.563.321.817.49a.079.079,0,0,0,.118,0,2.924,2.924,0,0,1,1.161-.783,2.034,2.034,0,0,1,1.448.034l.377.169-.755,1.256a1.008,1.008,0,0,0-.637-.124,3.947,3.947,0,0,0-.5.163v.028l1.566.946.113-.118a5.165,5.165,0,0,1,.913-.8,1.69,1.69,0,0,1,1.69-.135,2.186,2.186,0,0,1,1.172,1.127,2.214,2.214,0,0,1,.13,1.346c-.062.282-.152.563-.231.845l.608.372-.7,1.155-.625-.377c-.2.2-.389.389-.563.563a2.254,2.254,0,0,1-1.4.563,2.2,2.2,0,0,1-1.251-.344l.744-1.239a1.127,1.127,0,0,0,1.375-.208l-1.69-1.008-.625.563a2.146,2.146,0,0,1-.879.5,1.69,1.69,0,0,1-1.02-.068,2.366,2.366,0,0,1-1.037-.727,2.113,2.113,0,0,1-.423-1.735,6.25,6.25,0,0,1,.214-.721.808.808,0,0,1,0-.09L205.49,151Zm6.287,3.774a1.172,1.172,0,0,0,.085-.659.783.783,0,0,0-.817-.637,1.566,1.566,0,0,0-.71.428Zm-5.07-1.459a4.161,4.161,0,0,0-.039.563.727.727,0,0,0,.9.642,1.617,1.617,0,0,0,.563-.377Z" transform="translate(-59.292 -57.114)" fill="#fff"/>
    <path id="Path_3348" data-name="Path 3348" d="M201.618,206.148c-.682-1.887-1.9-4.546-3.611-5.453-2.744-1.47-8.569.625-8.569.625l-1.6,2.462a7.284,7.284,0,0,0-.789,2.366Z" transform="translate(-51.24 -79.261)"/>
    <path id="Path_3349" data-name="Path 3349" d="M201.4,206.211H186.83a.293.293,0,0,1-.282-.327,7.989,7.989,0,0,1,.817-2.456l1.622-2.484a.248.248,0,0,1,.141-.107c.242-.09,5.972-2.118,8.794-.608,1.752.935,3,3.566,3.741,5.634a.27.27,0,0,1-.034.254.276.276,0,0,1-.231.1Zm-14.23-.563h13.825c-.969-2.552-2.146-4.293-3.335-4.924-2.428-1.3-7.521.361-8.253.608l-1.555,2.383A7.087,7.087,0,0,0,187.168,205.648Z" transform="translate(-51.021 -79.042)" fill="#231f20"/>
    <path id="Path_3350" data-name="Path 3350" d="M203.486,204.534a7.515,7.515,0,1,0-14.991,0Z" transform="translate(-51.863 -77.646)"/>
    <path id="Path_3351" data-name="Path 3351" d="M203.267,204.6H188.276a.287.287,0,0,1-.282-.265,7.8,7.8,0,1,1,15.554,0,.287.287,0,0,1-.282.265Zm-14.72-.563H203a7.226,7.226,0,1,0-14.444,0Z" transform="translate(-51.644 -77.433)" fill="#231f20"/>
    <path id="Path_3352" data-name="Path 3352" d="M198.154,205.526l.7.687-.1.192h2.789c-.169-.175-.349-.338-.535-.5l-.141-.124c.338-.625.665-1.245.991-1.859h.039a4.834,4.834,0,0,1,.214.563,1.127,1.127,0,0,1-.107.732l1.493.8c.056-.152.118-.3.169-.445a2.36,2.36,0,0,0-.045-1.69,3.329,3.329,0,0,0-.969-1.29c-.056-.045-.062-.073,0-.135l.518-.969-1.375-.732-.535,1h-.1a7.4,7.4,0,0,0-.845-.208,2.411,2.411,0,0,0-1.972.563,2.749,2.749,0,0,0-.777,1.228,1.927,1.927,0,0,0,0,1.183A2.394,2.394,0,0,0,198.154,205.526Zm1.729-2.484a4.422,4.422,0,0,1,.665,0l-.884,1.662a1.854,1.854,0,0,1-.468-.6.834.834,0,0,1,.687-1.059Z" transform="translate(-55.792 -79.518)" fill="#fff"/>
    <path id="Path_3353" data-name="Path 3353" d="M204.188,210.843H179.682a.282.282,0,1,1,0-.563h24.506a.282.282,0,0,1,.282.282A.287.287,0,0,1,204.188,210.843Z" transform="translate(-47.9 -83.674)" fill="#231f20"/>
  </g>
</svg>
