<svg xmlns="http://www.w3.org/2000/svg" xmlns:xlink="http://www.w3.org/1999/xlink" width="552" height="377" viewBox="0 0 552 377">
  <defs>
    <filter id="Rectangle_34" x="0" y="0" width="552" height="377" filterUnits="userSpaceOnUse">
      <feOffset dy="20" input="SourceAlpha"/>
      <feGaussianBlur stdDeviation="22" result="blur"/>
      <feFlood flood-color="#8e8e8e" flood-opacity="0.161"/>
      <feComposite operator="in" in2="blur"/>
      <feComposite in="SourceGraphic"/>
    </filter>
    <radialGradient id="radial-gradient" cx="0.086" cy="0.245" r="0.771" gradientTransform="translate(-2.657) scale(1.29 1)" gradientUnits="objectBoundingBox">
      <stop offset="0" stop-color="#ed1c24"/>
      <stop offset="1" stop-color="#8b181b"/>
    </radialGradient>
    <radialGradient id="radial-gradient-2" cx="0.198" cy="0.127" r="0.807" gradientTransform="matrix(0.58, 0.943, 1.09, -0.222, -5.806, 10.978)" gradientUnits="objectBoundingBox">
      <stop offset="0" stop-color="#f37f80"/>
      <stop offset="1" stop-color="#9e1c20"/>
    </radialGradient>
    <radialGradient id="radial-gradient-4" cx="-9.477" cy="1.812" r="0.37" gradientTransform="translate(-0.304) scale(1.608 1)" xlink:href="#radial-gradient-2"/>
    <linearGradient id="linear-gradient" x1="-0.879" y1="-14.941" x2="0.024" y2="-15.354" gradientUnits="objectBoundingBox">
      <stop offset="0" stop-color="#fff"/>
      <stop offset="1" stop-color="#e6e6e5"/>
    </linearGradient>
    <radialGradient id="radial-gradient-5" cx="0.626" cy="0.342" r="0.605" gradientTransform="matrix(0.135, 0.991, -0.989, 0.135, 0.891, -0.529)" gradientUnits="objectBoundingBox">
      <stop offset="0" stop-color="#c1c3c5"/>
      <stop offset="0.47" stop-color="#c1c3c5"/>
      <stop offset="1" stop-color="#c0c2c4"/>
    </radialGradient>
    <radialGradient id="radial-gradient-6" cx="0.632" cy="0.335" r="0.607" gradientTransform="matrix(0.119, 0.993, -0.998, 0.12, 1.135, -1.066)" gradientUnits="objectBoundingBox">
      <stop offset="0" stop-color="#c3c5c7"/>
      <stop offset="0.47" stop-color="#c3c5c7"/>
      <stop offset="1" stop-color="#c1c3c5"/>
    </radialGradient>
    <radialGradient id="radial-gradient-7" cx="0.62" cy="0.328" r="0.61" gradientTransform="matrix(0.091, 0.996, -1.002, 0.092, 1.411, -1.688)" gradientUnits="objectBoundingBox">
      <stop offset="0" stop-color="#c5c7c9"/>
      <stop offset="0.47" stop-color="#c5c7c9"/>
      <stop offset="1" stop-color="#c2c4c5"/>
    </radialGradient>
    <radialGradient id="radial-gradient-8" cx="0.634" cy="0.316" r="0.616" gradientTransform="matrix(0.072, 0.997, -1.006, 0.072, 1.695, -2.409)" gradientUnits="objectBoundingBox">
      <stop offset="0" stop-color="#c7c9ca"/>
      <stop offset="0.47" stop-color="#c7c9ca"/>
      <stop offset="1" stop-color="#c3c5c6"/>
    </radialGradient>
    <radialGradient id="radial-gradient-9" cx="0.622" cy="0.302" r="0.625" gradientTransform="matrix(0.038, 0.999, -1.019, 0.038, 2.035, -3.267)" gradientUnits="objectBoundingBox">
      <stop offset="0" stop-color="#c9cacc"/>
      <stop offset="0.47" stop-color="#c9cacc"/>
      <stop offset="1" stop-color="#c4c6c7"/>
    </radialGradient>
    <radialGradient id="radial-gradient-10" cx="0.646" cy="0.285" r="0.638" gradientTransform="matrix(0.013, 1, -1.02, 0.014, 2.39, -4.283)" gradientUnits="objectBoundingBox">
      <stop offset="0" stop-color="#cbccce"/>
      <stop offset="0.47" stop-color="#cbccce"/>
      <stop offset="1" stop-color="#c5c7c8"/>
    </radialGradient>
    <radialGradient id="radial-gradient-11" cx="0.63" cy="0.301" r="0.665" gradientTransform="matrix(0.028, 1, -1.013, 0.028, 2.632, -5.455)" gradientUnits="objectBoundingBox">
      <stop offset="0" stop-color="#cdced0"/>
      <stop offset="0.47" stop-color="#cdced0"/>
      <stop offset="1" stop-color="#c7c8c9"/>
    </radialGradient>
    <radialGradient id="radial-gradient-12" cx="0.667" cy="0.277" r="0.69" gradientTransform="matrix(0.059, 0.998, -1.015, 0.06, 2.761, -6.823)" gradientUnits="objectBoundingBox">
      <stop offset="0" stop-color="#cfd0d2"/>
      <stop offset="0.47" stop-color="#cfd0d2"/>
      <stop offset="1" stop-color="#c8c9ca"/>
    </radialGradient>
    <radialGradient id="radial-gradient-13" cx="0.675" cy="0.244" r="0.725" gradientTransform="matrix(0.109, 0.994, -1.026, 0.112, 2.685, -8.409)" gradientUnits="objectBoundingBox">
      <stop offset="0" stop-color="#d1d2d4"/>
      <stop offset="0.47" stop-color="#d1d2d4"/>
      <stop offset="1" stop-color="#c9cacb"/>
    </radialGradient>
    <radialGradient id="radial-gradient-14" cx="0.662" cy="0.198" r="0.774" gradientTransform="matrix(0.165, 0.986, -1.022, 0.171, 2.457, -10.3)" gradientUnits="objectBoundingBox">
      <stop offset="0" stop-color="#d3d4d6"/>
      <stop offset="0.47" stop-color="#d3d4d6"/>
      <stop offset="1" stop-color="#cacbcc"/>
    </radialGradient>
    <radialGradient id="radial-gradient-15" cx="0.743" cy="0.231" r="0.853" gradientTransform="matrix(0.208, 0.978, -1.006, 0.214, 2.19, -12.74)" gradientUnits="objectBoundingBox">
      <stop offset="0" stop-color="#d4d6d7"/>
      <stop offset="0.47" stop-color="#d4d6d7"/>
      <stop offset="1" stop-color="#cbcccd"/>
    </radialGradient>
    <radialGradient id="radial-gradient-16" cx="0.739" cy="0.157" r="0.954" gradientTransform="matrix(0.276, 0.961, -0.995, 0.286, 1.396, -15.676)" gradientUnits="objectBoundingBox">
      <stop offset="0" stop-color="#d6d8d9"/>
      <stop offset="0.47" stop-color="#d6d8d9"/>
      <stop offset="1" stop-color="#cdcecf"/>
    </radialGradient>
    <radialGradient id="radial-gradient-17" cx="0.827" cy="0.039" r="1.107" gradientTransform="matrix(0.349, 0.937, -0.987, 0.367, -0.035, -19.507)" gradientUnits="objectBoundingBox">
      <stop offset="0" stop-color="#d8dadb"/>
      <stop offset="0.47" stop-color="#d8dadb"/>
      <stop offset="1" stop-color="#cecfd0"/>
    </radialGradient>
    <radialGradient id="radial-gradient-18" cx="0.859" cy="0.043" r="1.378" gradientTransform="matrix(0.423, 0.906, -0.947, 0.443, -2.104, -25.119)" gradientUnits="objectBoundingBox">
      <stop offset="0" stop-color="#dadcdd"/>
      <stop offset="0.47" stop-color="#dadcdd"/>
      <stop offset="1" stop-color="#cfd0d1"/>
    </radialGradient>
    <radialGradient id="radial-gradient-19" cx="0.916" cy="-0.245" r="1.846" gradientTransform="matrix(0.507, 0.862, -0.909, 0.535, -6.235, -33.963)" gradientUnits="objectBoundingBox">
      <stop offset="0" stop-color="#dcdddf"/>
      <stop offset="0.47" stop-color="#dcdddf"/>
      <stop offset="1" stop-color="#d0d1d2"/>
    </radialGradient>
    <radialGradient id="radial-gradient-20" cx="1.046" cy="-0.468" r="2.989" gradientTransform="matrix(0.587, 0.809, -0.848, 0.615, -14.904, -53.369)" gradientUnits="objectBoundingBox">
      <stop offset="0" stop-color="#dedfe1"/>
      <stop offset="0.47" stop-color="#dedfe1"/>
      <stop offset="1" stop-color="#d1d2d3"/>
    </radialGradient>
    <radialGradient id="radial-gradient-21" cx="1.646" cy="-2.962" r="8.289" gradientTransform="matrix(0.672, 0.741, -0.784, 0.711, -55.43, -137.573)" gradientUnits="objectBoundingBox">
      <stop offset="0" stop-color="#e0e1e2"/>
      <stop offset="0.47" stop-color="#e0e1e2"/>
      <stop offset="1" stop-color="#d2d3d4"/>
    </radialGradient>
    <radialGradient id="radial-gradient-22" cx="2.867" cy="-2.261" r="9.68" gradientTransform="matrix(-0.722, -0.692, -0.746, 0.777, -175.86, -83.085)" gradientUnits="objectBoundingBox">
      <stop offset="0" stop-color="#e2e3e4"/>
      <stop offset="0.47" stop-color="#e2e3e4"/>
      <stop offset="1" stop-color="#d4d4d5"/>
    </radialGradient>
    <radialGradient id="radial-gradient-23" cx="1.332" cy="-1.089" r="3.057" gradientTransform="matrix(-0.748, -0.664, -0.702, 0.791, -56.104, -24.509)" gradientUnits="objectBoundingBox">
      <stop offset="0" stop-color="#e4e5e6"/>
      <stop offset="0.47" stop-color="#e4e5e6"/>
      <stop offset="1" stop-color="#d5d5d6"/>
    </radialGradient>
    <radialGradient id="radial-gradient-24" cx="1.053" cy="-0.234" r="1.816" gradientTransform="matrix(-0.777, -0.629, -0.672, 0.83, -33.352, -14.268)" gradientUnits="objectBoundingBox">
      <stop offset="0" stop-color="#e6e7e8"/>
      <stop offset="0.47" stop-color="#e6e7e8"/>
      <stop offset="1" stop-color="#d6d6d7"/>
    </radialGradient>
    <radialGradient id="radial-gradient-25" cx="0.942" cy="-0.08" r="1.322" gradientTransform="matrix(-0.802, -0.598, -0.636, 0.854, -23.689, -9.693)" gradientUnits="objectBoundingBox">
      <stop offset="0" stop-color="#e8e9ea"/>
      <stop offset="0.47" stop-color="#e8e9ea"/>
      <stop offset="1" stop-color="#d7d8d8"/>
    </radialGradient>
    <radialGradient id="radial-gradient-26" cx="0.886" cy="0.193" r="1.046" gradientTransform="matrix(-0.828, -0.56, -0.602, 0.891, -18.28, -7.408)" gradientUnits="objectBoundingBox">
      <stop offset="0" stop-color="#eaebec"/>
      <stop offset="0.47" stop-color="#eaebec"/>
      <stop offset="1" stop-color="#d8d9d9"/>
    </radialGradient>
    <radialGradient id="radial-gradient-27" cx="0.64" cy="0.025" r="0.889" gradientTransform="matrix(-0.849, -0.529, -0.561, 0.901, -14.846, -5.559)" gradientUnits="objectBoundingBox">
      <stop offset="0" stop-color="#eceded"/>
      <stop offset="0.47" stop-color="#eceded"/>
      <stop offset="1" stop-color="#d9dada"/>
    </radialGradient>
    <radialGradient id="radial-gradient-28" cx="0.642" cy="0.204" r="0.779" gradientTransform="matrix(-0.873, -0.489, -0.523, 0.934, -12.429, -4.624)" gradientUnits="objectBoundingBox">
      <stop offset="0" stop-color="#eeefef"/>
      <stop offset="0.47" stop-color="#eeefef"/>
      <stop offset="1" stop-color="#dadbdb"/>
    </radialGradient>
    <radialGradient id="radial-gradient-29" cx="0.647" cy="0.249" r="0.712" gradientTransform="matrix(-0.89, -0.455, -0.487, 0.953, -10.512, -3.822)" gradientUnits="objectBoundingBox">
      <stop offset="0" stop-color="#f0f0f1"/>
      <stop offset="0.47" stop-color="#f0f0f1"/>
      <stop offset="1" stop-color="#dbdcdc"/>
    </radialGradient>
    <radialGradient id="radial-gradient-30" cx="0.655" cy="0.377" r="0.66" gradientTransform="matrix(-0.911, -0.413, -0.446, 0.983, -9.125, -3.352)" gradientUnits="objectBoundingBox">
      <stop offset="0" stop-color="#f2f2f3"/>
      <stop offset="0.47" stop-color="#f2f2f3"/>
      <stop offset="1" stop-color="#dcdddd"/>
    </radialGradient>
    <radialGradient id="radial-gradient-31" cx="0.666" cy="0.248" r="0.629" gradientTransform="matrix(-0.925, 0.38, 0.405, 0.985, -21.551, 3.163)" gradientUnits="objectBoundingBox">
      <stop offset="0" stop-color="#f4f4f5"/>
      <stop offset="0.47" stop-color="#f4f4f5"/>
      <stop offset="1" stop-color="#dddede"/>
    </radialGradient>
    <radialGradient id="radial-gradient-32" cx="0.515" cy="0.358" r="0.605" gradientTransform="matrix(-0.942, 0.336, 0.361, 1.009, -18.82, 2.09)" gradientUnits="objectBoundingBox">
      <stop offset="0" stop-color="#f6f6f7"/>
      <stop offset="0.47" stop-color="#f6f6f7"/>
      <stop offset="1" stop-color="#dfdfdf"/>
    </radialGradient>
    <radialGradient id="radial-gradient-33" cx="0.583" cy="0.244" r="0.6" gradientTransform="matrix(-0.954, 0.3, 0.314, 0.997, -16.331, 1.794)" gradientUnits="objectBoundingBox">
      <stop offset="0" stop-color="#f8f9f9"/>
      <stop offset="0.47" stop-color="#f8f9f9"/>
      <stop offset="1" stop-color="#e0e0e0"/>
    </radialGradient>
    <radialGradient id="radial-gradient-34" cx="0.596" cy="0.3" r="0.593" gradientTransform="matrix(-0.963, 0.269, 0.282, 1.009, -14.294, 1.205)" gradientUnits="objectBoundingBox">
      <stop offset="0" stop-color="#fbfbfc"/>
      <stop offset="0.47" stop-color="#fbfbfc"/>
      <stop offset="1" stop-color="#e2e2e2"/>
    </radialGradient>
    <radialGradient id="radial-gradient-35" cx="0.426" cy="0.348" r="0.59" gradientTransform="matrix(-0.038, 0.999, 1.052, 0.04, -20.872, 19.265)" gradientUnits="objectBoundingBox">
      <stop offset="0" stop-color="#fff"/>
      <stop offset="0.47" stop-color="#fff"/>
      <stop offset="1" stop-color="#e4e4e4"/>
    </radialGradient>
    <radialGradient id="radial-gradient-36" cx="0.611" cy="0.395" r="0.59" gradientTransform="matrix(-0.974, 0.227, 0.239, 1.027, -12.266, 0.553)" xlink:href="#radial-gradient-35"/>
    <radialGradient id="radial-gradient-67" cx="0.5" cy="0.5" r="0.684" gradientTransform="translate(0.198) scale(0.603 1)" gradientUnits="objectBoundingBox">
      <stop offset="0" stop-color="#00aeef"/>
      <stop offset="1" stop-color="#004e96"/>
    </radialGradient>
    <clipPath id="clip-path">
      <path id="Path_13376" data-name="Path 13376" d="M109.843,60.765a32.539,32.539,0,0,0,59.72-.411l-29.969-18.53ZM139.609,15.11A32.555,32.555,0,0,0,107.78,54.385l32.4-21.557,11.561,8.2V35.438h7.04V45.526l12.7,8.828a33.015,33.015,0,0,0,.7-6.73A32.509,32.509,0,0,0,139.609,15.1Z" transform="translate(-107.079 -15.1)" fill="none"/>
    </clipPath>
    <linearGradient id="linear-gradient-2" x1="-2.978" y1="-4.525" x2="-1.978" y2="-4.525" gradientUnits="objectBoundingBox">
      <stop offset="0" stop-color="#fff" stop-opacity="0.251"/>
      <stop offset="1" stop-color="#fff" stop-opacity="0"/>
    </linearGradient>
    <radialGradient id="radial-gradient-130" cx="0.5" cy="0.5" r="0.684" gradientTransform="translate(0.198) scale(0.604 1)" xlink:href="#radial-gradient-67"/>
    <clipPath id="clip-path-2">
      <path id="Path_13385" data-name="Path 13385" d="M109.817,60.333a32.235,32.235,0,0,0,59.166-.406L139.309,41.569ZM139.309,15.1a32.25,32.25,0,0,0-31.534,38.914l32.1-21.369,11.439,8.127V35.245h6.974V45.252l12.562,8.742A32.235,32.235,0,0,0,139.309,15.1Z" transform="translate(-107.079 -15.1)" fill="none"/>
    </clipPath>
    <linearGradient id="linear-gradient-4" x1="-3.006" y1="-4.567" x2="-2.006" y2="-4.567" xlink:href="#linear-gradient-2"/>
  </defs>
  <g id="bg-about" transform="translate(-11 -155)">
    <g id="Group_1181" data-name="Group 1181" transform="translate(34 156.001)">
      <g transform="matrix(1, 0, 0, 1, -23, -1)" filter="url(#Rectangle_34)">
        <g id="Rectangle_34-2" data-name="Rectangle 34" transform="translate(66 46)" fill="#fff" stroke="#eceaea" stroke-width="1">
          <rect width="420" height="245" rx="18.5" stroke="none"/>
          <rect x="0.5" y="0.5" width="419" height="244" rx="18" fill="none"/>
        </g>
      </g>
      <rect id="Rectangle_35" data-name="Rectangle 35" width="72.364" height="85.04" rx="5" transform="matrix(0.899, -0.438, 0.438, 0.899, 408.438, 31.722)" fill="#f5f5f5"/>
      <circle id="Ellipse_33" data-name="Ellipse 33" cx="45.659" cy="45.659" r="45.659" transform="translate(0 232.176)" fill="#f5f5f5"/>
      <g id="Layer_2" data-name="Layer 2" transform="translate(166.615 100.929)">
        <g id="Layer_1" data-name="Layer 1" transform="translate(0 0)">
          <path id="path2986" d="M132.073,0A39.817,39.817,0,0,0,92.26,39.813a39.361,39.361,0,0,0,3.957,17.331C109.048,80.322,122.249,75.8,132.073,102.7,144.706,77.3,157.1,78.93,167.929,57.144a38.832,38.832,0,0,0,3.947-17.326A39.818,39.818,0,0,0,132.073,0Zm0,6.573A32.631,32.631,0,1,1,99.447,39.2,32.632,32.632,0,0,1,132.073,6.573Z" transform="translate(-45.396)" fill="url(#radial-gradient)"/>
          <path id="path3777" d="M132.85,2.577a38.478,38.478,0,0,0-34.16,55.3c2.85,5.984,8.595,11.683,13.273,16.574,16.254,14.466,12.968,11.429,20.516,27.023,3,5.826,4.5-26.82-.3-27.094-12.978-.737-25.362-8.859-30.193-20.907a33.962,33.962,0,0,1,46.985-43.14c1.524.8,3.784-2.54,2.992-2.977a38.762,38.762,0,0,0-19.114-4.78Z" transform="translate(-46.666 -1.267)" fill="url(#radial-gradient-2)"/>
          <path id="Path_13361" data-name="Path 13361" d="M12.76,234.647V222.553H5.648v12.094H0v-28.9H5.643v11.81h7.111V205.75h5.638v28.9Z" transform="translate(0 -101.239)" fill="#231f20"/>
          <path id="Path_13362" data-name="Path 13362" d="M66.029,231.486a10.454,10.454,0,0,1-7.792,3.165,10.545,10.545,0,0,1-7.833-3.165c-2.921-2.926-2.845-6.537-2.845-11.53s-.076-8.6,2.845-11.525a10.545,10.545,0,0,1,7.833-3.165,10.454,10.454,0,0,1,7.792,3.165c2.921,2.921,2.88,6.537,2.88,11.525S68.95,228.561,66.029,231.486Zm-4.18-19.648a4.7,4.7,0,0,0-3.612-1.524,4.79,4.79,0,0,0-3.652,1.524c-1.1,1.219-1.382,2.54-1.382,8.127s.284,6.9,1.382,8.127a4.79,4.79,0,0,0,3.652,1.524,4.7,4.7,0,0,0,3.612-1.524c1.1-1.219,1.422-2.54,1.422-8.127S62.946,213.058,61.848,211.839Z" transform="translate(-23.402 -100.999)" fill="#231f20"/>
          <path id="Path_13363" data-name="Path 13363" d="M106.375,234.65c-4.384,0-7.711-.935-10.555-3.815l3.652-3.652a9.476,9.476,0,0,0,6.984,2.433c3.327,0,5.115-1.26,5.115-3.556a3.2,3.2,0,0,0-.894-2.433,4.434,4.434,0,0,0-2.54-1.016l-3.49-.508a9.748,9.748,0,0,1-5.587-2.392,7.641,7.641,0,0,1-2.072-5.684c0-5.156,3.815-8.767,10.068-8.767,3.977,0,6.857.975,9.331,3.368l-3.556,3.53a8.044,8.044,0,0,0-5.923-1.986c-3.007,0-4.465,1.661-4.465,3.652a2.773,2.773,0,0,0,.853,2.067,4.942,4.942,0,0,0,2.677,1.138l3.408.508a9.55,9.55,0,0,1,5.521,2.235,8.13,8.13,0,0,1,2.23,6.126C117.088,231.485,112.42,234.65,106.375,234.65Z" transform="translate(-47.148 -100.998)" fill="#231f20"/>
          <path id="Path_13364" data-name="Path 13364" d="M205.15,234.647v-28.9h5.638v28.9Z" transform="translate(-100.944 -101.239)" fill="#231f20"/>
          <path id="Path_13365" data-name="Path 13365" d="M256.724,234.647,240.393,216.91v17.738H234.76v-28.9h5.034l16.331,17.7v-17.7h5.643v28.9Z" transform="translate(-115.513 -101.239)" fill="#231f20"/>
          <path id="Path_13366" data-name="Path 13366" d="M318.914,231.365a11.477,11.477,0,0,1-15.955.122c-2.921-2.926-2.84-6.537-2.84-11.53s-.081-8.6,2.84-11.525a10.53,10.53,0,0,1,7.8-3.165c6.695,0,10.1,4.384,10.875,9.255h-5.684c-.645-2.723-2.311-4.221-5.191-4.221a4.709,4.709,0,0,0-3.617,1.524c-1.092,1.219-1.377,2.54-1.377,8.127s.284,6.944,1.377,8.163a4.683,4.683,0,0,0,3.617,1.524,5.323,5.323,0,0,0,4.033-1.651,5.587,5.587,0,0,0,1.3-3.855v-1.1h-5.328v-4.7h10.916v4.221C321.672,226.738,320.941,229.252,318.914,231.365Z" transform="translate(-147.673 -101)" fill="#231f20"/>
          <path id="path2986-2" data-name="path2986" d="M132.073,0A39.817,39.817,0,0,0,92.26,39.813a39.361,39.361,0,0,0,3.957,17.331C109.048,80.322,122.249,75.8,132.073,102.7,144.706,77.3,157.1,78.93,167.929,57.144a38.832,38.832,0,0,0,3.947-17.326A39.818,39.818,0,0,0,132.073,0Zm0,6.573A32.631,32.631,0,1,1,99.447,39.2,32.632,32.632,0,0,1,132.073,6.573Z" transform="translate(-45.396)" fill="url(#radial-gradient)"/>
          <path id="path3777-2" data-name="path3777" d="M132.85,2.577a38.478,38.478,0,0,0-34.16,55.3c2.85,5.984,8.595,11.683,13.273,16.574,16.254,14.466,7.518,8.346,18.794,19.383,3.007,5.821,6.238-19.18,1.438-19.455-12.978-.737-25.362-8.859-30.193-20.907a33.953,33.953,0,0,1,46.97-43.14c1.524.8,3.784-2.54,2.992-2.977a38.762,38.762,0,0,0-19.114-4.78Z" transform="translate(-46.666 -1.267)" fill="url(#radial-gradient-4)"/>
          <path id="Path_13367" data-name="Path 13367" d="M167.64,224.13H143.38v5.034h11.068v23.864h5.643V229.164h11.063V224.13Z" transform="translate(-70.55 -119.619)" fill="#231f20"/>
          <path id="path3772" d="M171.67,44.82A34.815,34.815,0,1,1,136.855,10,34.814,34.814,0,0,1,171.67,44.82Z" transform="translate(-50.209 -4.92)" fill="url(#linear-gradient)"/>
          <path id="path3799" d="M171.549,47.329A32.235,32.235,0,1,1,139.34,15.1,32.236,32.236,0,0,1,171.549,47.329Z" transform="translate(-52.689 -7.43)" fill="#bfc1c3"/>
          <circle id="Ellipse_1343" data-name="Ellipse 1343" cx="32.184" cy="32.184" r="32.184" transform="translate(49.82 66.621) rotate(-80.91)" fill="url(#radial-gradient-5)"/>
          <circle id="Ellipse_1344" data-name="Ellipse 1344" cx="32.138" cy="32.138" r="32.138" transform="translate(49.727 66.344) rotate(-80.5)" fill="url(#radial-gradient-6)"/>
          <circle id="Ellipse_1345" data-name="Ellipse 1345" cx="32.087" cy="32.087" r="32.087" transform="matrix(0.172, -0.985, 0.985, 0.172, 49.648, 66.08)" fill="url(#radial-gradient-7)"/>
          <circle id="Ellipse_1346" data-name="Ellipse 1346" cx="32.042" cy="32.042" r="32.042" transform="translate(49.574 65.837) rotate(-79.76)" fill="url(#radial-gradient-8)"/>
          <circle id="Ellipse_1347" data-name="Ellipse 1347" cx="31.991" cy="31.991" r="31.991" transform="translate(49.52 65.597) rotate(-79.42)" fill="url(#radial-gradient-9)"/>
          <circle id="Ellipse_1348" data-name="Ellipse 1348" cx="31.945" cy="31.945" r="31.945" transform="translate(49.471 65.383) rotate(-79.1)" fill="url(#radial-gradient-10)"/>
          <circle id="Ellipse_1349" data-name="Ellipse 1349" cx="31.894" cy="31.894" r="31.894" transform="translate(49.431 65.166) rotate(-78.8)" fill="url(#radial-gradient-11)"/>
          <circle id="Ellipse_1350" data-name="Ellipse 1350" cx="31.849" cy="31.849" r="31.849" transform="matrix(0.199, -0.98, 0.98, 0.199, 49.406, 64.978)" fill="url(#radial-gradient-12)"/>
          <circle id="Ellipse_1351" data-name="Ellipse 1351" cx="31.798" cy="31.798" r="31.798" transform="translate(49.39 64.782) rotate(-78.24)" fill="url(#radial-gradient-13)"/>
          <circle id="Ellipse_1352" data-name="Ellipse 1352" cx="31.752" cy="31.752" r="31.752" transform="translate(49.365 64.599) rotate(-77.99)" fill="url(#radial-gradient-14)"/>
          <circle id="Ellipse_1353" data-name="Ellipse 1353" cx="31.706" cy="31.706" r="31.706" transform="translate(49.36 64.434) rotate(-77.74)" fill="url(#radial-gradient-15)"/>
          <circle id="Ellipse_1354" data-name="Ellipse 1354" cx="31.655" cy="31.655" r="31.655" transform="matrix(0.216, -0.976, 0.976, 0.216, 49.365, 64.269)" fill="url(#radial-gradient-16)"/>
          <circle id="Ellipse_1355" data-name="Ellipse 1355" cx="31.61" cy="31.61" r="31.61" transform="translate(49.363 64.116) rotate(-77.29)" fill="url(#radial-gradient-17)"/>
          <circle id="Ellipse_1356" data-name="Ellipse 1356" cx="31.559" cy="31.559" r="31.559" transform="translate(49.375 63.963) rotate(-77.08)" fill="url(#radial-gradient-18)"/>
          <circle id="Ellipse_1357" data-name="Ellipse 1357" cx="31.513" cy="31.513" r="31.513" transform="matrix(0.227, -0.974, 0.974, 0.227, 49.386, 63.825)" fill="url(#radial-gradient-19)"/>
          <circle id="Ellipse_1358" data-name="Ellipse 1358" cx="31.462" cy="31.462" r="31.462" transform="translate(49.405 63.682) rotate(-76.69)" fill="url(#radial-gradient-20)"/>
          <circle id="Ellipse_1359" data-name="Ellipse 1359" cx="31.417" cy="31.417" r="31.417" transform="matrix(0.233, -0.972, 0.972, 0.233, 49.419, 63.556)" fill="url(#radial-gradient-21)"/>
          <circle id="Ellipse_1360" data-name="Ellipse 1360" cx="31.366" cy="31.366" r="31.366" transform="translate(49.455 63.426) rotate(-76.33)" fill="url(#radial-gradient-22)"/>
          <circle id="Ellipse_1361" data-name="Ellipse 1361" cx="31.32" cy="31.32" r="31.32" transform="matrix(0.239, -0.971, 0.971, 0.239, 49.477, 63.304)" fill="url(#radial-gradient-23)"/>
          <circle id="Ellipse_1362" data-name="Ellipse 1362" cx="31.269" cy="31.269" r="31.269" transform="matrix(0.242, -0.97, 0.97, 0.242, 49.51, 63.189)" fill="url(#radial-gradient-24)"/>
          <circle id="Ellipse_1363" data-name="Ellipse 1363" cx="31.224" cy="31.224" r="31.224" transform="matrix(0.244, -0.97, 0.97, 0.244, 49.553, 63.084)" fill="url(#radial-gradient-25)"/>
          <circle id="Ellipse_1364" data-name="Ellipse 1364" cx="31.178" cy="31.178" r="31.178" transform="translate(49.585 62.981) rotate(-75.7)" fill="url(#radial-gradient-26)"/>
          <circle id="Ellipse_1365" data-name="Ellipse 1365" cx="31.127" cy="31.127" r="31.127" transform="translate(49.632 62.871) rotate(-75.56)" fill="url(#radial-gradient-27)"/>
          <circle id="Ellipse_1366" data-name="Ellipse 1366" cx="31.082" cy="31.082" r="31.082" transform="matrix(0.252, -0.968, 0.968, 0.252, 49.667, 62.777)" fill="url(#radial-gradient-28)"/>
          <circle id="Ellipse_1367" data-name="Ellipse 1367" cx="31.031" cy="31.031" r="31.031" transform="matrix(0.254, -0.967, 0.967, 0.254, 49.715, 62.674)" fill="url(#radial-gradient-29)"/>
          <circle id="Ellipse_1368" data-name="Ellipse 1368" cx="30.985" cy="30.985" r="30.985" transform="translate(49.767 62.586) rotate(-75.17)" fill="url(#radial-gradient-30)"/>
          <circle id="Ellipse_1369" data-name="Ellipse 1369" cx="30.934" cy="30.934" r="30.934" transform="translate(49.815 62.496) rotate(-75.05)" fill="url(#radial-gradient-31)"/>
          <circle id="Ellipse_1370" data-name="Ellipse 1370" cx="30.888" cy="30.888" r="30.888" transform="translate(49.868 62.411) rotate(-74.93)" fill="url(#radial-gradient-32)"/>
          <circle id="Ellipse_1371" data-name="Ellipse 1371" cx="30.838" cy="30.838" r="30.838" transform="translate(49.923 62.328) rotate(-74.82)" fill="url(#radial-gradient-33)"/>
          <circle id="Ellipse_1372" data-name="Ellipse 1372" cx="30.792" cy="30.792" r="30.792" transform="translate(49.977 62.249) rotate(-74.71)" fill="url(#radial-gradient-34)"/>
          <path id="path3801" d="M173.893,50.331A30.746,30.746,0,1,1,143.148,19.59a30.747,30.747,0,0,1,30.745,30.741Z" transform="translate(-55.306 -9.639)" fill="url(#radial-gradient-35)"/>
          <circle id="Ellipse_1373" data-name="Ellipse 1373" cx="30.741" cy="30.741" r="30.741" transform="translate(50.042 62.172) rotate(-74.6)" fill="url(#radial-gradient-36)"/>
          <circle id="Ellipse_1374" data-name="Ellipse 1374" cx="30.657" cy="30.657" r="30.657" transform="translate(50.255 62.45) rotate(-74.291)" fill="url(#radial-gradient-36)"/>
          <circle id="Ellipse_1375" data-name="Ellipse 1375" cx="30.741" cy="30.741" r="30.741" transform="translate(50.042 62.172) rotate(-74.6)" fill="url(#radial-gradient-36)"/>
          <circle id="Ellipse_1376" data-name="Ellipse 1376" cx="30.741" cy="30.741" r="30.741" transform="translate(50.042 62.172) rotate(-74.6)" fill="url(#radial-gradient-36)"/>
          <circle id="Ellipse_1377" data-name="Ellipse 1377" cx="30.741" cy="30.741" r="30.741" transform="translate(50.042 62.172) rotate(-74.6)" fill="url(#radial-gradient-36)"/>
          <circle id="Ellipse_1378" data-name="Ellipse 1378" cx="30.741" cy="30.741" r="30.741" transform="translate(50.042 62.172) rotate(-74.6)" fill="url(#radial-gradient-36)"/>
          <circle id="Ellipse_1379" data-name="Ellipse 1379" cx="30.741" cy="30.741" r="30.741" transform="translate(50.042 62.172) rotate(-74.6)" fill="url(#radial-gradient-36)"/>
          <circle id="Ellipse_1380" data-name="Ellipse 1380" cx="30.741" cy="30.741" r="30.741" transform="translate(50.042 62.172) rotate(-74.6)" fill="url(#radial-gradient-36)"/>
          <circle id="Ellipse_1381" data-name="Ellipse 1381" cx="30.741" cy="30.741" r="30.741" transform="translate(50.042 62.172) rotate(-74.6)" fill="url(#radial-gradient-36)"/>
          <circle id="Ellipse_1382" data-name="Ellipse 1382" cx="30.741" cy="30.741" r="30.741" transform="translate(50.042 62.172) rotate(-74.6)" fill="url(#radial-gradient-36)"/>
          <circle id="Ellipse_1383" data-name="Ellipse 1383" cx="30.741" cy="30.741" r="30.741" transform="translate(50.042 62.172) rotate(-74.6)" fill="url(#radial-gradient-36)"/>
          <circle id="Ellipse_1384" data-name="Ellipse 1384" cx="30.741" cy="30.741" r="30.741" transform="translate(50.042 62.172) rotate(-74.6)" fill="url(#radial-gradient-36)"/>
          <circle id="Ellipse_1385" data-name="Ellipse 1385" cx="30.741" cy="30.741" r="30.741" transform="translate(50.042 62.172) rotate(-74.6)" fill="url(#radial-gradient-36)"/>
          <circle id="Ellipse_1386" data-name="Ellipse 1386" cx="30.741" cy="30.741" r="30.741" transform="translate(50.042 62.172) rotate(-74.6)" fill="url(#radial-gradient-36)"/>
          <circle id="Ellipse_1387" data-name="Ellipse 1387" cx="30.741" cy="30.741" r="30.741" transform="translate(50.042 62.172) rotate(-74.6)" fill="url(#radial-gradient-36)"/>
          <circle id="Ellipse_1388" data-name="Ellipse 1388" cx="30.741" cy="30.741" r="30.741" transform="translate(50.042 62.172) rotate(-74.6)" fill="url(#radial-gradient-36)"/>
          <circle id="Ellipse_1389" data-name="Ellipse 1389" cx="30.741" cy="30.741" r="30.741" transform="translate(50.042 62.172) rotate(-74.6)" fill="url(#radial-gradient-36)"/>
          <circle id="Ellipse_1390" data-name="Ellipse 1390" cx="30.741" cy="30.741" r="30.741" transform="translate(50.042 62.172) rotate(-74.6)" fill="url(#radial-gradient-36)"/>
          <circle id="Ellipse_1391" data-name="Ellipse 1391" cx="30.741" cy="30.741" r="30.741" transform="translate(50.042 62.172) rotate(-74.6)" fill="url(#radial-gradient-36)"/>
          <circle id="Ellipse_1392" data-name="Ellipse 1392" cx="30.741" cy="30.741" r="30.741" transform="translate(50.042 62.172) rotate(-74.6)" fill="url(#radial-gradient-36)"/>
          <circle id="Ellipse_1393" data-name="Ellipse 1393" cx="30.741" cy="30.741" r="30.741" transform="translate(50.042 62.172) rotate(-74.6)" fill="url(#radial-gradient-36)"/>
          <circle id="Ellipse_1394" data-name="Ellipse 1394" cx="30.741" cy="30.741" r="30.741" transform="translate(50.042 62.172) rotate(-74.6)" fill="url(#radial-gradient-36)"/>
          <circle id="Ellipse_1395" data-name="Ellipse 1395" cx="30.741" cy="30.741" r="30.741" transform="translate(50.042 62.172) rotate(-74.6)" fill="url(#radial-gradient-36)"/>
          <circle id="Ellipse_1396" data-name="Ellipse 1396" cx="30.741" cy="30.741" r="30.741" transform="translate(50.042 62.172) rotate(-74.6)" fill="url(#radial-gradient-36)"/>
          <circle id="Ellipse_1397" data-name="Ellipse 1397" cx="30.741" cy="30.741" r="30.741" transform="translate(50.042 62.172) rotate(-74.6)" fill="url(#radial-gradient-36)"/>
          <circle id="Ellipse_1398" data-name="Ellipse 1398" cx="30.741" cy="30.741" r="30.741" transform="translate(50.042 62.172) rotate(-74.6)" fill="url(#radial-gradient-36)"/>
          <circle id="Ellipse_1399" data-name="Ellipse 1399" cx="30.741" cy="30.741" r="30.741" transform="translate(50.042 62.172) rotate(-74.6)" fill="url(#radial-gradient-36)"/>
          <circle id="Ellipse_1400" data-name="Ellipse 1400" cx="30.741" cy="30.741" r="30.741" transform="translate(50.042 62.172) rotate(-74.6)" fill="url(#radial-gradient-36)"/>
          <circle id="Ellipse_1401" data-name="Ellipse 1401" cx="30.741" cy="30.741" r="30.741" transform="translate(50.042 62.172) rotate(-74.6)" fill="url(#radial-gradient-36)"/>
          <circle id="Ellipse_1402" data-name="Ellipse 1402" cx="30.741" cy="30.741" r="30.741" transform="translate(50.042 62.172) rotate(-74.6)" fill="url(#radial-gradient-36)"/>
          <path id="path3801-2" data-name="path3801" d="M173.893,50.331A30.746,30.746,0,1,1,143.148,19.59a30.747,30.747,0,0,1,30.745,30.741Z" transform="translate(-55.306 -9.639)" fill="url(#radial-gradient-35)"/>
          <path id="Path_13368" data-name="Path 13368" d="M112.52,86.652a32.539,32.539,0,0,0,59.72-.411L142.271,67.71Z" transform="translate(-55.365 -33.317)" fill="#72bf44"/>
          <path id="Path_13369" data-name="Path 13369" d="M139.609,15.1A32.555,32.555,0,0,0,107.78,54.375l32.4-21.547,11.561,8.2V35.438h7.04V45.526l12.7,8.828a33.015,33.015,0,0,0,.7-6.73A32.509,32.509,0,0,0,139.609,15.1Z" transform="translate(-52.688 -7.43)" fill="url(#radial-gradient-67)"/>
          <rect id="Rectangle_26543" data-name="Rectangle 26543" width="8.122" height="8.122" transform="translate(77.341 46.564)" fill="#fff"/>
          <path id="Path_13370" data-name="Path 13370" d="M159.632,91.682v7.36h-7.365v-7.36h7.365m.762-.762H151.51V99.8h8.884Z" transform="translate(-74.55 -44.737)" fill="#fff"/>
          <rect id="Rectangle_26544" data-name="Rectangle 26544" width="8.122" height="8.122" transform="translate(88.637 46.564)" fill="#fff"/>
          <path id="Path_13371" data-name="Path 13371" d="M181.877,91.682v7.36h-7.365v-7.36h7.365m.762-.762H173.75V99.8h8.889Z" transform="translate(-85.494 -44.737)" fill="#fff"/>
          <rect id="Rectangle_26545" data-name="Rectangle 26545" width="8.122" height="8.122" transform="translate(77.341 57.805)" fill="#fff"/>
          <path id="Path_13372" data-name="Path 13372" d="M159.632,113.812v7.365h-7.365v-7.365h7.365m.762-.762H151.51v8.889h8.884Z" transform="translate(-74.55 -55.626)" fill="#fff"/>
          <rect id="Rectangle_26546" data-name="Rectangle 26546" width="8.122" height="8.122" transform="translate(88.637 57.805)" fill="#fff"/>
          <path id="Path_13373" data-name="Path 13373" d="M181.877,113.812v7.365h-7.365v-7.365h7.365m.762-.762H173.75v8.889h8.889Z" transform="translate(-85.494 -55.626)" fill="#fff"/>
          <path id="Path_13374" data-name="Path 13374" d="M112.52,86.652a32.539,32.539,0,0,0,59.72-.411L142.271,67.71Z" transform="translate(-55.365 -33.317)" fill="none"/>
          <path id="Path_13375" data-name="Path 13375" d="M139.609,15.1A32.555,32.555,0,0,0,107.78,54.375l32.4-21.547,11.561,8.2V35.438h7.04V45.526l12.7,8.828a33.015,33.015,0,0,0,.7-6.73A32.509,32.509,0,0,0,139.609,15.1Z" transform="translate(-52.688 -7.43)" fill="none"/>
          <g id="Group_12250" data-name="Group 12250" transform="translate(54.391 7.67)" clip-path="url(#clip-path)">
            <circle id="Ellipse_1403" data-name="Ellipse 1403" cx="34.947" cy="34.947" r="34.947" transform="translate(4.862 -17.006)" opacity="0.55" fill="url(#linear-gradient-2)"/>
          </g>
          <path id="path3772-2" data-name="path3772" d="M171.67,44.82A34.815,34.815,0,1,1,136.855,10,34.814,34.814,0,0,1,171.67,44.82Z" transform="translate(-50.209 -4.92)" fill="url(#linear-gradient)"/>
          <path id="path3799-2" data-name="path3799" d="M171.549,47.329A32.235,32.235,0,1,1,139.34,15.1,32.236,32.236,0,0,1,171.549,47.329Z" transform="translate(-52.689 -7.43)" fill="#bfc1c3"/>
          <circle id="Ellipse_1404" data-name="Ellipse 1404" cx="32.184" cy="32.184" r="32.184" transform="translate(49.82 66.621) rotate(-80.91)" fill="url(#radial-gradient-5)"/>
          <circle id="Ellipse_1405" data-name="Ellipse 1405" cx="32.138" cy="32.138" r="32.138" transform="translate(49.727 66.344) rotate(-80.5)" fill="url(#radial-gradient-6)"/>
          <circle id="Ellipse_1406" data-name="Ellipse 1406" cx="32.087" cy="32.087" r="32.087" transform="matrix(0.172, -0.985, 0.985, 0.172, 49.648, 66.08)" fill="url(#radial-gradient-7)"/>
          <circle id="Ellipse_1407" data-name="Ellipse 1407" cx="32.042" cy="32.042" r="32.042" transform="translate(49.574 65.837) rotate(-79.76)" fill="url(#radial-gradient-8)"/>
          <circle id="Ellipse_1408" data-name="Ellipse 1408" cx="31.991" cy="31.991" r="31.991" transform="translate(49.52 65.597) rotate(-79.42)" fill="url(#radial-gradient-9)"/>
          <circle id="Ellipse_1409" data-name="Ellipse 1409" cx="31.945" cy="31.945" r="31.945" transform="translate(49.471 65.383) rotate(-79.1)" fill="url(#radial-gradient-10)"/>
          <circle id="Ellipse_1410" data-name="Ellipse 1410" cx="31.894" cy="31.894" r="31.894" transform="translate(49.431 65.166) rotate(-78.8)" fill="url(#radial-gradient-11)"/>
          <circle id="Ellipse_1411" data-name="Ellipse 1411" cx="31.849" cy="31.849" r="31.849" transform="matrix(0.199, -0.98, 0.98, 0.199, 49.406, 64.978)" fill="url(#radial-gradient-12)"/>
          <circle id="Ellipse_1412" data-name="Ellipse 1412" cx="31.798" cy="31.798" r="31.798" transform="translate(49.39 64.782) rotate(-78.24)" fill="url(#radial-gradient-13)"/>
          <circle id="Ellipse_1413" data-name="Ellipse 1413" cx="31.752" cy="31.752" r="31.752" transform="translate(49.365 64.599) rotate(-77.99)" fill="url(#radial-gradient-14)"/>
          <circle id="Ellipse_1414" data-name="Ellipse 1414" cx="31.706" cy="31.706" r="31.706" transform="translate(49.36 64.434) rotate(-77.74)" fill="url(#radial-gradient-15)"/>
          <circle id="Ellipse_1415" data-name="Ellipse 1415" cx="31.655" cy="31.655" r="31.655" transform="matrix(0.216, -0.976, 0.976, 0.216, 49.365, 64.269)" fill="url(#radial-gradient-16)"/>
          <circle id="Ellipse_1416" data-name="Ellipse 1416" cx="31.61" cy="31.61" r="31.61" transform="translate(49.363 64.116) rotate(-77.29)" fill="url(#radial-gradient-17)"/>
          <circle id="Ellipse_1417" data-name="Ellipse 1417" cx="31.559" cy="31.559" r="31.559" transform="translate(49.375 63.963) rotate(-77.08)" fill="url(#radial-gradient-18)"/>
          <circle id="Ellipse_1418" data-name="Ellipse 1418" cx="31.513" cy="31.513" r="31.513" transform="matrix(0.227, -0.974, 0.974, 0.227, 49.386, 63.825)" fill="url(#radial-gradient-19)"/>
          <circle id="Ellipse_1419" data-name="Ellipse 1419" cx="31.462" cy="31.462" r="31.462" transform="translate(49.405 63.682) rotate(-76.69)" fill="url(#radial-gradient-20)"/>
          <circle id="Ellipse_1420" data-name="Ellipse 1420" cx="31.417" cy="31.417" r="31.417" transform="matrix(0.233, -0.972, 0.972, 0.233, 49.419, 63.556)" fill="url(#radial-gradient-21)"/>
          <circle id="Ellipse_1421" data-name="Ellipse 1421" cx="31.366" cy="31.366" r="31.366" transform="translate(49.455 63.426) rotate(-76.33)" fill="url(#radial-gradient-22)"/>
          <circle id="Ellipse_1422" data-name="Ellipse 1422" cx="31.32" cy="31.32" r="31.32" transform="matrix(0.239, -0.971, 0.971, 0.239, 49.477, 63.304)" fill="url(#radial-gradient-23)"/>
          <circle id="Ellipse_1423" data-name="Ellipse 1423" cx="31.269" cy="31.269" r="31.269" transform="matrix(0.242, -0.97, 0.97, 0.242, 49.51, 63.189)" fill="url(#radial-gradient-24)"/>
          <circle id="Ellipse_1424" data-name="Ellipse 1424" cx="31.224" cy="31.224" r="31.224" transform="matrix(0.244, -0.97, 0.97, 0.244, 49.553, 63.084)" fill="url(#radial-gradient-25)"/>
          <circle id="Ellipse_1425" data-name="Ellipse 1425" cx="31.178" cy="31.178" r="31.178" transform="translate(49.585 62.981) rotate(-75.7)" fill="url(#radial-gradient-26)"/>
          <circle id="Ellipse_1426" data-name="Ellipse 1426" cx="31.127" cy="31.127" r="31.127" transform="translate(49.632 62.871) rotate(-75.56)" fill="url(#radial-gradient-27)"/>
          <circle id="Ellipse_1427" data-name="Ellipse 1427" cx="31.082" cy="31.082" r="31.082" transform="matrix(0.252, -0.968, 0.968, 0.252, 49.667, 62.777)" fill="url(#radial-gradient-28)"/>
          <circle id="Ellipse_1428" data-name="Ellipse 1428" cx="31.031" cy="31.031" r="31.031" transform="matrix(0.254, -0.967, 0.967, 0.254, 49.715, 62.674)" fill="url(#radial-gradient-29)"/>
          <circle id="Ellipse_1429" data-name="Ellipse 1429" cx="30.985" cy="30.985" r="30.985" transform="translate(49.767 62.586) rotate(-75.17)" fill="url(#radial-gradient-30)"/>
          <circle id="Ellipse_1430" data-name="Ellipse 1430" cx="30.934" cy="30.934" r="30.934" transform="translate(49.815 62.496) rotate(-75.05)" fill="url(#radial-gradient-31)"/>
          <circle id="Ellipse_1431" data-name="Ellipse 1431" cx="30.888" cy="30.888" r="30.888" transform="translate(49.868 62.411) rotate(-74.93)" fill="url(#radial-gradient-32)"/>
          <circle id="Ellipse_1432" data-name="Ellipse 1432" cx="30.838" cy="30.838" r="30.838" transform="translate(49.923 62.328) rotate(-74.82)" fill="url(#radial-gradient-33)"/>
          <circle id="Ellipse_1433" data-name="Ellipse 1433" cx="30.792" cy="30.792" r="30.792" transform="translate(49.977 62.249) rotate(-74.71)" fill="url(#radial-gradient-34)"/>
          <path id="path3801-3" data-name="path3801" d="M173.893,50.331A30.746,30.746,0,1,1,143.148,19.59a30.747,30.747,0,0,1,30.745,30.741Z" transform="translate(-55.306 -9.639)" fill="url(#radial-gradient-35)"/>
          <circle id="Ellipse_1434" data-name="Ellipse 1434" cx="30.741" cy="30.741" r="30.741" transform="translate(50.042 62.172) rotate(-74.6)" fill="url(#radial-gradient-36)"/>
          <circle id="Ellipse_1435" data-name="Ellipse 1435" cx="30.657" cy="30.657" r="30.657" transform="translate(50.255 62.45) rotate(-74.291)" fill="url(#radial-gradient-36)"/>
          <circle id="Ellipse_1436" data-name="Ellipse 1436" cx="30.741" cy="30.741" r="30.741" transform="translate(50.042 62.172) rotate(-74.6)" fill="url(#radial-gradient-36)"/>
          <circle id="Ellipse_1437" data-name="Ellipse 1437" cx="30.741" cy="30.741" r="30.741" transform="translate(50.042 62.172) rotate(-74.6)" fill="url(#radial-gradient-36)"/>
          <circle id="Ellipse_1438" data-name="Ellipse 1438" cx="30.741" cy="30.741" r="30.741" transform="translate(50.042 62.172) rotate(-74.6)" fill="url(#radial-gradient-36)"/>
          <circle id="Ellipse_1439" data-name="Ellipse 1439" cx="30.741" cy="30.741" r="30.741" transform="translate(50.042 62.172) rotate(-74.6)" fill="url(#radial-gradient-36)"/>
          <circle id="Ellipse_1440" data-name="Ellipse 1440" cx="30.741" cy="30.741" r="30.741" transform="translate(50.042 62.172) rotate(-74.6)" fill="url(#radial-gradient-36)"/>
          <circle id="Ellipse_1441" data-name="Ellipse 1441" cx="30.741" cy="30.741" r="30.741" transform="translate(50.042 62.172) rotate(-74.6)" fill="url(#radial-gradient-36)"/>
          <circle id="Ellipse_1442" data-name="Ellipse 1442" cx="30.741" cy="30.741" r="30.741" transform="translate(50.042 62.172) rotate(-74.6)" fill="url(#radial-gradient-36)"/>
          <circle id="Ellipse_1443" data-name="Ellipse 1443" cx="30.741" cy="30.741" r="30.741" transform="translate(50.042 62.172) rotate(-74.6)" fill="url(#radial-gradient-36)"/>
          <circle id="Ellipse_1444" data-name="Ellipse 1444" cx="30.741" cy="30.741" r="30.741" transform="translate(50.042 62.172) rotate(-74.6)" fill="url(#radial-gradient-36)"/>
          <circle id="Ellipse_1445" data-name="Ellipse 1445" cx="30.741" cy="30.741" r="30.741" transform="translate(50.042 62.172) rotate(-74.6)" fill="url(#radial-gradient-36)"/>
          <circle id="Ellipse_1446" data-name="Ellipse 1446" cx="30.741" cy="30.741" r="30.741" transform="translate(50.042 62.172) rotate(-74.6)" fill="url(#radial-gradient-36)"/>
          <circle id="Ellipse_1447" data-name="Ellipse 1447" cx="30.741" cy="30.741" r="30.741" transform="translate(50.042 62.172) rotate(-74.6)" fill="url(#radial-gradient-36)"/>
          <circle id="Ellipse_1448" data-name="Ellipse 1448" cx="30.741" cy="30.741" r="30.741" transform="translate(50.042 62.172) rotate(-74.6)" fill="url(#radial-gradient-36)"/>
          <circle id="Ellipse_1449" data-name="Ellipse 1449" cx="30.741" cy="30.741" r="30.741" transform="translate(50.042 62.172) rotate(-74.6)" fill="url(#radial-gradient-36)"/>
          <circle id="Ellipse_1450" data-name="Ellipse 1450" cx="30.741" cy="30.741" r="30.741" transform="translate(50.042 62.172) rotate(-74.6)" fill="url(#radial-gradient-36)"/>
          <circle id="Ellipse_1451" data-name="Ellipse 1451" cx="30.741" cy="30.741" r="30.741" transform="translate(50.042 62.172) rotate(-74.6)" fill="url(#radial-gradient-36)"/>
          <circle id="Ellipse_1452" data-name="Ellipse 1452" cx="30.741" cy="30.741" r="30.741" transform="translate(50.042 62.172) rotate(-74.6)" fill="url(#radial-gradient-36)"/>
          <circle id="Ellipse_1453" data-name="Ellipse 1453" cx="30.741" cy="30.741" r="30.741" transform="translate(50.042 62.172) rotate(-74.6)" fill="url(#radial-gradient-36)"/>
          <circle id="Ellipse_1454" data-name="Ellipse 1454" cx="30.741" cy="30.741" r="30.741" transform="translate(50.042 62.172) rotate(-74.6)" fill="url(#radial-gradient-36)"/>
          <circle id="Ellipse_1455" data-name="Ellipse 1455" cx="30.741" cy="30.741" r="30.741" transform="translate(50.042 62.172) rotate(-74.6)" fill="url(#radial-gradient-36)"/>
          <circle id="Ellipse_1456" data-name="Ellipse 1456" cx="30.741" cy="30.741" r="30.741" transform="translate(50.042 62.172) rotate(-74.6)" fill="url(#radial-gradient-36)"/>
          <circle id="Ellipse_1457" data-name="Ellipse 1457" cx="30.741" cy="30.741" r="30.741" transform="translate(50.042 62.172) rotate(-74.6)" fill="url(#radial-gradient-36)"/>
          <circle id="Ellipse_1458" data-name="Ellipse 1458" cx="30.741" cy="30.741" r="30.741" transform="translate(50.042 62.172) rotate(-74.6)" fill="url(#radial-gradient-36)"/>
          <circle id="Ellipse_1459" data-name="Ellipse 1459" cx="30.741" cy="30.741" r="30.741" transform="translate(50.042 62.172) rotate(-74.6)" fill="url(#radial-gradient-36)"/>
          <circle id="Ellipse_1460" data-name="Ellipse 1460" cx="30.741" cy="30.741" r="30.741" transform="translate(50.042 62.172) rotate(-74.6)" fill="url(#radial-gradient-36)"/>
          <circle id="Ellipse_1461" data-name="Ellipse 1461" cx="30.741" cy="30.741" r="30.741" transform="translate(50.042 62.172) rotate(-74.6)" fill="url(#radial-gradient-36)"/>
          <circle id="Ellipse_1462" data-name="Ellipse 1462" cx="30.741" cy="30.741" r="30.741" transform="translate(50.042 62.172) rotate(-74.6)" fill="url(#radial-gradient-36)"/>
          <circle id="Ellipse_1463" data-name="Ellipse 1463" cx="30.741" cy="30.741" r="30.741" transform="translate(50.042 62.172) rotate(-74.6)" fill="url(#radial-gradient-36)"/>
          <path id="path3801-4" data-name="path3801" d="M173.893,50.331A30.746,30.746,0,1,1,143.148,19.59a30.747,30.747,0,0,1,30.745,30.741Z" transform="translate(-55.306 -9.639)" fill="url(#radial-gradient-35)"/>
          <path id="Path_13377" data-name="Path 13377" d="M112.47,85.974a32.235,32.235,0,0,0,59.166-.406L141.962,67.21Z" transform="translate(-55.341 -33.071)" fill="#72bf44"/>
          <path id="Path_13378" data-name="Path 13378" d="M139.309,15.1a32.25,32.25,0,0,0-31.534,38.914l32.1-21.369,11.439,8.127V35.245h6.974V45.252l12.562,8.742A32.235,32.235,0,0,0,139.309,15.1Z" transform="translate(-52.688 -7.43)" fill="url(#radial-gradient-130)"/>
          <rect id="Rectangle_26547" data-name="Rectangle 26547" width="8.056" height="8.056" transform="translate(77.127 46.203)" fill="#fff"/>
          <path id="Path_13379" data-name="Path 13379" d="M159.171,90.972v7.294h-7.32V90.972h7.32m.762-.762H151.09v8.818h8.818V90.21Z" transform="translate(-74.344 -44.388)" fill="#fff"/>
          <rect id="Rectangle_26548" data-name="Rectangle 26548" width="8.056" height="8.056" transform="translate(88.322 46.203)" fill="#fff"/>
          <path id="Path_13380" data-name="Path 13380" d="M181.191,90.972v7.294h-7.3V90.972h7.3m.762-.762H173.13v8.818h8.818V90.21Z" transform="translate(-85.188 -44.388)" fill="#fff"/>
          <rect id="Rectangle_26549" data-name="Rectangle 26549" width="8.056" height="8.056" transform="translate(77.127 57.343)" fill="#fff"/>
          <path id="Path_13381" data-name="Path 13381" d="M159.171,112.9V120.2h-7.32V112.9h7.32m.762-.762H151.09v8.818h8.818V112.14Z" transform="translate(-74.344 -55.178)" fill="#fff"/>
          <rect id="Rectangle_26550" data-name="Rectangle 26550" width="8.056" height="8.056" transform="translate(88.322 57.343)" fill="#fff"/>
          <path id="Path_13382" data-name="Path 13382" d="M181.191,112.9V120.2h-7.3V112.9h7.3m.762-.762H173.13v8.818h8.818V112.14Z" transform="translate(-85.188 -55.178)" fill="#fff"/>
          <path id="Path_13383" data-name="Path 13383" d="M112.47,85.974a32.235,32.235,0,0,0,59.166-.406L141.962,67.21Z" transform="translate(-55.341 -33.071)" fill="none"/>
          <path id="Path_13384" data-name="Path 13384" d="M139.309,15.1a32.25,32.25,0,0,0-31.534,38.914l32.1-21.369,11.439,8.127V35.245h6.974V45.252l12.562,8.742A32.235,32.235,0,0,0,139.309,15.1Z" transform="translate(-52.688 -7.43)" fill="none"/>
          <g id="Group_12251" data-name="Group 12251" transform="translate(54.391 7.67)" clip-path="url(#clip-path-2)">
            <circle id="Ellipse_1464" data-name="Ellipse 1464" cx="34.622" cy="34.622" r="34.622" transform="translate(4.821 -16.849)" opacity="0.55" fill="url(#linear-gradient-4)"/>
          </g>
        </g>
      </g>
    </g>
  </g>
</svg>
