<svg id="left-chevron" xmlns="http://www.w3.org/2000/svg" width="48.291" height="48.292" viewBox="0 0 48.291 48.292">
  <path id="Path_14402" data-name="Path 14402" d="M247.5,0V13.7l2.389-2.4,2.764,2.755L247.5,19.229v9.833l5.152,5.169-2.764,2.755-2.389-2.4v13.7A24.146,24.146,0,0,0,247.5,0Z" transform="translate(-223.354)" fill="#35cb57"/>
  <path id="Path_14403" data-name="Path 14403" d="M13.735,24.146,24.146,13.7V0a24.146,24.146,0,0,0,0,48.292V34.59Z" fill="#aaea84"/>
  <path id="Path_14404" data-name="Path 14404" d="M202.169,206.938V197.1l-4.9,4.917Z" transform="translate(-178.024 -177.876)" fill="#bddbff"/>
  <path id="Path_14405" data-name="Path 14405" d="M151.2,139.166l2.388,2.4,2.764-2.755-5.152-5.169-4.9-4.916,4.9-4.916,5.152-5.169-2.764-2.755-2.388,2.4-10.41,10.444Z" transform="translate(-127.057 -104.576)" fill="#28a745"/>
</svg>
