<svg id="left-chevron" xmlns="http://www.w3.org/2000/svg" width="48.292" height="48.292" viewBox="0 0 48.292 48.292">
  <path id="Path_14402" data-name="Path 14402" d="M271.646,0V13.7l-2.389-2.4-2.764,2.755,5.152,5.169v9.833l-5.152,5.169,2.764,2.755,2.389-2.4v13.7a24.146,24.146,0,0,1,0-48.292Z" transform="translate(-247.5)" fill="#35cb57"/>
  <path id="Path_14403" data-name="Path 14403" d="M10.41,24.146,0,13.7V0A24.146,24.146,0,0,1,24.146,24.146,24.146,24.146,0,0,1,0,48.292V34.59Z" transform="translate(24.146)" fill="#aaea84"/>
  <path id="Path_14404" data-name="Path 14404" d="M197.269,206.938V197.1l4.9,4.917Z" transform="translate(-173.123 -177.876)" fill="#bddbff"/>
  <path id="Path_14405" data-name="Path 14405" d="M145.944,139.166l-2.389,2.4-2.764-2.755,5.152-5.169,4.9-4.916-4.9-4.916-5.152-5.169,2.764-2.755,2.389,2.4,10.41,10.444Z" transform="translate(-121.799 -104.576)" fill="#28a745"/>
</svg>
