<svg xmlns="http://www.w3.org/2000/svg" xmlns:xlink="http://www.w3.org/1999/xlink" width="207.348" height="136.329" viewBox="0 0 207.348 136.329">
  <defs>
    <linearGradient id="linear-gradient" x1="1" x2="0" y2="1" gradientUnits="objectBoundingBox">
      <stop offset="0" stop-color="#72bf44"/>
      <stop offset="1" stop-color="#20a74d"/>
    </linearGradient>
  </defs>
  <path id="Path_2182" data-name="Path 2182" d="M200.027,47.807c7.036-6.271,18.082-7.548,28.128-7.048,31.575,1.563,60.075,16.812,84.729,34.053,8.929,6.251,17.712,12.968,23.5,21.565,11.794,17.5,8.3,41.745-8.1,56.151-5.581,4.911-12.343,8.664-19.288,12-12.345,5.927-25.672,10.684-39.678,12.037-9.992.967-20.109.181-30.043-1.165-27.753-3.764-54.994-12.088-77.822-26.329-10.014-6.251-19.455-14.01-23.583-24.11s-1.485-22.909,8.74-28.889c4.242-2.473,9.287-3.59,14.238-4.639,7.286-1.545,14.691-3.067,21.268-6.206,6.8-3.246,14.832-9.517,13.492-16.691C194.158,60.828,193,54.069,200.027,47.807Z" transform="translate(-136.006 -40.661)" opacity="0.5" fill="url(#linear-gradient)"/>
</svg>
