<svg xmlns="http://www.w3.org/2000/svg" width="253.289" height="214.488" viewBox="0 0 253.289 214.488">
  <g id="For_sale-bro" data-name="For sale-bro" transform="translate(-59.524 -87.292)">
    <g id="freepik--Clouds--inject-45" transform="translate(59.524 87.292)">
      <path id="Path_14490" data-name="Path 14490" d="M310,173.127c-2.329-1.29-3.393-.213-4.238-1.29s2.329-3.812-4.025-6.567c0,0-.426-5.928-9.108-6.141s-6.354,5.928-8.682,7.412-2.967-.845-5.3.645-1.29,4.444-3.174,4.87c-1.742.387-4.006-1.509-6.16-.722a32.2,32.2,0,0,0-2.967-6.87c-7.863-13.5-25.009-19.726-38.432-23.525-42.722-12.082-53.056,17.584-79.535,33.923s-57.6,1.29-72.723,13.024S55.5,228.769,62.876,242.212s23.7,17.823,26.221,24.267,1.735,8.553,1.735,8.553H288.864c1.548,0,5.638-8.289,6.451-9.9,4.567-9.166,5.122-18.261-2.9-25.305-7.741-6.8-21.126-11.076-22.067-23.712s2.3-27,.11-39.819h41.219S312.331,174.4,310,173.127ZM147.029,246.605H93.445s1.484-1.058,2.754-1.935,3.387,0,4.444,0,1.058-1.29,3.393-2.748,4.87.845,6.773.419.851-3.387,3.18-4.87,2.967.845,5.3-.645,0-7.631,8.682-7.418,9.108,6.147,9.108,6.147c6.354,2.748,3.174,5.5,4.025,6.56s1.9,0,4.238,1.29S147.029,246.605,147.029,246.605Zm86.908-94.326H199.55s.948-.645,1.767-1.219,2.174,0,2.851,0,.684-.819,2.174-1.767,3.129.542,4.354.271.542-2.174,2.038-3.129,1.9.542,3.4-.406,0-4.9,5.573-4.76,5.844,3.941,5.844,3.941c4.077,1.767,2.038,3.535,2.58,4.219s1.226,0,2.722.813A1.747,1.747,0,0,1,233.937,152.279Z" transform="translate(-59.524 -105.333)" fill="#28a745"/>
      <path id="Path_14491" data-name="Path 14491" d="M203.275,101.295c-2.335-1.29-3.393-.213-4.238-1.29s2.329-3.812-4.025-6.567c0,0-.426-5.928-9.108-6.141s-6.354,5.928-8.682,7.412-2.967-.845-5.3.645-1.29,4.444-3.18,4.87-4.444-1.935-6.773-.426-2.335,2.754-3.393,2.754-3.174-.845-4.444,0-2.754,1.935-2.754,1.935h53.585S205.6,102.585,203.275,101.295Z" transform="translate(-92.128 -87.292)" fill="#28a745"/>
      <g id="Group_12376" data-name="Group 12376" opacity="0.7">
        <path id="Path_14492" data-name="Path 14492" d="M310,173.127c-2.329-1.29-3.393-.213-4.238-1.29s2.329-3.812-4.025-6.567c0,0-.426-5.928-9.108-6.141s-6.354,5.928-8.682,7.412-2.967-.845-5.3.645-1.29,4.444-3.174,4.87c-1.742.387-4.006-1.509-6.16-.722a32.2,32.2,0,0,0-2.967-6.87c-7.863-13.5-25.009-19.726-38.432-23.525-42.722-12.082-53.056,17.584-79.535,33.923s-57.6,1.29-72.723,13.024S55.5,228.769,62.876,242.212s23.7,17.823,26.221,24.267,1.735,8.553,1.735,8.553H288.864c1.548,0,5.638-8.289,6.451-9.9,4.567-9.166,5.122-18.261-2.9-25.305-7.741-6.8-21.126-11.076-22.067-23.712s2.3-27,.11-39.819h41.219S312.331,174.4,310,173.127ZM147.029,246.605H93.445s1.484-1.058,2.754-1.935,3.387,0,4.444,0,1.058-1.29,3.393-2.748,4.87.845,6.773.419.851-3.387,3.18-4.87,2.967.845,5.3-.645,0-7.631,8.682-7.418,9.108,6.147,9.108,6.147c6.354,2.748,3.174,5.5,4.025,6.56s1.9,0,4.238,1.29S147.029,246.605,147.029,246.605Zm86.908-94.326H199.55s.948-.645,1.767-1.219,2.174,0,2.851,0,.684-.819,2.174-1.767,3.129.542,4.354.271.542-2.174,2.038-3.129,1.9.542,3.4-.406,0-4.9,5.573-4.76,5.844,3.941,5.844,3.941c4.077,1.767,2.038,3.535,2.58,4.219s1.226,0,2.722.813A1.747,1.747,0,0,1,233.937,152.279Z" transform="translate(-59.524 -105.333)" fill="#fff"/>
        <path id="Path_14493" data-name="Path 14493" d="M203.275,101.295c-2.335-1.29-3.393-.213-4.238-1.29s2.329-3.812-4.025-6.567c0,0-.426-5.928-9.108-6.141s-6.354,5.928-8.682,7.412-2.967-.845-5.3.645-1.29,4.444-3.18,4.87-4.444-1.935-6.773-.426-2.335,2.754-3.393,2.754-3.174-.845-4.444,0-2.754,1.935-2.754,1.935h53.585S205.6,102.585,203.275,101.295Z" transform="translate(-92.128 -87.292)" fill="#fff"/>
      </g>
    </g>
    <g id="freepik--House--inject-45" transform="translate(165.001 137.514)">
      <path id="Path_14494" data-name="Path 14494" d="M440.483,285.82l6.3,16.868h-4.29l-4.29-13.153Z" transform="translate(-299.41 -207.981)" fill="#fff" stroke="#2e353a" stroke-linecap="round" stroke-linejoin="round" stroke-width="0.888"/>
      <path id="Path_14495" data-name="Path 14495" d="M415.857,330.02H359.15V301.044L411.8,293l4.057,11.185Z" transform="translate(-271.352 -210.53)" fill="#2e353a"/>
      <rect id="Rectangle_26834" data-name="Rectangle 26834" width="73.962" height="87.689" transform="translate(21.648 31.801)" fill="#2e353a"/>
      <path id="Path_14496" data-name="Path 14496" d="M247.808,204.04l-3.148-4.077,45.1-34.814,44.27,34.181-3.141,4.077-41.129-31.756Z" transform="translate(-230.714 -165.15)" fill="#2e353a"/>
      <rect id="Rectangle_26835" data-name="Rectangle 26835" width="73.962" height="87.689" transform="translate(8.115 31.801)" fill="#fff" stroke="#2e353a" stroke-linecap="round" stroke-linejoin="round" stroke-width="0.888"/>
      <path id="Path_14497" data-name="Path 14497" d="M272.6,170.19,235.62,198.74h73.962Z" transform="translate(-227.505 -166.939)" fill="#fff" stroke="#2e353a" stroke-linejoin="round" stroke-width="0.888"/>
      <path id="Path_14498" data-name="Path 14498" d="M272.6,170.19,235.62,198.74v6.5l8.424-6.5L272.6,176.692l28.563,22.048,8.418,6.5v-6.5Z" transform="translate(-227.505 -166.939)" fill="#28a745" style="mix-blend-mode: multiply;isolation: isolate"/>
      <rect id="Rectangle_26836" data-name="Rectangle 26836" width="56.713" height="28.976" transform="translate(82.077 90.514)" fill="#fff" stroke="#2e353a" stroke-linecap="round" stroke-linejoin="round" stroke-width="0.888"/>
      <rect id="Rectangle_26837" data-name="Rectangle 26837" width="45.276" height="28.976" transform="translate(87.798 90.514)" fill="#28a745" stroke="#2e353a" stroke-linecap="round" stroke-linejoin="round" stroke-width="0.888"/>
      <rect id="Rectangle_26838" data-name="Rectangle 26838" width="56.713" height="6.212" transform="translate(82.077 90.514)" fill="#28a745" style="mix-blend-mode: multiply;isolation: isolate"/>
      <line id="Line_310" data-name="Line 310" x2="45.27" transform="translate(87.798 98.996)" fill="none" stroke="#2e353a" stroke-linecap="round" stroke-linejoin="round" stroke-width="0.888"/>
      <line id="Line_311" data-name="Line 311" x2="45.27" transform="translate(87.798 103.286)" fill="none" stroke="#2e353a" stroke-linecap="round" stroke-linejoin="round" stroke-width="0.888"/>
      <line id="Line_312" data-name="Line 312" x2="45.27" transform="translate(87.798 107.576)" fill="none" stroke="#2e353a" stroke-linecap="round" stroke-linejoin="round" stroke-width="0.888"/>
      <line id="Line_313" data-name="Line 313" x2="45.27" transform="translate(87.798 111.865)" fill="none" stroke="#2e353a" stroke-linecap="round" stroke-linejoin="round" stroke-width="0.888"/>
      <line id="Line_314" data-name="Line 314" x2="45.27" transform="translate(87.798 116.155)" fill="none" stroke="#2e353a" stroke-linecap="round" stroke-linejoin="round" stroke-width="0.888"/>
      <rect id="Rectangle_26839" data-name="Rectangle 26839" width="14.868" height="32.407" transform="translate(14.217 87.082)" fill="#2e353a"/>
      <rect id="Rectangle_26840" data-name="Rectangle 26840" width="14.868" height="22.493" transform="translate(36.897 87.082)" fill="#fff" stroke="#2e353a" stroke-linecap="round" stroke-linejoin="round" stroke-width="0.888"/>
      <rect id="Rectangle_26841" data-name="Rectangle 26841" width="14.868" height="1.909" transform="translate(36.897 97.377)" fill="#2e353a"/>
      <rect id="Rectangle_26842" data-name="Rectangle 26842" width="1.909" height="22.493" transform="translate(43.38 87.082)" fill="#2e353a"/>
      <rect id="Rectangle_26843" data-name="Rectangle 26843" width="14.868" height="22.493" transform="translate(64.157 87.082)" fill="#fff" stroke="#2e353a" stroke-linecap="round" stroke-linejoin="round" stroke-width="0.888"/>
      <rect id="Rectangle_26844" data-name="Rectangle 26844" width="14.868" height="1.909" transform="translate(64.157 97.377)" fill="#2e353a"/>
      <rect id="Rectangle_26845" data-name="Rectangle 26845" width="1.909" height="22.493" transform="translate(70.64 87.082)" fill="#2e353a"/>
      <rect id="Rectangle_26846" data-name="Rectangle 26846" width="2.851" height="32.407" transform="translate(57.016 87.082)" fill="#fff" stroke="#2e353a" stroke-linecap="round" stroke-linejoin="round" stroke-width="0.888"/>
      <rect id="Rectangle_26847" data-name="Rectangle 26847" width="2.851" height="32.407" transform="translate(32.091 87.082)" fill="#fff" stroke="#2e353a" stroke-linecap="round" stroke-linejoin="round" stroke-width="0.888"/>
      <rect id="Rectangle_26848" data-name="Rectangle 26848" width="67.479" height="4.193" transform="translate(11.546 88.417)" fill="#2e353a"/>
      <rect id="Rectangle_26849" data-name="Rectangle 26849" width="67.479" height="4.193" transform="translate(11.546 86.321)" fill="#28a745" stroke="#2e353a" stroke-linecap="round" stroke-linejoin="round" stroke-width="0.888"/>
      <path id="Path_14499" data-name="Path 14499" d="M226.188,204.04l-3.148-4.077,45.1-34.814,44.27,34.181-3.141,4.077-41.129-31.756Z" transform="translate(-223.04 -165.15)" fill="#fff" stroke="#2e353a" stroke-linejoin="round" stroke-width="0.888"/>
      <path id="Path_14500" data-name="Path 14500" d="M403.891,302.688H341.54l5.722-16.868h58.913Z" transform="translate(-265.101 -207.981)" fill="#2e353a"/>
      <path id="Path_14501" data-name="Path 14501" d="M337.22,199.331h12.772L306.9,165.15H292.95Z" transform="translate(-247.854 -165.15)" fill="#2e353a"/>
      <path id="Path_14502" data-name="Path 14502" d="M356.71,222.217h13.946l3.141-4.077H359.851Z" transform="translate(-270.486 -183.959)" fill="#2e353a"/>
      <rect id="Rectangle_26850" data-name="Rectangle 26850" width="8.005" height="12.966" transform="translate(14.217 44.767)" fill="#fff" stroke="#2e353a" stroke-linecap="round" stroke-linejoin="round" stroke-width="0.888"/>
      <rect id="Rectangle_26851" data-name="Rectangle 26851" width="8.005" height="6.483" transform="translate(14.217 51.25)" fill="#2e353a"/>
      <rect id="Rectangle_26852" data-name="Rectangle 26852" width="8.005" height="1.445" transform="translate(14.217 50.527)" fill="#fff" stroke="#2e353a" stroke-linecap="round" stroke-linejoin="round" stroke-width="0.888"/>
      <rect id="Rectangle_26853" data-name="Rectangle 26853" width="8.005" height="12.966" transform="translate(14.217 63.447)" fill="#fff" stroke="#2e353a" stroke-linecap="round" stroke-linejoin="round" stroke-width="0.888"/>
      <rect id="Rectangle_26854" data-name="Rectangle 26854" width="8.005" height="6.541" transform="translate(14.217 69.866)" fill="#2e353a"/>
      <rect id="Rectangle_26855" data-name="Rectangle 26855" width="8.005" height="12.966" transform="translate(68.35 44.767)" fill="#fff" stroke="#2e353a" stroke-linecap="round" stroke-linejoin="round" stroke-width="0.888"/>
      <rect id="Rectangle_26856" data-name="Rectangle 26856" width="8.005" height="6.483" transform="translate(68.35 51.25)" fill="#2e353a"/>
      <rect id="Rectangle_26857" data-name="Rectangle 26857" width="8.005" height="12.966" transform="translate(68.35 63.447)" fill="#fff" stroke="#2e353a" stroke-linecap="round" stroke-linejoin="round" stroke-width="0.888"/>
      <rect id="Rectangle_26858" data-name="Rectangle 26858" width="8.005" height="7.263" transform="translate(68.35 69.143)" fill="#2e353a"/>
      <rect id="Rectangle_26859" data-name="Rectangle 26859" width="8.005" height="12.966" transform="translate(40.329 44.767)" fill="#fff" stroke="#2e353a" stroke-linecap="round" stroke-linejoin="round" stroke-width="0.888"/>
      <rect id="Rectangle_26860" data-name="Rectangle 26860" width="8.005" height="6.483" transform="translate(40.329 51.25)" fill="#2e353a"/>
      <rect id="Rectangle_26861" data-name="Rectangle 26861" width="8.005" height="12.966" transform="translate(40.329 63.447)" fill="#fff" stroke="#2e353a" stroke-linecap="round" stroke-linejoin="round" stroke-width="0.888"/>
      <rect id="Rectangle_26862" data-name="Rectangle 26862" width="8.005" height="7.263" transform="translate(40.329 69.143)" fill="#2e353a"/>
      <rect id="Rectangle_26863" data-name="Rectangle 26863" width="8.005" height="1.445" transform="translate(40.329 50.527)" fill="#fff" stroke="#2e353a" stroke-linecap="round" stroke-linejoin="round" stroke-width="0.888"/>
      <rect id="Rectangle_26864" data-name="Rectangle 26864" width="8.005" height="1.445" transform="translate(68.35 50.527)" fill="#fff" stroke="#2e353a" stroke-linecap="round" stroke-linejoin="round" stroke-width="0.888"/>
      <rect id="Rectangle_26865" data-name="Rectangle 26865" width="8.005" height="1.445" transform="translate(14.217 68.421)" fill="#fff" stroke="#2e353a" stroke-linecap="round" stroke-linejoin="round" stroke-width="0.888"/>
      <rect id="Rectangle_26866" data-name="Rectangle 26866" width="8.005" height="1.445" transform="translate(40.329 68.421)" fill="#fff" stroke="#2e353a" stroke-linecap="round" stroke-linejoin="round" stroke-width="0.888"/>
      <rect id="Rectangle_26867" data-name="Rectangle 26867" width="8.005" height="1.445" transform="translate(68.35 68.421)" fill="#fff" stroke="#2e353a" stroke-linecap="round" stroke-linejoin="round" stroke-width="0.888"/>
      <line id="Line_315" data-name="Line 315" y2="3.18" transform="translate(14.636 35.71)" fill="none" stroke="#2e353a" stroke-linecap="round" stroke-linejoin="round" stroke-width="0.888"/>
      <line id="Line_316" data-name="Line 316" y2="3.18" transform="translate(20.358 35.71)" fill="none" stroke="#2e353a" stroke-linecap="round" stroke-linejoin="round" stroke-width="0.888"/>
      <line id="Line_317" data-name="Line 317" y2="3.18" transform="translate(17.094 38.89)" fill="none" stroke="#2e353a" stroke-linecap="round" stroke-linejoin="round" stroke-width="0.888"/>
      <line id="Line_318" data-name="Line 318" y2="3.18" transform="translate(23.628 38.89)" fill="none" stroke="#2e353a" stroke-linecap="round" stroke-linejoin="round" stroke-width="0.888"/>
      <line id="Line_319" data-name="Line 319" x2="13.069" transform="translate(12.101 38.89)" fill="none" stroke="#2e353a" stroke-linecap="round" stroke-linejoin="round" stroke-width="0.888"/>
      <line id="Line_320" data-name="Line 320" y2="3.18" transform="translate(14.636 78.187)" fill="none" stroke="#2e353a" stroke-linecap="round" stroke-linejoin="round" stroke-width="0.888"/>
      <line id="Line_321" data-name="Line 321" y2="3.18" transform="translate(20.358 78.187)" fill="none" stroke="#2e353a" stroke-linecap="round" stroke-linejoin="round" stroke-width="0.888"/>
      <line id="Line_322" data-name="Line 322" y2="3.18" transform="translate(17.094 81.367)" fill="none" stroke="#2e353a" stroke-linecap="round" stroke-linejoin="round" stroke-width="0.888"/>
      <line id="Line_323" data-name="Line 323" y2="3.18" transform="translate(23.628 81.367)" fill="none" stroke="#2e353a" stroke-linecap="round" stroke-linejoin="round" stroke-width="0.888"/>
      <line id="Line_324" data-name="Line 324" x2="13.069" transform="translate(12.101 81.367)" fill="none" stroke="#2e353a" stroke-linecap="round" stroke-linejoin="round" stroke-width="0.888"/>
      <line id="Line_325" data-name="Line 325" y2="3.187" transform="translate(26.228 48.063)" fill="none" stroke="#2e353a" stroke-linecap="round" stroke-linejoin="round" stroke-width="0.888"/>
      <line id="Line_326" data-name="Line 326" y2="3.187" transform="translate(31.95 48.063)" fill="none" stroke="#2e353a" stroke-linecap="round" stroke-linejoin="round" stroke-width="0.888"/>
      <line id="Line_327" data-name="Line 327" y2="3.18" transform="translate(28.686 51.25)" fill="none" stroke="#2e353a" stroke-linecap="round" stroke-linejoin="round" stroke-width="0.888"/>
      <line id="Line_328" data-name="Line 328" y2="3.18" transform="translate(35.22 51.25)" fill="none" stroke="#2e353a" stroke-linecap="round" stroke-linejoin="round" stroke-width="0.888"/>
      <line id="Line_329" data-name="Line 329" x2="13.069" transform="translate(23.693 51.25)" fill="none" stroke="#2e353a" stroke-linecap="round" stroke-linejoin="round" stroke-width="0.888"/>
      <line id="Line_330" data-name="Line 330" x2="10.534" transform="translate(26.228 54.43)" fill="none" stroke="#2e353a" stroke-linecap="round" stroke-linejoin="round" stroke-width="0.888"/>
      <line id="Line_331" data-name="Line 331" y2="3.18" transform="translate(26.228 54.546)" fill="none" stroke="#2e353a" stroke-linecap="round" stroke-linejoin="round" stroke-width="0.888"/>
      <line id="Line_332" data-name="Line 332" y2="3.18" transform="translate(31.95 54.546)" fill="none" stroke="#2e353a" stroke-linecap="round" stroke-linejoin="round" stroke-width="0.888"/>
      <line id="Line_333" data-name="Line 333" y2="3.18" transform="translate(28.686 57.726)" fill="none" stroke="#2e353a" stroke-linecap="round" stroke-linejoin="round" stroke-width="0.888"/>
      <line id="Line_334" data-name="Line 334" y2="3.18" transform="translate(35.22 57.726)" fill="none" stroke="#2e353a" stroke-linecap="round" stroke-linejoin="round" stroke-width="0.888"/>
      <line id="Line_335" data-name="Line 335" x2="13.069" transform="translate(23.693 57.726)" fill="none" stroke="#2e353a" stroke-linecap="round" stroke-linejoin="round" stroke-width="0.888"/>
      <line id="Line_336" data-name="Line 336" y2="3.18" transform="translate(54.726 69.285)" fill="none" stroke="#2e353a" stroke-linecap="round" stroke-linejoin="round" stroke-width="0.888"/>
      <line id="Line_337" data-name="Line 337" y2="3.18" transform="translate(60.448 69.285)" fill="none" stroke="#2e353a" stroke-linecap="round" stroke-linejoin="round" stroke-width="0.888"/>
      <line id="Line_338" data-name="Line 338" y2="3.18" transform="translate(57.184 72.465)" fill="none" stroke="#2e353a" stroke-linecap="round" stroke-linejoin="round" stroke-width="0.888"/>
      <line id="Line_339" data-name="Line 339" y2="3.18" transform="translate(63.718 72.465)" fill="none" stroke="#2e353a" stroke-linecap="round" stroke-linejoin="round" stroke-width="0.888"/>
      <line id="Line_340" data-name="Line 340" x2="13.069" transform="translate(52.191 72.465)" fill="none" stroke="#2e353a" stroke-linecap="round" stroke-linejoin="round" stroke-width="0.888"/>
      <line id="Line_341" data-name="Line 341" x2="10.534" transform="translate(54.726 75.645)" fill="none" stroke="#2e353a" stroke-linecap="round" stroke-linejoin="round" stroke-width="0.888"/>
      <line id="Line_342" data-name="Line 342" y2="3.18" transform="translate(54.726 75.768)" fill="none" stroke="#2e353a" stroke-linecap="round" stroke-linejoin="round" stroke-width="0.888"/>
      <line id="Line_343" data-name="Line 343" y2="3.18" transform="translate(60.448 75.768)" fill="none" stroke="#2e353a" stroke-linecap="round" stroke-linejoin="round" stroke-width="0.888"/>
      <line id="Line_344" data-name="Line 344" y2="3.18" transform="translate(57.184 78.948)" fill="none" stroke="#2e353a" stroke-linecap="round" stroke-linejoin="round" stroke-width="0.888"/>
      <line id="Line_345" data-name="Line 345" y2="3.18" transform="translate(63.718 78.948)" fill="none" stroke="#2e353a" stroke-linecap="round" stroke-linejoin="round" stroke-width="0.888"/>
      <line id="Line_346" data-name="Line 346" x2="13.069" transform="translate(52.191 78.948)" fill="none" stroke="#2e353a" stroke-linecap="round" stroke-linejoin="round" stroke-width="0.888"/>
    </g>
    <g id="freepik--Ground--inject-45" transform="translate(61.505 237.453)">
      <path id="Path_14503" data-name="Path 14503" d="M67.372,348.617c12.682,5.244,45.27-.432,41.928,5.683s-28.866,3.819-36.123,10.431,25.757,6.083,24.589,8.089-30.214,3.38-28.3,6.083H265.184c.316-2.116-1.935-4.683-5.612-6.451-29.144-1.193-127.9-5.567-117.555-9.792,12.127-4.941,51.72-9.882,58.958-13.753s-24.822-4.3-30.189-6.018c-1.729-.555-1.935-1.1-1.374-1.568l.922.058v-.587a25.452,25.452,0,0,1,4.515-1.18h-4.515V338.5l-.645.406-1.1.71h-.355a21.39,21.39,0,0,0,.916-4.3c.252-2.522-3.29,3.18-3.29,3.18a6.234,6.234,0,0,0,0-3.18c-.5-1.245-2.025,1.684-2.025,1.684s1.774-7,0-11.546S160.059,337,160.059,337s-.271-6.244-2.548-6.367c-1.845-.1-.7,4.141-.2,5.754a7.05,7.05,0,0,0-1.69-2.387c-1.632-1.561,0,3.606,0,3.606s-.645-1.535-4.909-2.29,1.742,3.341,1.742,3.341a53.617,53.617,0,0,0-5.618-1.29c-.942-.155-1.019.077-.71.464l-.613.393-1.974,1.29a26.839,26.839,0,0,0,1.29-5.844c.323-3.225-4.186,4.051-4.186,4.051a7.874,7.874,0,0,0,0-4.051c-.645-1.606-2.58,2.142-2.58,2.142s2.258-8.908,0-14.7-4.806,14.7-4.806,14.7-.348-7.941-3.225-8.1c-2.342-.129-.9,5.231-.258,7.3A8.947,8.947,0,0,0,127.632,332c-2.084-1.987,0,4.586,0,4.586s-.819-1.935-6.251-2.916,2.213,4.257,2.213,4.257a67.815,67.815,0,0,0-7.154-1.638c-3.612-.593,2.748,3.335,2.748,3.335H71.242S54.7,343.38,67.372,348.617Zm78.967-10.527a16.062,16.062,0,0,0,2.071,1.555h-2.071Z" transform="translate(-62.595 -320.081)" fill="#28a745"/>
      <path id="Path_14504" data-name="Path 14504" d="M292.8,360.156c-7.328,3.393-25.525,6.954-25.525,6.954-2.9.393,1.026,4.1,21.138,2.264l34.42-18.984H256.88c2.206,1.135,17.92,3.754,26.86,3.754S300.131,356.757,292.8,360.156Z" transform="translate(-131.556 -330.839)" fill="#28a745"/>
      <path id="Path_14505" data-name="Path 14505" d="M394.26,350.328h13C400.736,350.077,394.26,350.328,394.26,350.328Z" transform="translate(-180.318 -330.777)" fill="#28a745"/>
      <path id="Path_14506" data-name="Path 14506" d="M410.522,351.56,379.63,371.466c3.915-.148,8.012-.245,11.979-.342,17.113-.413,10.9-7.837,12.063-10.456s10.876-2.187,11.65-6.554C415.54,352.876,413.521,352.076,410.522,351.56Z" transform="translate(-175.125 -331.254)" fill="#28a745"/>
      <g id="Group_12377" data-name="Group 12377" transform="translate(0 0)" opacity="0.3">
        <path id="Path_14507" data-name="Path 14507" d="M67.372,348.617c12.682,5.244,45.27-.432,41.928,5.683s-28.866,3.819-36.123,10.431,25.757,6.083,24.589,8.089-30.214,3.38-28.3,6.083H265.184c.316-2.116-1.935-4.683-5.612-6.451-29.144-1.193-127.9-5.567-117.555-9.792,12.127-4.941,51.72-9.882,58.958-13.753s-24.822-4.3-30.189-6.018c-1.729-.555-1.935-1.1-1.374-1.568l.922.058v-.587a25.452,25.452,0,0,1,4.515-1.18h-4.515V338.5l-.645.406-1.1.71h-.355a21.39,21.39,0,0,0,.916-4.3c.252-2.522-3.29,3.18-3.29,3.18a6.234,6.234,0,0,0,0-3.18c-.5-1.245-2.025,1.684-2.025,1.684s1.774-7,0-11.546S160.059,337,160.059,337s-.271-6.244-2.548-6.367c-1.845-.1-.7,4.141-.2,5.754a7.05,7.05,0,0,0-1.69-2.387c-1.632-1.561,0,3.606,0,3.606s-.645-1.535-4.909-2.29,1.742,3.341,1.742,3.341a53.617,53.617,0,0,0-5.618-1.29c-.942-.155-1.019.077-.71.464l-.613.393-1.974,1.29a26.839,26.839,0,0,0,1.29-5.844c.323-3.225-4.186,4.051-4.186,4.051a7.874,7.874,0,0,0,0-4.051c-.645-1.606-2.58,2.142-2.58,2.142s2.258-8.908,0-14.7-4.806,14.7-4.806,14.7-.348-7.941-3.225-8.1c-2.342-.129-.9,5.231-.258,7.3A8.947,8.947,0,0,0,127.632,332c-2.084-1.987,0,4.586,0,4.586s-.819-1.935-6.251-2.916,2.213,4.257,2.213,4.257a67.815,67.815,0,0,0-7.154-1.638c-3.612-.593,2.748,3.335,2.748,3.335H71.242S54.7,343.38,67.372,348.617Zm78.967-10.527a16.062,16.062,0,0,0,2.071,1.555h-2.071Z" transform="translate(-62.595 -320.081)" fill="#fff"/>
        <path id="Path_14508" data-name="Path 14508" d="M292.8,360.156c-7.328,3.393-25.525,6.954-25.525,6.954-2.9.393,1.026,4.1,21.138,2.264l34.42-18.984H256.88c2.206,1.135,17.92,3.754,26.86,3.754S300.131,356.757,292.8,360.156Z" transform="translate(-131.556 -330.839)" fill="#fff"/>
        <path id="Path_14509" data-name="Path 14509" d="M394.26,350.328h13C400.736,350.077,394.26,350.328,394.26,350.328Z" transform="translate(-180.318 -330.777)" fill="#fff"/>
        <path id="Path_14510" data-name="Path 14510" d="M410.522,351.56,379.63,371.466c3.915-.148,8.012-.245,11.979-.342,17.113-.413,10.9-7.837,12.063-10.456s10.876-2.187,11.65-6.554C415.54,352.876,413.521,352.076,410.522,351.56Z" transform="translate(-175.125 -331.254)" fill="#fff"/>
      </g>
    </g>
    <g id="freepik--Sign--inject-45" transform="translate(60.176 91.271)">
      <path id="Path_14511" data-name="Path 14511" d="M134.31,182.2v52.03h75.684V182.2Zm7.031,6.392a2.09,2.09,0,1,1,2.09-2.09A2.09,2.09,0,0,1,141.341,188.592Zm61.551,0a2.09,2.09,0,1,1,2.09-2.09A2.09,2.09,0,0,1,202.892,188.592Z" transform="translate(-86.721 -124.958)" fill="#28a745" stroke="#2e353a" stroke-miterlimit="10" stroke-width="1"/>
      <path id="Path_14512" data-name="Path 14512" d="M206.182,187.72a2.09,2.09,0,1,1-2.09-2.09H142.541a2.09,2.09,0,1,1-2.09,2.09,2.09,2.09,0,0,1,2.09-2.09H137.69v46.947H208.3V185.63h-4.206A2.09,2.09,0,0,1,206.182,187.72Z" transform="translate(-87.921 -126.175)" fill="#2e353a"/>
      <path id="Path_14513" data-name="Path 14513" d="M143.542,151a3.038,3.038,0,1,0,2.152.888A3.038,3.038,0,0,0,143.542,151Zm0,5.064a.841.841,0,1,1,0,.019Z" transform="translate(-88.922 -113.884)" fill="#fff" stroke="#2e353a" stroke-linecap="round" stroke-linejoin="round" stroke-width="0.917"/>
      <path id="Path_14514" data-name="Path 14514" d="M143.535,162.31a3.038,3.038,0,1,0,2.152.888A3.045,3.045,0,0,0,143.535,162.31Zm0,5.07a2.032,2.032,0,1,1,2.032-2.032A2.032,2.032,0,0,1,143.535,167.38Z" transform="translate(-88.914 -117.898)" fill="#fff" stroke="#2e353a" stroke-linecap="round" stroke-linejoin="round" stroke-width="0.917"/>
      <path id="Path_14515" data-name="Path 14515" d="M143.542,172.28a3.038,3.038,0,1,0,2.152.888,3.038,3.038,0,0,0-2.152-.888Zm0,5.064a2.025,2.025,0,1,1,2.032-2.025,2.026,2.026,0,0,1-2.032,2.025Z" transform="translate(-88.922 -121.437)" fill="#fff" stroke="#2e353a" stroke-linecap="round" stroke-linejoin="round" stroke-width="0.917"/>
      <path id="Path_14516" data-name="Path 14516" d="M144.915,163.163h0a.535.535,0,0,1-.535-.535v-5.012a.535.535,0,0,1,.535-.535h0a.542.542,0,0,1,.542.535v5.012A.542.542,0,0,1,144.915,163.163Z" transform="translate(-90.295 -116.042)" fill="#fff" stroke="#2e353a" stroke-linecap="round" stroke-linejoin="round" stroke-width="0.917"/>
      <path id="Path_14517" data-name="Path 14517" d="M144.915,173.853h0a.535.535,0,0,1-.535-.535v-5.012a.535.535,0,0,1,.535-.535h0a.542.542,0,0,1,.542.535v5.012A.542.542,0,0,1,144.915,173.853Z" transform="translate(-90.295 -119.836)" fill="#fff" stroke="#2e353a" stroke-linecap="round" stroke-linejoin="round" stroke-width="0.917"/>
      <path id="Path_14518" data-name="Path 14518" d="M144.915,184.563h0a.535.535,0,0,1-.535-.535v-5.012a.535.535,0,0,1,.535-.535h0a.542.542,0,0,1,.542.535v5.012a.542.542,0,0,1-.542.535Z" transform="translate(-90.295 -123.638)" fill="#fff" stroke="#2e353a" stroke-linecap="round" stroke-linejoin="round" stroke-width="0.917"/>
      <path id="Path_14519" data-name="Path 14519" d="M238.962,151a3.038,3.038,0,1,0,2.153.888A3.038,3.038,0,0,0,238.962,151Zm0,5.064a.841.841,0,1,1,0,.019Z" transform="translate(-122.79 -113.884)" fill="#fff" stroke="#2e353a" stroke-linecap="round" stroke-linejoin="round" stroke-width="0.917"/>
      <path id="Path_14520" data-name="Path 14520" d="M238.955,162.31a3.038,3.038,0,1,0,2.153.888A3.045,3.045,0,0,0,238.955,162.31Zm0,5.07a2.032,2.032,0,1,1,2.032-2.032A2.032,2.032,0,0,1,238.955,167.38Z" transform="translate(-122.783 -117.898)" fill="#fff" stroke="#2e353a" stroke-linecap="round" stroke-linejoin="round" stroke-width="0.917"/>
      <path id="Path_14521" data-name="Path 14521" d="M238.962,172.28a3.038,3.038,0,1,0,2.152.888,3.038,3.038,0,0,0-2.152-.888Zm0,5.064a2.025,2.025,0,1,1,2.032-2.025,2.025,2.025,0,0,1-2.032,2.025Z" transform="translate(-122.79 -121.437)" fill="#fff" stroke="#2e353a" stroke-linecap="round" stroke-linejoin="round" stroke-width="0.917"/>
      <path id="Path_14522" data-name="Path 14522" d="M240.335,163.163h0a.535.535,0,0,1-.535-.535v-5.012a.535.535,0,0,1,.535-.535h0a.542.542,0,0,1,.542.535v5.012A.542.542,0,0,1,240.335,163.163Z" transform="translate(-124.164 -116.042)" fill="#fff" stroke="#2e353a" stroke-linecap="round" stroke-linejoin="round" stroke-width="0.917"/>
      <path id="Path_14523" data-name="Path 14523" d="M240.335,173.853h0a.535.535,0,0,1-.535-.535v-5.012a.535.535,0,0,1,.535-.535h0a.542.542,0,0,1,.542.535v5.012A.542.542,0,0,1,240.335,173.853Z" transform="translate(-124.164 -119.836)" fill="#fff" stroke="#2e353a" stroke-linecap="round" stroke-linejoin="round" stroke-width="0.917"/>
      <path id="Path_14524" data-name="Path 14524" d="M240.335,184.563h0a.535.535,0,0,1-.535-.535v-5.012a.535.535,0,0,1,.535-.535h0a.542.542,0,0,1,.542.535v5.012a.542.542,0,0,1-.542.535Z" transform="translate(-124.164 -123.638)" fill="#fff" stroke="#2e353a" stroke-linecap="round" stroke-linejoin="round" stroke-width="0.917"/>
      <path id="Path_14525" data-name="Path 14525" d="M197.905,147.839H79.706L75.99,137.57H206.065Z" transform="translate(-66.02 -109.117)" fill="#2e353a" stroke="#2e353a" stroke-linecap="round" stroke-linejoin="round" stroke-width="0.888"/>
      <path id="Path_14526" data-name="Path 14526" d="M193.235,147.839H75.036L71.32,137.57H201.4Z" transform="translate(-64.363 -109.117)" fill="#fff" stroke="#2e353a" stroke-linecap="round" stroke-linejoin="round" stroke-width="0.888"/>
      <path id="Path_14527" data-name="Path 14527" d="M105.769,295.3H96.1L99.022,93.46h1.716l5.031,7.141Z" transform="translate(-73.158 -93.46)" fill="#2e353a" stroke="#2e353a" stroke-linecap="round" stroke-linejoin="round" stroke-width="0.888"/>
      <path id="Path_14528" data-name="Path 14528" d="M103.1,295.3H93.43V100.6l4.644-7.141L103.1,100.6Z" transform="translate(-72.211 -93.46)" fill="#fff" stroke="#2e353a" stroke-linecap="round" stroke-linejoin="round" stroke-width="0.888"/>
      <line id="Line_347" data-name="Line 347" y1="12.417" transform="translate(22.942 189.426)" fill="none" stroke="#2e353a" stroke-linecap="round" stroke-linejoin="round" stroke-width="0.888"/>
      <line id="Line_348" data-name="Line 348" y1="45.354" transform="translate(24.632 156.49)" fill="none" stroke="#2e353a" stroke-linecap="round" stroke-linejoin="round" stroke-width="0.888"/>
      <line id="Line_349" data-name="Line 349" y1="4.515" transform="translate(22.942 183.027)" fill="none" stroke="#2e353a" stroke-linecap="round" stroke-linejoin="round" stroke-width="0.888"/>
      <line id="Line_350" data-name="Line 350" y1="4.515" transform="translate(27.773 117.387)" fill="none" stroke="#2e353a" stroke-linecap="round" stroke-linejoin="round" stroke-width="0.888"/>
      <line id="Line_351" data-name="Line 351" y1="4.515" transform="translate(22.942 4.554)" fill="none" stroke="#2e353a" stroke-linecap="round" stroke-linejoin="round" stroke-width="0.888"/>
      <line id="Line_352" data-name="Line 352" y1="4.515" transform="translate(22.942 10.501)" fill="none" stroke="#2e353a" stroke-linecap="round" stroke-linejoin="round" stroke-width="0.888"/>
      <line id="Line_353" data-name="Line 353" y1="23.557" transform="translate(27.773 126.972)" fill="none" stroke="#2e353a" stroke-linecap="round" stroke-linejoin="round" stroke-width="0.888"/>
      <line id="Line_354" data-name="Line 354" x2="3.387" transform="translate(7.905 30.595)" fill="none" stroke="#2e353a" stroke-linecap="round" stroke-linejoin="round" stroke-width="0.888"/>
      <line id="Line_355" data-name="Line 355" x2="8.095" transform="translate(9.408 32.291)" fill="none" stroke="#2e353a" stroke-linecap="round" stroke-linejoin="round" stroke-width="0.888"/>
      <line id="Line_356" data-name="Line 356" x2="8.089" transform="translate(39.5 32.291)" fill="none" stroke="#2e353a" stroke-linecap="round" stroke-linejoin="round" stroke-width="0.888"/>
      <line id="Line_357" data-name="Line 357" x2="2.845" transform="translate(43.545 34.175)" fill="none" stroke="#2e353a" stroke-linecap="round" stroke-linejoin="round" stroke-width="0.888"/>
      <line id="Line_358" data-name="Line 358" x2="16.888" transform="translate(57.91 34.175)" fill="none" stroke="#2e353a" stroke-linecap="round" stroke-linejoin="round" stroke-width="0.888"/>
      <line id="Line_359" data-name="Line 359" x1="2.825" transform="translate(129.846 34.175)" fill="none" stroke="#2e353a" stroke-linecap="round" stroke-linejoin="round" stroke-width="0.888"/>
      <line id="Line_360" data-name="Line 360" x1="9.592" transform="translate(121.757 35.491)" fill="none" stroke="#2e353a" stroke-linecap="round" stroke-linejoin="round" stroke-width="0.888"/>
      <path id="Path_14529" data-name="Path 14529" d="M62.125,401.463h6.328s-11.488-10.243-6.328-9.2a26.043,26.043,0,0,1,9.676,4.683s-6.1-5.741-1.884-4.7,4.044,2.774,4.044,2.774.329-12.4,4.051-8.979a10.966,10.966,0,0,1,3.715,7.412s7.954-9.837,9.676-9.3,1.722,6.56,1.722,6.56,13.359-10.889,10.934-4.677a46.433,46.433,0,0,1-4.044,8.547s6.27-5.541,5.47-2.342a26.907,26.907,0,0,1-1.426,4.515s9.431,2.954,8.037,2.948S108.1,401.5,108.1,401.5s15.926-2.58,12.9,0-27.892,2.148-27.892,2.148,12.146,2.974,6.921,2.974-13.443-2.154-13.443-2.154-12.256,2.58-16.649,2.154,8.1-2.154,8.1-2.154S54.275,404.495,62.125,401.463Z" transform="translate(-60.534 -196.633)" fill="#2e353a" stroke="#2e353a" stroke-linecap="round" stroke-linejoin="round" stroke-width="0.917"/>
      <text id="للايجار" transform="translate(85.348 89.256)" fill="#fff" font-size="20" font-family="SegoeUI, Segoe UI"><tspan x="-25.049" y="0">للايجار</tspan></text>
    </g>
  </g>
</svg>
