<svg xmlns="http://www.w3.org/2000/svg" width="244.325" height="199.455" viewBox="0 0 244.325 199.455">
  <g id="House_searching-bro" data-name="House searching-bro" transform="translate(-49.001 -86.157)">
    <g id="freepik--background-simple--inject-1" transform="translate(49.001 89.4)">
      <path id="Path_14406" data-name="Path 14406" d="M285.267,145.474A100.238,100.238,0,0,0,258.95,108c-13.5-11.742-34.807-20.8-52.816-14.374-18.64,6.625-31.106,22.488-44.927,35.421-4.862,4.534-10.162,8.831-16.465,11.359-28.839,11.548-48.427-4.206-74,13.663s-27.757,53.581-10.885,76.178,57.131,19.449,87.611,19.449,25.575,21.546,78.907,22.068c54.536.541,71.748-57.313,65.852-100.611A105.252,105.252,0,0,0,285.267,145.474Z" transform="translate(-49.001 -91.493)" fill="#28a745"/>
      <path id="Path_14407" data-name="Path 14407" d="M285.267,145.474A100.238,100.238,0,0,0,258.95,108c-13.5-11.742-34.807-20.8-52.816-14.374-18.64,6.625-31.106,22.488-44.927,35.421-4.862,4.534-10.162,8.831-16.465,11.359-28.839,11.548-48.427-4.206-74,13.663s-27.757,53.581-10.885,76.178,57.131,19.449,87.611,19.449,25.575,21.546,78.907,22.068c54.536.541,71.748-57.313,65.852-100.611A105.252,105.252,0,0,0,285.267,145.474Z" transform="translate(-49.001 -91.493)" fill="#fff" opacity="0.7"/>
    </g>
    <g id="freepik--Clouds--inject-1" transform="translate(85.297 86.157)">
      <path id="Path_14408" data-name="Path 14408" d="M187.293,107.334c-3.525-1.927-5.13-.322-6.412-1.927s3.525-5.774-6.078-9.943c0,0-.638-8.977-13.79-9.3S151.38,95.178,147.849,97.4s-4.491-1.282-8.017.96-1.927,6.734-4.814,7.378-6.734-2.887-10.265-.644-3.525,4.175-5.13,4.175-4.814-1.288-6.734,0-4.169,2.887-4.169,2.887h81.15S190.83,109.266,187.293,107.334Z" transform="translate(-108.72 -86.157)" fill="#28a745"/>
      <path id="Path_14409" data-name="Path 14409" d="M187.293,107.334c-3.525-1.927-5.13-.322-6.412-1.927s3.525-5.774-6.078-9.943c0,0-.638-8.977-13.79-9.3S151.38,95.178,147.849,97.4s-4.491-1.282-8.017.96-1.927,6.734-4.814,7.378-6.734-2.887-10.265-.644-3.525,4.175-5.13,4.175-4.814-1.288-6.734,0-4.169,2.887-4.169,2.887h81.15S190.83,109.266,187.293,107.334Z" transform="translate(-108.72 -86.157)" fill="#fff" opacity="0.5"/>
      <path id="Path_14410" data-name="Path 14410" d="M315.028,134.54c-2.267-1.216-3.3-.207-4.121-1.216s2.267-3.714-3.914-6.388c0,0-.413-5.774-8.861-5.98s-6.181,5.774-8.448,7.214-2.887-.827-5.154.608-1.216,4.327-3.094,4.741-4.327-1.86-6.588-.413-2.267,2.674-3.3,2.674-3.094-.821-4.327,0-2.68,1.86-2.68,1.86h52.135S317.295,135.774,315.028,134.54Z" transform="translate(-169.837 -99.804)" fill="#fff"/>
    </g>
    <g id="freepik--House--inject-1" transform="translate(72.236 131.932)">
      <rect id="Rectangle_26781" data-name="Rectangle 26781" width="165.6" height="52.256" transform="translate(15.109 47.982)" fill="#fff"/>
      <path id="Path_14411" data-name="Path 14411" d="M277.494,292.776h-165.6a.3.3,0,0,1-.3-.3V240.2a.3.3,0,0,1,.3-.3h165.6a.3.3,0,0,1,.3.3v52.269A.3.3,0,0,1,277.494,292.776Zm-165.315-.608H277.19V240.508H112.2Z" transform="translate(-96.785 -192.234)" fill="#263238"/>
      <path id="Path_14412" data-name="Path 14412" d="M195.394,161.97,112.81,209.65H277.973Z" transform="translate(-97.263 -161.668)" fill="#28a745"/>
      <path id="Path_14413" data-name="Path 14413" d="M277.779,209.759H112.616a.3.3,0,0,1-.152-.565l82.584-47.68a.3.3,0,0,1,.3,0L277.931,209.2a.3.3,0,0,1,.146.34A.3.3,0,0,1,277.779,209.759Zm-164.026-.608H276.636l-81.442-47.024Z" transform="translate(-97.069 -161.473)" fill="#263238"/>
      <rect id="Rectangle_26782" data-name="Rectangle 26782" width="40.982" height="56.505" transform="translate(90.485 43.734)" fill="#fff"/>
      <path id="Path_14414" data-name="Path 14414" d="M276.9,290.031H235.914a.3.3,0,0,1-.3-.3V233.2a.3.3,0,0,1,.3-.3H276.9a.31.31,0,0,1,.3.3v56.523A.3.3,0,0,1,276.9,290.031Zm-40.678-.608h40.35V233.508h-40.35Z" transform="translate(-145.428 -189.489)" fill="#263238"/>
      <rect id="Rectangle_26783" data-name="Rectangle 26783" width="40.982" height="2.401" transform="translate(90.485 43.734)" fill="#263238"/>
      <path id="Path_14415" data-name="Path 14415" d="M276.9,235.929H235.914a.3.3,0,0,1-.3-.3v-2.431a.3.3,0,0,1,.3-.3H276.9a.31.31,0,0,1,.3.3v2.431A.31.31,0,0,1,276.9,235.929Zm-40.678-.608h40.35V233.5h-40.35Z" transform="translate(-145.428 -189.485)" fill="#263238"/>
      <path id="Path_14416" data-name="Path 14416" d="M273.458,297H253V261.685a10.229,10.229,0,0,1,10.229-10.235h0a10.235,10.235,0,0,1,10.235,10.235Z" transform="translate(-152.249 -196.764)" fill="#263238"/>
      <path id="Path_14417" data-name="Path 14417" d="M273.26,296.947H252.8a.3.3,0,0,1-.3-.3V261.325a10.539,10.539,0,1,1,21.072,0v35.318a.3.3,0,0,1-.31.3Zm-20.16-.608h19.856V261.325a9.931,9.931,0,1,0-19.856,0Z" transform="translate(-152.051 -196.405)" fill="#263238"/>
      <rect id="Rectangle_26784" data-name="Rectangle 26784" width="94.922" height="43.103" transform="translate(3.221 57.135)" fill="#fff"/>
      <path id="Path_14418" data-name="Path 14418" d="M187.256,298.691H92.334a.3.3,0,0,1-.3-.3v-43.1a.3.3,0,0,1,.3-.3h94.922a.3.3,0,0,1,.3.3v43.1A.3.3,0,0,1,187.256,298.691Zm-94.637-.608h94.333V255.6H92.62Z" transform="translate(-89.113 -198.149)" fill="#263238"/>
      <rect id="Rectangle_26785" data-name="Rectangle 26785" width="94.922" height="1.921" transform="translate(3.221 57.135)" fill="#263238"/>
      <path id="Path_14419" data-name="Path 14419" d="M187.256,257.508H92.334a.3.3,0,0,1-.3-.3v-1.921a.3.3,0,0,1,.3-.3h94.922a.3.3,0,0,1,.3.3V257.2A.3.3,0,0,1,187.256,257.508ZM92.62,256.9h94.333v-1.3H92.62Z" transform="translate(-89.113 -198.149)" fill="#263238"/>
      <rect id="Rectangle_26786" data-name="Rectangle 26786" width="74.033" height="39.548" transform="translate(13.663 60.691)" fill="#28a745"/>
      <path id="Path_14420" data-name="Path 14420" d="M183.547,300.986H109.514a.3.3,0,0,1-.3-.3V261.134a.3.3,0,0,1,.3-.3h74.033a.3.3,0,0,1,.3.3v39.548A.3.3,0,0,1,183.547,300.986Zm-73.729-.608h73.413v-38.94H109.818Z" transform="translate(-95.851 -200.443)" fill="#263238"/>
      <path id="Path_14421" data-name="Path 14421" d="M138.108,203.59,87.73,232.678H188.487Z" transform="translate(-87.426 -177.992)" fill="#28a745"/>
      <path id="Path_14422" data-name="Path 14422" d="M188.293,232.837H87.536a.3.3,0,0,1-.152-.565l50.378-29.088a.3.3,0,0,1,.3,0l50.378,29.046a.3.3,0,0,1-.152.565Zm-99.62-.608h98.459L137.9,203.8Z" transform="translate(-87.232 -177.817)" fill="#263238"/>
      <rect id="Rectangle_26787" data-name="Rectangle 26787" width="100.751" height="2.449" transform="translate(0.304 54.686)" fill="#fff"/>
      <path id="Path_14423" data-name="Path 14423" d="M188.291,254.039H87.534a.3.3,0,0,1-.3-.3V251.3a.3.3,0,0,1,.3-.3H188.291a.3.3,0,0,1,.3.3v2.431A.3.3,0,0,1,188.291,254.039Zm-100.453-.608H187.981v-1.823H87.838Z" transform="translate(-87.23 -196.588)" fill="#263238"/>
      <path id="Path_14424" data-name="Path 14424" d="M252.986,206.45,226.9,221.511h52.177Z" transform="translate(-142.012 -179.114)" fill="#28a745"/>
      <path id="Path_14425" data-name="Path 14425" d="M278.878,221.614H226.7a.3.3,0,0,1-.3-.225.3.3,0,0,1,.146-.34l26.086-15.073a.334.334,0,0,1,.3,0l26.092,15.073a.3.3,0,0,1-.152.565Zm-51.053-.608h49.91l-24.949-14.422Z" transform="translate(-141.813 -178.914)" fill="#263238"/>
      <rect id="Rectangle_26788" data-name="Rectangle 26788" width="52.177" height="2.419" transform="translate(84.888 42.396)" fill="#fff"/>
      <path id="Path_14426" data-name="Path 14426" d="M278.881,233.749H226.7a.3.3,0,0,1-.3-.3v-2.431a.3.3,0,0,1,.3-.3h52.177a.3.3,0,0,1,.3.3v2.431A.3.3,0,0,1,278.881,233.749Zm-51.874-.608h51.57v-1.823h-51.57Z" transform="translate(-141.816 -188.63)" fill="#263238"/>
      <rect id="Rectangle_26789" data-name="Rectangle 26789" width="5.993" height="5.993" transform="translate(16.361 63.869)" fill="#fff"/>
      <path id="Path_14427" data-name="Path 14427" d="M119.937,272.66h-5.993a.3.3,0,0,1-.3-.3v-5.993a.3.3,0,0,1,.3-.3h5.993a.3.3,0,0,1,.3.3v5.993A.3.3,0,0,1,119.937,272.66Zm-5.689-.608h5.385v-5.385h-5.385Z" transform="translate(-97.589 -202.495)" fill="#263238"/>
      <rect id="Rectangle_26790" data-name="Rectangle 26790" width="5.993" height="5.993" transform="translate(25.356 63.869)" fill="#fff"/>
      <path id="Path_14428" data-name="Path 14428" d="M134.766,272.66H128.8a.3.3,0,0,1-.3-.3v-5.993a.3.3,0,0,1,.3-.3H134.8a.3.3,0,0,1,.3.3v5.993a.3.3,0,0,1-.334.3Zm-5.689-.608h5.385v-5.385h-5.385Z" transform="translate(-103.417 -202.495)" fill="#263238"/>
      <rect id="Rectangle_26791" data-name="Rectangle 26791" width="5.993" height="5.993" transform="translate(34.345 63.869)" fill="#fff"/>
      <path id="Path_14429" data-name="Path 14429" d="M149.543,272.66h-6a.3.3,0,0,1-.3-.3v-5.993a.3.3,0,0,1,.3-.3h6a.3.3,0,0,1,.3.3v5.993A.3.3,0,0,1,149.543,272.66Zm-5.695-.608h5.391v-5.385h-5.391Z" transform="translate(-109.199 -202.495)" fill="#263238"/>
      <rect id="Rectangle_26792" data-name="Rectangle 26792" width="5.993" height="5.993" transform="translate(43.34 63.869)" fill="#fff"/>
      <path id="Path_14430" data-name="Path 14430" d="M164.343,272.66h-6a.3.3,0,0,1-.3-.3v-5.993a.3.3,0,0,1,.3-.3h6a.3.3,0,0,1,.3.3v5.993A.3.3,0,0,1,164.343,272.66Zm-5.695-.608h5.391v-5.385h-5.415Z" transform="translate(-115.004 -202.495)" fill="#263238"/>
      <rect id="Rectangle_26793" data-name="Rectangle 26793" width="5.993" height="5.993" transform="translate(52.335 63.869)" fill="#fff"/>
      <path id="Path_14431" data-name="Path 14431" d="M179.137,272.66h-5.993a.3.3,0,0,1-.3-.3v-5.993a.3.3,0,0,1,.3-.3h5.993a.3.3,0,0,1,.3.3v5.993A.3.3,0,0,1,179.137,272.66Zm-5.689-.608h5.385v-5.385h-5.385Z" transform="translate(-120.808 -202.495)" fill="#263238"/>
      <rect id="Rectangle_26794" data-name="Rectangle 26794" width="5.993" height="5.993" transform="translate(61.324 63.869)" fill="#fff"/>
      <path id="Path_14432" data-name="Path 14432" d="M193.933,272.66h-6a.3.3,0,0,1-.3-.3v-5.993a.3.3,0,0,1,.3-.3h6a.3.3,0,0,1,.3.3v5.993A.3.3,0,0,1,193.933,272.66Zm-5.695-.608h5.391v-5.385h-5.391Z" transform="translate(-126.609 -202.495)" fill="#263238"/>
      <rect id="Rectangle_26795" data-name="Rectangle 26795" width="5.993" height="5.993" transform="translate(70.319 63.869)" fill="#fff"/>
      <path id="Path_14433" data-name="Path 14433" d="M208.733,272.66h-6a.3.3,0,0,1-.3-.3v-5.993a.3.3,0,0,1,.3-.3h6a.3.3,0,0,1,.3.3v5.993A.3.3,0,0,1,208.733,272.66Zm-5.695-.608h5.391v-5.385h-5.391Z" transform="translate(-132.414 -202.495)" fill="#263238"/>
      <rect id="Rectangle_26796" data-name="Rectangle 26796" width="5.993" height="5.993" transform="translate(79.315 63.869)" fill="#fff"/>
      <path id="Path_14434" data-name="Path 14434" d="M223.527,272.66h-5.993a.3.3,0,0,1-.3-.3v-5.993a.3.3,0,0,1,.3-.3h5.993a.3.3,0,0,1,.3.3v5.993A.3.3,0,0,1,223.527,272.66Zm-5.689-.608h5.385v-5.385h-5.385Z" transform="translate(-138.219 -202.495)" fill="#263238"/>
      <rect id="Rectangle_26797" data-name="Rectangle 26797" width="5.993" height="5.993" transform="translate(16.361 72.694)" fill="#fff"/>
      <path id="Path_14435" data-name="Path 14435" d="M119.937,287.18h-5.993a.3.3,0,0,1-.3-.3v-5.993a.3.3,0,0,1,.3-.3h5.993a.3.3,0,0,1,.3.3v5.993A.3.3,0,0,1,119.937,287.18Zm-5.689-.608h5.385v-5.385h-5.385Z" transform="translate(-97.589 -208.19)" fill="#263238"/>
      <rect id="Rectangle_26798" data-name="Rectangle 26798" width="5.993" height="5.993" transform="translate(25.356 72.694)" fill="#fff"/>
      <path id="Path_14436" data-name="Path 14436" d="M134.766,287.18H128.8a.3.3,0,0,1-.3-.3v-5.993a.3.3,0,0,1,.3-.3H134.8a.3.3,0,0,1,.3.3v5.993a.3.3,0,0,1-.334.3Zm-5.689-.608h5.385v-5.385h-5.385Z" transform="translate(-103.417 -208.19)" fill="#263238"/>
      <rect id="Rectangle_26799" data-name="Rectangle 26799" width="5.993" height="5.993" transform="translate(34.345 72.694)" fill="#fff"/>
      <path id="Path_14437" data-name="Path 14437" d="M149.543,287.18h-6a.3.3,0,0,1-.3-.3v-5.993a.3.3,0,0,1,.3-.3h6a.3.3,0,0,1,.3.3v5.993A.3.3,0,0,1,149.543,287.18Zm-5.695-.608h5.391v-5.385h-5.391Z" transform="translate(-109.199 -208.19)" fill="#263238"/>
      <rect id="Rectangle_26800" data-name="Rectangle 26800" width="5.993" height="5.993" transform="translate(43.34 72.694)" fill="#fff"/>
      <path id="Path_14438" data-name="Path 14438" d="M164.343,287.18h-6a.3.3,0,0,1-.3-.3v-5.993a.3.3,0,0,1,.3-.3h6a.3.3,0,0,1,.3.3v5.993A.3.3,0,0,1,164.343,287.18Zm-5.695-.608h5.391v-5.385h-5.415Z" transform="translate(-115.004 -208.19)" fill="#263238"/>
      <rect id="Rectangle_26801" data-name="Rectangle 26801" width="5.993" height="5.993" transform="translate(52.335 72.694)" fill="#fff"/>
      <path id="Path_14439" data-name="Path 14439" d="M179.137,287.18h-5.993a.3.3,0,0,1-.3-.3v-5.993a.3.3,0,0,1,.3-.3h5.993a.3.3,0,0,1,.3.3v5.993A.3.3,0,0,1,179.137,287.18Zm-5.689-.608h5.385v-5.385h-5.385Z" transform="translate(-120.808 -208.19)" fill="#263238"/>
      <rect id="Rectangle_26802" data-name="Rectangle 26802" width="5.993" height="5.993" transform="translate(61.324 72.694)" fill="#fff"/>
      <path id="Path_14440" data-name="Path 14440" d="M193.933,287.18h-6a.3.3,0,0,1-.3-.3v-5.993a.3.3,0,0,1,.3-.3h6a.3.3,0,0,1,.3.3v5.993A.3.3,0,0,1,193.933,287.18Zm-5.695-.608h5.391v-5.385h-5.391Z" transform="translate(-126.609 -208.19)" fill="#263238"/>
      <rect id="Rectangle_26803" data-name="Rectangle 26803" width="5.993" height="5.993" transform="translate(70.319 72.694)" fill="#fff"/>
      <path id="Path_14441" data-name="Path 14441" d="M208.733,287.18h-6a.3.3,0,0,1-.3-.3v-5.993a.3.3,0,0,1,.3-.3h6a.3.3,0,0,1,.3.3v5.993A.3.3,0,0,1,208.733,287.18Zm-5.695-.608h5.391v-5.385h-5.391Z" transform="translate(-132.414 -208.19)" fill="#263238"/>
      <rect id="Rectangle_26804" data-name="Rectangle 26804" width="5.993" height="5.993" transform="translate(79.315 72.694)" fill="#fff"/>
      <path id="Path_14442" data-name="Path 14442" d="M223.527,287.18h-5.993a.3.3,0,0,1-.3-.3v-5.993a.3.3,0,0,1,.3-.3h5.993a.3.3,0,0,1,.3.3v5.993A.3.3,0,0,1,223.527,287.18Zm-5.689-.608h5.385v-5.385h-5.385Z" transform="translate(-138.219 -208.19)" fill="#263238"/>
      <rect id="Rectangle_26805" data-name="Rectangle 26805" width="5.993" height="5.993" transform="translate(16.361 81.513)" fill="#fff"/>
      <path id="Path_14443" data-name="Path 14443" d="M119.937,301.737h-5.993a.3.3,0,0,1-.3-.3v-6a.3.3,0,0,1,.3-.3h5.993a.3.3,0,0,1,.3.3v6A.3.3,0,0,1,119.937,301.737Zm-5.689-.608h5.385v-5.391h-5.385Z" transform="translate(-97.589 -213.897)" fill="#263238"/>
      <rect id="Rectangle_26806" data-name="Rectangle 26806" width="5.993" height="5.993" transform="translate(25.356 81.513)" fill="#fff"/>
      <path id="Path_14444" data-name="Path 14444" d="M134.766,301.737H128.8a.3.3,0,0,1-.3-.3v-6a.3.3,0,0,1,.3-.3H134.8a.3.3,0,0,1,.3.3v6a.3.3,0,0,1-.334.3Zm-5.689-.608h5.385v-5.391h-5.385Z" transform="translate(-103.417 -213.897)" fill="#263238"/>
      <rect id="Rectangle_26807" data-name="Rectangle 26807" width="5.993" height="5.993" transform="translate(34.345 81.513)" fill="#fff"/>
      <path id="Path_14445" data-name="Path 14445" d="M149.543,301.737h-6a.31.31,0,0,1-.3-.3v-6a.3.3,0,0,1,.3-.3h6a.3.3,0,0,1,.3.3v6A.3.3,0,0,1,149.543,301.737Zm-5.695-.608h5.391v-5.391h-5.391Z" transform="translate(-109.199 -213.897)" fill="#263238"/>
      <rect id="Rectangle_26808" data-name="Rectangle 26808" width="5.993" height="5.993" transform="translate(43.34 81.513)" fill="#fff"/>
      <path id="Path_14446" data-name="Path 14446" d="M164.343,301.737h-6a.3.3,0,0,1-.3-.3v-6a.3.3,0,0,1,.3-.3h6a.3.3,0,0,1,.3.3v6A.31.31,0,0,1,164.343,301.737Zm-5.719-.608h5.391v-5.391h-5.391Z" transform="translate(-115.004 -213.897)" fill="#263238"/>
      <rect id="Rectangle_26809" data-name="Rectangle 26809" width="5.993" height="5.993" transform="translate(52.335 81.513)" fill="#fff"/>
      <path id="Path_14447" data-name="Path 14447" d="M179.137,301.737h-5.993a.3.3,0,0,1-.3-.3v-6a.3.3,0,0,1,.3-.3h5.993a.3.3,0,0,1,.3.3v6A.3.3,0,0,1,179.137,301.737Zm-5.689-.608h5.385v-5.391h-5.385Z" transform="translate(-120.808 -213.897)" fill="#263238"/>
      <rect id="Rectangle_26810" data-name="Rectangle 26810" width="5.993" height="5.993" transform="translate(61.324 81.513)" fill="#fff"/>
      <path id="Path_14448" data-name="Path 14448" d="M193.933,301.737h-6a.31.31,0,0,1-.3-.3v-6a.3.3,0,0,1,.3-.3h6a.3.3,0,0,1,.3.3v6A.3.3,0,0,1,193.933,301.737Zm-5.695-.608h5.391v-5.391h-5.391Z" transform="translate(-126.609 -213.897)" fill="#263238"/>
      <rect id="Rectangle_26811" data-name="Rectangle 26811" width="5.993" height="5.993" transform="translate(70.319 81.513)" fill="#fff"/>
      <path id="Path_14449" data-name="Path 14449" d="M208.733,301.737h-6a.31.31,0,0,1-.3-.3v-6a.3.3,0,0,1,.3-.3h6a.3.3,0,0,1,.3.3v6A.31.31,0,0,1,208.733,301.737Zm-5.695-.608h5.391v-5.391h-5.391Z" transform="translate(-132.414 -213.897)" fill="#263238"/>
      <rect id="Rectangle_26812" data-name="Rectangle 26812" width="5.993" height="5.993" transform="translate(79.315 81.513)" fill="#fff"/>
      <path id="Path_14450" data-name="Path 14450" d="M223.527,301.737h-5.993a.3.3,0,0,1-.3-.3v-6a.3.3,0,0,1,.3-.3h5.993a.3.3,0,0,1,.3.3v6A.3.3,0,0,1,223.527,301.737Zm-5.689-.608h5.385v-5.391h-5.385Z" transform="translate(-138.219 -213.897)" fill="#263238"/>
      <rect id="Rectangle_26813" data-name="Rectangle 26813" width="5.993" height="5.993" transform="translate(16.361 90.338)" fill="#fff"/>
      <path id="Path_14451" data-name="Path 14451" d="M119.937,316.21h-5.993a.3.3,0,0,1-.3-.3v-5.993a.3.3,0,0,1,.3-.3h5.993a.3.3,0,0,1,.3.3v6.011A.3.3,0,0,1,119.937,316.21Zm-5.689-.608h5.385v-5.385h-5.385Z" transform="translate(-97.589 -219.576)" fill="#263238"/>
      <rect id="Rectangle_26814" data-name="Rectangle 26814" width="5.993" height="5.993" transform="translate(25.356 90.338)" fill="#fff"/>
      <path id="Path_14452" data-name="Path 14452" d="M134.766,316.21H128.8a.3.3,0,0,1-.3-.3v-5.993a.3.3,0,0,1,.3-.3H134.8a.3.3,0,0,1,.3.3v6.011a.3.3,0,0,1-.334.286Zm-5.689-.608h5.385v-5.385h-5.385Z" transform="translate(-103.417 -219.576)" fill="#263238"/>
      <rect id="Rectangle_26815" data-name="Rectangle 26815" width="5.993" height="5.993" transform="translate(34.345 90.338)" fill="#fff"/>
      <path id="Path_14453" data-name="Path 14453" d="M149.543,316.21h-6a.3.3,0,0,1-.3-.3v-5.993a.3.3,0,0,1,.3-.3h6a.3.3,0,0,1,.3.3v6.011A.3.3,0,0,1,149.543,316.21Zm-5.695-.608h5.391v-5.385h-5.391Z" transform="translate(-109.199 -219.576)" fill="#263238"/>
      <rect id="Rectangle_26816" data-name="Rectangle 26816" width="5.993" height="5.993" transform="translate(43.34 90.338)" fill="#fff"/>
      <path id="Path_14454" data-name="Path 14454" d="M164.343,316.21h-6a.3.3,0,0,1-.3-.3v-5.993a.3.3,0,0,1,.3-.3h6a.3.3,0,0,1,.3.3v6.011A.3.3,0,0,1,164.343,316.21Zm-5.695-.608h5.391v-5.385h-5.415Z" transform="translate(-115.004 -219.576)" fill="#263238"/>
      <rect id="Rectangle_26817" data-name="Rectangle 26817" width="5.993" height="5.993" transform="translate(52.335 90.338)" fill="#fff"/>
      <path id="Path_14455" data-name="Path 14455" d="M179.137,316.21h-5.993a.3.3,0,0,1-.3-.3v-5.993a.3.3,0,0,1,.3-.3h5.993a.3.3,0,0,1,.3.3v6.011A.3.3,0,0,1,179.137,316.21Zm-5.689-.608h5.385v-5.385h-5.385Z" transform="translate(-120.808 -219.576)" fill="#263238"/>
      <rect id="Rectangle_26818" data-name="Rectangle 26818" width="5.993" height="5.993" transform="translate(61.324 90.338)" fill="#fff"/>
      <path id="Path_14456" data-name="Path 14456" d="M193.933,316.21h-6a.3.3,0,0,1-.3-.3v-5.993a.3.3,0,0,1,.3-.3h6a.3.3,0,0,1,.3.3v6.011A.3.3,0,0,1,193.933,316.21Zm-5.695-.608h5.391v-5.385h-5.391Z" transform="translate(-126.609 -219.576)" fill="#263238"/>
      <rect id="Rectangle_26819" data-name="Rectangle 26819" width="5.993" height="5.993" transform="translate(70.319 90.338)" fill="#fff"/>
      <path id="Path_14457" data-name="Path 14457" d="M208.733,316.21h-6a.3.3,0,0,1-.3-.3v-5.993a.3.3,0,0,1,.3-.3h6a.3.3,0,0,1,.3.3v6.011A.3.3,0,0,1,208.733,316.21Zm-5.695-.608h5.391v-5.385h-5.391Z" transform="translate(-132.414 -219.576)" fill="#263238"/>
      <rect id="Rectangle_26820" data-name="Rectangle 26820" width="5.993" height="5.993" transform="translate(79.315 90.338)" fill="#fff"/>
      <path id="Path_14458" data-name="Path 14458" d="M223.527,316.21h-5.993a.3.3,0,0,1-.3-.3v-5.993a.3.3,0,0,1,.3-.3h5.993a.3.3,0,0,1,.3.3v6.011A.3.3,0,0,1,223.527,316.21Zm-5.689-.608h5.385v-5.385h-5.385Z" transform="translate(-138.219 -219.576)" fill="#263238"/>
      <path id="Path_14459" data-name="Path 14459" d="M259.584,322.46a.3.3,0,0,1-.3-.3v-6.272a.3.3,0,0,1,.608,0v6.272A.3.3,0,0,1,259.584,322.46Z" transform="translate(-154.712 -221.918)" fill="#fff"/>
      <path id="Path_14460" data-name="Path 14460" d="M270.8,304.863V271.49H259.78v24.335" transform="translate(-154.909 -204.624)" fill="#263238"/>
      <path id="Path_14461" data-name="Path 14461" d="M270.6,304.99a.3.3,0,0,1-.3-.3V271.623H259.888v24.031a.3.3,0,0,1-.608,0V271.344a.31.31,0,0,1,.3-.3H270.6a.31.31,0,0,1,.3.3v33.342A.3.3,0,0,1,270.6,304.99Z" transform="translate(-154.712 -204.448)" fill="#fff"/>
      <path id="Path_14462" data-name="Path 14462" d="M353.216,279.353H292.67v-56.5l30.273-16.4,30.273,16.4Z" transform="translate(-167.809 -179.114)" fill="#fff"/>
      <path id="Path_14463" data-name="Path 14463" d="M353.02,279.441H292.474a.3.3,0,0,1-.3-.3V222.614a.31.31,0,0,1,.158-.267l30.273-16.41a.31.31,0,0,1,.292,0l30.273,16.41a.31.31,0,0,1,.158.267v56.523A.3.3,0,0,1,353.02,279.441Zm-60.243-.608h59.939V222.814l-29.969-16.246L292.778,222.8Z" transform="translate(-167.613 -178.898)" fill="#263238"/>
      <path id="Path_14464" data-name="Path 14464" d="M354.155,223.513l-34.9-18.908-34.9,18.908-1.088-2.006,35.986-19.5,35.986,19.5Z" transform="translate(-164.122 -177.373)" fill="#fff"/>
      <path id="Path_14465" data-name="Path 14465" d="M353.958,223.605a.28.28,0,0,1-.14-.036L319.06,204.728,284.3,223.569a.334.334,0,0,1-.231,0,.31.31,0,0,1-.176-.152l-1.088-2a.3.3,0,0,1,.122-.413l35.986-19.5a.31.31,0,0,1,.292,0L355.192,221a.316.316,0,0,1,.146.182.31.31,0,0,1,0,.231l-1.088,2A.3.3,0,0,1,353.958,223.605Zm-34.9-19.516a.322.322,0,0,1,.146.036l34.643,18.762.8-1.471-35.573-19.273-35.555,19.273.8,1.471,34.643-18.762A.322.322,0,0,1,319.06,204.09Z" transform="translate(-163.925 -177.161)" fill="#263238"/>
      <path id="Path_14466" data-name="Path 14466" d="M292.67,222.848v1.374l30.273-16.4,30.273,16.4v-1.374l-30.273-16.4Z" transform="translate(-167.809 -179.114)" fill="#263238"/>
      <path id="Path_14467" data-name="Path 14467" d="M353.02,224.325a.323.323,0,0,1-.146-.036L322.747,207.97,292.62,224.289a.3.3,0,0,1-.45-.261v-1.374a.31.31,0,0,1,.158-.267l30.273-16.41a.31.31,0,0,1,.292,0l30.273,16.41a.31.31,0,0,1,.158.267v1.374a.3.3,0,0,1-.146.261A.292.292,0,0,1,353.02,224.325Zm-30.273-17.018a.322.322,0,0,1,.146.036L352.716,223.5v-.681l-29.969-16.234-29.969,16.234v.681L322.6,207.344a.322.322,0,0,1,.146-.024Z" transform="translate(-167.613 -178.914)" fill="#263238"/>
      <path id="Path_14468" data-name="Path 14468" d="M320.69,252.166V246.21h26.122V275.9" transform="translate(-178.799 -194.709)" fill="#fff"/>
      <path id="Path_14469" data-name="Path 14469" d="M346.608,276a.3.3,0,0,1-.3-.3V246.314H320.778v5.646a.3.3,0,1,1-.608,0V246a.3.3,0,0,1,.3-.3h26.134a.3.3,0,0,1,.3.3v29.69a.3.3,0,0,1-.3.31Z" transform="translate(-178.595 -194.509)" fill="#263238"/>
      <path id="Path_14470" data-name="Path 14470" d="M346.812,284.276v5.847H320.69V259.74" transform="translate(-178.799 -200.016)" fill="#fff"/>
      <path id="Path_14471" data-name="Path 14471" d="M346.608,290.227H320.474a.3.3,0,0,1-.3-.3V259.534a.3.3,0,1,1,.608,0v30.079H346.3V284.07a.3.3,0,1,1,.608,0v5.847a.31.31,0,0,1-.3.31Z" transform="translate(-178.595 -199.816)" fill="#263238"/>
      <rect id="Rectangle_26821" data-name="Rectangle 26821" width="10.162" height="7.062" transform="translate(156.113 63.103)" fill="#263238"/>
      <path id="Path_14472" data-name="Path 14472" d="M354.05,272.47H343.894a.3.3,0,0,1-.3-.3V265.1a.3.3,0,0,1,.3-.3H354.05a.3.3,0,0,1,.3.3v7.062a.3.3,0,0,1-.3.3Zm-9.852-.608h9.548v-6.455H344.2Z" transform="translate(-187.781 -202.001)" fill="#263238"/>
      <rect id="Rectangle_26822" data-name="Rectangle 26822" width="10.162" height="7.062" transform="translate(156.113 72.487)" fill="#263238"/>
      <path id="Path_14473" data-name="Path 14473" d="M354.05,287.9H343.894a.3.3,0,0,1-.3-.3v-7.056a.3.3,0,0,1,.3-.3H354.05a.3.3,0,0,1,.3.3V287.6a.3.3,0,0,1-.3.3ZM344.2,287.3h9.548v-6.448H344.2Z" transform="translate(-187.781 -208.056)" fill="#263238"/>
      <rect id="Rectangle_26823" data-name="Rectangle 26823" width="10.162" height="7.536" transform="translate(156.113 53.239)" fill="#263238"/>
      <path id="Path_14474" data-name="Path 14474" d="M354.05,256.732H343.894a.3.3,0,0,1-.3-.3v-7.555a.3.3,0,0,1,.3-.3H354.05a.3.3,0,0,1,.3.3v7.542a.3.3,0,0,1-.3.316Zm-9.852-.608h9.548v-6.947H344.2Z" transform="translate(-187.781 -195.635)" fill="#263238"/>
      <rect id="Rectangle_26824" data-name="Rectangle 26824" width="10.162" height="7.536" transform="translate(143.629 53.239)" fill="#263238"/>
      <path id="Path_14475" data-name="Path 14475" d="M333.516,256.732H323.354a.3.3,0,0,1-.3-.3v-7.555a.3.3,0,0,1,.3-.3h10.162a.31.31,0,0,1,.3.3v7.542a.31.31,0,0,1-.3.316Zm-9.858-.608h9.554v-6.947h-9.554Z" transform="translate(-179.725 -195.635)" fill="#263238"/>
      <rect id="Rectangle_26825" data-name="Rectangle 26825" width="10.162" height="7.062" transform="translate(143.629 72.487)" fill="#263238"/>
      <path id="Path_14476" data-name="Path 14476" d="M333.516,287.9H323.354a.3.3,0,0,1-.3-.3v-7.056a.3.3,0,0,1,.3-.3h10.162a.3.3,0,0,1,.3.3V287.6a.3.3,0,0,1-.3.3Zm-9.858-.608h9.554v-6.448h-9.554Z" transform="translate(-179.725 -208.056)" fill="#263238"/>
      <rect id="Rectangle_26826" data-name="Rectangle 26826" width="10.162" height="7.062" transform="translate(143.629 63.103)" fill="#263238"/>
      <path id="Path_14477" data-name="Path 14477" d="M333.516,272.47H323.354a.3.3,0,0,1-.3-.3V265.1a.3.3,0,0,1,.3-.3h10.162a.3.3,0,0,1,.3.3v7.062a.31.31,0,0,1-.3.3Zm-9.858-.608h9.554v-6.455h-9.554Z" transform="translate(-179.725 -202.001)" fill="#263238"/>
      <rect id="Rectangle_26827" data-name="Rectangle 26827" width="10.162" height="6.497" transform="translate(156.113 81.865)" fill="#263238"/>
      <path id="Path_14478" data-name="Path 14478" d="M354.05,302.775H343.894a.3.3,0,0,1-.3-.3v-6.5a.3.3,0,0,1,.3-.3H354.05a.3.3,0,0,1,.3.3v6.5A.3.3,0,0,1,354.05,302.775Zm-9.852-.608h9.548v-5.889H344.2Z" transform="translate(-187.781 -214.109)" fill="#263238"/>
      <rect id="Rectangle_26828" data-name="Rectangle 26828" width="10.162" height="6.497" transform="translate(143.629 81.865)" fill="#263238"/>
      <path id="Path_14479" data-name="Path 14479" d="M333.516,302.775H323.354a.3.3,0,0,1-.3-.3v-6.5a.3.3,0,0,1,.3-.3h10.162a.31.31,0,0,1,.3.3v6.5a.3.3,0,0,1-.3.3Zm-9.858-.608h9.554v-5.889h-9.554Z" transform="translate(-179.725 -214.109)" fill="#263238"/>
    </g>
    <g id="freepik--magnifying-glass--inject-1" transform="translate(80.72 117.489)">
      <path id="Path_14480" data-name="Path 14480" d="M334.129,364.858h-1.216a.31.31,0,0,1-.3-.3.3.3,0,0,1,.3-.3h1.216a.3.3,0,1,1,0,.608Zm-3.647,0h-1.216a.31.31,0,0,1-.3-.3.3.3,0,0,1,.3-.3h1.216a.3.3,0,0,1,0,.608Zm-3.647,0h-1.216a.31.31,0,0,1-.3-.3.3.3,0,0,1,.3-.3h1.216a.3.3,0,1,1,0,.608Zm-3.647,0h-1.216a.31.31,0,0,1-.3-.3.3.3,0,0,1,.3-.3h1.216a.3.3,0,0,1,0,.608Z" transform="translate(-187.668 -226.565)" fill="#263238"/>
      <path id="Path_14481" data-name="Path 14481" d="M110.927,276.007h-.541a.3.3,0,0,1-.286-.322.3.3,0,0,1,.322-.286h1.2a.3.3,0,0,1,0,.608h-.693Zm113.739,0H223.45a.3.3,0,0,1,0-.608h1.216a.3.3,0,1,1,0,.608Zm-3.647,0H219.8a.3.3,0,0,1,0-.608h1.216a.3.3,0,1,1,0,.608Zm-3.647,0h-1.216a.3.3,0,1,1,0-.608h1.216a.3.3,0,0,1,0,.608Zm-3.647,0H212.51a.3.3,0,0,1,0-.608h1.216a.3.3,0,1,1,0,.608Zm-3.647,0h-1.216a.3.3,0,0,1,0-.608h1.216a.3.3,0,0,1,0,.608Zm-3.647,0h-1.216a.3.3,0,1,1,0-.608h1.216a.3.3,0,0,1,0,.608Zm-3.647,0H201.57a.3.3,0,0,1,0-.608h1.216a.3.3,0,1,1,0,.608Zm-3.647,0h-1.216a.3.3,0,1,1,0-.608h1.216a.3.3,0,0,1,0,.608Zm-3.647,0h-1.216a.3.3,0,1,1,0-.608h1.216a.3.3,0,0,1,0,.608Zm-3.647,0H190.63a.3.3,0,0,1,0-.608h1.216a.3.3,0,0,1,0,.608Zm-3.647,0h-1.216a.3.3,0,1,1,0-.608H188.2a.3.3,0,0,1,0,.608Zm-3.647,0h-1.216a.3.3,0,0,1,0-.608h1.216a.3.3,0,0,1,0,.608Zm-3.647,0H179.69a.3.3,0,0,1,0-.608h1.216a.3.3,0,0,1,0,.608Zm-3.647,0h-1.216a.3.3,0,1,1,0-.608h1.216a.3.3,0,1,1,0,.608Zm-3.647,0H172.4a.3.3,0,0,1,0-.608h1.216a.3.3,0,0,1,0,.608Zm-3.647,0H168.75a.3.3,0,0,1,0-.608h1.216a.3.3,0,0,1,0,.608Zm-3.647,0H165.1a.3.3,0,0,1,0-.608h1.216a.3.3,0,0,1,0,.608Zm-3.647,0h-1.216a.3.3,0,0,1,0-.608h1.216a.3.3,0,0,1,0,.608Zm-3.647,0H157.81a.3.3,0,0,1,0-.608h1.216a.3.3,0,0,1,0,.608Zm-3.647,0h-1.216a.3.3,0,0,1,0-.608h1.216a.3.3,0,0,1,0,.608Zm-3.647,0h-1.216a.3.3,0,0,1,0-.608h1.216a.3.3,0,0,1,0,.608Zm-3.647,0H146.87a.3.3,0,0,1,0-.608h1.216a.3.3,0,0,1,0,.608Zm-3.647,0h-1.216a.3.3,0,0,1,0-.608h1.216a.3.3,0,0,1,0,.608Zm-3.647,0h-1.216a.3.3,0,1,1,0-.608h1.216a.3.3,0,0,1,0,.608Zm-3.647,0H135.93a.3.3,0,0,1,0-.608h1.216a.3.3,0,0,1,0,.608Zm-3.647,0h-1.216a.3.3,0,0,1,0-.608H133.5a.3.3,0,1,1,0,.608Zm-3.647,0h-1.216a.3.3,0,0,1,0-.608h1.216a.3.3,0,0,1,0,.608Zm-3.647,0H124.99a.3.3,0,0,1,0-.608h1.216a.3.3,0,0,1,0,.608Zm-3.647,0h-1.216a.3.3,0,0,1,0-.608h1.216a.3.3,0,0,1,0,.608Zm-3.647,0H117.7a.3.3,0,0,1,0-.608h1.216a.3.3,0,0,1,0,.608Zm-3.647,0h-1.216a.3.3,0,0,1,0-.608h1.216a.3.3,0,0,1,0,.608Zm-7.245-.468a.237.237,0,0,1-.091,0,10.127,10.127,0,0,1-1.167-.462.31.31,0,0,1-.146-.407.3.3,0,0,1,.407-.146,8.926,8.926,0,0,0,1.094.438.308.308,0,1,1-.1.608Zm-3.16-1.763a.316.316,0,0,1-.2-.073,10.059,10.059,0,0,1-.9-.863.3.3,0,1,1,.444-.413,10.769,10.769,0,0,0,.851.814.31.31,0,0,1,.036.431.316.316,0,0,1-.231.1Zm-2.273-2.82a.31.31,0,0,1-.273-.164,9.618,9.618,0,0,1-.511-1.143.3.3,0,0,1,.571-.213,8.935,8.935,0,0,0,.48,1.076.3.3,0,0,1-.267.444Zm-1.045-3.47a.31.31,0,0,1-.3-.273c0-.322-.049-.644-.049-.972v-.274a.3.3,0,0,1,.608,0v.274a9.061,9.061,0,0,0,.049.912.31.31,0,0,1-.273.334Zm-.049-3.647a.3.3,0,0,1-.3-.3V262.32a.3.3,0,1,1,.608,0v1.216A.3.3,0,0,1,101.494,263.839Zm0-3.647a.3.3,0,0,1-.3-.3v-1.216a.3.3,0,0,1,.608,0v1.216A.3.3,0,0,1,101.494,260.193Zm0-3.647a.3.3,0,0,1-.3-.3v-1.216a.3.3,0,1,1,.608,0v1.216A.3.3,0,0,1,101.494,256.546Zm0-3.647a.3.3,0,0,1-.3-.3V251.38a.3.3,0,1,1,.608,0V252.6A.3.3,0,0,1,101.494,252.9Zm0-3.647a.3.3,0,0,1-.3-.3v-1.216a.3.3,0,0,1,.608,0v1.216A.3.3,0,0,1,101.494,249.253Zm0-3.647a.3.3,0,0,1-.3-.3v-1.216a.3.3,0,1,1,.608,0V245.3A.3.3,0,0,1,101.494,245.606Zm0-3.647a.3.3,0,0,1-.3-.3V240.44a.3.3,0,0,1,.608,0v1.216A.3.3,0,0,1,101.494,241.959Zm0-3.647a.3.3,0,0,1-.3-.3v-1.216a.3.3,0,1,1,.608,0v1.216A.3.3,0,0,1,101.494,238.313Zm0-3.647a.3.3,0,0,1-.3-.3v-1.216a.3.3,0,1,1,.608,0v1.216A.3.3,0,0,1,101.494,234.666Zm0-3.647a.3.3,0,0,1-.3-.3V229.5a.3.3,0,0,1,.608,0v1.216A.3.3,0,0,1,101.494,231.019Zm0-3.647a.3.3,0,0,1-.3-.3v-1.216a.3.3,0,1,1,.608,0v1.216A.3.3,0,0,1,101.494,227.373Zm0-3.647a.3.3,0,0,1-.3-.3v-1.216a.3.3,0,0,1,.608,0v1.216A.3.3,0,0,1,101.494,223.726Zm0-3.647a.3.3,0,0,1-.3-.3V218.56a.3.3,0,1,1,.608,0v1.216A.3.3,0,0,1,101.494,220.08Zm0-3.647a.3.3,0,0,1-.3-.3v-1.216a.3.3,0,1,1,.608,0v1.216A.3.3,0,0,1,101.494,216.433Zm0-3.647a.3.3,0,0,1-.3-.3v-1.216a.3.3,0,0,1,.608,0v1.216A.3.3,0,0,1,101.494,212.786Zm0-3.647a.3.3,0,0,1-.3-.3V207.62a.3.3,0,1,1,.608,0v1.216A.3.3,0,0,1,101.494,209.14Zm0-3.647a.3.3,0,0,1-.3-.3v-1.216a.3.3,0,0,1,.608,0v1.216A.3.3,0,0,1,101.494,205.493Zm0-3.647a.3.3,0,0,1-.3-.3v-1.216a.3.3,0,1,1,.608,0v1.216A.3.3,0,0,1,101.494,201.846Zm0-3.647a.3.3,0,0,1-.3-.3V196.68a.3.3,0,1,1,.608,0V197.9A.3.3,0,0,1,101.494,198.2Zm0-3.647a.3.3,0,0,1-.3-.3v-1.216a.3.3,0,0,1,.608,0v1.216A.3.3,0,0,1,101.494,194.553Zm0-3.647a.3.3,0,0,1-.3-.3v-1.216a.3.3,0,1,1,.608,0V190.6A.3.3,0,0,1,101.494,190.906Zm0-3.647a.3.3,0,0,1-.3-.3V185.74a.3.3,0,0,1,.608,0v1.216A.3.3,0,0,1,101.494,187.26Zm0-3.647a.3.3,0,0,1-.3-.3v-1.216a.3.3,0,0,1,.608,0v1.216A.3.3,0,0,1,101.494,183.613Zm0-3.647a.3.3,0,0,1-.3-.3v-1.216a.3.3,0,0,1,.608,0v1.216A.3.3,0,0,1,101.494,179.966Zm0-3.647a.3.3,0,0,1-.3-.3V174.8a.3.3,0,1,1,.608,0v1.216A.3.3,0,0,1,101.494,176.32Zm0-3.647a.3.3,0,0,1-.3-.3v-1.216a.3.3,0,1,1,.608,0v1.216A.3.3,0,0,1,101.494,172.673Zm0-3.647a.3.3,0,0,1-.3-.3v-1.216a.3.3,0,0,1,.608,0v1.216A.3.3,0,0,1,101.494,169.026Zm0-3.647a.3.3,0,0,1-.3-.3V163.86a.3.3,0,1,1,.608,0v1.216A.3.3,0,0,1,101.494,165.38Zm0-3.647a.3.3,0,0,1-.3-.3v-1.216a.3.3,0,0,1,.608,0v1.216A.3.3,0,0,1,101.494,161.733Zm0-3.647a.3.3,0,0,1-.3-.3v-1.216a.3.3,0,0,1,.608,0v1.216A.3.3,0,0,1,101.494,158.087Zm0-3.647a.3.3,0,0,1-.3-.3V152.92a.3.3,0,1,1,.608,0v1.216A.3.3,0,0,1,101.494,154.44Zm0-3.647a.3.3,0,0,1-.3-.3v-1.216a.3.3,0,0,1,.608,0v1.216A.3.3,0,0,1,101.494,150.793Zm0-3.647h0a.3.3,0,0,1-.286-.322,10.582,10.582,0,0,1,.164-1.216.31.31,0,0,1,.608.122,9.336,9.336,0,0,0-.152,1.161.3.3,0,0,1-.31.255Zm.93-3.5a.267.267,0,0,1-.134-.03.3.3,0,0,1-.14-.407,9.64,9.64,0,0,1,.608-1.088.305.305,0,1,1,.511.334,8.51,8.51,0,0,0-.608,1.021.3.3,0,0,1-.213.17Zm2.182-2.893a.286.286,0,0,1-.225-.1.3.3,0,0,1,0-.432,10.058,10.058,0,0,1,.985-.778.3.3,0,1,1,.346.5,9.726,9.726,0,0,0-.924.729.28.28,0,0,1-.158.079Zm3.106-1.866a.3.3,0,0,1-.286-.2.3.3,0,0,1,.182-.389,10.446,10.446,0,0,1,1.216-.346.3.3,0,0,1,.365.231.3.3,0,0,1-.231.359,9.232,9.232,0,0,0-1.13.328.31.31,0,0,1-.067.018Zm4.8-.559h-1.216a.31.31,0,0,1-.3-.3.3.3,0,0,1,.3-.3h1.216a.3.3,0,0,1,.024.608Z" transform="translate(-101.19 -137.714)" fill="#263238"/>
      <path id="Path_14482" data-name="Path 14482" d="M282.905,147.781a.3.3,0,0,1-.3-.3,9.484,9.484,0,0,0-.073-1.171.3.3,0,0,1,.261-.342.316.316,0,0,1,.34.261,10.738,10.738,0,0,1,.079,1.252A.3.3,0,0,1,282.905,147.781Zm-.693-3.555a.3.3,0,0,1-.28-.188,8.967,8.967,0,0,0-.517-1.058.316.316,0,0,1,.115-.419.3.3,0,0,1,.413.115,9.684,9.684,0,0,1,.547,1.13.3.3,0,0,1-.164.4.261.261,0,0,1-.115.024Zm-1.981-3.039a.292.292,0,0,1-.219-.1,8.945,8.945,0,0,0-.9-.772.31.31,0,0,1,.383-.48,10.219,10.219,0,0,1,.93.845.31.31,0,0,1-.219.517Zm-2.978-2.073a.31.31,0,0,1-.122,0,8.473,8.473,0,0,0-1.1-.4.3.3,0,1,1,.17-.583,10.092,10.092,0,0,1,1.179.425.31.31,0,0,1,.152.4.3.3,0,0,1-.28.146Zm-3.531-.8h-1.216a.3.3,0,0,1,0-.608h1.216a.307.307,0,0,1,0,.614Zm-3.647,0H268.86a.3.3,0,0,1,0-.608h1.216a.307.307,0,0,1,0,.614Zm-3.647,0h-1.216a.3.3,0,1,1,0-.608h1.216a.307.307,0,0,1,0,.614Zm-3.647,0h-1.216a.3.3,0,0,1,0-.608h1.216a.307.307,0,0,1,0,.614Zm-3.647,0H257.92a.3.3,0,0,1,0-.608h1.216a.307.307,0,0,1,0,.614Zm-3.647,0h-1.216a.3.3,0,1,1,0-.608h1.216a.307.307,0,0,1,0,.614Zm-3.647,0h-1.216a.3.3,0,0,1,0-.608h1.216a.307.307,0,0,1,0,.614Zm-3.647,0H246.98a.3.3,0,0,1,0-.608H248.2a.307.307,0,0,1,0,.614Zm-3.647,0h-1.216a.3.3,0,1,1,0-.608h1.216a.307.307,0,0,1,0,.614Zm-3.647,0h-1.216a.3.3,0,0,1,0-.608H240.9a.307.307,0,0,1,0,.614Zm-3.647,0H236.04a.3.3,0,0,1,0-.608h1.216a.307.307,0,0,1,0,.614Zm-3.647,0h-1.216a.3.3,0,0,1,0-.608h1.216a.307.307,0,0,1,0,.614Zm-3.647,0h-1.216a.3.3,0,0,1,0-.608h1.216a.307.307,0,0,1,0,.614Zm-3.647,0H225.1a.3.3,0,0,1,0-.608h1.216a.307.307,0,0,1,0,.614Zm-3.647,0h-1.216a.3.3,0,0,1,0-.608h1.216a.307.307,0,0,1,0,.614Zm-3.647,0h-1.216a.3.3,0,1,1,0-.608h1.216a.307.307,0,0,1,0,.614Zm-3.647,0H214.16a.3.3,0,0,1,0-.608h1.216a.307.307,0,0,1,0,.614Zm-3.647,0h-1.216a.3.3,0,0,1,0-.608h1.216a.307.307,0,0,1,0,.614Zm-3.647,0h-1.216a.3.3,0,1,1,0-.608h1.216a.307.307,0,0,1,0,.614Zm-3.647,0H203.22a.3.3,0,0,1,0-.608h1.216a.307.307,0,0,1,0,.614Zm-3.647,0h-1.216a.3.3,0,1,1,0-.608h1.216a.307.307,0,0,1,0,.614Zm-3.647,0h-1.216a.3.3,0,1,1,0-.608h1.216a.307.307,0,0,1,0,.614Zm-3.647,0H192.28a.3.3,0,0,1,0-.608H193.5a.307.307,0,0,1,0,.614Zm-3.647,0h-1.216a.3.3,0,1,1,0-.608h1.216a.307.307,0,0,1,0,.614Zm-3.647,0h-1.216a.3.3,0,0,1,0-.608H186.2a.307.307,0,0,1,0,.614Zm-3.647,0H181.34a.3.3,0,1,1,0-.608h1.216a.307.307,0,0,1,0,.614Zm-3.647,0h-1.216a.3.3,0,0,1,0-.608h1.216a.307.307,0,0,1,0,.614Zm-3.647,0h-1.216a.3.3,0,1,1,0-.608h1.216a.307.307,0,0,1,0,.614Zm-3.647,0H170.4a.3.3,0,1,1,0-.608h1.216a.307.307,0,0,1,0,.614Zm-3.647,0h-1.216a.3.3,0,0,1,0-.608h1.216a.307.307,0,0,1,0,.614Zm-3.647,0h-1.216a.3.3,0,1,1,0-.608h1.216a.307.307,0,0,1,0,.614Zm-3.647,0H159.46a.3.3,0,0,1,0-.608h1.216a.307.307,0,0,1,0,.614Zm-3.647,0h-1.216a.3.3,0,0,1,0-.608h1.216a.307.307,0,0,1,0,.614Zm-3.647,0h-1.216a.3.3,0,1,1,0-.608h1.216a.307.307,0,0,1,0,.614Zm-3.647,0H148.52a.3.3,0,0,1,0-.608h1.216a.307.307,0,0,1,0,.614Zm-3.647,0h-1.216a.3.3,0,0,1,0-.608h1.216a.307.307,0,0,1,0,.614Zm-3.647,0h-1.216a.3.3,0,0,1,0-.608h1.216a.307.307,0,0,1,0,.614Zm-3.647,0h-1.216a.3.3,0,0,1,0-.608H138.8a.307.307,0,0,1,0,.614Zm-3.647,0h-1.216a.3.3,0,0,1,0-.608h1.216a.307.307,0,0,1,0,.614Z" transform="translate(-113.914 -137.71)" fill="#263238"/>
      <path id="Path_14483" data-name="Path 14483" d="M353.818,161.26a38.977,38.977,0,1,0,39.2,38.74,38.977,38.977,0,0,0-39.2-38.74Zm.4,70.259a31.282,31.282,0,1,1,31.106-31.458,31.282,31.282,0,0,1-31.106,31.458Z" transform="translate(-185.076 -146.947)" fill="#fff"/>
      <path id="Path_14484" data-name="Path 14484" d="M353.762,239.3a39.281,39.281,0,1,1-.213-78.561h.225a39.281,39.281,0,1,1,.213,78.561Zm0-77.953h-.225a38.673,38.673,0,1,0,.225,77.345h.225a38.673,38.673,0,1,0-.213-77.345Zm0,70.259a31.6,31.6,0,0,1-.176-63.166h.176a31.6,31.6,0,0,1,.176,63.166Zm.176-.608h0a31,31,0,0,0-.176-61.95h-.176a31,31,0,0,0,.176,61.95Z" transform="translate(-184.807 -146.743)" fill="#263238"/>
      <path id="Path_14485" data-name="Path 14485" d="M353.8,157.59a38.977,38.977,0,1,0,39.2,38.752,38.977,38.977,0,0,0-39.2-38.752Zm.4,70.253a31.282,31.282,0,1,1,31.1-31.452A31.282,31.282,0,0,1,354.193,227.842Z" transform="translate(-185.068 -145.507)" fill="#fff"/>
      <path id="Path_14486" data-name="Path 14486" d="M353.95,235.774a39.177,39.177,0,1,1,.225,0Zm0-77.947h-.225a38.671,38.671,0,1,0,.213,77.342l.225,0a38.671,38.671,0,1,0-.213-77.342Zm0,70.253a31.6,31.6,0,0,1-.17-63.166h.182a31.6,31.6,0,0,1,.17,63.166Zm0-62.558h-.182a31,31,0,0,0,.17,61.95h.182a31,31,0,0,0-.17-61.95Z" transform="translate(-185.007 -145.441)" fill="#263238"/>
      <rect id="Rectangle_26829" data-name="Rectangle 26829" width="9.433" height="34.753" rx="2.88" transform="translate(165.486 89.93) rotate(-0.573)" fill="#28a745"/>
      <path id="Path_14487" data-name="Path 14487" d="M373.941,322.157a2.066,2.066,0,0,1-2.054-2.048l-.176-31.246a2.073,2.073,0,0,1,.608-1.459,2.036,2.036,0,0,1,1.453-.608l5.926-.036a2.133,2.133,0,0,1,1.459.608,2.036,2.036,0,0,1,.608,1.453l.176,31.246a2.066,2.066,0,0,1-2.042,2.072h0l-5.926.03Zm5.944-.334Zm-.188-34.455h0l-5.932.036a1.44,1.44,0,0,0-1.021.425,1.459,1.459,0,0,0-.419,1.027l.176,31.252a1.459,1.459,0,0,0,.432,1.021,1.422,1.422,0,0,0,1.015.419h0l5.926-.03a1.453,1.453,0,0,0,1.44-1.459l-.176-31.252a1.44,1.44,0,0,0-.425-1.021,1.458,1.458,0,0,0-1.015-.431Z" transform="translate(-207.295 -196.171)" fill="#263238"/>
      <path id="Path_14488" data-name="Path 14488" d="M378.465,378.554l-7.968.049a4.443,4.443,0,0,1-4.467-4.419V327.537a3.47,3.47,0,0,1,3.452-3.489l9.9-.049a3.464,3.464,0,0,1,3.489,3.452V374.1a4.437,4.437,0,0,1-4.406,4.455Z" transform="translate(-205.067 -210.778)" fill="#263238"/>
      <path id="Path_14489" data-name="Path 14489" d="M370.277,378.7a4.747,4.747,0,0,1-4.747-4.716V327.337a3.774,3.774,0,0,1,3.75-3.793l9.913-.055h0a3.768,3.768,0,0,1,3.774,3.75v46.653a4.741,4.741,0,0,1-4.716,4.765h0l-7.968.043Zm7.992-.346Zm.918-54.256h0l-9.907.055a3.166,3.166,0,0,0-3.148,3.185v46.647a4.139,4.139,0,0,0,4.139,4.109h0l7.968-.043a4.133,4.133,0,0,0,4.115-4.157V327.246A3.166,3.166,0,0,0,379.187,324.1Z" transform="translate(-204.871 -210.578)" fill="#263238"/>
    </g>
  </g>
</svg>
