<svg xmlns="http://www.w3.org/2000/svg" width="276" height="188.11" viewBox="0 0 276 188.11">
  <g id="Houses-bro" transform="translate(-40.373 -106.38)">
    <g id="freepik--background-simple--inject-7" transform="translate(40.373 108.769)">
      <path id="Path_14543" data-name="Path 14543" d="M313.048,293.77c.251-21.321-18.645-34.912-18.137-51.113.522-16.624,16.756-32.018,7.856-75.123S250.4,102.87,210.591,112.106,179.7,145.981,142,145.36s-67.512-.614-90.049,51.727c-20.991,48.794-7.4,91.179-5.457,96.682Z" transform="translate(-40.373 -109.996)" fill="#28a745"/>
      <path id="Path_14544" data-name="Path 14544" d="M313.048,293.77c.251-21.321-18.645-34.912-18.137-51.113.522-16.624,16.756-32.018,7.856-75.123S250.4,102.87,210.591,112.106,179.7,145.981,142,145.36s-67.512-.614-90.049,51.727c-20.991,48.794-7.4,91.179-5.457,96.682Z" transform="translate(-40.373 -109.996)" fill="#fff" opacity="0.7"/>
    </g>
    <g id="freepik--Mountains--inject-7" transform="translate(44.322 119.343)">
      <path id="Path_14545" data-name="Path 14545" d="M310.4,298.737,226.3,126l-31.516,57.191-40.244-26.336-34.919,37.991-16.591-16.009-46.7,105.754L46.35,298.737Z" transform="translate(-46.35 -126)" fill="#28a745"/>
      <path id="Path_14546" data-name="Path 14546" d="M310.4,298.737,226.3,126l-31.516,57.191-40.244-26.336-34.919,37.991-16.591-16.009-46.7,105.754L46.35,298.737Z" transform="translate(-46.35 -126)" fill="#fff" opacity="0.5"/>
      <line id="Line_365" data-name="Line 365" x2="2.035" y2="1.559" transform="translate(176.067 77.085)" fill="none" stroke="#fff" stroke-linecap="round" stroke-linejoin="round" stroke-width="1"/>
      <line id="Line_366" data-name="Line 366" x2="22.167" y2="16.927" transform="translate(151.039 57.971)" fill="none" stroke="#fff" stroke-linecap="round" stroke-linejoin="round" stroke-width="1"/>
      <line id="Line_367" data-name="Line 367" x1="15.408" y2="16.914" transform="translate(54.819 73.755)" fill="none" stroke="#fff" stroke-linecap="round" stroke-linejoin="round" stroke-width="1"/>
      <path id="Path_14547" data-name="Path 14547" d="M319.5,165.326V147.453l2.18.872.178-3.792L312.837,126,301.42,146.727l6.316-5.372,1.308,6.1,3.489-2.61Z" transform="translate(-132.892 -126)" fill="#fff"/>
      <path id="Path_14548" data-name="Path 14548" d="M216.128,186.912l1.255-6.3L205.3,172.7l-9.329,10.155,6.957-2.709,4.4,6.766.337-5.074Z" transform="translate(-97.114 -141.845)" fill="#fff"/>
    </g>
    <g id="freepik--house-2--inject-7" transform="translate(178.394 202.74)">
      <rect id="Rectangle_26892" data-name="Rectangle 26892" width="110.584" height="76.2" transform="translate(7.057 12.849)" fill="#28a745" stroke="#263238" stroke-linecap="round" stroke-linejoin="round" stroke-width="1"/>
      <rect id="Rectangle_26893" data-name="Rectangle 26893" width="15.428" height="37" transform="translate(58.936 52.049)" fill="#fff" stroke="#263238" stroke-linecap="round" stroke-linejoin="round" stroke-width="1"/>
      <rect id="Rectangle_26894" data-name="Rectangle 26894" width="12.124" height="34.357" transform="translate(60.588 54.692)" fill="#263238" stroke="#263238" stroke-linecap="round" stroke-linejoin="round" stroke-width="1"/>
      <rect id="Rectangle_26895" data-name="Rectangle 26895" width="3.277" height="42.002" transform="translate(80.422 47.048)" fill="#fff" stroke="#263238" stroke-linecap="round" stroke-linejoin="round" stroke-width="1"/>
      <rect id="Rectangle_26896" data-name="Rectangle 26896" width="4.427" height="14.747" transform="translate(79.848 74.302)" fill="#fff" stroke="#263238" stroke-linecap="round" stroke-linejoin="round" stroke-width="1"/>
      <path id="Path_14549" data-name="Path 14549" d="M379.586,266.432H276.832a.172.172,0,0,1-.066-.33l28.695-12.428a4.122,4.122,0,0,1,1.645-.344h39.6a4.084,4.084,0,0,1,1.533.3l31.41,12.468a.172.172,0,0,1-.066.337Z" transform="translate(-258.563 -252.598)" fill="#263238" stroke="#263238" stroke-linecap="round" stroke-linejoin="round" stroke-width="1"/>
      <path id="Path_14550" data-name="Path 14550" d="M351.342,321.772H292.32L296.734,309h46.792Z" transform="translate(-263.876 -271.486)" fill="#263238" stroke="#263238" stroke-linecap="round" stroke-linejoin="round" stroke-width="1"/>
      <rect id="Rectangle_26897" data-name="Rectangle 26897" width="50.551" height="76.2" transform="translate(3.165 12.849)" fill="#fff" stroke="#263238" stroke-linecap="round" stroke-linejoin="round" stroke-width="1"/>
      <rect id="Rectangle_26898" data-name="Rectangle 26898" width="50.551" height="13.214" transform="translate(3.165 75.835)" fill="#28a745" stroke="#263238" stroke-linecap="round" stroke-linejoin="round" stroke-width="1"/>
      <path id="Path_14551" data-name="Path 14551" d="M276.974,252.386l-27.6,12.554a.172.172,0,0,0,.073.33h56.531a.172.172,0,0,0,.073-.33l-27.6-12.554a1.757,1.757,0,0,0-1.48,0Z" transform="translate(-249.27 -252.223)" fill="#263238" stroke="#263238" stroke-linecap="round" stroke-linejoin="round" stroke-width="1"/>
      <circle id="Ellipse_1620" data-name="Ellipse 1620" cx="1.321" cy="1.321" r="1.321" transform="translate(65.325 58.987)" fill="#fff"/>
      <rect id="Rectangle_26899" data-name="Rectangle 26899" width="24.446" height="20.482" transform="translate(89.89 55.353)" fill="#fff" stroke="#263238" stroke-linecap="round" stroke-linejoin="round" stroke-width="1"/>
      <rect id="Rectangle_26900" data-name="Rectangle 26900" width="5.946" height="4.414" transform="translate(99.14 57.216)" fill="#263238" stroke="#263238" stroke-linecap="round" stroke-linejoin="round" stroke-width="1"/>
      <rect id="Rectangle_26901" data-name="Rectangle 26901" width="5.946" height="10.36" transform="translate(99.14 63.612)" fill="#263238" stroke="#263238" stroke-linecap="round" stroke-linejoin="round" stroke-width="1"/>
      <rect id="Rectangle_26902" data-name="Rectangle 26902" width="5.378" height="4.414" transform="translate(92.11 57.216)" fill="#263238" stroke="#263238" stroke-linecap="round" stroke-linejoin="round" stroke-width="1"/>
      <rect id="Rectangle_26903" data-name="Rectangle 26903" width="5.378" height="4.414" transform="translate(106.739 57.216)" fill="#263238" stroke="#263238" stroke-linecap="round" stroke-linejoin="round" stroke-width="1"/>
      <rect id="Rectangle_26904" data-name="Rectangle 26904" width="5.378" height="10.36" transform="translate(106.739 63.612)" fill="#263238" stroke="#263238" stroke-linecap="round" stroke-linejoin="round" stroke-width="1"/>
      <rect id="Rectangle_26905" data-name="Rectangle 26905" width="5.378" height="10.36" transform="translate(92.11 63.612)" fill="#263238" stroke="#263238" stroke-linecap="round" stroke-linejoin="round" stroke-width="1"/>
      <rect id="Rectangle_26906" data-name="Rectangle 26906" width="31.054" height="20.482" transform="translate(12.917 55.353)" fill="#fff" stroke="#263238" stroke-linecap="round" stroke-linejoin="round" stroke-width="1"/>
      <rect id="Rectangle_26907" data-name="Rectangle 26907" width="5.946" height="4.414" transform="translate(22.167 57.216)" fill="#263238" stroke="#263238" stroke-linecap="round" stroke-linejoin="round" stroke-width="1"/>
      <rect id="Rectangle_26908" data-name="Rectangle 26908" width="5.946" height="10.36" transform="translate(22.167 63.612)" fill="#263238" stroke="#263238" stroke-linecap="round" stroke-linejoin="round" stroke-width="1"/>
      <rect id="Rectangle_26909" data-name="Rectangle 26909" width="5.378" height="4.414" transform="translate(15.137 57.216)" fill="#263238" stroke="#263238" stroke-linecap="round" stroke-linejoin="round" stroke-width="1"/>
      <rect id="Rectangle_26910" data-name="Rectangle 26910" width="5.378" height="4.414" transform="translate(29.765 57.216)" fill="#263238" stroke="#263238" stroke-linecap="round" stroke-linejoin="round" stroke-width="1"/>
      <rect id="Rectangle_26911" data-name="Rectangle 26911" width="5.378" height="10.36" transform="translate(29.765 63.612)" fill="#263238" stroke="#263238" stroke-linecap="round" stroke-linejoin="round" stroke-width="1"/>
      <rect id="Rectangle_26912" data-name="Rectangle 26912" width="5.378" height="4.414" transform="translate(36.703 57.216)" fill="#263238" stroke="#263238" stroke-linecap="round" stroke-linejoin="round" stroke-width="1"/>
      <rect id="Rectangle_26913" data-name="Rectangle 26913" width="5.378" height="10.36" transform="translate(36.703 63.612)" fill="#263238" stroke="#263238" stroke-linecap="round" stroke-linejoin="round" stroke-width="1"/>
      <rect id="Rectangle_26914" data-name="Rectangle 26914" width="5.378" height="10.36" transform="translate(15.137 63.612)" fill="#263238" stroke="#263238" stroke-linecap="round" stroke-linejoin="round" stroke-width="1"/>
      <rect id="Rectangle_26915" data-name="Rectangle 26915" width="31.054" height="20.482" transform="translate(12.917 16.04)" fill="#fff" stroke="#263238" stroke-linecap="round" stroke-linejoin="round" stroke-width="1"/>
      <rect id="Rectangle_26916" data-name="Rectangle 26916" width="5.946" height="4.414" transform="translate(22.167 17.904)" fill="#263238" stroke="#263238" stroke-linecap="round" stroke-linejoin="round" stroke-width="1"/>
      <rect id="Rectangle_26917" data-name="Rectangle 26917" width="5.946" height="10.36" transform="translate(22.167 24.299)" fill="#263238" stroke="#263238" stroke-linecap="round" stroke-linejoin="round" stroke-width="1"/>
      <rect id="Rectangle_26918" data-name="Rectangle 26918" width="5.378" height="4.414" transform="translate(15.137 17.904)" fill="#263238" stroke="#263238" stroke-linecap="round" stroke-linejoin="round" stroke-width="1"/>
      <rect id="Rectangle_26919" data-name="Rectangle 26919" width="5.378" height="4.414" transform="translate(29.765 17.904)" fill="#263238" stroke="#263238" stroke-linecap="round" stroke-linejoin="round" stroke-width="1"/>
      <rect id="Rectangle_26920" data-name="Rectangle 26920" width="5.378" height="10.36" transform="translate(29.765 24.299)" fill="#263238" stroke="#263238" stroke-linecap="round" stroke-linejoin="round" stroke-width="1"/>
      <rect id="Rectangle_26921" data-name="Rectangle 26921" width="5.378" height="4.414" transform="translate(36.703 17.904)" fill="#263238" stroke="#263238" stroke-linecap="round" stroke-linejoin="round" stroke-width="1"/>
      <rect id="Rectangle_26922" data-name="Rectangle 26922" width="5.378" height="10.36" transform="translate(36.703 24.299)" fill="#263238" stroke="#263238" stroke-linecap="round" stroke-linejoin="round" stroke-width="1"/>
      <rect id="Rectangle_26923" data-name="Rectangle 26923" width="5.378" height="10.36" transform="translate(15.137 24.299)" fill="#263238" stroke="#263238" stroke-linecap="round" stroke-linejoin="round" stroke-width="1"/>
      <rect id="Rectangle_26924" data-name="Rectangle 26924" width="24.446" height="20.482" transform="translate(89.89 16.04)" fill="#fff" stroke="#263238" stroke-linecap="round" stroke-linejoin="round" stroke-width="1"/>
      <rect id="Rectangle_26925" data-name="Rectangle 26925" width="5.946" height="4.414" transform="translate(99.14 17.904)" fill="#263238" stroke="#263238" stroke-linecap="round" stroke-linejoin="round" stroke-width="1"/>
      <rect id="Rectangle_26926" data-name="Rectangle 26926" width="5.946" height="10.36" transform="translate(99.14 24.299)" fill="#263238" stroke="#263238" stroke-linecap="round" stroke-linejoin="round" stroke-width="1"/>
      <rect id="Rectangle_26927" data-name="Rectangle 26927" width="5.378" height="4.414" transform="translate(92.11 17.904)" fill="#263238" stroke="#263238" stroke-linecap="round" stroke-linejoin="round" stroke-width="1"/>
      <rect id="Rectangle_26928" data-name="Rectangle 26928" width="5.378" height="4.414" transform="translate(106.739 17.904)" fill="#263238" stroke="#263238" stroke-linecap="round" stroke-linejoin="round" stroke-width="1"/>
      <rect id="Rectangle_26929" data-name="Rectangle 26929" width="5.378" height="10.36" transform="translate(106.739 24.299)" fill="#263238" stroke="#263238" stroke-linecap="round" stroke-linejoin="round" stroke-width="1"/>
      <rect id="Rectangle_26930" data-name="Rectangle 26930" width="5.378" height="10.36" transform="translate(92.11 24.299)" fill="#263238" stroke="#263238" stroke-linecap="round" stroke-linejoin="round" stroke-width="1"/>
      <rect id="Rectangle_26931" data-name="Rectangle 26931" width="17.179" height="20.482" transform="translate(58.507 16.04)" fill="#fff" stroke="#263238" stroke-linecap="round" stroke-linejoin="round" stroke-width="1"/>
      <rect id="Rectangle_26932" data-name="Rectangle 26932" width="5.946" height="4.414" transform="translate(67.757 17.904)" fill="#263238" stroke="#263238" stroke-linecap="round" stroke-linejoin="round" stroke-width="1"/>
      <rect id="Rectangle_26933" data-name="Rectangle 26933" width="5.946" height="10.36" transform="translate(67.757 24.299)" fill="#263238" stroke="#263238" stroke-linecap="round" stroke-linejoin="round" stroke-width="1"/>
      <rect id="Rectangle_26934" data-name="Rectangle 26934" width="5.378" height="4.414" transform="translate(60.727 17.904)" fill="#263238" stroke="#263238" stroke-linecap="round" stroke-linejoin="round" stroke-width="1"/>
      <rect id="Rectangle_26935" data-name="Rectangle 26935" width="5.378" height="10.36" transform="translate(60.727 24.299)" fill="#263238" stroke="#263238" stroke-linecap="round" stroke-linejoin="round" stroke-width="1"/>
      <rect id="Rectangle_26936" data-name="Rectangle 26936" width="11.562" height="3.304" transform="translate(96.332 75.835)" fill="#28a745" stroke="#263238" stroke-linecap="round" stroke-linejoin="round" stroke-width="1"/>
      <rect id="Rectangle_26937" data-name="Rectangle 26937" width="11.562" height="3.304" transform="translate(23.211 75.835)" fill="#28a745" stroke="#263238" stroke-linecap="round" stroke-linejoin="round" stroke-width="1"/>
    </g>
    <g id="freepik--house-1--inject-7" transform="translate(57.649 205.097)">
      <rect id="Rectangle_26938" data-name="Rectangle 26938" width="89.599" height="66.071" transform="translate(7.552 20.621)" fill="#fff" stroke="#263238" stroke-linecap="round" stroke-linejoin="round" stroke-width="1"/>
      <path id="Path_14552" data-name="Path 14552" d="M171.22,289.82H66.53l7.823,2.848h89.038Z" transform="translate(-66.523 -267.336)" fill="#28a745" stroke="#263238" stroke-linecap="round" stroke-linejoin="round" stroke-width="1"/>
      <path id="Path_14553" data-name="Path 14553" d="M171.23,284.052H66.52l7.156-10.281a2.266,2.266,0,0,1,1.857-.971H162.2a2.273,2.273,0,0,1,1.863.971Z" transform="translate(-66.52 -261.561)" fill="#263238" stroke="#263238" stroke-linecap="round" stroke-linejoin="round" stroke-width="1"/>
      <rect id="Rectangle_26939" data-name="Rectangle 26939" width="7.44" height="9.97" transform="translate(9.058 3.138)" fill="#fff" stroke="#263238" stroke-linecap="round" stroke-linejoin="round" stroke-width="1"/>
      <rect id="Rectangle_26940" data-name="Rectangle 26940" width="1.956" height="9.97" transform="translate(14.542 3.138)" fill="#fff" stroke="#263238" stroke-linecap="round" stroke-linejoin="round" stroke-width="1"/>
      <rect id="Rectangle_26941" data-name="Rectangle 26941" width="9.897" height="5.127" transform="translate(7.829)" fill="#fff" stroke="#263238" stroke-linecap="round" stroke-linejoin="round" stroke-width="1"/>
      <rect id="Rectangle_26942" data-name="Rectangle 26942" width="3.422" height="5.127" transform="translate(14.304)" fill="#fff" stroke="#263238" stroke-linecap="round" stroke-linejoin="round" stroke-width="1"/>
      <rect id="Rectangle_26943" data-name="Rectangle 26943" width="12.223" height="19.022" transform="translate(18.368 25.715)" fill="#fff" stroke="#263238" stroke-linecap="round" stroke-linejoin="round" stroke-width="1"/>
      <rect id="Rectangle_26944" data-name="Rectangle 26944" width="9.58" height="16.894" transform="translate(19.689 26.898)" fill="#263238" stroke="#fff" stroke-linecap="round" stroke-linejoin="round" stroke-width="1"/>
      <rect id="Rectangle_26945" data-name="Rectangle 26945" width="9.58" height="9.25" transform="translate(19.689 26.898)" fill="#263238" stroke="#fff" stroke-linecap="round" stroke-linejoin="round" stroke-width="1"/>
      <rect id="Rectangle_26946" data-name="Rectangle 26946" width="4.295" height="9.25" transform="translate(22.332 26.898)" fill="#263238" stroke="#fff" stroke-linecap="round" stroke-linejoin="round" stroke-width="1"/>
      <rect id="Rectangle_26947" data-name="Rectangle 26947" width="16.187" height="19.022" transform="translate(16.386 62.385)" fill="#fff" stroke="#263238" stroke-linecap="round" stroke-linejoin="round" stroke-width="1"/>
      <rect id="Rectangle_26948" data-name="Rectangle 26948" width="12.686" height="16.894" transform="translate(18.137 63.567)" fill="#263238" stroke="#fff" stroke-linecap="round" stroke-linejoin="round" stroke-width="1"/>
      <rect id="Rectangle_26949" data-name="Rectangle 26949" width="12.686" height="9.25" transform="translate(18.137 63.567)" fill="#263238" stroke="#fff" stroke-linecap="round" stroke-linejoin="round" stroke-width="1"/>
      <rect id="Rectangle_26950" data-name="Rectangle 26950" width="5.689" height="9.25" transform="translate(21.638 63.567)" fill="#263238" stroke="#fff" stroke-linecap="round" stroke-linejoin="round" stroke-width="1"/>
      <rect id="Rectangle_26951" data-name="Rectangle 26951" width="16.187" height="19.022" transform="translate(71.886 62.385)" fill="#fff" stroke="#263238" stroke-linecap="round" stroke-linejoin="round" stroke-width="1"/>
      <rect id="Rectangle_26952" data-name="Rectangle 26952" width="12.686" height="16.894" transform="translate(73.637 63.567)" fill="#263238" stroke="#fff" stroke-linecap="round" stroke-linejoin="round" stroke-width="1"/>
      <rect id="Rectangle_26953" data-name="Rectangle 26953" width="12.686" height="9.25" transform="translate(73.637 63.567)" fill="#263238" stroke="#fff" stroke-linecap="round" stroke-linejoin="round" stroke-width="1"/>
      <rect id="Rectangle_26954" data-name="Rectangle 26954" width="5.689" height="9.25" transform="translate(77.138 63.567)" fill="#263238" stroke="#fff" stroke-linecap="round" stroke-linejoin="round" stroke-width="1"/>
      <rect id="Rectangle_26955" data-name="Rectangle 26955" width="12.223" height="19.022" transform="translate(74.529 25.715)" fill="#fff" stroke="#263238" stroke-linecap="round" stroke-linejoin="round" stroke-width="1"/>
      <rect id="Rectangle_26956" data-name="Rectangle 26956" width="9.58" height="16.894" transform="translate(75.85 26.898)" fill="#263238" stroke="#fff" stroke-linecap="round" stroke-linejoin="round" stroke-width="1"/>
      <rect id="Rectangle_26957" data-name="Rectangle 26957" width="9.58" height="9.25" transform="translate(75.85 26.898)" fill="#263238" stroke="#fff" stroke-linecap="round" stroke-linejoin="round" stroke-width="1"/>
      <rect id="Rectangle_26958" data-name="Rectangle 26958" width="4.295" height="9.25" transform="translate(78.493 26.898)" fill="#263238" stroke="#fff" stroke-linecap="round" stroke-linejoin="round" stroke-width="1"/>
      <rect id="Rectangle_26959" data-name="Rectangle 26959" width="8.583" height="13.353" transform="translate(47.446 28.549)" fill="#fff" stroke="#263238" stroke-linecap="round" stroke-linejoin="round" stroke-width="1"/>
      <rect id="Rectangle_26960" data-name="Rectangle 26960" width="6.719" height="11.576" transform="translate(48.371 29.382)" fill="#263238" stroke="#fff" stroke-linecap="round" stroke-linejoin="round" stroke-width="1"/>
      <rect id="Rectangle_26961" data-name="Rectangle 26961" width="6.719" height="6.488" transform="translate(48.371 29.382)" fill="#263238" stroke="#fff" stroke-linecap="round" stroke-linejoin="round" stroke-width="1"/>
      <rect id="Rectangle_26962" data-name="Rectangle 26962" width="3.013" height="6.488" transform="translate(50.227 29.382)" fill="#263238" stroke="#fff" stroke-linecap="round" stroke-linejoin="round" stroke-width="1"/>
      <rect id="Rectangle_26963" data-name="Rectangle 26963" width="23.217" height="23.455" transform="translate(40.74 56.96)" fill="#28a745" stroke="#263238" stroke-linecap="round" stroke-linejoin="round" stroke-width="1"/>
      <rect id="Rectangle_26964" data-name="Rectangle 26964" width="17.932" height="20.152" transform="translate(43.382 60.264)" fill="#263238" stroke="#263238" stroke-linecap="round" stroke-linejoin="round" stroke-width="1"/>
      <rect id="Rectangle_26965" data-name="Rectangle 26965" width="2.405" height="20.152" transform="translate(46.686 60.264)" fill="#fff" stroke="#263238" stroke-linecap="round" stroke-linejoin="round" stroke-width="1"/>
      <rect id="Rectangle_26966" data-name="Rectangle 26966" width="2.405" height="20.152" transform="translate(54.615 60.264)" fill="#fff" stroke="#263238" stroke-linecap="round" stroke-linejoin="round" stroke-width="1"/>
      <path id="Path_14554" data-name="Path 14554" d="M129.643,333.925h-2.788l10.671-9.25,10.677,9.25h-2.7v1.539h8.047l-15.639-13.538a.581.581,0,0,0-.766,0L121.51,335.464h8.133Z" transform="translate(-85.177 -278.18)" fill="#28a745" stroke="#263238" stroke-linecap="round" stroke-linejoin="round" stroke-width="1"/>
      <rect id="Rectangle_26967" data-name="Rectangle 26967" width="23.33" height="2.055" transform="translate(40.74 80.415)" fill="#28a745" stroke="#263238" stroke-linecap="round" stroke-linejoin="round" stroke-width="1"/>
      <rect id="Rectangle_26968" data-name="Rectangle 26968" width="23.33" height="2.055" transform="translate(40.74 82.411)" fill="#28a745" stroke="#263238" stroke-linecap="round" stroke-linejoin="round" stroke-width="1"/>
      <rect id="Rectangle_26969" data-name="Rectangle 26969" width="23.33" height="2.055" transform="translate(40.74 84.406)" fill="#28a745" stroke="#263238" stroke-linecap="round" stroke-linejoin="round" stroke-width="1"/>
      <line id="Line_368" data-name="Line 368" x1="2.332" transform="translate(41.05 60.264)" fill="none" stroke="#263238" stroke-linecap="round" stroke-linejoin="round" stroke-width="1"/>
      <line id="Line_369" data-name="Line 369" x1="2.332" transform="translate(61.532 60.264)" fill="none" stroke="#263238" stroke-linecap="round" stroke-linejoin="round" stroke-width="1"/>
    </g>
    <g id="freepik--Trees--inject-7" transform="translate(42.454 235.775)">
      <path id="Path_14555" data-name="Path 14555" d="M249.927,358.234s6.217.614,9.369,4.466a12.032,12.032,0,0,1,9.309-4.374,12.084,12.084,0,1,0-18.685-.086Z" transform="translate(-112.632 -314.541)" fill="#28a745"/>
      <path id="Path_14556" data-name="Path 14556" d="M249.927,358.234s6.217.614,9.369,4.466a12.032,12.032,0,0,1,9.309-4.374,12.084,12.084,0,1,0-18.685-.086Z" transform="translate(-112.632 -314.541)" fill="#fff" opacity="0.5"/>
      <path id="Path_14557" data-name="Path 14557" d="M265.081,339.81l-.211,31.179h1.051Z" transform="translate(-118.623 -314.974)" fill="#263238"/>
      <path id="Path_14558" data-name="Path 14558" d="M265.609,370.806s2.1-3.779,5.88-4.936a10.651,10.651,0,0,0-5.979,4.2Z" transform="translate(-118.84 -323.816)" fill="#263238"/>
      <path id="Path_14559" data-name="Path 14559" d="M265.609,354.6s2.1-3.779,5.88-4.936a10.64,10.64,0,0,0-5.979,4.2Z" transform="translate(-118.84 -318.316)" fill="#263238"/>
      <path id="Path_14560" data-name="Path 14560" d="M265.609,362.7s2.1-3.779,5.88-4.929a10.651,10.651,0,0,0-5.979,4.2Z" transform="translate(-118.84 -321.068)" fill="#263238"/>
      <path id="Path_14561" data-name="Path 14561" d="M262.279,358.726s-2.022-3.779-5.669-4.936a10.2,10.2,0,0,1,5.775,4.2Z" transform="translate(-115.821 -319.717)" fill="#263238"/>
      <path id="Path_14562" data-name="Path 14562" d="M262.279,366.669s-2.022-3.773-5.669-4.929a10.206,10.206,0,0,1,5.775,4.2Z" transform="translate(-115.821 -322.415)" fill="#263238"/>
      <path id="Path_14563" data-name="Path 14563" d="M424.23,358.234s6.217.614,9.376,4.466a12.031,12.031,0,0,1,9.309-4.374,12.084,12.084,0,1,0-18.685-.086Z" transform="translate(-171.773 -314.541)" fill="#28a745"/>
      <path id="Path_14564" data-name="Path 14564" d="M424.23,358.234s6.217.614,9.376,4.466a12.031,12.031,0,0,1,9.309-4.374,12.084,12.084,0,1,0-18.685-.086Z" transform="translate(-171.773 -314.541)" fill="#fff" opacity="0.5"/>
      <path id="Path_14565" data-name="Path 14565" d="M439.385,339.81l-.2,31.179h1.044Z" transform="translate(-177.764 -314.974)" fill="#263238"/>
      <path id="Path_14566" data-name="Path 14566" d="M439.946,370.806s2.1-3.779,5.88-4.936a10.677,10.677,0,0,0-5.986,4.2Z" transform="translate(-177.988 -323.816)" fill="#263238"/>
      <path id="Path_14567" data-name="Path 14567" d="M439.946,354.6s2.1-3.779,5.88-4.936a10.667,10.667,0,0,0-5.986,4.2Z" transform="translate(-177.988 -318.316)" fill="#263238"/>
      <path id="Path_14568" data-name="Path 14568" d="M439.946,362.7s2.1-3.779,5.88-4.929a10.677,10.677,0,0,0-5.986,4.2Z" transform="translate(-177.988 -321.068)" fill="#263238"/>
      <path id="Path_14569" data-name="Path 14569" d="M436.586,358.726s-2.028-3.779-5.675-4.936a10.177,10.177,0,0,1,5.775,4.2Z" transform="translate(-174.958 -319.717)" fill="#263238"/>
      <path id="Path_14570" data-name="Path 14570" d="M436.586,366.669s-2.028-3.773-5.675-4.929a10.186,10.186,0,0,1,5.775,4.2Z" transform="translate(-174.958 -322.415)" fill="#263238"/>
      <path id="Path_14571" data-name="Path 14571" d="M46.23,358.234s6.217.614,9.376,4.466a12.031,12.031,0,0,1,9.309-4.374,12.084,12.084,0,1,0-18.685-.086Z" transform="translate(-43.523 -314.541)" fill="#28a745"/>
      <path id="Path_14572" data-name="Path 14572" d="M46.23,358.234s6.217.614,9.376,4.466a12.031,12.031,0,0,1,9.309-4.374,12.084,12.084,0,1,0-18.685-.086Z" transform="translate(-43.523 -314.541)" fill="#fff" opacity="0.5"/>
      <path id="Path_14573" data-name="Path 14573" d="M61.385,339.81l-.2,31.179h1.051Z" transform="translate(-49.514 -314.974)" fill="#263238"/>
      <path id="Path_14574" data-name="Path 14574" d="M61.946,370.806s2.1-3.779,5.88-4.936a10.677,10.677,0,0,0-5.986,4.2Z" transform="translate(-49.738 -323.816)" fill="#263238"/>
      <path id="Path_14575" data-name="Path 14575" d="M61.946,354.6s2.1-3.779,5.88-4.936a10.667,10.667,0,0,0-5.986,4.2Z" transform="translate(-49.738 -318.316)" fill="#263238"/>
      <path id="Path_14576" data-name="Path 14576" d="M61.946,362.7s2.1-3.779,5.88-4.929a10.677,10.677,0,0,0-5.986,4.2Z" transform="translate(-49.738 -321.068)" fill="#263238"/>
      <path id="Path_14577" data-name="Path 14577" d="M58.586,358.726s-2.028-3.779-5.676-4.936a10.177,10.177,0,0,1,5.775,4.2Z" transform="translate(-46.708 -319.717)" fill="#263238"/>
      <path id="Path_14578" data-name="Path 14578" d="M58.586,366.669s-2.028-3.773-5.676-4.929a10.186,10.186,0,0,1,5.775,4.2Z" transform="translate(-46.708 -322.415)" fill="#263238"/>
      <path id="Path_14579" data-name="Path 14579" d="M198.3,336.71s10.862,1.077,16.366,7.81a21.022,21.022,0,0,1,16.267-7.638,21.143,21.143,0,1,0-32.639-.152Z" transform="translate(-94.42 -302.221)" fill="#28a745"/>
      <path id="Path_14580" data-name="Path 14580" d="M198.3,336.71s10.862,1.077,16.366,7.81a21.022,21.022,0,0,1,16.267-7.638,21.143,21.143,0,1,0-32.639-.152Z" transform="translate(-94.42 -302.221)" fill="#fff" opacity="0.3"/>
      <path id="Path_14581" data-name="Path 14581" d="M224.79,304.59l-.37,54.449h1.837Z" transform="translate(-104.899 -303.025)" fill="#263238"/>
      <path id="Path_14582" data-name="Path 14582" d="M225.715,358.712s3.667-6.607,10.267-8.622c0,0-6.971,1.652-10.452,7.334Z" transform="translate(-105.276 -318.462)" fill="#263238"/>
      <path id="Path_14583" data-name="Path 14583" d="M225.715,330.419s3.667-6.607,10.267-8.589c0,0-6.971,1.652-10.452,7.334Z" transform="translate(-105.276 -308.874)" fill="#263238"/>
      <path id="Path_14584" data-name="Path 14584" d="M225.715,344.589s3.667-6.607,10.267-8.589c0,0-6.971,1.652-10.452,7.334Z" transform="translate(-105.276 -313.682)" fill="#263238"/>
      <path id="Path_14585" data-name="Path 14585" d="M219.911,337.639s-3.541-6.607-9.911-8.589c0,0,6.726,1.645,10.082,7.327Z" transform="translate(-100.006 -311.324)" fill="#263238"/>
      <path id="Path_14586" data-name="Path 14586" d="M219.911,351.509S216.369,344.9,210,342.92c0,0,6.726,1.652,10.082,7.334Z" transform="translate(-100.006 -316.029)" fill="#263238"/>
    </g>
    <g id="freepik--Floor--inject-7" transform="translate(43.86 291.347)">
      <rect id="Rectangle_26970" data-name="Rectangle 26970" width="269.129" height="2.643" transform="translate(0)" fill="#263238" stroke="#263238" stroke-linecap="round" stroke-linejoin="round" stroke-width="1"/>
    </g>
    <g id="freepik--Clouds--inject-7" transform="translate(96.842 106.38)">
      <path id="Path_14587" data-name="Path 14587" d="M213.932,233.456c-2.18-1.2-3.171-.2-3.964-1.2s2.187-3.574-3.773-6.151c0,0-.4-5.563-8.536-5.761s-5.946,5.563-8.14,6.951-2.782-.793-4.962.595-1.2,4.169-2.98,4.566-4.169-1.784-6.356-.4-2.194,2.59-3.185,2.59-2.973-.793-4.169,0-2.577,1.784-2.577,1.784H215.5S216.119,234.652,213.932,233.456Z" transform="translate(-139.225 -145.046)" fill="#fff"/>
      <path id="Path_14588" data-name="Path 14588" d="M188.9,223.555c-1.586-.872-2.312-.145-2.887-.872s1.586-2.6-2.749-4.48c0,0-.291-4.05-6.224-4.2s-4.334,4.05-5.946,5.061-2.028-.575-3.621.436-.866,3.039-2.167,3.3-3.039-1.321-4.625-.284-1.586,1.876-2.312,1.876-2.167-.575-3.039,0-1.876,1.321-1.876,1.321h36.6A1.853,1.853,0,0,0,188.9,223.555Z" transform="translate(-135.208 -142.895)" fill="#fff"/>
      <path id="Path_14589" data-name="Path 14589" d="M192.083,124.232c-2.973-1.619-4.328-.271-5.4-1.619s2.973-4.869-5.14-8.384c0,0-.542-7.572-11.629-7.843s-8.107,7.572-11.087,9.468-3.779-1.084-6.759.806-1.619,5.682-4.05,6.224-5.682-2.438-8.655-.542-2.973,3.515-4.328,3.515-4.057-1.084-5.676,0-3.515,2.431-3.515,2.431h68.4S195.056,125.858,192.083,124.232Z" transform="translate(-125.84 -106.38)" fill="#28a745"/>
      <path id="Path_14590" data-name="Path 14590" d="M192.083,124.232c-2.973-1.619-4.328-.271-5.4-1.619s2.973-4.869-5.14-8.384c0,0-.542-7.572-11.629-7.843s-8.107,7.572-11.087,9.468-3.779-1.084-6.759.806-1.619,5.682-4.05,6.224-5.682-2.438-8.655-.542-2.973,3.515-4.328,3.515-4.057-1.084-5.676,0-3.515,2.431-3.515,2.431h68.4S195.056,125.858,192.083,124.232Z" transform="translate(-125.84 -106.38)" fill="#fff" opacity="0.8"/>
    </g>
  </g>
</svg>
