<svg id="billfold" xmlns="http://www.w3.org/2000/svg" width="38.44" height="38.44" viewBox="0 0 38.44 38.44">
  <g id="BG">
    <path id="Path_1393" data-name="Path 1393" d="M31.232,38.44H7.207A7.207,7.207,0,0,1,0,31.232V7.207A7.207,7.207,0,0,1,7.207,0H31.232A7.207,7.207,0,0,1,38.44,7.207V31.232A7.207,7.207,0,0,1,31.232,38.44Z" fill="#f5e6fe"/>
  </g>
  <g id="solid" transform="translate(9.61 12.014)">
    <g id="Group_454" data-name="Group 454">
      <path id="Path_1394" data-name="Path 1394" d="M23.616,20.411a3.6,3.6,0,0,1,0-7.207h2v-1a2.2,2.2,0,0,0-2.2-2.2H10.2A2.2,2.2,0,0,0,8,12.2v10.01a2.2,2.2,0,0,0,2.2,2.2H23.416a2.2,2.2,0,0,0,2.2-2.2v-1.8Z" transform="translate(-8 -10.001)" fill="#be63f9"/>
    </g>
    <g id="Group_455" data-name="Group 455" transform="translate(13.214 4.404)">
      <path id="Path_1395" data-name="Path 1395" d="M24.406,13.667h-3a2.4,2.4,0,0,0,0,4.8h3a.6.6,0,0,0,.6-.6v-3.6A.6.6,0,0,0,24.406,13.667Zm-3,3.2a.8.8,0,1,1,.8-.8A.8.8,0,0,1,21.4,16.87Z" transform="translate(-19 -13.667)" fill="#d9a4fc"/>
    </g>
  </g>
</svg>
