<svg xmlns="http://www.w3.org/2000/svg" width="11.662" height="16.651" viewBox="0 0 11.662 16.651">
  <g id="pin_2_" data-name="pin (2)" transform="translate(0 0)">
    <path id="Path_3591" data-name="Path 3591" d="M22.686,12a2.129,2.129,0,1,0,2.129,2.129A2.131,2.131,0,0,0,22.686,12Zm0,3.649a1.52,1.52,0,1,1,1.52-1.52A1.522,1.522,0,0,1,22.686,15.649Z" transform="translate(-16.8 -8.351)"/>
    <path id="Path_3592" data-name="Path 3592" d="M18.157,1.708a5.831,5.831,0,0,0-8.247,0,6.642,6.642,0,0,0-.549,8.2l4.672,6.747L18.7,9.913A6.644,6.644,0,0,0,18.157,1.708Zm.048,7.85-4.172,6.024L9.856,9.548a6,6,0,0,1,.485-7.41,5.223,5.223,0,0,1,7.386,0A6,6,0,0,1,18.206,9.558Z" transform="translate(-8.203 0)"/>
  </g>
</svg>
