<svg id="air-conditioner" xmlns="http://www.w3.org/2000/svg" width="44.783" height="38.485" viewBox="0 0 44.783 38.485">
  <ellipse id="Ellipse_1323" data-name="Ellipse 1323" cx="0.732" cy="0.732" rx="0.732" ry="0.732" transform="translate(24.315 5.547)" fill="#231f20"/>
  <ellipse id="Ellipse_1324" data-name="Ellipse 1324" cx="1.464" cy="0.732" rx="1.464" ry="0.732" transform="translate(18.459 5.547)" fill="#231f20"/>
  <path id="Path_10346" data-name="Path 10346" d="M271.867,277.574a.875.875,0,0,0-1.05-1.4,5.795,5.795,0,0,0,0,9.271,4.045,4.045,0,0,1,0,6.473.875.875,0,1,0,1.05,1.4,5.795,5.795,0,0,0,0-9.271,4.045,4.045,0,0,1,0-6.472Z" transform="translate(-245.015 -255.008)" fill="#231f20"/>
  <path id="Path_10347" data-name="Path 10347" d="M361.868,277.574a.875.875,0,0,0-1.05-1.4,5.795,5.795,0,0,0,0,9.271,4.045,4.045,0,0,1,0,6.473.875.875,0,1,0,1.05,1.4,5.795,5.795,0,0,0,0-9.271,4.045,4.045,0,0,1,0-6.472Z" transform="translate(-327.143 -255.008)" fill="#231f20"/>
  <path id="Path_10348" data-name="Path 10348" d="M181.867,277.574a.875.875,0,0,0-1.05-1.4,5.795,5.795,0,0,0,0,9.271,4.045,4.045,0,0,1,0,6.473.875.875,0,1,0,1.05,1.4,5.795,5.795,0,0,0,0-9.271,4.045,4.045,0,0,1,0-6.473Z" transform="translate(-162.887 -255.007)" fill="#231f20"/>
  <path id="Path_10349" data-name="Path 10349" d="M91.867,277.574a.875.875,0,0,0-1.05-1.4,5.795,5.795,0,0,0,0,9.271,4.045,4.045,0,0,1,0,6.473.875.875,0,1,0,1.05,1.4,5.795,5.795,0,0,0,0-9.271,4.045,4.045,0,0,1,0-6.473Z" transform="translate(-80.759 -255.007)" fill="#231f20"/>
  <ellipse id="Ellipse_1325" data-name="Ellipse 1325" cx="0.732" cy="0.732" rx="0.732" ry="0.732" transform="translate(21.387 15.794)" fill="#231f20"/>
  <path id="Path_10350" data-name="Path 10350" d="M41.284,36H3.5A3.5,3.5,0,0,0,0,39.5v13.12a.875.875,0,0,0,.875.875H18.455a.875.875,0,1,0,0-1.749H7v-3.5H37.786v3.5H26.327a.875.875,0,1,0,0,1.749H43.908a.875.875,0,0,0,.875-.875V39.5A3.5,3.5,0,0,0,41.284,36Zm1.749,15.744h-3.5V47.371a.875.875,0,0,0-.875-.875H6.123a.875.875,0,0,0-.875.875v4.373h-3.5V39.5A1.751,1.751,0,0,1,3.5,37.749H41.284A1.751,1.751,0,0,1,43.034,39.5Z" transform="translate(0 -36)" fill="#231f20"/>
</svg>
