<svg xmlns="http://www.w3.org/2000/svg" width="39.998" height="41.22" viewBox="0 0 39.998 41.22">
  <g id="balcony-and-door" transform="translate(0)">
    <g id="Group_12152" data-name="Group 12152" transform="translate(0)">
      <path id="Path_10342" data-name="Path 10342" d="M40.333,19.683a3.466,3.466,0,0,0-3.461,3.461,3.427,3.427,0,0,0,.212,1.154H34.371V8.846a8.82,8.82,0,0,0-3.042-6.659c-.025-.034-.035-.074-.064-.107a1.124,1.124,0,0,0-.415-.281A8.789,8.789,0,0,0,25.525,0H21.936A8.856,8.856,0,0,0,13.09,8.846V24.3H10.507a3.423,3.423,0,0,0,.212-1.154A3.461,3.461,0,1,0,6.1,26.393V40.066A1.154,1.154,0,0,0,7.257,41.22H40.333a1.154,1.154,0,0,0,1.154-1.154V26.393a3.453,3.453,0,0,0-1.154-6.71ZM7.257,21.99A1.154,1.154,0,1,1,6.1,23.144,1.155,1.155,0,0,1,7.257,21.99ZM8.411,38.913V26.605h6.777V38.913ZM17.5,38.6v-12h5.081V38.913H17.5V38.6Zm11.886.31h-4.5V26.605h5.384V38.913Zm9.8,0h-6.6V26.605h6.6ZM40.333,24.3a1.154,1.154,0,1,1,1.154-1.154A1.155,1.155,0,0,1,40.333,24.3ZM30.365,4.466a6.513,6.513,0,0,1,1.6,3.294h-5.2ZM28.511,3.036,24.884,6.354V2.308h.641A6.483,6.483,0,0,1,28.511,3.036Zm-6.575-.728h.641V6.295L18.992,3.016A6.492,6.492,0,0,1,21.936,2.308ZM17.125,4.434,20.76,7.76H15.5A6.511,6.511,0,0,1,17.125,4.434ZM15.4,10.068H32.063V24.3H15.4Z" transform="translate(-3.796)"/>
    </g>
  </g>
</svg>
