<svg id="Group_1176" data-name="Group 1176" xmlns="http://www.w3.org/2000/svg" width="30.555" height="24.974" viewBox="0 0 30.555 24.974">
  <path id="Path_1821" data-name="Path 1821" d="M57.919,112.979H36.564a4.607,4.607,0,0,0-4.6,4.6v15.771a4.607,4.607,0,0,0,4.6,4.6H57.919a4.607,4.607,0,0,0,4.6-4.6V117.581A4.607,4.607,0,0,0,57.919,112.979Zm-24.024,4.667h9.319c.608,0,.82.408.53.943a12.978,12.978,0,0,0-1.1,2.76,1.478,1.478,0,0,1-1.348,1.074h-7.4a1.1,1.1,0,0,1-1.1-1.1v-2.573A1.1,1.1,0,0,1,33.894,117.646Zm0,5.6h7.282a.95.95,0,0,1,1,1c-.021.325-.032.659-.027,1.008a10.782,10.782,0,0,0,.128,1.5.87.87,0,0,1-.877,1.079h-7.51a1.1,1.1,0,0,1-1.1-1.1v-2.39A1.1,1.1,0,0,1,33.894,123.25Zm0,5.422h7.759a1.809,1.809,0,0,1,1.512,1.022,12.291,12.291,0,0,0,1.552,2.526c.378.478.229.833-.38.833H33.894a1.1,1.1,0,0,1-1.1-1.1v-2.177A1.1,1.1,0,0,1,33.894,128.672Zm6.668,8.454h-4a3.755,3.755,0,0,1-3.41-2.192c-.255-.553.183-1.053.792-1.053h6.615a1.1,1.1,0,0,1,1.1,1.1v1.04A1.1,1.1,0,0,1,40.562,137.126Zm11.306,0H43.594a1.1,1.1,0,0,1-1.1-1.1v-1.041a1.1,1.1,0,0,1,1.1-1.1h8.274a1.1,1.1,0,0,1,1.1,1.1v1.04A1.1,1.1,0,0,1,51.868,137.126Zm3.032,0a1.1,1.1,0,0,1-1.1-1.1v-1.041a1.1,1.1,0,0,1,1.1-1.1h5.637c.608,0,1.047.5.792,1.052a3.754,3.754,0,0,1-3.41,2.192H54.9Zm5.691-4.073H50.147c-.609,0-.758-.355-.381-.833a12.362,12.362,0,0,0,1.644-2.74,1.764,1.764,0,0,1,1.492-1.031H60.59a1.1,1.1,0,0,1,1.1,1.1v2.4A1.1,1.1,0,0,1,60.59,133.053Zm0-5.431H53.132a.891.891,0,0,1-.9-1.082,10.28,10.28,0,0,0,.1-1.279c.006-.393-.007-.77-.034-1.135a.979.979,0,0,1,.984-1.1h7.309a1.1,1.1,0,0,1,1.1,1.1v2.388A1.1,1.1,0,0,1,60.59,127.623Zm0-5.42H53.139a1.51,1.51,0,0,1-1.367-1.069,13.023,13.023,0,0,0-1.034-2.547c-.289-.536-.076-.943.533-.943h9.319a1.1,1.1,0,0,1,1.1,1.1V121.1A1.1,1.1,0,0,1,60.59,122.2Zm-11.871-5.04.31.344a12.036,12.036,0,0,1,2.475,7.742,10.908,10.908,0,0,1-2.827,6.971,2.377,2.377,0,0,1-1.435.787,2.379,2.379,0,0,1-1.435-.787,10.914,10.914,0,0,1-2.827-6.971,12.042,12.042,0,0,1,2.475-7.742l.31-.344c.172-.191-.183-.344-.793-.344h-11c-.609,0-1.017-.5-.725-1.032a3.775,3.775,0,0,1,3.319-1.981H57.919a3.776,3.776,0,0,1,3.32,1.981c.29.536-.117,1.032-.727,1.032h-11C48.9,116.819,48.548,116.973,48.719,117.163Z" transform="translate(-31.964 -112.979)"/>
</svg>
