<svg xmlns="http://www.w3.org/2000/svg" width="87.939" height="97.931" viewBox="0 0 87.939 97.931">
  <g id="notification-2" transform="translate(-54.174 -47.705)">
    <path id="Path_14665" data-name="Path 14665" d="M216.954,238.388h-63.4a12.271,12.271,0,0,1-12.27-12.27V162.7a12.271,12.271,0,0,1,12.27-12.27h63.4a12.269,12.269,0,0,1,12.269,12.27v63.414A12.27,12.27,0,0,1,216.954,238.388Zm0,0" transform="translate(-87.111 -92.752)" fill="#fff0d7"/>
    <path id="Path_14666" data-name="Path 14666" d="M308.893,150.438H290.4a12.269,12.269,0,0,1,12.269,12.27V226.12A12.269,12.269,0,0,1,290.4,238.39h18.495a12.269,12.269,0,0,0,12.269-12.27V162.708A12.268,12.268,0,0,0,308.893,150.438Zm0,0" transform="translate(-179.049 -92.754)" fill="#ffe3bd"/>
    <path id="Path_14667" data-name="Path 14667" d="M216.956,150.438h-63.4a12.27,12.27,0,0,0-12.269,12.27v9.174h87.939v-9.174A12.268,12.268,0,0,0,216.956,150.438Zm0,0" transform="translate(-87.111 -92.754)" fill="#72bf44"/>
    <path id="Path_14668" data-name="Path 14668" d="M308.893,150.438H290.4a12.269,12.269,0,0,1,12.269,12.27v9.174h18.495v-9.174A12.268,12.268,0,0,0,308.893,150.438Zm0,0" transform="translate(-179.049 -92.754)" fill="#28a745"/>
    <path id="Path_14669" data-name="Path 14669" d="M179.411,143.766a2.979,2.979,0,0,1-2.978-2.979V127.393a2.978,2.978,0,1,1,5.955,0v13.393A2.979,2.979,0,0,1,179.411,143.766Zm0,0" transform="translate(-108.782 -76.709)" fill="#fff"/>
    <path id="Path_14670" data-name="Path 14670" d="M322.927,143.766a2.979,2.979,0,0,1-2.978-2.979V127.393a2.978,2.978,0,1,1,5.955,0v13.393A2.979,2.979,0,0,1,322.927,143.766Zm0,0" transform="translate(-197.268 -76.709)" fill="#fff"/>
    <path id="Path_14671" data-name="Path 14671" d="M220.76,275.169a2.969,2.969,0,0,1-2.106-.872L208.6,264.238a2.978,2.978,0,0,1,4.21-4.212l7.953,7.953,18.869-18.874a2.978,2.978,0,1,1,4.212,4.212L222.865,274.3A2.968,2.968,0,0,1,220.76,275.169Zm0,0" transform="translate(-128.074 -153.052)" fill="#28a745"/>
  </g>
</svg>
