<svg xmlns="http://www.w3.org/2000/svg" width="39.104" height="39.104" viewBox="0 0 39.104 39.104">
  <g id="food" transform="translate(0 0)">
    <g id="Group_11382" data-name="Group 11382" transform="translate(0 13.391)">
      <g id="Group_11381" data-name="Group 11381">
        <path id="Path_3247" data-name="Path 3247" d="M38.341,177.713H32.078V176.1a.764.764,0,0,0-.764-.764h-16.5a.764.764,0,1,0,0,1.528H30.55v5.855a14.552,14.552,0,0,1-7.181,12.526H8.708a14.552,14.552,0,0,1-7.181-12.526v-5.855H6.645a.764.764,0,0,0,0-1.528H.764A.764.764,0,0,0,0,176.1v6.619a16.012,16.012,0,0,0,6.023,12.526H.764a.764.764,0,0,0-.764.764,5.046,5.046,0,0,0,5.041,5.041H28.87a5.046,5.046,0,0,0,5.041-5.041.764.764,0,0,0-.764-.764H26.055a16.131,16.131,0,0,0,3.536-3.946h2.156a7.366,7.366,0,0,0,7.358-7.358v-5.461A.764.764,0,0,0,38.341,177.713ZM32.3,196.769a3.52,3.52,0,0,1-3.43,2.75H5.041a3.52,3.52,0,0,1-3.43-2.75H32.3Zm-.222-14.053v-.42h2.444v1.642a2.778,2.778,0,0,1-2.775,2.775h-.173A16.078,16.078,0,0,0,32.078,182.716Zm5.5,1.222a5.837,5.837,0,0,1-5.83,5.83h-1.3a15.953,15.953,0,0,0,.652-1.528h.648a4.307,4.307,0,0,0,4.3-4.3v-2.406a.764.764,0,0,0-.764-.764H32.078v-1.528h5.5Z" transform="translate(0 -175.333)"/>
      </g>
    </g>
    <g id="Group_11384" data-name="Group 11384" transform="translate(14.404 0)">
      <g id="Group_11383" data-name="Group 11383">
        <path id="Path_3248" data-name="Path 3248" d="M190.95,4.227l-.4-.5a1.991,1.991,0,0,1,0-2.489.764.764,0,0,0-1.2-.95,3.512,3.512,0,0,0,0,4.391l.4.5a2.6,2.6,0,0,1,0,3.253l-.407.513a.764.764,0,1,0,1.2.95l.407-.513A4.122,4.122,0,0,0,190.95,4.227Z" transform="translate(-188.585 0)"/>
      </g>
    </g>
    <g id="Group_11386" data-name="Group 11386" transform="translate(18.637 1.717)">
      <g id="Group_11385" data-name="Group 11385">
        <path id="Path_3249" data-name="Path 3249" d="M246.379,26.711l-.4-.5a1.991,1.991,0,0,1,0-2.489.764.764,0,0,0-1.2-.95,3.512,3.512,0,0,0,0,4.391l.4.5a2.6,2.6,0,0,1,0,3.253l-.407.513a.764.764,0,1,0,1.2.95l.407-.513A4.123,4.123,0,0,0,246.379,26.711Z" transform="translate(-244.014 -22.484)"/>
      </g>
    </g>
    <g id="Group_11388" data-name="Group 11388" transform="translate(10.17 1.717)">
      <g id="Group_11387" data-name="Group 11387">
        <path id="Path_3250" data-name="Path 3250" d="M135.521,26.712l-.4-.5a1.991,1.991,0,0,1,0-2.489.764.764,0,1,0-1.2-.95,3.512,3.512,0,0,0,0,4.391l.4.5a2.6,2.6,0,0,1,0,3.253l-.407.513a.764.764,0,1,0,1.2.95l.407-.513A4.123,4.123,0,0,0,135.521,26.712Z" transform="translate(-133.156 -22.485)"/>
      </g>
    </g>
    <g id="Group_11390" data-name="Group 11390" transform="translate(10.174 13.391)">
      <g id="Group_11389" data-name="Group 11389">
        <path id="Path_3251" data-name="Path 3251" d="M134.514,175.554a.764.764,0,1,0,.224.54A.769.769,0,0,0,134.514,175.554Z" transform="translate(-133.21 -175.33)"/>
      </g>
    </g>
    <g id="Group_11392" data-name="Group 11392" transform="translate(23.508 20.011)">
      <g id="Group_11391" data-name="Group 11391">
        <path id="Path_3252" data-name="Path 3252" d="M311.935,262a.764.764,0,0,0-.764.764,10.943,10.943,0,0,1-3.155,7.644.764.764,0,1,0,1.085,1.075,12.482,12.482,0,0,0,3.6-8.719A.764.764,0,0,0,311.935,262Z" transform="translate(-307.795 -262)"/>
      </g>
    </g>
    <g id="Group_11394" data-name="Group 11394" transform="translate(20.999 30.103)">
      <g id="Group_11393" data-name="Group 11393">
        <path id="Path_3253" data-name="Path 3253" d="M276.392,394.525a.764.764,0,0,0-1.041-.29l-.017.01a.764.764,0,1,0,.75,1.33l.017-.01A.764.764,0,0,0,276.392,394.525Z" transform="translate(-274.945 -394.136)"/>
      </g>
    </g>
  </g>
</svg>
