<svg id="delete" xmlns="http://www.w3.org/2000/svg" width="38.44" height="38.44" viewBox="0 0 38.44 38.44">
  <path id="Path_1391" data-name="Path 1391" d="M31.232,38.44H7.207A7.207,7.207,0,0,1,0,31.232V7.207A7.207,7.207,0,0,1,7.207,0H31.232A7.207,7.207,0,0,1,38.44,7.207V31.232A7.207,7.207,0,0,1,31.232,38.44Z" fill="#ffe6e2"/>
  <path id="Path_1392" data-name="Path 1392" d="M17.61,8a9.61,9.61,0,1,0,9.61,9.61A9.621,9.621,0,0,0,17.61,8Zm3.539,12.017a.8.8,0,1,1-1.132,1.133L17.61,18.743,15.2,21.15a.8.8,0,0,1-1.132-1.133l2.406-2.407L14.07,15.2A.8.8,0,1,1,15.2,14.07l2.407,2.407,2.407-2.407A.8.8,0,0,1,21.15,15.2L18.743,17.61Z" transform="translate(1.61 1.61)" fill="#fc573b"/>
</svg>
