<svg xmlns="http://www.w3.org/2000/svg" width="161.073" height="109.001" viewBox="0 0 161.073 109.001">
  <g id="dollar" transform="translate(0 -78.624)">
    <path id="Path_14672" data-name="Path 14672" d="M336.844,317.919v18.339c0,6.228-16.609,11.419-37.024,11.419s-36.678-5.017-36.678-11.246v-2.076l-.346-14.533h.173c2.768,5.363,17.993,9.516,36.332,9.516s37.2-5.19,37.2-11.419h.346Z" transform="translate(-175.771 -160.052)" fill="#e2a63b"/>
    <path id="Path_14673" data-name="Path 14673" d="M220.507,112.074V130.24h-.346c0,6.4-17.128,11.419-37.37,11.419a88.791,88.791,0,0,1-23.356-2.6l-.346.346a40.424,40.424,0,0,0-12.8-7.093v-.346l-.519-19.2c1.211,5.882,17.3,10.553,36.851,10.553s37.543-5.017,37.543-11.246Z" transform="translate(-97.496 -22.373)" fill="#f4b844"/>
    <path id="Path_14674" data-name="Path 14674" d="M220.508,90.047h0c0,6.228-17.128,11.246-37.543,11.246s-35.813-4.671-37.024-10.553c0-.173-.173-.519-.173-.692,0-6.228,16.609-11.419,37.2-11.419C203.553,78.456,220.508,83.646,220.508,90.047Z" transform="translate(-97.497 0)" fill="#fedb41"/>
    <path id="Path_14675" data-name="Path 14675" d="M262.27,283.48h0l-.173-3.806-.346-15.571c1.211,5.882,17.3,10.553,36.851,10.553s36.851-5.017,37.37-11.073h.173v17.993H335.8c0,6.228-16.782,11.419-37.2,11.419S265.038,288.844,262.27,283.48Z" transform="translate(-175.072 -123.71)" fill="#f4b844"/>
    <path id="Path_14676" data-name="Path 14676" d="M188.608,326.522a37.122,37.122,0,0,0,10.207-15.917h.865c3.806.346,7.612.519,11.765.519h1.73v3.806l.346,14.533h-1.9a89.644,89.644,0,0,1-22.491-2.422Z" transform="translate(-126.15 -155.16)" fill="#e2a63b"/>
    <path id="Path_14677" data-name="Path 14677" d="M234.315,256.43v.865l.346,16.09h-1.73c-4.325,0-8.3-.173-12.111-.519h-.865a35.505,35.505,0,0,0,1.73-11.246,35.015,35.015,0,0,0-.865-7.439h.865c3.633.346,7.266.519,11.246.519l1.557.865A1.881,1.881,0,0,0,234.315,256.43Z" transform="translate(-147.117 -117.421)" fill="#f4b844"/>
    <path id="Path_14678" data-name="Path 14678" d="M186.343,175.755a88.79,88.79,0,0,0,23.356,2.6c20.242,0,37.37-5.017,37.37-11.419h.346v20.415c-18.858,0-34.256,4.5-36.159,10.207l-1.557-.865q-5.709,0-10.9-.519h-.865A34.921,34.921,0,0,0,186,175.927Z" transform="translate(-124.404 -59.064)" fill="#e2a63b"/>
    <g id="Group_12650" data-name="Group 12650" transform="translate(0 107.52)">
      <path id="Path_14679" data-name="Path 14679" d="M73.876,195.469h0a37.868,37.868,0,0,0-12.284-20.588,32.875,32.875,0,0,0-13.149-7.266,33.42,33.42,0,0,0-10.9-1.73,37.2,37.2,0,1,0-.692,74.393,37.95,37.95,0,0,0,25.605-9.862A37.571,37.571,0,0,0,72.838,213.98a34.455,34.455,0,0,0,1.73-11.073C74.569,200.486,73.876,197.891,73.876,195.469Z" transform="translate(0 -165.883)" fill="#fedb41"/>
      <path id="Path_14680" data-name="Path 14680" d="M335.972,239.826v.346c-.519,6.055-17.3,11.073-37.37,11.073s-35.64-4.671-36.851-10.553v-.865a2.2,2.2,0,0,1,.173-1.038c1.9-5.709,17.3-10.207,36.159-10.207h.519C319.017,228.581,335.972,233.6,335.972,239.826Z" transform="translate(-175.072 -207.818)" fill="#fedb41"/>
    </g>
  </g>
</svg>
