<svg id="_003-facebook" data-name="003-facebook" xmlns="http://www.w3.org/2000/svg" width="33" height="33" viewBox="0 0 33 33">
  <path id="Path_1779" data-name="Path 1779" d="M291.269,508.668q-.206.034-.414.062Q291.063,508.7,291.269,508.668Zm0,0" transform="translate(-272.109 -475.883)"/>
  <path id="Path_1780" data-name="Path 1780" d="M299.537,507.793l-.2.034Zm0,0" transform="translate(-280.046 -475.064)"/>
  <path id="Path_1781" data-name="Path 1781" d="M278.095,510.34q-.241.027-.485.048Q277.853,510.367,278.095,510.34Zm0,0" transform="translate(-259.717 -477.447)"/>
  <path id="Path_1782" data-name="Path 1782" d="M286.678,509.738l-.233.029Zm0,0" transform="translate(-267.983 -476.884)"/>
  <path id="Path_1783" data-name="Path 1783" d="M306.838,506.41l-.174.037Zm0,0" transform="translate(-286.898 -473.77)"/>
  <path id="Path_1784" data-name="Path 1784" d="M324.625,502.113l-.141.039Zm0,0" transform="translate(-303.57 -469.75)"/>
  <path id="Path_1785" data-name="Path 1785" d="M319.212,503.543l-.153.04Zm0,0" transform="translate(-298.495 -471.088)"/>
  <path id="Path_1786" data-name="Path 1786" d="M312.229,505.254l-.163.036Zm0,0" transform="translate(-291.953 -472.689)"/>
  <path id="Path_1787" data-name="Path 1787" d="M273.741,511.09l-.261.02Zm0,0" transform="translate(-255.853 -478.149)"/>
  <path id="Path_1788" data-name="Path 1788" d="M33,16.5A16.5,16.5,0,1,0,16.5,33c.1,0,.193,0,.29,0V20.152H13.245V16.02H16.79V12.98c0-3.526,2.152-5.445,5.3-5.445a29.181,29.181,0,0,1,3.178.162v3.685H23.1c-1.711,0-2.042.813-2.042,2.006V16.02h4.091l-.533,4.131H21.055V32.363A16.509,16.509,0,0,0,33,16.5Zm0,0"/>
  <path id="Path_1789" data-name="Path 1789" d="M265.408,511.43q-.258.017-.517.026Q265.15,511.447,265.408,511.43Zm0,0" transform="translate(-247.818 -478.467)"/>
  <path id="Path_1790" data-name="Path 1790" d="M260.778,511.836l-.274.007Zm0,0" transform="translate(-243.714 -478.847)"/>
</svg>
