<svg id="fan_1_" data-name="fan (1)" xmlns="http://www.w3.org/2000/svg" width="32.394" height="39.337" viewBox="0 0 32.394 39.337">
  <g id="Group_12172" data-name="Group 12172" transform="translate(0 0)">
    <g id="Group_12171" data-name="Group 12171">
      <path id="Path_10344" data-name="Path 10344" d="M74.283,14.214A16.2,16.2,0,1,0,56.227,32.27v3.1H51.6a1.983,1.983,0,0,0-1.983,1.983v1.983H66.8V37.354a1.983,1.983,0,0,0-1.983-1.983H60.193v-3.1A16.2,16.2,0,0,0,74.283,14.214ZM64.82,36.693a.661.661,0,0,1,.661.661v.661H50.938v-.661a.661.661,0,0,1,.661-.661Zm-7.271-1.322V32.727h1.322v2.644Zm.661-4.3A14.873,14.873,0,1,1,73.083,16.2,14.873,14.873,0,0,1,58.21,31.074Z" transform="translate(-42.013 0)"/>
      <path id="Path_10345" data-name="Path 10345" d="M97.8,43.269V41.947a.661.661,0,0,0-.661-.661H89.407a7.266,7.266,0,0,0-4.17-13.221H83.915a.661.661,0,0,0-.661.661v7.729a7.266,7.266,0,0,0-13.221,4.17v1.322a.661.661,0,0,0,.661.661h7.729a7.266,7.266,0,0,0,4.17,13.221h1.322a.661.661,0,0,0,.661-.661V47.439A7.266,7.266,0,0,0,97.8,43.269ZM84.576,29.387h.661A5.949,5.949,0,0,1,87.064,41a3.305,3.305,0,0,0-2.488-2.288Zm-13.221,11.9v-.661A5.949,5.949,0,0,1,82.963,38.8a3.305,3.305,0,0,0-2.287,2.487Zm11.9,13.221h-.661A5.949,5.949,0,0,1,80.766,42.9a3.305,3.305,0,0,0,2.488,2.288Zm.661-10.577A1.983,1.983,0,1,1,85.9,41.947,1.983,1.983,0,0,1,83.915,43.93Zm6.6,5.277A5.949,5.949,0,0,1,84.867,45.1a3.305,3.305,0,0,0,2.287-2.487h9.321v.661A5.949,5.949,0,0,1,90.514,49.207Z" transform="translate(-67.718 -25.746)"/>
    </g>
  </g>
</svg>
