<svg xmlns="http://www.w3.org/2000/svg" xmlns:xlink="http://www.w3.org/1999/xlink" width="150" height="111" viewBox="0 0 150 111">
  <defs>
    <filter id="Rectangle_26475" x="-66" y="-46" width="282" height="243" filterUnits="userSpaceOnUse">
      <feOffset dy="20" input="SourceAlpha"/>
      <feGaussianBlur stdDeviation="22" result="blur"/>
      <feFlood flood-opacity="0.161"/>
      <feComposite operator="in" in2="blur"/>
      <feComposite in="SourceGraphic"/>
    </filter>
    <clipPath id="clip-path">
      <g transform="matrix(1, 0, 0, 1, 0, 0)" filter="url(#Rectangle_26475)">
        <rect id="Rectangle_26475-2" data-name="Rectangle 26475" width="150" height="111" rx="25" transform="translate(0)" fill="#fff"/>
      </g>
    </clipPath>
  </defs>
  <g id="Mask_Group_50" data-name="Mask Group 50" transform="translate(0)" clip-path="url(#clip-path)">
    <g id="Group_12144" data-name="Group 12144" transform="translate(28.991 10.128)">
      <g id="Body" transform="translate(4.194 18.996)">
        <g id="Top_color:" data-name="Top color:" transform="translate(0.853 56.846)">
          <path id="Top_color:-2" data-name="Top color:" d="M0,30.2v-.629c.112-.5.23-.988.339-1.461.19-.763.383-1.526.579-2.224.075-.267.149-.53.22-.79.054-.191.108-.381.163-.557.149-.5.3-.992.447-1.461q.5-1.579,1.016-2.907c.085-.225.169-.446.254-.66l.051-.126c.183-.473.369-.915.556-1.335A23.936,23.936,0,0,1,5.5,14.483c.02-.034.044-.065.061-.1.186-.275.366-.523.539-.736l.02-.027c.163-.206.339-.4.508-.6a23.493,23.493,0,0,1,3.587-3.307l.393-.294q.3-.221.61-.435.752-.526,1.548-1.022c.877-.549,1.785-1.068,2.71-1.56,1.118-.6,2.256-1.144,3.387-1.663l.769-.343c.22-.1.444-.195.677-.286.989-.423,1.971-.812,2.93-1.175,1.856-.7,3.614-1.289,5.166-1.774C30.012.664,31.387.275,32.4,0a.859.859,0,0,0,0,.16c.173,1.232,2.371,2.289,5.467,2.777a25.707,25.707,0,0,0,3.939.309h.237a25.708,25.708,0,0,0,3.939-.309c3.12-.5,5.318-1.556,5.471-2.8a.99.99,0,0,0,0-.141c1.016.278,2.405.668,4.021,1.171,1.545.481,3.292,1.068,5.139,1.766Q62.371,3.6,64.207,4.4q.932.4,1.86.851l.708.339.569.282c1.277.648,2.534,1.343,3.726,2.094.745.465,1.47.95,2.161,1.457l.193.145a11.877,11.877,0,0,1,.976.763A22.607,22.607,0,0,1,77.207,13q.274.309.528.629a9.69,9.69,0,0,1,.583.809v.023c.156.236.318.5.478.763a27.306,27.306,0,0,1,1.4,2.792c.2.458.4.942.606,1.461q.193.492.386,1.018c.1.263.193.534.291.812q.288.824.579,1.736c.149.469.3.957.447,1.461q.257.889.518,1.846c.071.271.146.545.217.824s.152.6.227.9c.119.473.443,1.625.548,2.125C82.472,30.2,1.443,30.211,0,30.2Z" transform="translate(0)" fill="#f66"/>
          <path id="Top_color:-3" data-name="Top color:" d="M0,30.2v-.629c.112-.5.23-.988.339-1.461.19-.763.383-1.526.579-2.224.075-.267.149-.53.22-.79.054-.191.108-.381.163-.557.149-.5.3-.992.447-1.461q.5-1.579,1.016-2.907c.085-.225.169-.446.254-.66l.051-.126c.183-.473.369-.915.556-1.335A23.936,23.936,0,0,1,5.5,14.483c.02-.034.044-.065.061-.1.186-.275.366-.523.539-.736l.02-.027c.163-.206.339-.4.508-.6a23.493,23.493,0,0,1,3.587-3.307l.393-.294q.3-.221.61-.435.752-.526,1.548-1.022c.877-.549,1.785-1.068,2.71-1.56,1.118-.6,2.256-1.144,3.387-1.663l.769-.343c.22-.1.444-.195.677-.286.989-.423,1.971-.812,2.93-1.175,1.856-.7,3.614-1.289,5.166-1.774C30.012.664,31.387.275,32.4,0a.859.859,0,0,0,0,.16c.173,1.232,2.371,2.289,5.467,2.777a25.707,25.707,0,0,0,3.939.309h.237a25.708,25.708,0,0,0,3.939-.309c3.12-.5,5.318-1.556,5.471-2.8a.99.99,0,0,0,0-.141c1.016.278,2.405.668,4.021,1.171,1.545.481,3.292,1.068,5.139,1.766Q62.371,3.6,64.207,4.4q.932.4,1.86.851l.708.339.569.282c1.277.648,2.534,1.343,3.726,2.094.745.465,1.47.95,2.161,1.457l.193.145a11.877,11.877,0,0,1,.976.763A22.607,22.607,0,0,1,77.207,13q.274.309.528.629a9.69,9.69,0,0,1,.583.809v.023c.156.236.318.5.478.763a27.306,27.306,0,0,1,1.4,2.792c.2.458.4.942.606,1.461q.193.492.386,1.018c.1.263.193.534.291.812q.288.824.579,1.736c.149.469.3.957.447,1.461q.257.889.518,1.846c.071.271.146.545.217.824s.152.6.227.9c.119.473.443,1.625.548,2.125C82.472,30.2,1.443,30.211,0,30.2Z" transform="translate(0)" fill="rgba(255,255,255,0.09)"/>
        </g>
        <path id="Light_layer" data-name="Light layer" d="M27.092,1.175a8.878,8.878,0,0,1-4.031,3.433,18.263,18.263,0,0,1-4.783,1.43,30.12,30.12,0,0,1-9.461,0A18.389,18.389,0,0,1,4.007,4.6,8.846,8.846,0,0,1,0,1.163C1.606.664,2.981.275,3.994,0a.859.859,0,0,0,0,.16c.173,1.232,2.371,2.289,5.467,2.777a25.708,25.708,0,0,0,3.939.309h.237a25.708,25.708,0,0,0,3.939-.309c3.12-.5,5.318-1.556,5.471-2.8a.992.992,0,0,0,0-.141C24.091.282,25.476.671,27.092,1.175Z" transform="translate(29.252 56.838)" fill="#fff" opacity="0.4" style="mix-blend-mode: soft-light;isolation: isolate"/>
        <path id="Skin_color:" data-name="Skin color:" d="M20.62,59.348a25.73,25.73,0,0,1-3.939-.309c-3.1-.492-5.294-1.545-5.467-2.777V43.625a16.906,16.906,0,0,0,2.862,2.7,10.947,10.947,0,0,0,6.331,2.288h.678a10.932,10.932,0,0,0,6.331-2.288,16.815,16.815,0,0,0,2.264-2.041,16.779,16.779,0,0,1-2.261,2.025A10.933,10.933,0,0,1,21.088,48.6H20.41a10.948,10.948,0,0,1-6.331-2.289,16.892,16.892,0,0,1-2.862-2.7,26.9,26.9,0,0,1-4.631-8.3l-.21-.591c-.11-.323-.22-.657-.333-.988a4.449,4.449,0,0,1-5.1-2.175c-1.694-2.9-.921-6.076.854-7.026a2.986,2.986,0,0,1,2.476-.169v-.022C4.046,21.562,3.7,13.491,6.6,8.2A15.211,15.211,0,0,1,20.756,0,15.207,15.207,0,0,1,34.908,8.2c2.9,5.314,2.554,13.373,2.33,16.165v.009a2.98,2.98,0,0,1,2.469.171c1.782.938,2.541,4.112.861,7.015a4.45,4.45,0,0,1-5.112,2.171c-.107.332-.218.667-.335.991l-.21.591a26.876,26.876,0,0,1-4.627,8.292l-.017.02V56.242c-.152,1.24-2.351,2.289-5.471,2.8a25.73,25.73,0,0,1-3.939.309ZM4.307,24.843c.01.118,0,.1.017.149s0,.168.024.225a.217.217,0,0,1,0,.129,1.7,1.7,0,0,0,.03.321q.034.382.081.79c.027.248.058.492.088.732a1.725,1.725,0,0,0,.041.29q.031.255.071.5c.034.237.071.469.108.7l.02.118c.03.179.061.351.1.522s.064.355.1.527.051.252.078.381.081.358.122.53.105.423.159.625q.11.383.223.761-.107-.388-.209-.784c-.054-.2-.109-.412-.159-.626s-.081-.351-.122-.53c-.027-.122-.054-.248-.078-.381s-.071-.347-.1-.526-.068-.343-.1-.523l-.02-.118c-.037-.229-.075-.462-.109-.7q-.041-.248-.071-.5c-.017-.1-.027-.195-.041-.29-.03-.24-.061-.484-.088-.732s-.058-.522-.081-.79c0-.107-.02-.214-.027-.32a.739.739,0,0,0-.017-.13c-.017-.084,0-.134-.024-.225s0-.1-.017-.149l0-.013Zm-.017-.167c0-.06-.008-.13-.013-.2C4.277,24.547,4.283,24.612,4.289,24.675Z" transform="translate(22.032 0.741)" fill="#ffd6cb"/>
        <path id="Path" d="M17.678.008V11.184C9.237,11.333,2.984,6.439,0,3.513V0A15.553,15.553,0,0,0,2.178,1.945,10.97,10.97,0,0,0,8.509,4.234h.677a10.97,10.97,0,0,0,6.331-2.289A15.947,15.947,0,0,0,17.678.008Z" transform="translate(33.943 45.124)" fill="#7c3830" opacity="0.15" style="mix-blend-mode: multiply;isolation: isolate"/>
        <path id="Combined_Shape" data-name="Combined Shape" d="M85.514,87.049c-1.146,0-82.069,0-85.514,0,.057-.26.914-3.863,1.114-4.577l.217-.79c.064-.221.116-.4.169-.572.136-.461.283-.944.451-1.476.36-1.13.692-2.094,1.016-2.949.075-.2.164-.44.258-.671l.051-.129.029-.074c.159-.412.323-.838.541-1.288a24.653,24.653,0,0,1,1.938-3.681l.034-.05a.264.264,0,0,1,.034-.053c.213-.318.4-.575.576-.786l.024-.034c.068-.085.141-.169.219-.256.1-.113.2-.23.306-.365a24.2,24.2,0,0,1,3.692-3.368c.114-.09.249-.192.4-.3.183-.138.387-.284.623-.446.473-.33.986-.668,1.568-1.034.807-.509,1.733-1.042,2.75-1.583,1.1-.588,2.251-1.153,3.431-1.682.313-.144.552-.251.776-.347l.231-.1c.156-.069.291-.127.447-.19.929-.39,1.926-.782,2.95-1.182,1.65-.624,3.351-1.208,5.2-1.785,1.26-.39,2.425-.733,3.547-1.042V44.671A27.836,27.836,0,0,1,28,36.355l-.21-.595c-.049-.141-.1-.287-.151-.446a5.476,5.476,0,0,1-.767.076h-.114a4.747,4.747,0,0,1-2.478-.71,5.5,5.5,0,0,1-1.877-1.961,7.245,7.245,0,0,1-.86-5.34,4.3,4.3,0,0,1,1.992-2.811,3.636,3.636,0,0,1,1.712-.436,3.545,3.545,0,0,1,.373.02c-.214-3.635-.2-10.674,2.491-15.593a15.791,15.791,0,0,1,7.236-7.04A16.963,16.963,0,0,1,42.448,0c.122,0,.246,0,.367,0s.233,0,.349,0a16.949,16.949,0,0,1,7.079,1.515,15.99,15.99,0,0,1,7.289,7.048c2.686,4.908,2.7,11.961,2.493,15.6q.14-.011.281-.011a3.626,3.626,0,0,1,1.71.436A4.312,4.312,0,0,1,64.012,27.4a7.268,7.268,0,0,1-.864,5.34,5.491,5.491,0,0,1-1.874,1.947,4.75,4.75,0,0,1-2.469.705H58.7a5.467,5.467,0,0,1-.733-.052c-.045.136-.091.273-.137.407l-.213.6a27.79,27.79,0,0,1-4.637,8.375V56.247c.989.274,2.155.608,3.516,1.034,1.815.565,3.555,1.163,5.173,1.778,1.308.495,2.493.976,3.624,1.472.707.31,1.3.583,1.88.858l.529.255.18.088.579.286c1.386.7,2.625,1.4,3.787,2.121.828.519,1.55,1.006,2.205,1.487.039.027.082.06.127.094l.077.058c.307.223.64.48.989.763a23.422,23.422,0,0,1,2.9,2.754c.2.225.4.469.552.656.185.228.4.521.61.847l.027.038c.109.167.206.328.3.484v0c.069.114.134.221.2.331a29.427,29.427,0,0,1,1.44,2.864c.189.438.391.926.616,1.491.16.406.281.726.393,1.038.081.215.168.453.264.728l.03.1c.2.566.409,1.2.589,1.758.168.533.316,1.016.451,1.476.095.321.183.642.277.981.079.286.161.582.248.884l.078.294c.006.023.583,2.321.687,2.769l.209,1.015h0ZM24.3,60.526c-1.049.4-2,.779-2.906,1.163-.189.079-.39.166-.651.283l-.168.075-.007,0c-.188.083-.4.177-.59.265-1.122.5-2.253,1.053-3.36,1.644-.931.5-1.829,1.01-2.669,1.526-.568.356-1.065.684-1.521,1-.2.138-.394.278-.58.414l-.013.009-.386.286a23.019,23.019,0,0,0-3.482,3.177l-.011.013c-.162.183-.331.373-.47.56l-.051.061c-.112.136-.249.331-.408.556l-.059.084-.041.065-.027.042a22.779,22.779,0,0,0-1.812,3.433c-.2.449-.379.875-.542,1.3l-.054.137c-.069.174-.159.4-.247.641-.366.94-.7,1.9-.992,2.869-.153.473-.3.974-.444,1.446-.039.13-.076.257-.115.393l-.044.153-.22.786-.105.38v0c-.184.662-.436,1.569-.6,2.22l8.693.007,12.674.01h.034c22.1.018,55.5.045,60.093.045h.52c-.026-.11-.105-.492-.19-.9l0-.007c-.088-.422-.179-.859-.2-.95l-.078-.294c-.168-.627-.341-1.24-.515-1.823s-.311-1.042-.441-1.442c-.186-.585-.379-1.161-.573-1.713l-.03-.092c-.092-.262-.175-.493-.254-.706-.141-.384-.262-.7-.383-1.007-.229-.576-.417-1.031-.593-1.431a26.92,26.92,0,0,0-1.355-2.708c-.112-.193-.264-.45-.447-.725l-.03-.042A8.363,8.363,0,0,0,78.114,71c-.161-.207-.329-.4-.492-.588l-.016-.019A21.98,21.98,0,0,0,74.9,67.8c-.3-.247-.622-.493-.948-.732l-.186-.137c-.641-.469-1.338-.939-2.131-1.438-1.116-.7-2.321-1.374-3.685-2.064l-.555-.278-.183-.088-.518-.248c-.581-.278-1.185-.554-1.846-.843-1.112-.489-2.278-.963-3.563-1.45-1.518-.573-3.084-1.116-4.663-1.616a9.835,9.835,0,0,1-4.046,3.256,19,19,0,0,1-4.942,1.48,29.655,29.655,0,0,1-4.613.363h-.295a29.726,29.726,0,0,1-4.736-.381,18.914,18.914,0,0,1-4.993-1.5A9.837,9.837,0,0,1,28.986,58.9C27.319,59.432,25.781,59.965,24.3,60.526Zm9.237.2a17.841,17.841,0,0,0,4.648,1.388,29.449,29.449,0,0,0,9.261,0,17.682,17.682,0,0,0,4.62-1.377,8.9,8.9,0,0,0,3.113-2.273c-.912-.277-1.724-.515-2.389-.687q-.048.095-.1.186c-1.031,1.68-4.339,2.369-5.751,2.591a26.214,26.214,0,0,1-4.031.317h-.241a26.3,26.3,0,0,1-4.034-.317,16.548,16.548,0,0,1-3.165-.805,4.662,4.662,0,0,1-2.678-1.976c-.765.213-1.549.44-2.341.679A8.921,8.921,0,0,0,33.537,60.729Zm.4-3.814c.081.321.572.726,1.312,1.082a12.925,12.925,0,0,0,3.573,1.016,24.956,24.956,0,0,0,3.848.3H42.9a24.915,24.915,0,0,0,3.845-.3,15.731,15.731,0,0,0,2.58-.614c1.493-.513,2.232-1.124,2.281-1.519a.9.9,0,0,1,.027-.216V46.187A17.293,17.293,0,0,1,49.864,47.7a11.62,11.62,0,0,1-5.649,2.333q-.547.07-1.1.085h-.688a11.2,11.2,0,0,1-1.687-.18l-.017,0-.027-.005-.036-.007h-.008a11.759,11.759,0,0,1-4.9-2.211,16.4,16.4,0,0,1-1.815-1.556Zm9.176-8.323a10.217,10.217,0,0,0,5.962-2.163,16.048,16.048,0,0,0,2.744-2.594.718.718,0,0,1,.083-.08,26.272,26.272,0,0,0,4.423-7.972l.21-.587L56.6,35c.081-.243.165-.5.245-.746v-.038c.2-.616.373-1.2.532-1.785l.013-.041c.047-.164.091-.328.136-.489.052-.186.1-.364.146-.569v-.042l.038-.163c.032-.137.066-.279.1-.432v-.034c.032-.147.062-.3.09-.446q.021-.107.042-.214c.049-.247.091-.481.125-.694.081-.483.155-.972.22-1.453.073-.547.127-1.056.173-1.526l.02-.29a.462.462,0,0,1,0-.065s.041-.315.088-.828h.01v0l.607.017-.618-.059v-.05c.193-2.37.6-10.5-2.229-15.673A14.582,14.582,0,0,0,43.09,1.535l-.3,0-.305,0A14.626,14.626,0,0,0,29.195,9.372c-2.759,5.035-2.437,12.9-2.24,15.488a.859.859,0,0,1,.031.231,2.277,2.277,0,0,0,.02.279c0,.037.009.071.011.1v.135l.037.353a.479.479,0,0,1,0,.072,1.758,1.758,0,0,0,.013.183c0,.036.008.072.01.107.024.271.052.527.081.763.014.108.027.22.04.328.016.131.032.266.048.393v.1a.344.344,0,0,0,.024.152.063.063,0,0,1,.01.034.007.007,0,0,1,0,0,.008.008,0,0,0-.005.008c.017.161.041.319.064.465s.041.269.061.4c.016.1.032.205.047.306l.02.107c.026.163.055.323.091.488V29.9c.028.175.064.345.095.488.016.074.028.135.04.195s.024.124.038.186l.031.144c.03.14.059.272.087.375.019.071.046.179.074.294s.054.217.078.309c.222.827.45,1.607.677,2.319l.061.038.1.3c.07.214.143.435.215.645.049.142.1.278.15.422l0,0,.055.153a26.269,26.269,0,0,0,4.435,7.987.707.707,0,0,1,.067.07,16.075,16.075,0,0,0,2.74,2.59,10.323,10.323,0,0,0,5.674,2.151q.139.008.278.012ZM58.755,33.883A3.822,3.822,0,0,0,62.031,31.9a5.588,5.588,0,0,0,.678-4.074,2.821,2.821,0,0,0-1.27-1.846,2.35,2.35,0,0,0-1.118-.287,2.3,2.3,0,0,0-.4.036c-.024.242-.044.393-.051.442l-.02.286c-.067.7-.123,1.2-.183,1.621l-.019.131c-.063.444-.134.947-.208,1.395-.038.232-.08.474-.132.74l-.013.068c-.041.21-.076.391-.119.585v.038l-.032.146a1.449,1.449,0,0,0,1.14-.715,1.873,1.873,0,0,0,.139-1.732.411.411,0,0,1,.1-.527.317.317,0,0,1,.468.115,2.749,2.749,0,0,1-.059,2.423,2.163,2.163,0,0,1-1.868,1.2l.014.008q-.057,0-.114,0c-.029.119-.062.246-.1.383-.055.2-.1.376-.162.564-.083.306-.177.631-.279.971C58.529,33.877,58.642,33.883,58.755,33.883ZM24.117,25.964a2.819,2.819,0,0,0-1.267,1.846,5.564,5.564,0,0,0,.677,4.074A3.819,3.819,0,0,0,26.8,33.872a3.568,3.568,0,0,0,.363-.019c-.142-.475-.283-.975-.43-1.526l-.036-.138v0l-.062-.239a1.579,1.579,0,0,1-.173.006,2.164,2.164,0,0,1-1.868-1.2,2.748,2.748,0,0,1-.059-2.423A.317.317,0,0,1,25,28.211a.411.411,0,0,1,.1.526,1.874,1.874,0,0,0,.135,1.728,1.434,1.434,0,0,0,1.216.721l0-.015v-.042c-.016-.077-.032-.152-.048-.225-.012-.055-.023-.107-.034-.156-.026-.126-.069-.343-.1-.522-.017-.094-.034-.185-.051-.273s-.034-.177-.051-.269l-.017-.111-.015-.091c-.036-.218-.071-.424-.1-.634-.024-.152-.051-.329-.071-.5l-.03-.206v-.088c-.038-.286-.067-.528-.091-.763-.006-.061-.013-.122-.02-.184-.022-.2-.044-.411-.062-.621-.015-.106-.025-.211-.03-.313a.544.544,0,0,0-.017-.145.357.357,0,0,1-.009-.091.452.452,0,0,0-.012-.111v-.088a2.224,2.224,0,0,0-.464-.057A2.369,2.369,0,0,0,24.117,25.964Z" transform="translate(0 0)" fill="#372168"/>
      </g>
      <g id="Cheeks_color:" data-name="Cheeks color:" transform="translate(34.381 48.362)">
        <rect id="Setup_03_Face_Cheek_Ñheek_01_background" data-name="Setup/#03 Face/Cheek/Ñheek#01 background" width="25.066" height="8.01" transform="translate(0 0.271)" fill="none"/>
        <path id="Cheeks_color:-2" data-name="Cheeks color:" d="M18.292,3.814A3.62,3.62,0,0,1,21.679,0a3.62,3.62,0,0,1,3.387,3.814,3.62,3.62,0,0,1-3.387,3.814A3.62,3.62,0,0,1,18.292,3.814ZM0,3.814A3.62,3.62,0,0,1,3.387,0,3.62,3.62,0,0,1,6.775,3.814,3.62,3.62,0,0,1,3.387,7.629,3.62,3.62,0,0,1,0,3.814Z" transform="translate(0 0)" fill="#ff1300" opacity="0.15" style="mix-blend-mode: multiply;isolation: isolate"/>
      </g>
      <g id="Emotions" transform="translate(35.059 39.479)">
        <rect id="Setup_01_Emotions_smile_background" data-name="Setup/#01 Emotions/smile background" width="23.711" height="21.361" fill="none"/>
        <g id="Face">
          <g id="Mouth" transform="translate(0 13.732)">
            <rect id="Setup_03_Face_Mouth_smile_mouth_background" data-name="Setup/#03 Face/Mouth/smile_mouth background" width="23.711" height="7.629" fill="none"/>
            <g id="smile_mouth" transform="translate(8.263 1.209)">
              <path id="Path-2" data-name="Path" d="M3.572,2.56A4.445,4.445,0,0,1,.161,1.126.73.73,0,0,1,.025.476.629.629,0,0,1,.457.018.552.552,0,0,1,1.025.21,3.357,3.357,0,0,0,3.572,1.225,3.32,3.32,0,0,0,6.12.21.552.552,0,0,1,6.687.018a.629.629,0,0,1,.432.458.73.73,0,0,1-.136.65A4.455,4.455,0,0,1,3.572,2.56Z" transform="translate(0 0)" fill="#372168"/>
              <path id="Path-3" data-name="Path" d="M2.148.763H.339A.362.362,0,0,1,0,.381.362.362,0,0,1,.339,0H2.148a.362.362,0,0,1,.339.381A.362.362,0,0,1,2.148.763Z" transform="translate(2.329 3.616)" fill="#372168"/>
            </g>
          </g>
          <g id="Nose" transform="translate(0 9.536)">
            <rect id="Setup_03_Face_Nose_background" data-name="Setup/#03 Face/Nose background" width="23.711" height="3.052" fill="none"/>
            <g id="_Nose" data-name="ðŸ‘ƒNose" transform="translate(9.899 0.821)">
              <path id="Path-4" data-name="Path" d="M1.948,2.149A2.147,2.147,0,0,1,.1,1.066.72.72,0,0,1,.271.143a.554.554,0,0,1,.82.2,1.039,1.039,0,0,0,.865.474A1.044,1.044,0,0,0,2.812.322.558.558,0,0,1,3.628.1a.719.719,0,0,1,.2.919,2.136,2.136,0,0,1-1.88,1.133Z" transform="translate(0)" fill="#372168"/>
            </g>
          </g>
          <g id="Eyes" transform="translate(0 4.577)">
            <rect id="Setup_03_Face_Eyes_eyes-8_background" data-name="Setup/#03 Face/Eyes/eyes-8 background" width="23.711" height="3.814" fill="none"/>
            <g id="silly_eyes" transform="translate(3.895 0.706)">
              <path id="Path-5" data-name="Path" d="M1.131,2.632c1.5,0,1.507-2.632,0-2.632S-.377,2.632,1.131,2.632Z" transform="translate(0)" fill="#372168"/>
              <path id="Path-6" data-name="Path" d="M1.129,2.632c1.5,0,1.5-2.632,0-2.632S-.378,2.632,1.129,2.632Z" transform="translate(13.879)" fill="#372168"/>
            </g>
          </g>
          <g id="Eyebrows">
            <rect id="Setup_03_Face_Eyebrow_simple_background" data-name="Setup/#03 Face/Eyebrow/simple background" width="23.711" height="4.577" fill="none"/>
            <g id="smile_eyebrows_" transform="translate(1.376 1.049)">
              <path id="Path-7" data-name="Path" d="M6.719,2.307a.617.617,0,0,1-.312-.084,5.851,5.851,0,0,0-5.42,0,.643.643,0,0,1-.913-.33A.812.812,0,0,1,.368.865a7.017,7.017,0,0,1,6.673,0,.8.8,0,0,1,.35.858.7.7,0,0,1-.658.584Z" transform="translate(0 0.001)" fill="#372168"/>
              <path id="Path-8" data-name="Path" d="M6.732,2.308a.617.617,0,0,1-.308-.084,5.849,5.849,0,0,0-5.42,0A.613.613,0,0,1,.315,2.2.8.8,0,0,1,0,1.509.769.769,0,0,1,.387.866a7.006,7.006,0,0,1,6.673,0,.8.8,0,0,1,.348.869A.694.694,0,0,1,6.732,2.308Z" transform="translate(13.737 0)" fill="#372168"/>
            </g>
          </g>
        </g>
      </g>
      <g id="_4_hairdo" transform="translate(12.712 6.851)">
        <g id="Hair_color:" data-name="Hair color:" transform="translate(0.681 0.776)">
          <path id="Hair_color:-2" data-name="Hair color:" d="M7.287,57.687c-9.1.336-6.565-8.735-6.565-8.735C-3,38.2,8.8,37.326,10.719,24.09,11.911,15.858,15.6.974,26.083.059A11.308,11.308,0,0,1,37.157,5.227,14.6,14.6,0,0,1,38.579,8.02a19.332,19.332,0,0,0-10.321-.061A18.422,18.422,0,0,0,16.446,17.7,18.614,18.614,0,0,1,33.309,7.291a19.162,19.162,0,0,1,5.267.732,17.981,17.981,0,0,1,13.285,17.13V36.921a2.989,2.989,0,0,0-2.093,0L45.94,23.262a23.217,23.217,0,0,1-.779,5.962,1.059,1.059,0,0,1-.969.755H22.666a1.05,1.05,0,0,1-.962-.706,23.657,23.657,0,0,1-.958-6.69L17.28,35.464l-.43,1.457a2.989,2.989,0,0,0-2.093,0v0a2.877,2.877,0,0,0-.383.17c-1.775.95-2.534,4.123-.854,7.026a4.433,4.433,0,0,0,4.709,2.254c.047,4.452-.542,8.773-2.737,11.317-1.61,1.864-3.058,2.485-4.274,2.485C8.787,60.172,7.287,57.687,7.287,57.687Zm9.145-39.958.006-.012Z" transform="translate(0 0)" fill="#a6b4f3"/>
          <path id="Hair_color:-3" data-name="Hair color:" d="M7.287,57.687c-9.1.336-6.565-8.735-6.565-8.735C-3,38.2,8.8,37.326,10.719,24.09,11.911,15.858,15.6.974,26.083.059A11.308,11.308,0,0,1,37.157,5.227,14.6,14.6,0,0,1,38.579,8.02a19.332,19.332,0,0,0-10.321-.061A18.422,18.422,0,0,0,16.446,17.7,18.614,18.614,0,0,1,33.309,7.291a19.162,19.162,0,0,1,5.267.732,17.981,17.981,0,0,1,13.285,17.13V36.921a2.989,2.989,0,0,0-2.093,0L45.94,23.262a23.217,23.217,0,0,1-.779,5.962,1.059,1.059,0,0,1-.969.755H22.666a1.05,1.05,0,0,1-.962-.706,23.657,23.657,0,0,1-.958-6.69L17.28,35.464l-.43,1.457a2.989,2.989,0,0,0-2.093,0v0a2.877,2.877,0,0,0-.383.17c-1.775.95-2.534,4.123-.854,7.026a4.433,4.433,0,0,0,4.709,2.254c.047,4.452-.542,8.773-2.737,11.317-1.61,1.864-3.058,2.485-4.274,2.485C8.787,60.172,7.287,57.687,7.287,57.687Zm9.145-39.958.006-.012Z" transform="translate(0 0)" fill="rgba(0,0,0,0.1)"/>
        </g>
        <path id="Combined_Shape-2" data-name="Combined Shape" d="M11.481,61.69a4.8,4.8,0,0,1-2.474-1.038A7.247,7.247,0,0,1,7.63,59.23H7.455c-2.756,0-4.749-.884-5.922-2.629A7.335,7.335,0,0,1,.4,52.612a12.035,12.035,0,0,1,.286-2.854c-2.016-6.1.791-9.374,3.763-12.835,2.54-2.963,5.419-6.321,6.277-12.206a64,64,0,0,1,1.331-6.7A44.15,44.15,0,0,1,14.842,10.1a21.984,21.984,0,0,1,4.724-6.769A12.938,12.938,0,0,1,22.8,1.11,11.37,11.37,0,0,1,26.7.061C27.172.021,27.638,0,28.088,0a12.044,12.044,0,0,1,6.544,1.8,12.47,12.47,0,0,1,3.741,3.739,15.167,15.167,0,0,1,1.388,2.631A18.806,18.806,0,0,1,53.237,25.942V37.709a.8.8,0,0,1-.282.621.624.624,0,0,1-.4.144.611.611,0,0,1-.217-.04,2.389,2.389,0,0,0-1.694,0,.632.632,0,0,1-.18.026h-.018a.689.689,0,0,1-.645-.53l-2.8-9.986a14.351,14.351,0,0,1-.529,2.327,1.742,1.742,0,0,1-1.612,1.243H23.335a1.723,1.723,0,0,1-1.576-1.167,14.515,14.515,0,0,1-.715-2.964l-2.432,9.044v.054l-.43,1.457a.689.689,0,0,1-.643.524.606.606,0,0,1-.2-.036,2.383,2.383,0,0,0-1.673,0,.607.607,0,0,1-.178.039c-.05.022-.1.046-.147.072a2.827,2.827,0,0,0-1.267,1.846,5.582,5.582,0,0,0,.677,4.074,3.759,3.759,0,0,0,3.34,1.969,3.827,3.827,0,0,0,.7-.062.6.6,0,0,1,.1-.009.633.633,0,0,1,.437.181.8.8,0,0,1,.241.572c.058,5.63-.9,9.509-2.93,11.859C15.1,60.789,13.5,61.713,11.9,61.713A3.885,3.885,0,0,1,11.481,61.69Zm-3.54-4.028h0l.017.03a.659.659,0,0,1,.559.335,5.808,5.808,0,0,0,.844,1,3.93,3.93,0,0,0,2.249,1.139c.093.009.187.013.281.013,1.221,0,2.494-.758,3.784-2.252,1.677-1.945,2.51-5.2,2.547-9.952-.074,0-.145,0-.212,0a4.79,4.79,0,0,1-2.49-.71,5.547,5.547,0,0,1-1.894-1.965,7.238,7.238,0,0,1-.864-5.34,4.29,4.29,0,0,1,1.992-2.811V25.907A18.774,18.774,0,0,1,28.77,7.98,20.049,20.049,0,0,1,38.014,7.7a13.726,13.726,0,0,0-.732-1.247,10.589,10.589,0,0,0-9.244-4.916c-.4,0-.816.018-1.233.053-10.383.9-13.773,16.651-14.748,23.382-.919,6.334-3.958,9.874-6.639,13l-.01.012C2.377,41.507.185,44.06,2.016,49.388c.193.411,1.023,1.773,3.324,1.122a.338.338,0,0,1,.41.278.387.387,0,0,1-.247.462,4.786,4.786,0,0,1-1.3.21A2.962,2.962,0,0,1,1.931,50.5c-.213,1.187-.429,3.514.689,5.156.905,1.338,2.534,2.016,4.84,2.016.156,0,.318,0,.481-.01Zm8.506-20.914a3.89,3.89,0,0,1,.627.053l.227-.763v-.023l3.465-12.881a.7.7,0,0,1,.649-.549.614.614,0,0,1,.1.008.743.743,0,0,1,.578.762,22.251,22.251,0,0,0,.9,6.389.367.367,0,0,0,.334.244h2.646a13.414,13.414,0,0,1,.679-8.411.36.36,0,0,1,.188-.2.3.3,0,0,1,.259.007.366.366,0,0,1,.179.211.426.426,0,0,1-.006.292,12.641,12.641,0,0,0-.57,8.1h6.688a24.1,24.1,0,0,1,.274-8.346.382.382,0,0,1,.153-.237.306.306,0,0,1,.257-.045.387.387,0,0,1,.247.462,24.058,24.058,0,0,0-.219,8.167h7.337c.857-3.5-.426-7.826-.442-7.873a.426.426,0,0,1,.017-.292.355.355,0,0,1,.2-.192.331.331,0,0,1,.43.237,18.464,18.464,0,0,1,.5,8.121h2.72a.372.372,0,0,0,.339-.26,22.5,22.5,0,0,0,.735-5.691.737.737,0,0,1,.575-.757.615.615,0,0,1,.1-.009.688.688,0,0,1,.646.537L50.9,36.8a3.537,3.537,0,0,1,.618-.055c.113,0,.228.005.341.016V25.926a17.353,17.353,0,0,0-12.774-16.4A18.634,18.634,0,0,0,34,8.815h-.018a18.344,18.344,0,0,0-10.423,3.211,16.958,16.958,0,0,0-7.449,13.881V36.748Z" transform="translate(0)" fill="#372168"/>
        <g id="Path-9" data-name="Path" transform="translate(28.94 5.337)">
          <path id="Path-10" data-name="Path" d="M9.867,2.422a.611.611,0,0,1-.041.592.464.464,0,0,1-.494.209,19.28,19.28,0,0,0-4.278-.481h0A19.408,19.408,0,0,0,.6,3.261a.453.453,0,0,1-.417-.108A.585.585,0,0,1,0,2.719H0A2.381,2.381,0,0,1,1.579.381,12.572,12.572,0,0,1,8.163.488a1.941,1.941,0,0,1,1.192.942C9.542,1.758,9.715,2.09,9.867,2.422Z" transform="translate(0 0)" fill="#f96"/>
          <path id="Path-11" data-name="Path" d="M9.867,2.422a.611.611,0,0,1-.041.592.464.464,0,0,1-.494.209,19.28,19.28,0,0,0-4.278-.481h0A19.408,19.408,0,0,0,.6,3.261a.453.453,0,0,1-.417-.108A.585.585,0,0,1,0,2.719H0A2.381,2.381,0,0,1,1.579.381,12.572,12.572,0,0,1,8.163.488a1.941,1.941,0,0,1,1.192.942C9.542,1.758,9.715,2.09,9.867,2.422Z" transform="translate(0 0)" fill="rgba(255,255,255,0.16)"/>
        </g>
        <path id="Combined_Shape-3" data-name="Combined Shape" d="M.305,54.109a.375.375,0,0,1-.3-.422.354.354,0,0,1,.374-.342,7.883,7.883,0,0,0,6.775-3.052.32.32,0,0,1,.318-.135.351.351,0,0,1,.262.242.422.422,0,0,1-.055.377A8.3,8.3,0,0,1,.922,54.136C.583,54.136.346,54.113.305,54.109Zm7.828-5.075a.422.422,0,0,1,0-.383,16.323,16.323,0,0,0,.945-2.186.326.326,0,0,1,.433-.2.4.4,0,0,1,.2.479,16.8,16.8,0,0,1-.992,2.289.318.318,0,0,1-.586,0ZM39.063,11.361a5.945,5.945,0,0,0-3.218-2.315.391.391,0,0,1-.269-.46.349.349,0,0,1,.408-.3,6.591,6.591,0,0,1,3.624,2.605.419.419,0,0,1,.063.284.392.392,0,0,1-.134.25.32.32,0,0,1-.2.092h0A.328.328,0,0,1,39.063,11.361ZM23.071,3.484a3.367,3.367,0,0,1,.905-2.342,4.076,4.076,0,0,0-4.126.518,8.1,8.1,0,0,0-2.032,2.071.326.326,0,0,1-.295.157.313.313,0,0,1-.2-.069.391.391,0,0,1-.138-.249.42.42,0,0,1,.06-.285c.036-.051,3.2-4.9,7.368-2.642A2.627,2.627,0,0,1,25.155.41,10.641,10.641,0,0,1,28.189,0a16.064,16.064,0,0,1,3.872.509,2.636,2.636,0,0,1,1.612,1.27c.206.362.391.714.549,1.045a1.43,1.43,0,0,1-.091,1.4,1.129,1.129,0,0,1-.937.535,1.039,1.039,0,0,1-.239-.028,18.878,18.878,0,0,0-8.468.038,1.085,1.085,0,0,1-.244.031A1.254,1.254,0,0,1,23.071,3.484Zm2.425-1.6a1.6,1.6,0,0,0-1.054,1.346,20.073,20.073,0,0,1,8.39-.072c-.088-.174-.192-.375-.3-.545A1.264,1.264,0,0,0,31.766,2a14.808,14.808,0,0,0-3.58-.473h-.1A9.553,9.553,0,0,0,25.5,1.882Z" transform="translate(5.181 4.556)" fill="#372168"/>
      </g>
      <g id="_4_glasses" transform="translate(29.508 42.053)">
        <g id="Group_2" data-name="Group 2" transform="translate(4.582 0.763)" opacity="0.7">
          <g id="Path-12" data-name="Path" transform="translate(0 0.008)">
            <path id="Path-13" data-name="Path" d="M11.206.927c-.149,1.961-.955,6.332-5.616,6.332a7.16,7.16,0,0,1-1.958-.248q-.156-.042-.3-.092a4.63,4.63,0,0,1-.562-.233,4.617,4.617,0,0,1-.545-.305,4.275,4.275,0,0,1-.62-.5A4.442,4.442,0,0,1,.776,4.821h0A6.836,6.836,0,0,1,.061.732.8.8,0,0,1,.82,0h9.62A.728.728,0,0,1,11,.275a.93.93,0,0,1,.2.652Z" fill="#ffcb6d"/>
            <path id="Path-14" data-name="Path" d="M11.206.927c-.149,1.961-.955,6.332-5.616,6.332a7.16,7.16,0,0,1-1.958-.248q-.156-.042-.3-.092a4.63,4.63,0,0,1-.562-.233,4.617,4.617,0,0,1-.545-.305,4.275,4.275,0,0,1-.62-.5A4.442,4.442,0,0,1,.776,4.821h0A6.836,6.836,0,0,1,.061.732.8.8,0,0,1,.82,0h9.62A.728.728,0,0,1,11,.275a.93.93,0,0,1,.2.652Z" fill="rgba(255,255,255,0.05)"/>
          </g>
          <g id="Path-15" data-name="Path" transform="translate(14.079)">
            <path id="Path-16" data-name="Path" d="M5.615,7.263A5.978,5.978,0,0,1,3.8,7c-.105-.031-.207-.069-.3-.107a4.169,4.169,0,0,1-.549-.256A3.549,3.549,0,0,1,2.418,6.3a4.5,4.5,0,0,1-.6-.526,5.37,5.37,0,0,1-.8-1.106A9.271,9.271,0,0,1,0,.931.931.931,0,0,1,.2.276.729.729,0,0,1,.768,0h9.62a.8.8,0,0,1,.759.732C11.4,2.571,11.032,7.263,5.615,7.263Z" transform="translate(0 0)" fill="#ffcb6d"/>
            <path id="Path-17" data-name="Path" d="M5.615,7.263A5.978,5.978,0,0,1,3.8,7c-.105-.031-.207-.069-.3-.107a4.169,4.169,0,0,1-.549-.256A3.549,3.549,0,0,1,2.418,6.3a4.5,4.5,0,0,1-.6-.526,5.37,5.37,0,0,1-.8-1.106A9.271,9.271,0,0,1,0,.931.931.931,0,0,1,.2.276.729.729,0,0,1,.768,0h9.62a.8.8,0,0,1,.759.732C11.4,2.571,11.032,7.263,5.615,7.263Z" transform="translate(0 0)" fill="rgba(255,255,255,0.05)"/>
          </g>
        </g>
        <path id="Light_layer-2" data-name="Light layer" d="M4.3,0,.823,5.893A4.442,4.442,0,0,1,0,4.829H0L2.845.008Z" transform="translate(5.358 0.763)" fill="#fff" opacity="0.4"/>
        <path id="Light_layer-3" data-name="Light layer" d="M4.495,0,.545,6.69A4.617,4.617,0,0,1,0,6.385L3.767,0Z" transform="translate(6.801 0.763)" fill="#fff" opacity="0.4"/>
        <path id="Light_layer-4" data-name="Light layer" d="M4.451,0,.3,7.015Q.149,6.973,0,6.923L4.088,0Z" transform="translate(7.908 0.763)" fill="#fff" opacity="0.4"/>
        <path id="Light_layer-5" data-name="Light layer" d="M4.19,0,.8,5.771A5.37,5.37,0,0,1,0,4.665L2.754,0Z" transform="translate(19.696 0.763)" fill="#fff" opacity="0.4"/>
        <path id="Light_layer-6" data-name="Light layer" d="M4.444,0,.528,6.637A3.549,3.549,0,0,1,0,6.3L3.726,0Z" transform="translate(21.078 0.763)" fill="#fff" opacity="0.4"/>
        <path id="Light_layer-7" data-name="Light layer" d="M4.431,0,.3,7C.2,6.969.095,6.931,0,6.893L4.065,0Z" transform="translate(22.156 0.763)" fill="#fff" opacity="0.4"/>
        <path id="Shape" d="M1.289,6.622A7.337,7.337,0,0,1,.07,1.377,1.5,1.5,0,0,1,1.5,0h9.623A1.377,1.377,0,0,1,12.18.525a1.758,1.758,0,0,1,.378,1.233c-.156,2.113-1.094,7.03-6.294,7.03A5.88,5.88,0,0,1,1.289,6.622Z" transform="translate(3.906 0)" fill="#372168"/>
        <path id="Shape-2" data-name="Shape" d="M.005,1.758A1.753,1.753,0,0,1,.381.522,1.37,1.37,0,0,1,1.445,0h9.623a1.5,1.5,0,0,1,1.426,1.373,7.312,7.312,0,0,1-1.223,5.249A5.865,5.865,0,0,1,6.3,8.788C1.1,8.788.164,3.872.005,1.758Z" transform="translate(17.981 0)" fill="#372168"/>
        <path id="Path-18" data-name="Path" d="M4.7,2.993a.7.7,0,0,1-.21-.038L.47,1.49A.787.787,0,0,1,.033.529.666.666,0,0,1,.887.037L4.9,1.5a.773.773,0,0,1,.469.846.707.707,0,0,1-.675.645Z" transform="translate(0 1.332)" fill="#372168"/>
        <path id="Path-19" data-name="Path" d="M.68,2.892a.708.708,0,0,1-.672-.647A.773.773,0,0,1,.477,1.4L4.338.035a.667.667,0,0,1,.85.5.786.786,0,0,1-.444.957L.883,2.854a.548.548,0,0,1-.2.038Z" transform="translate(29.094 1.433)" fill="#372168"/>
        <path id="Path-20" data-name="Path" d="M4.7,2.055a.6.6,0,0,1-.315-.088,3.336,3.336,0,0,0-3.36,0,.616.616,0,0,1-.681,0A.79.79,0,0,1,0,1.3.789.789,0,0,1,.343.636,4.579,4.579,0,0,1,5,.636a.8.8,0,0,1,.335.856.7.7,0,0,1-.654.578Z" transform="translate(14.53 3.144)" fill="#372168"/>
        <path id="Path-21" data-name="Path" d="M3.57,1.526H.677A.724.724,0,0,1,0,.763.724.724,0,0,1,.677,0H3.57a.724.724,0,0,1,.677.763A.724.724,0,0,1,3.57,1.526Z" transform="translate(15.086 0.641)" fill="#372168"/>
      </g>
      <path id="Union_7" data-name="Union 7" d="M0,52.639C0,23.567,20.929,0,46.745,0S93.49,23.567,93.49,52.639s-20.929,52.639-46.745,52.639S0,81.71,0,52.639Z" fill="none"/>
    </g>
  </g>
</svg>
