<svg xmlns="http://www.w3.org/2000/svg" width="238" height="223.546" viewBox="0 0 238 223.546">
  <g id="Forgot_password-rafiki" data-name="Forgot password-rafiki" transform="translate(-56.11 -63.33)">
    <g id="freepik--Shadow--inject-2" transform="translate(56.11 272.981)">
      <ellipse id="freepik--path--inject-2" cx="119" cy="6.948" rx="119" ry="6.948" transform="translate(0 0)" fill="#f5f5f5"/>
    </g>
    <g id="freepik--Login--inject-2" transform="translate(83.164 101.542)">
      <path id="Path_13941" data-name="Path 13941" d="M192.111,272.842H104.959L100.19,132.68h87.152Z" transform="translate(-100.19 -128.329)" fill="#28a745"/>
      <path id="Path_13942" data-name="Path 13942" d="M199.2,265.752H112.045L107.27,125.59h87.152Z" transform="translate(-102.925 -125.59)" fill="#28a745"/>
      <path id="Path_13943" data-name="Path 13943" d="M199.2,265.752H112.045L107.27,125.59h87.152Z" transform="translate(-102.925 -125.59)" fill="#fff" opacity="0.3"/>
      <ellipse id="Ellipse_1611" data-name="Ellipse 1611" cx="24.102" cy="24.937" rx="24.102" ry="24.937" transform="matrix(0.701, -0.713, 0.713, 0.701, 14.61, 39.901)" fill="#28a745"/>
      <path id="Path_13944" data-name="Path 13944" d="M187.993,178.343a19.64,19.64,0,0,1-2.117,9.636,19.388,19.388,0,0,1-17.43,10.593A21.027,21.027,0,0,1,150.3,187.979a20.555,20.555,0,0,1-2.774-9.636A19.419,19.419,0,0,1,167.07,158.09,21.088,21.088,0,0,1,187.993,178.343Z" transform="translate(-118.468 -138.143)" fill="#fff"/>
      <path id="Path_13945" data-name="Path 13945" d="M187.613,203.395a19.388,19.388,0,0,1-17.43,10.593,21.027,21.027,0,0,1-18.142-10.593A31.049,31.049,0,0,1,169.655,198a32.823,32.823,0,0,1,17.958,5.395Z" transform="translate(-120.217 -153.558)" fill="#28a745" opacity="0.6"/>
      <ellipse id="Ellipse_1612" data-name="Ellipse 1612" cx="8.863" cy="9.169" rx="8.863" ry="9.169" transform="matrix(0.701, -0.713, 0.713, 0.701, 36.304, 33.159)" fill="#28a745" opacity="0.6"/>
      <path id="Path_13946" data-name="Path 13946" d="M193.3,264.307H137.7l-.374-11.047h55.593Z" transform="translate(-114.535 -174.903)" fill="#fff"/>
      <path id="Path_13947" data-name="Path 13947" d="M194.394,296.477h-55.6l-.374-11.047h55.6Z" transform="translate(-114.956 -187.328)" fill="#fff"/>
      <path id="Path_13948" data-name="Path 13948" d="M185.708,287.9l-13.4,1.841a.933.933,0,0,0-.81,1.1l1.761,8.979a1.08,1.08,0,0,0,1.191.841l13.4-1.841a.939.939,0,0,0,.8-1.111l-1.755-8.979a1.074,1.074,0,0,0-1.191-.835Zm-3.848,9.1-2.455.325-.239-2.9a1.718,1.718,0,0,1-1-1.227,1.528,1.528,0,0,1,1.326-1.841,1.755,1.755,0,0,1,1.939,1.369,1.5,1.5,0,0,1-.479,1.43Z" transform="translate(-127.727 -188.28)" fill="#28a745"/>
      <path id="Path_13949" data-name="Path 13949" d="M184.724,282.459h0a.957.957,0,0,1-1.056-.743l-.172-.878a5.051,5.051,0,0,0-5.291-4.026,4.3,4.3,0,0,0-3.965,5.149l.2,1.013a.822.822,0,0,1-.718.982h0a.945.945,0,0,1-1.056-.743l-.166-.853a6.045,6.045,0,0,1,4.91-7.212,6.874,6.874,0,0,1,7.856,5.321l.2,1.007a.822.822,0,0,1-.737.982Z" transform="translate(-128.068 -183.32)" fill="#28a745"/>
      <path id="Path_13950" data-name="Path 13950" d="M191.742,324.113H155.549l-.239-7.193H191.5Z" transform="translate(-121.48 -199.491)" fill="#28a745"/>
      <path id="Path_13951" data-name="Path 13951" d="M183.674,260.989a1.939,1.939,0,0,1-1.952,2.019,2.111,2.111,0,0,1-2.093-2.019,1.939,1.939,0,0,1,1.952-2.019,2.105,2.105,0,0,1,2.093,2.019Z" transform="translate(-130.873 -177.108)" fill="#263238"/>
      <path id="Path_13952" data-name="Path 13952" d="M169.457,260.989a1.933,1.933,0,0,1-1.952,2.019,2.105,2.105,0,0,1-2.087-2.019,1.939,1.939,0,0,1,1.952-2.019,2.1,2.1,0,0,1,2.087,2.019Z" transform="translate(-125.384 -177.108)" fill="#263238"/>
      <path id="Path_13953" data-name="Path 13953" d="M155.327,260.989a1.939,1.939,0,0,1-1.952,2.019,2.1,2.1,0,0,1-2.087-2.019,1.939,1.939,0,0,1,1.952-2.019A2.1,2.1,0,0,1,155.327,260.989Z" transform="translate(-119.926 -177.108)" fill="#263238"/>
      <path id="Path_13954" data-name="Path 13954" d="M197.848,261a1.939,1.939,0,0,1-1.952,2.019A2.1,2.1,0,0,1,193.809,261a1.933,1.933,0,0,1,1.958-2A2.1,2.1,0,0,1,197.848,261Z" transform="translate(-136.35 -177.12)" fill="#263238"/>
      <path id="Path_13955" data-name="Path 13955" d="M212.017,260.989a1.933,1.933,0,0,1-1.952,2.019,2.105,2.105,0,0,1-2.087-2.019,1.939,1.939,0,0,1,1.952-2.019A2.1,2.1,0,0,1,212.017,260.989Z" transform="translate(-141.823 -177.108)" fill="#263238"/>
    </g>
    <g id="freepik--Character--inject-2" transform="translate(191.264 102.745)">
      <path id="Path_13956" data-name="Path 13956" d="M330.384,174.28c.816,1.313,1.5,2.565,2.2,3.873s1.332,2.621,1.952,3.965a56.683,56.683,0,0,1,3.13,8.427c.11.362.19.749.282,1.123l.135.571.068.282.08.466a8.4,8.4,0,0,1-.19,3.167,17.947,17.947,0,0,1-1.915,4.572,36.347,36.347,0,0,1-5.45,7.138l-2.584-1.952a68.366,68.366,0,0,0,3.455-7.365,15.258,15.258,0,0,0,.939-3.455,2.737,2.737,0,0,0-.049-1.086l-.246-.749c-.1-.307-.19-.614-.307-.927a69.6,69.6,0,0,0-3.234-7.414c-1.227-2.455-2.547-4.91-3.867-7.255Z" transform="translate(-295.038 -145.599)" fill="#ff8b7b"/>
      <path id="Path_13957" data-name="Path 13957" d="M329.463,224.43l-2.823,1.491,3.241,3.793A5.028,5.028,0,0,0,332,226.259Z" transform="translate(-295.757 -164.97)" fill="#ff8b7b"/>
      <path id="Path_13958" data-name="Path 13958" d="M320.47,229.2l3.468,2.756,3.56-1.3-3.241-3.793Z" transform="translate(-293.373 -165.909)" fill="#ff8b7b"/>
      <path id="Path_13959" data-name="Path 13959" d="M300.629,141.112c-.068.344-.307.583-.528.54s-.35-.362-.282-.7.307-.614.534-.54S300.7,140.768,300.629,141.112Z" transform="translate(-285.39 -132.514)" fill="#263238"/>
      <path id="Path_13960" data-name="Path 13960" d="M299.3,142.52a12.435,12.435,0,0,1-2.222,2.59,2.019,2.019,0,0,0,1.571.614Z" transform="translate(-284.339 -133.332)" fill="#ff5652"/>
      <path id="Path_13961" data-name="Path 13961" d="M298.9,159.606V155.58l5.327.614s-.086,3.462-3.069,4.48Z" transform="translate(-285.042 -138.377)" fill="#ff8b7b"/>
      <path id="Path_13962" data-name="Path 13962" d="M300.45,150.86l3.75,1.08.068,2.461-5.327-.644Z" transform="translate(-285.057 -136.553)" fill="#ff8b7b"/>
      <path id="Path_13963" data-name="Path 13963" d="M304.69,151.94l-3.75-1.08-.73,1.4a5.972,5.972,0,0,0,3.462,5.2,5.867,5.867,0,0,0,1.086-3.069Z" transform="translate(-285.548 -136.553)" opacity="0.2"/>
      <path id="Path_13964" data-name="Path 13964" d="M302.7,138.241a.209.209,0,0,0,.153-.344,2.038,2.038,0,0,0-1.743-.675.2.2,0,0,0-.166.233.209.209,0,0,0,.233.172h0a1.614,1.614,0,0,1,1.375.546A.209.209,0,0,0,302.7,138.241Z" transform="translate(-285.832 -131.282)" fill="#263238"/>
      <path id="Path_13965" data-name="Path 13965" d="M310.616,151.68c-.614,3.161-.994,7.537,1.228,9.642,0,0-.859,3.2-6.751,3.2-6.451,0-3.1-2.811-3.1-2.811,2.682-.835,2.658-3.885,2.044-6.34Z" transform="translate(-285.9 -136.87)" fill="#ff8b7b"/>
      <path id="Path_13966" data-name="Path 13966" d="M313.178,168.061c.577-.81.552-3.382-.061-3.836-.988-.73-5.229-.9-10.931.411a4.012,4.012,0,0,1-.706,3.793Z" transform="translate(-286.039 -141.498)" fill="#28a745"/>
      <path id="Path_13967" data-name="Path 13967" d="M351.036,407.664a1.405,1.405,0,0,1-1.08-.061.417.417,0,0,1-.1-.473.473.473,0,0,1,.264-.3c.583-.282,1.921.264,1.982.288a.1.1,0,0,1,.061.092.117.117,0,0,1-.055.1A6.033,6.033,0,0,1,351.036,407.664Zm-.706-.694a.517.517,0,0,0-.117.043.258.258,0,0,0-.16.172c-.055.184,0,.246.037.264.233.2,1.092,0,1.7-.227A3.37,3.37,0,0,0,350.331,406.97Z" transform="translate(-304.711 -235.39)" fill="#28a745"/>
      <path id="Path_13968" data-name="Path 13968" d="M352.506,406.579h-.049c-.491-.141-1.534-.884-1.547-1.369a.338.338,0,0,1,.264-.331.528.528,0,0,1,.448.037c.577.295.945,1.485.957,1.541a.1.1,0,0,1,0,.1A.086.086,0,0,1,352.506,406.579Zm-1.228-1.528h-.049c-.123.043-.123.1-.123.135,0,.288.7.872,1.227,1.1a2.555,2.555,0,0,0-.786-1.227.356.356,0,0,0-.264-.012Z" transform="translate(-305.131 -234.655)" fill="#28a745"/>
      <path id="Path_13969" data-name="Path 13969" d="M299.019,408.764c-.552,0-1.086-.08-1.264-.325a.387.387,0,0,1,0-.448.509.509,0,0,1,.325-.239c.718-.2,2.228.663,2.289.7a.092.092,0,0,1,.049.1.1.1,0,0,1-.08.086A7.487,7.487,0,0,1,299.019,408.764Zm-.681-.841a.613.613,0,0,0-.2,0,.313.313,0,0,0-.2.141c-.074.129-.043.19,0,.227.2.282,1.289.288,2.093.172A4.67,4.67,0,0,0,298.338,407.924Z" transform="translate(-284.572 -235.767)" fill="#28a745"/>
      <path id="Path_13970" data-name="Path 13970" d="M301.043,408H301c-.522-.233-1.553-1.166-1.473-1.657,0-.117.1-.258.381-.282a.737.737,0,0,1,.565.172,2.934,2.934,0,0,1,.675,1.663.123.123,0,0,1-.043.092.117.117,0,0,1-.061.012Zm-1.056-1.749h-.061c-.184,0-.2.086-.2.11-.049.295.651,1.031,1.185,1.35a2.375,2.375,0,0,0-.571-1.332.54.54,0,0,0-.362-.129Z" transform="translate(-285.283 -235.121)" fill="#28a745"/>
      <path id="Path_13971" data-name="Path 13971" d="M306.734,402.768H302.42l-.43-10H306.3Z" transform="translate(-286.236 -229.991)" fill="#ff8b7b"/>
      <path id="Path_13972" data-name="Path 13972" d="M356.027,399.941l-4.216.915-4.241-9.311,4.223-.914Z" transform="translate(-303.841 -229.165)" fill="#ff8b7b"/>
      <path id="Path_13973" data-name="Path 13973" d="M349.949,405.95l4.744-1.025a.374.374,0,0,1,.417.209l1.645,3.572a.614.614,0,0,1-.454.884c-1.657.325-2.486.405-4.566.853-1.283.282-4.18.988-5.953,1.369s-2.381-1.32-1.688-1.633c3.1-1.418,4.388-2.664,5.229-3.824A1.05,1.05,0,0,1,349.949,405.95Z" transform="translate(-302.39 -234.683)" fill="#263238"/>
      <path id="Path_13974" data-name="Path 13974" d="M296.184,408.24H300.9a.381.381,0,0,1,.368.295l.853,3.836a.614.614,0,0,1-.614.773c-1.7-.031-4.155-.129-6.291-.129-2.5,0-4.658.135-7.592.135-1.774,0-2.265-1.792-1.522-1.958,3.376-.737,6.137-.816,9.053-2.615a2.007,2.007,0,0,1,1.031-.338Z" transform="translate(-279.969 -235.967)" fill="#263238"/>
      <path id="Path_13975" data-name="Path 13975" d="M327.747,168.925c4.045.927,7.365,11.256,7.365,11.256l-8.083,6.18a17.756,17.756,0,0,1-4.3-7.979C321.3,172.97,323.61,167.968,327.747,168.925Z" transform="translate(-294.083 -143.486)" fill="#28a745"/>
      <path id="Path_13976" data-name="Path 13976" d="M327.747,168.925c4.045.927,7.365,11.256,7.365,11.256l-8.083,6.18a17.756,17.756,0,0,1-4.3-7.979C321.3,172.97,323.61,167.968,327.747,168.925Z" transform="translate(-294.083 -143.486)" opacity="0.4"/>
      <path id="Path_13977" data-name="Path 13977" d="M288.706,177.513c-1.007,1.086-2.013,2.056-3.069,3.069-.522.491-1.05.982-1.59,1.455l-.816.718-.2.178-.35.282a4.91,4.91,0,0,1-1.185.7,3.861,3.861,0,0,1-1.5.307,3.682,3.682,0,0,1-1.289-.227,3.627,3.627,0,0,1-1.228-.779,3.682,3.682,0,0,1-.957-1.59,4.181,4.181,0,0,1-.178-.914,6.2,6.2,0,0,1,0-1.092c.031-.295.068-.552.117-.792a15.2,15.2,0,0,1,.712-2.455,21.976,21.976,0,0,1,.951-2.222c.393-.779.767-1.35,1.142-2a50.113,50.113,0,0,1,5.186-7.034,47.517,47.517,0,0,1,6.291-5.966L293,161.476c-1.583,2.124-3.142,4.4-4.585,6.641a71.966,71.966,0,0,0-3.928,6.9c-.264.577-.614,1.228-.78,1.694a16.475,16.475,0,0,0-.571,1.657,10.713,10.713,0,0,0-.35,1.547,2.422,2.422,0,0,0,0,.245v-.055a1.7,1.7,0,0,0-.08-.405,2.633,2.633,0,0,0-.706-1.142,3.008,3.008,0,0,0-1.013-.614,2.934,2.934,0,0,0-1.031-.19,2.5,2.5,0,0,0-.988.19,2.256,2.256,0,0,0-.307.153l.233-.215.743-.675,1.467-1.375c.97-.914,1.946-1.89,2.866-2.8Z" transform="translate(-276.321 -139.756)" fill="#ff8b7b"/>
      <path id="Path_13978" data-name="Path 13978" d="M324.392,181.36c2.2,2.173,2.915,6.137,3.069,9.574l-.356.276a17.756,17.756,0,0,1-4.3-7.979c-.08-.319-.153-.614-.209-.964Z" transform="translate(-294.196 -148.334)" opacity="0.2"/>
      <path id="Path_13979" data-name="Path 13979" d="M289.045,172.574c-.884,4.664-1.436,14.245,1.123,33.21h23.114c.16-3.541-2.068-20.837,1.35-37.537a60.758,60.758,0,0,0-7.733-.976,85.756,85.756,0,0,0-9.82,0c-1.08.1-2.148.258-3.069.423A6.138,6.138,0,0,0,289.045,172.574Z" transform="translate(-280.95 -142.838)" fill="#28a745"/>
      <path id="Path_13980" data-name="Path 13980" d="M289.045,172.574c-.884,4.664-1.436,14.245,1.123,33.21h23.114c.16-3.541-2.068-20.837,1.35-37.537a60.758,60.758,0,0,0-7.733-.976,85.756,85.756,0,0,0-9.82,0c-1.08.1-2.148.258-3.069.423A6.138,6.138,0,0,0,289.045,172.574Z" transform="translate(-280.95 -142.838)" opacity="0.4"/>
      <path id="Path_13981" data-name="Path 13981" d="M292.583,186.64l-4.173-1c-.129,2.529-.141,5.659.043,9.532C290.373,192.987,292.828,189.574,292.583,186.64Z" transform="translate(-280.953 -149.987)" opacity="0.2"/>
      <path id="Path_13982" data-name="Path 13982" d="M301.99,392.77l.221,5.156h4.321l-.221-5.156Z" transform="translate(-286.236 -229.991)" opacity="0.2"/>
      <path id="Path_13983" data-name="Path 13983" d="M351.793,390.63l-4.223.914,2.185,4.8,4.223-.914Z" transform="translate(-303.841 -229.165)" opacity="0.2"/>
      <path id="Path_13984" data-name="Path 13984" d="M311.841,139.5c-1.1,4.137-1.547,6.616-4.1,8.335-3.836,2.615-8.623-.381-8.746-4.75-.135-3.946,1.7-10.053,6.137-10.888a5.843,5.843,0,0,1,6.708,7.3Z" transform="translate(-285.076 -129.306)" fill="#ff8b7b"/>
      <path id="Path_13985" data-name="Path 13985" d="M303.746,140.345c-.209-.552-1.16-4.83-.264-5.941s11.115-.307,12.625,1.178c2.51,2.455.767,4.665-1.976,7.506-2.062,2.136-2.142,4.542-3.185,4.91-1.841.614-4.652.037-5.217-1.909S303.746,140.345,303.746,140.345Z" transform="translate(-286.666 -129.997)" fill="#263238"/>
      <path id="Path_13986" data-name="Path 13986" d="M313.434,128.268c-3.609-1.534-10.378.166-14.036-.718a5.634,5.634,0,0,0,4.671,5.745,48.273,48.273,0,0,0,9.206.853C317.289,133.964,316.5,129.575,313.434,128.268Z" transform="translate(-285.233 -127.55)" fill="#263238"/>
      <path id="Path_13987" data-name="Path 13987" d="M323.19,136.4a6.88,6.88,0,0,0,3.824-.73C327.689,137.3,323.976,137.751,323.19,136.4Z" transform="translate(-294.424 -130.686)" fill="#263238"/>
      <path id="Path_13988" data-name="Path 13988" d="M305.239,143.562a4.855,4.855,0,0,1-1.228,2.866c-.945,1.037-1.927.387-2.093-.872-.147-1.142.16-3.069,1.313-3.621S305.319,142.279,305.239,143.562Z" transform="translate(-286.195 -133.042)" fill="#ff8b7b"/>
      <path id="Path_13989" data-name="Path 13989" d="M304.69,230.132s4.91,32.989,7.592,45.35c2.94,13.533,18.738,58.306,18.738,58.306l7.727-1.676s-11.048-36.494-13.5-55.415c-1.9-14.534-5.64-46.577-5.64-46.577Z" transform="translate(-287.278 -167.168)" fill="#28a745"/>
      <path id="Path_13990" data-name="Path 13990" d="M344.57,393.77c-.031,0,1.442,2.8,1.442,2.8l8.691-1.884-.73-2.615Z" transform="translate(-302.682 -229.721)" fill="#263238"/>
      <path id="Path_13991" data-name="Path 13991" d="M308.937,249.261c5.665,1.111,5.063,22.236,4.382,33.106-1.633-7.684-4.026-22.463-5.659-32.952A1.933,1.933,0,0,1,308.937,249.261Z" transform="translate(-288.426 -174.543)" opacity="0.3"/>
      <path id="Path_13992" data-name="Path 13992" d="M291.143,230.125s-.614,32.277-.123,45.417c.491,13.693,5.272,58.527,5.272,58.527h7.316s.264-44.037.614-57.484c.356-14.656,2.124-46.485,2.124-46.485Z" transform="translate(-281.925 -167.16)" fill="#28a745"/>
      <path id="Path_13993" data-name="Path 13993" d="M297.439,394.8c-.037,0,.411,3.032.411,3.032h8.893l.245-2.707Z" transform="translate(-284.477 -230.775)" fill="#263238"/>
      <path id="Path_13994" data-name="Path 13994" d="M294.586,174.4c2.068,5.579-10.09,12.152-10.09,12.152L279.23,179.8s3.541-7.009,7.838-10.164C292.377,165.743,293.009,170.149,294.586,174.4Z" transform="translate(-277.444 -143.224)" fill="#28a745"/>
      <path id="Path_13995" data-name="Path 13995" d="M294.586,174.4c2.068,5.579-10.09,12.152-10.09,12.152L279.23,179.8s3.541-7.009,7.838-10.164C292.377,165.743,293.009,170.149,294.586,174.4Z" transform="translate(-277.444 -143.224)" opacity="0.4"/>
    </g>
    <g id="freepik--Thinking--inject-2" transform="translate(223.449 63.33)">
      <ellipse id="Ellipse_1613" data-name="Ellipse 1613" cx="22.15" cy="14.116" rx="22.15" ry="14.116" transform="translate(10.446)" fill="#28a745"/>
      <path id="Path_13996" data-name="Path 13996" d="M364.966,90.087a6.205,6.205,0,0,1-6.095-5.149,6.272,6.272,0,0,1,4.732-7.07h0a6.174,6.174,0,0,1,6.641,2.774l14.221-2.934a2.222,2.222,0,0,1,2.6,1.528,2.142,2.142,0,0,1-1.639,2.645l-.368.074a.362.362,0,0,0-.258.19.387.387,0,0,0,0,.319l.252.651a.976.976,0,0,1-.381,1.185,1.166,1.166,0,0,0-.546.865.964.964,0,0,1-.743.853l-.288.061a.957.957,0,0,1-1.019-.491,1.2,1.2,0,0,0-2.216.46.951.951,0,0,1-.737.847l-.288.061a.964.964,0,0,1-1.019-.491,1.227,1.227,0,0,0-.853-.577.976.976,0,0,1-.859-.964v-.7a.381.381,0,0,0-.454-.356l-4.536.933a6.181,6.181,0,0,1-4.879,5.156A6.358,6.358,0,0,1,364.966,90.087Zm-1.228-11.661a5.653,5.653,0,0,0-4.3,6.4A5.591,5.591,0,0,0,370.49,84.5v-.221l5-1.013a.994.994,0,0,1,1.227.933v.7a.362.362,0,0,0,.295.35,1.786,1.786,0,0,1,1.295.878.356.356,0,0,0,.362.2l.282-.061a.344.344,0,0,0,.258-.319,1.811,1.811,0,0,1,3.376-.712.35.35,0,0,0,.356.2l.295-.061a.344.344,0,0,0,.252-.319,1.78,1.78,0,0,1,.841-1.32.374.374,0,0,0,.129-.442l-.252-.651a.988.988,0,0,1,.724-1.326l.374-.08a1.54,1.54,0,0,0,1.172-1.884,1.6,1.6,0,0,0-1.89-1.086L369.969,81.3l-.11-.19a5.524,5.524,0,0,0-6.088-2.67Zm1.228,9.378a3.774,3.774,0,1,1,.8-.049h0a3.91,3.91,0,0,1-.792.061Zm0-7.248a3.683,3.683,0,0,0-.681.068,3.329,3.329,0,0,0,1.387,6.512h0a3.32,3.32,0,0,0,1.154-6.021,3.265,3.265,0,0,0-1.835-.546Z" transform="translate(-340.361 -68.863)" fill="#fff"/>
      <ellipse id="Ellipse_1614" data-name="Ellipse 1614" cx="7.279" cy="4.64" rx="7.279" ry="4.64" transform="translate(7.291 27.232)" fill="#28a745" opacity="0.6"/>
      <ellipse id="Ellipse_1615" data-name="Ellipse 1615" cx="2.989" cy="1.903" rx="2.989" ry="1.903" transform="translate(0 34.609)" fill="#28a745" opacity="0.3"/>
    </g>
  </g>
</svg>
