<svg id="Group_11728" data-name="Group 11728" xmlns="http://www.w3.org/2000/svg" width="20.582" height="19.137" viewBox="0 0 20.582 19.137">
  <g id="heart_2_" data-name="heart (2)" transform="translate(0 0.402)">
    <g id="Group_11727" data-name="Group 11727" transform="translate(0 0)">
      <path id="Path_4901" data-name="Path 4901" d="M15.115,30a4.893,4.893,0,0,0-3.043,1.045,6.9,6.9,0,0,0-1.781,2.127A6.9,6.9,0,0,0,8.51,31.045,4.893,4.893,0,0,0,5.467,30,5.566,5.566,0,0,0,0,35.891C0,39.52,2.932,42,7.371,45.761c.754.638,1.608,1.362,2.5,2.133a.647.647,0,0,0,.847,0c.888-.772,1.743-1.5,2.5-2.134C17.65,42,20.582,39.52,20.582,35.891A5.566,5.566,0,0,0,15.115,30Z" transform="translate(0 -30)" fill="#f5f5f5"/>
    </g>
  </g>
  <g id="heart_1_" data-name="heart (1)">
    <path id="Path_3754" data-name="Path 3754" d="M20.548,7.532c-.3-3.307-2.641-5.706-5.57-5.706A5.537,5.537,0,0,0,10.234,4.56,5.336,5.336,0,0,0,5.6,1.826c-2.929,0-5.27,2.4-5.57,5.706A5.884,5.884,0,0,0,.21,9.7a9.3,9.3,0,0,0,2.85,4.755l7.171,6.507,7.294-6.507A9.3,9.3,0,0,0,20.373,9.7,5.9,5.9,0,0,0,20.548,7.532ZM19.6,9.519a8.506,8.506,0,0,1-2.609,4.348L10.234,19.9,3.591,13.869A8.512,8.512,0,0,1,.98,9.519,5.141,5.141,0,0,1,.816,7.658l.006-.04c.257-2.9,2.269-5,4.783-5A4.64,4.64,0,0,1,9.868,5.592l.365.864.365-.864a4.782,4.782,0,0,1,4.381-2.974c2.514,0,4.526,2.1,4.788,5.038A5.135,5.135,0,0,1,19.6,9.519Z" transform="translate(0 -1.826)" fill="#4d4d4d"/>
    <path id="Path_3755" data-name="Path 3755" d="M9.957,7.9A3.963,3.963,0,0,0,6,11.862a.4.4,0,0,0,.792,0A3.17,3.17,0,0,1,9.957,8.7a.4.4,0,0,0,0-.792Z" transform="translate(-3.624 -5.498)" fill="#4d4d4d"/>
  </g>
</svg>
