<svg xmlns="http://www.w3.org/2000/svg" width="39.563" height="39.785" viewBox="0 0 39.563 39.785">
  <g id="hot-pool_1_" data-name="hot-pool (1)" transform="translate(0.249 0.43)">
    <path id="Path_3261" data-name="Path 3261" d="M38.067,36.661a1.316,1.316,0,0,0-.72.344,3.494,3.494,0,0,1-4.828-.03,1.942,1.942,0,0,0-2.712,0,3.493,3.493,0,0,1-4.859,0,1.942,1.942,0,0,0-2.712,0,3.478,3.478,0,0,1-1.18.752.573.573,0,1,0,.41,1.07,4.616,4.616,0,0,0,1.566-1,.8.8,0,0,1,1.119,0,4.638,4.638,0,0,0,6.452,0,.8.8,0,0,1,1.119,0,4.639,4.639,0,0,0,6.411.04.179.179,0,0,1,.1-.043,1.3,1.3,0,0,0,1.107-1.278v-16.1a1.075,1.075,0,0,0-1.852-.745,3.492,3.492,0,0,1-4.967.108,1.943,1.943,0,0,0-2.712,0,3.474,3.474,0,0,1-1.8.926L18.374,10.342l5.448-5.771A2.711,2.711,0,1,0,19.878.849L14.256,6.805a5.157,5.157,0,0,0-.009,7.062l1.715,1.825h0a.492.492,0,0,1,0,.673L11.832,20.74A3.472,3.472,0,0,1,9.8,19.781a1.942,1.942,0,0,0-2.712,0,3.493,3.493,0,0,1-4.967-.108,1.075,1.075,0,0,0-1.852.745V36.443a1.364,1.364,0,0,0,1.091,1.333.222.222,0,0,1,.108.058A4.639,4.639,0,0,0,7.889,37.8a.8.8,0,0,1,1.119,0,4.638,4.638,0,0,0,6.452,0,.8.8,0,0,1,1.119,0,4.663,4.663,0,0,0,1.836,1.092.573.573,0,0,0,.343-1.093,3.512,3.512,0,0,1-1.382-.823,1.943,1.943,0,0,0-2.712,0,3.493,3.493,0,0,1-4.859,0,1.942,1.942,0,0,0-2.712,0A3.494,3.494,0,0,1,2.26,37a1.365,1.365,0,0,0-.669-.349.215.215,0,0,1-.172-.21V32.05a4.637,4.637,0,0,0,6.47.017.8.8,0,0,1,1.119,0,4.638,4.638,0,0,0,6.452,0,.8.8,0,0,1,1.119,0,4.638,4.638,0,0,0,6.452,0,.8.8,0,0,1,1.119,0,4.638,4.638,0,0,0,6.452,0,.8.8,0,0,1,1.119,0,4.637,4.637,0,0,0,6.47-.017v4.467a.146.146,0,0,1-.124.144ZM16.794,17.152a1.639,1.639,0,0,0,0-2.244l-1.715-1.825a4.01,4.01,0,0,1,.007-5.491l5.623-5.957a1.566,1.566,0,1,1,2.277,2.149L17.366,9.741a.874.874,0,0,0,0,1.2l8.986,9.673a3.493,3.493,0,0,1-1.4-.829,1.942,1.942,0,0,0-2.712,0,3.493,3.493,0,0,1-4.859,0,1.942,1.942,0,0,0-2.409-.241,6,6,0,0,1-1.287.912ZM7.889,20.6a.8.8,0,0,1,1.119,0,4.638,4.638,0,0,0,6.452,0,.8.8,0,0,1,1.119,0,4.638,4.638,0,0,0,6.452,0,.8.8,0,0,1,1.119,0,4.64,4.64,0,0,0,6.452,0,.8.8,0,0,1,1.119,0,4.638,4.638,0,0,0,6.47-.016v4.485a1.062,1.062,0,0,0-.706.331,3.492,3.492,0,0,1-4.967.108,1.942,1.942,0,0,0-2.712,0,3.493,3.493,0,0,1-4.859,0,1.942,1.942,0,0,0-2.712,0,3.492,3.492,0,0,1-4.859,0,1.943,1.943,0,0,0-2.712,0,3.492,3.492,0,0,1-4.859,0,1.943,1.943,0,0,0-2.712,0A3.492,3.492,0,0,1,2.126,25.4a1.063,1.063,0,0,0-.706-.331V20.588a4.638,4.638,0,0,0,6.47.016Zm29.6,10.531a3.493,3.493,0,0,1-4.967.108,1.943,1.943,0,0,0-2.712,0,3.492,3.492,0,0,1-4.859,0,1.942,1.942,0,0,0-2.712,0,3.493,3.493,0,0,1-4.859,0,1.943,1.943,0,0,0-2.712,0,3.492,3.492,0,0,1-4.859,0,1.942,1.942,0,0,0-2.712,0,3.492,3.492,0,0,1-4.967-.108A1.063,1.063,0,0,0,1.42,30.8V26.319a4.637,4.637,0,0,0,6.47.017.8.8,0,0,1,1.119,0,4.638,4.638,0,0,0,6.452,0,.8.8,0,0,1,1.119,0,4.638,4.638,0,0,0,6.452,0,.8.8,0,0,1,1.119,0,4.638,4.638,0,0,0,6.452,0,.8.8,0,0,1,1.119,0,4.637,4.637,0,0,0,6.47-.017V30.8A1.062,1.062,0,0,0,37.485,31.136Z" transform="translate(-0.273 0)" stroke="#000" stroke-width="0.5"/>
    <path id="Path_3262" data-name="Path 3262" d="M295.1,107.248a2.609,2.609,0,0,1,2.357,1.5.573.573,0,0,0,1.039-.483,3.745,3.745,0,1,0,0,3.157.573.573,0,0,0-1.039-.483,2.6,2.6,0,1,1-2.357-3.694Z" transform="translate(-269.122 -97.998)" stroke="#000" stroke-width="0.5"/>
  </g>
</svg>
