<svg xmlns="http://www.w3.org/2000/svg" xmlns:xlink="http://www.w3.org/1999/xlink" width="150" height="112" viewBox="0 0 150 112">
  <defs>
    <filter id="Rectangle_26474" x="-66" y="-46" width="282" height="244" filterUnits="userSpaceOnUse">
      <feOffset dy="20" input="SourceAlpha"/>
      <feGaussianBlur stdDeviation="22" result="blur"/>
      <feFlood flood-opacity="0.161"/>
      <feComposite operator="in" in2="blur"/>
      <feComposite in="SourceGraphic"/>
    </filter>
    <clipPath id="clip-path">
      <g transform="matrix(1, 0, 0, 1, 0, 0)" filter="url(#Rectangle_26474)">
        <rect id="Rectangle_26474-2" data-name="Rectangle 26474" width="150" height="112" rx="25" transform="translate(0)" fill="#fff" stroke="#231f20" stroke-width="1"/>
      </g>
    </clipPath>
  </defs>
  <g id="Mask_Group_49" data-name="Mask Group 49" transform="translate(0)" clip-path="url(#clip-path)">
    <g id="Group_12143" data-name="Group 12143" transform="translate(21.553 -0.848)">
      <g id="Body" transform="translate(0 20.727)">
        <path id="Skin_color:" data-name="Skin color:" d="M11.721,62.507V47.729L11.7,47.7a31.2,31.2,0,0,1-4.359-8.283c-.079-.217-.158-.426-.233-.66-.124-.366-.252-.745-.376-1.12-.173-.558-.346-1.124-.508-1.7l-.26-.933a38.447,38.447,0,0,1-.979-5.43c-.034-.311-.068-.63-.1-.954,0-.119-.023-.238-.03-.358,0,0-.045-.358-.1-.975,0-.035,0-.071,0-.106-.248-3.1-.633-12.116,2.586-18.027A16.89,16.89,0,0,1,23.078,0,16.888,16.888,0,0,1,38.806,9.155c3.194,5.894,2.822,14.875,2.573,18a3.257,3.257,0,0,1,2.731.2c1.995,1.073,2.838,4.621.971,7.84a4.938,4.938,0,0,1-5.657,2.434l0,.014c-.124.375-.248.754-.376,1.12-.075.226-.154.426-.233.66a31.036,31.036,0,0,1-4.325,8.228l-.019.025V62.507c-.3,2.159-5.27,3.871-11.372,3.871S12.019,64.675,11.721,62.507ZM33.667,48.679A18.7,18.7,0,0,1,30.483,51.7a12.594,12.594,0,0,1-3.237,1.8A12.6,12.6,0,0,0,30.494,51.7a18.715,18.715,0,0,0,3.185-3.024l.072-.1ZM1.05,35.209c-1.882-3.236-1.028-6.784.945-7.84a3.658,3.658,0,0,1,.482-.217,3.316,3.316,0,0,1,2.258.03q0,.055,0,.11a.944.944,0,0,0,.019.235c.041.473.079.741.079.741,0,.12.015.239.03.358.045.473.094.937.151,1.393A37.752,37.752,0,0,0,5.939,35q.384,1.359.79,2.636a5.3,5.3,0,0,1-1.339.173A4.892,4.892,0,0,1,1.05,35.209Z" transform="translate(29.803 0.848)" fill="#ffc7bb"/>
        <path id="Path" d="M21.287,0V11.835C11.124,12.031,3.55,6.482,0,3.211V.043L.041.094A18.688,18.688,0,0,0,3.226,3.113a12.122,12.122,0,0,0,7.032,2.555h.734a12.122,12.122,0,0,0,7.036-2.555A18.876,18.876,0,0,0,21.216.089Z" transform="translate(42.239 49.438)" fill="#7c3830" opacity="0.15" style="mix-blend-mode: multiply;isolation: isolate"/>
        <g id="Top_color:" data-name="Top color:" transform="translate(0 63.317)">
          <path id="Top_color:-2" data-name="Top color:" d="M0,34.346S6.665,19.333,10.288,15.68c7.2-7.274,18.765-11.669,25.974-14.028l.282-.094C38.678.86,40.41.349,41.5,0c.3,2.159,5.27,3.871,11.368,3.871S63.941,2.168,64.242,0h.06c1.077.349,2.793.852,4.912,1.546l.256.085c7.194,2.355,18.773,6.754,26,14.053C99.035,19.3,105.4,34.346,105.4,34.346Z" fill="#72bf44"/>
          <path id="Top_color:-3" data-name="Top color:" d="M0,34.346S6.665,19.333,10.288,15.68c7.2-7.274,18.765-11.669,25.974-14.028l.282-.094C38.678.86,40.41.349,41.5,0c.3,2.159,5.27,3.871,11.368,3.871S63.941,2.168,64.242,0h.06c1.077.349,2.793.852,4.912,1.546l.256.085c7.194,2.355,18.773,6.754,26,14.053C99.035,19.3,105.4,34.346,105.4,34.346Z" fill="#72bf44"/>
        </g>
        <path id="Path-2" data-name="Path" d="M23.531,8.2a27.776,27.776,0,0,1-6.923.852c-7.7,0-14.24-2.892-16.608-7.4l.282-.094C2.417.86,4.148.349,5.236,0h0c.3,2.159,5.27,3.871,11.368,3.871S27.679,2.168,27.98,0h.06c1.077.349,2.793.852,4.912,1.546l.256.085a12.6,12.6,0,0,1-6.181,5.353" transform="translate(36.258 63.364)" fill="#fff" opacity="0.4" style="mix-blend-mode: soft-light;isolation: isolate"/>
        <path id="Combined_Shape" data-name="Combined Shape" d="M0,97.663l.008-.021c.264-.675,1.669-4.241,3.449-8.161C4.6,86.965,5.669,84.8,6.639,83.04A22.334,22.334,0,0,1,9.78,78.4a38.074,38.074,0,0,1,4.733-4.018A53.8,53.8,0,0,1,20.437,70.7a95.351,95.351,0,0,1,15.61-6.505l.275-.089c1.317-.433,2.469-.79,3.52-1.111l.9-.283V48.86a31.907,31.907,0,0,1-4.306-8.271c-.072-.2-.147-.407-.241-.681q-.078-.228-.154-.457a6,6,0,0,1-.851.061l-.129,0a5.247,5.247,0,0,1-2.752-.793,6.123,6.123,0,0,1-2.084-2.189,8.093,8.093,0,0,1-.96-5.937,4.8,4.8,0,0,1,2.213-3.139,5.513,5.513,0,0,1,.565-.256,3.994,3.994,0,0,1,1.333-.23q.177,0,.353.016C33.5,22.925,33.515,15.045,36.5,9.56A17.784,17.784,0,0,1,44.6,1.7,18.794,18.794,0,0,1,52.482,0c.135,0,.272,0,.406,0s.259,0,.387,0a18.767,18.767,0,0,1,7.871,1.693,17.79,17.79,0,0,1,8.1,7.867c2.982,5.48,3.005,13.335,2.772,17.4q.172-.015.346-.015a4.026,4.026,0,0,1,1.178.177,4.541,4.541,0,0,1,.723.311,4.805,4.805,0,0,1,2.21,3.13,8.125,8.125,0,0,1-.96,5.941,6.13,6.13,0,0,1-2.088,2.207,5.258,5.258,0,0,1-2.765.8l-.112,0a5.981,5.981,0,0,1-.841-.062l-.156.471c-.073.222-.153.443-.232.657l-.009.024a31.881,31.881,0,0,1-4.287,8.238V62.684l1.137.356c.93.285,2.048.634,3.309,1.043l.271.089a.7.7,0,0,1,.078.033C81.9,68.175,90.463,72.819,95.99,78.4c1.111,1.123,3.61,6.3,5.512,10.446,2.052,4.474,3.88,8.772,3.9,8.815H0Zm10.792-18c-1.7,1.714-3.831,6.05-5.319,9.386-1.611,3.611-2.838,6.864-2.85,6.9l100.135.045c-.009-.026-1.142-3.306-2.65-6.916-1.4-3.345-3.419-7.693-5.12-9.412-5.218-5.27-13.675-9.871-25.144-13.681a13.771,13.771,0,0,1-6.231,5.147.682.682,0,0,1-.761-.1.908.908,0,0,1-.286-.8.836.836,0,0,1,.485-.671A12.694,12.694,0,0,0,68.3,65.48c-.956-.307-1.807-.571-2.541-.8l-1.039-.323c-.883,1.548-3.564,3.016-8.162,3.527a32.986,32.986,0,0,1-3.677.2,23.48,23.48,0,0,1-8.719-1.39,6.184,6.184,0,0,1-3.078-2.312l-.817.252c-.779.238-1.72.528-2.771.852,2.6,3.709,8.485,6.056,15.4,6.056a26.9,26.9,0,0,0,6.757-.822.756.756,0,0,1,.9.641.86.86,0,0,1-.566,1.02,28.373,28.373,0,0,1-7.1.882c-7.676,0-14.229-2.831-16.944-7.266C24.468,69.809,16.009,74.407,10.792,79.666ZM52.878,66.375c5.78,0,9.734-1.538,10.5-2.807a.907.907,0,0,0,.127-.339V50.708A19.633,19.633,0,0,1,60.7,53.271a12.827,12.827,0,0,1-7.438,2.683h-.794a12.8,12.8,0,0,1-7.416-2.692,19.543,19.543,0,0,1-2.793-2.542l-.008,12.395a.982.982,0,0,1,.026.113c.175,1.273,4.069,3.039,10.067,3.143Q52.608,66.375,52.878,66.375ZM52.5,54.251h.734a11.1,11.1,0,0,0,2.975-.505,12.737,12.737,0,0,0,3.3-1.655q.174-.124.345-.255a17.882,17.882,0,0,0,3.049-2.9c.23-.268.474-.575.79-1a.818.818,0,0,1,.071-.082A30.127,30.127,0,0,0,67.9,39.95c.077-.208.153-.423.226-.639l.035-.1c.07-.209.167-.495.244-.748l.094-.285c.243-.762.489-1.606.753-2.581a39.458,39.458,0,0,0,1.05-6.226,1.864,1.864,0,0,1,.015-.212c0-.04.008-.077.011-.116V28.98c0-.006,0-.033.009-.084.016-.139.049-.427.085-.854l.629.021h.08L70.427,28v-.047c.214-2.645.668-11.725-2.477-17.5A16.233,16.233,0,0,0,53.187,1.7l-.3,0-.354,0a16.222,16.222,0,0,0-14.76,8.752c-3.1,5.695-2.7,14.606-2.486,17.387a.97.97,0,0,1,.02.2v.114c.038.4.069.673.08.781,0,.038.006.057.006.059a.352.352,0,0,1,0,.06,1.37,1.37,0,0,0,.026.328c.032.332.067.662.1.941a38,38,0,0,0,.96,5.293c.083.307.171.619.256.92q.046.164.093.327l.054.186c.1.356.214.709.32,1.054l.033.107c.121.374.247.744.376,1.1.072.207.144.408.215.6v0l.011.029A30.26,30.26,0,0,0,42.078,48c.3.39.558.71.753.946a18.183,18.183,0,0,0,3.049,2.9,12.213,12.213,0,0,0,1.527,1A11.286,11.286,0,0,0,52.5,54.251ZM70.613,37.829A4.231,4.231,0,0,0,74.251,35.6a6.217,6.217,0,0,0,.771-4.544A3.141,3.141,0,0,0,73.611,29a2.776,2.776,0,0,0-.486-.208,2.452,2.452,0,0,0-1.231-.067c-.025.254-.043.418-.052.48s-.017.167-.021.254v0l-.005.084a41.271,41.271,0,0,1-.793,5.224,1.6,1.6,0,0,0,1.271-.8,2.09,2.09,0,0,0,.154-1.929.462.462,0,0,1,.111-.59.351.351,0,0,1,.521.126,3.083,3.083,0,0,1-.069,2.689,2.407,2.407,0,0,1-2.057,1.348q-.063,0-.126,0-.058.241-.119.481c-.159.591-.321,1.163-.483,1.709A3.85,3.85,0,0,0,70.613,37.829ZM33.356,28.664h-.007a2.459,2.459,0,0,0-.836.148,2.968,2.968,0,0,0-.376.171,3.128,3.128,0,0,0-1.419,2.061,6.235,6.235,0,0,0,.753,4.548,4.232,4.232,0,0,0,3.636,2.223,3.843,3.843,0,0,0,.4-.021c-.158-.532-.314-1.089-.478-1.7q-.062-.241-.121-.484a1.793,1.793,0,0,1-.2.007,2.408,2.408,0,0,1-2.076-1.345,3.087,3.087,0,0,1-.07-2.705.378.378,0,0,1,.239-.185.341.341,0,0,1,.285.061.461.461,0,0,1,.109.588,2.117,2.117,0,0,0,.154,1.929,1.593,1.593,0,0,0,1.361.8,38.213,38.213,0,0,1-.631-3.777.115.115,0,0,1,0-.034c-.051-.412-.1-.868-.15-1.392a1.634,1.634,0,0,0-.016-.189c-.007-.058-.014-.117-.018-.177,0-.009,0-.019,0-.028-.012-.066-.023-.166-.035-.3-.005-.045-.011-.1-.016-.155a2.564,2.564,0,0,0-.467-.043h-.03ZM90.517,81.638a36.415,36.415,0,0,0-4.306-3.679.446.446,0,0,1-.171-.38.434.434,0,0,1,.205-.358.34.34,0,0,1,.376.022,36.948,36.948,0,0,1,4.4,3.76.466.466,0,0,1,.03.6.341.341,0,0,1-.531.034Z" transform="translate(0 0)" fill="#372168"/>
      </g>
      <g id="Chin" transform="translate(39.286 65.446)">
        <rect id="Setup_03_Face_Man_Chin_background" data-name="Setup/#03 Face/Man Chin background" width="27.047" height="4.533" transform="translate(0 0)" fill="none"/>
        <g id="Group_2" data-name="Group 2" transform="translate(11.095 1.327)">
          <path id="Path-3" data-name="Path" d="M4.707,1.5a.376.376,0,0,1-.279-.12A2.707,2.707,0,0,0,2.546.753a2.774,2.774,0,0,0-1.882.6A.376.376,0,1,1,.129.828,3.9,3.9,0,0,1,4.982.865a.376.376,0,0,1-.275.636Z" transform="translate(0 0)" fill="#372168"/>
        </g>
      </g>
      <g id="Cheeks_color:" data-name="Cheeks color:" transform="translate(39.149 46.222)">
        <rect id="Setup_03_Face_Cheek_Ñheek_01_background" data-name="Setup/#03 Face/Cheek/Ñheek#01 background" width="28.049" height="7.012" transform="translate(0.137 0.608)" fill="none"/>
        <path id="Cheeks_color:-2" data-name="Cheeks color:" d="M20.327,3.764a3.764,3.764,0,1,1,3.764,3.764A3.764,3.764,0,0,1,20.327,3.764ZM0,3.764A3.764,3.764,0,1,1,3.764,7.529,3.764,3.764,0,0,1,0,3.764Z" transform="translate(0 0)" fill="#ff1300" opacity="0.15" style="mix-blend-mode: multiply;isolation: isolate"/>
      </g>
      <g id="Hairstyle" transform="translate(25.125 14.607)">
        <g id="_13_hairdo" transform="translate(0 0)">
          <g id="Hair_color:" data-name="Hair color:" transform="translate(0.757 1.197)">
            <path id="Hair_color:-2" data-name="Hair color:" d="M.118,22.232c-.474,3.132.358,8.489,4.8,7.905a3.03,3.03,0,0,1,.956-.723,3.7,3.7,0,0,1,2.755-.166.794.794,0,0,0,0,.1,4.356,4.356,0,0,0,.056.557l.173-3.294c.177-3.407,1.709-5.974,5.018-8.2a22.2,22.2,0,0,0,5.048-4.224s4.464,8.338,15.81,5.752C40.52,18.619,44.8,22.8,44.962,25.959l.207,3.96c0-.143.038-.327.056-.557a.792.792,0,0,0,0-.1,3.7,3.7,0,0,1,2.755.166,3.03,3.03,0,0,1,.956.723s11.38,1.174,2.669-15.953C40.513-7.607,17.163,2.2,17.163,2.2S3.069,2.756.118,22.232Z" transform="translate(0 0)" fill="#bec5d8"/>
            <path id="Hair_color:-3" data-name="Hair color:" d="M.118,22.232c-.474,3.132.358,8.489,4.8,7.905a3.03,3.03,0,0,1,.956-.723,3.7,3.7,0,0,1,2.755-.166.794.794,0,0,0,0,.1,4.356,4.356,0,0,0,.056.557l.173-3.294c.177-3.407,1.709-5.974,5.018-8.2a22.2,22.2,0,0,0,5.048-4.224s4.464,8.338,15.81,5.752C40.52,18.619,44.8,22.8,44.962,25.959l.207,3.96c0-.143.038-.327.056-.557a.792.792,0,0,0,0-.1,3.7,3.7,0,0,1,2.755.166,3.03,3.03,0,0,1,.956.723s11.38,1.174,2.669-15.953C40.513-7.607,17.163,2.2,17.163,2.2S3.069,2.756.118,22.232Z" transform="translate(0 0)" fill="rgba(255,255,255,0.09)"/>
          </g>
          <path id="Combined_Shape-2" data-name="Combined Shape" d="M3.292,31.8a4.278,4.278,0,0,1-1.408-.959C.15,29.074-.246,25.788.13,23.316c.866-5.7,3.3-13.422,9.96-17.831a16.959,16.959,0,0,1,7.117-2.769,4.871,4.871,0,0,0-2.415-1.451.377.377,0,1,1,.173-.73A5.323,5.323,0,0,1,17.931,2.44,3.734,3.734,0,0,0,18.1.471a.376.376,0,1,1,.734-.165,4.181,4.181,0,0,1-.067,1.978A34.558,34.558,0,0,1,29.91.446c.366,0,.737.006,1.1.018A25.159,25.159,0,0,1,42.353,3.512a26.475,26.475,0,0,1,10.68,11.542c3.49,6.859,4.269,11.782,2.315,14.632a5.29,5.29,0,0,1-2.738,2.033,7.721,7.721,0,0,1-2.464.4c-.288,0-.477-.017-.528-.021a.751.751,0,0,1-.485-.248,2.279,2.279,0,0,0-.719-.546,2.9,2.9,0,0,0-1.244-.283,2.86,2.86,0,0,0-.487.042v.113a.751.751,0,0,1-.749.674h0a.756.756,0,0,1-.73-.715l-.207-3.956a5.859,5.859,0,0,0-2.469-3.945,8.132,8.132,0,0,0-6.84-1.37,19.439,19.439,0,0,1-4.333.512l-.234,0A14.3,14.3,0,0,1,19.637,16.6a23.425,23.425,0,0,1-4.269,3.437l-.275.185c-3.073,2.071-4.517,4.421-4.683,7.619l-.173,3.29a.757.757,0,0,1-.73.715h0a.751.751,0,0,1-.749-.674V31.06a2.89,2.89,0,0,0-1.735.241,2.259,2.259,0,0,0-.715.546.755.755,0,0,1-.467.245,5.431,5.431,0,0,1-.725.049H4.961A4.276,4.276,0,0,1,3.292,31.8ZM10.813,6.761C5.94,10.018,2.748,15.812,1.579,23.516l.038.011c-.3,2.024-.013,4.843,1.344,6.249a2.845,2.845,0,0,0,1.955.852c-1.795-2.266-1.449-6.123-1.432-6.307a.378.378,0,0,1,.753.072c0,.042-.351,3.95,1.417,5.934a3.767,3.767,0,0,1,.65-.4,4.384,4.384,0,0,1,1.865-.419c.1,0,.2,0,.3.01a14.6,14.6,0,0,1-.211-11.411.377.377,0,1,1,.685.3A14.326,14.326,0,0,0,8.832,28.46l.035-.679c.192-3.673,1.892-6.466,5.349-8.79l.275-.185a20.581,20.581,0,0,0,4.329-3.585,23.17,23.17,0,0,1-1.012-4.058,9.734,9.734,0,0,0-4.363,1.843.374.374,0,1,1-.418-.621,10.346,10.346,0,0,1,4.665-1.967c-.14-.953-.242-1.892-.318-2.759C15.487,7.9,9.145,9.386,4.952,18.415a.377.377,0,0,1-.339.219.386.386,0,0,1-.158-.034.377.377,0,0,1-.184-.5C8.684,8.6,15.28,7.126,17.313,6.9c-.081-1.105-.117-2.045-.133-2.675A15.591,15.591,0,0,0,10.813,6.761Zm39.3,12.622c.973,2.085,2.845,7.06.545,11.182A4.512,4.512,0,0,0,54.1,28.809c1.117-1.606,1.6-5.179-2.421-13.088-4.456-8.766-11.422-13.4-20.7-13.766-.345-.011-.695-.016-1.04-.016A33.378,33.378,0,0,0,18.68,3.885c.037,1.746.268,7.71,1.71,11.221q.008.019.014.038a11.481,11.481,0,0,0,2.585,2.923,12.722,12.722,0,0,0,8.261,2.824A18.3,18.3,0,0,0,35.3,20.41a9.631,9.631,0,0,1,8.082,1.638,8.768,8.768,0,0,1,1.876,1.93,12.207,12.207,0,0,0-1.148-4.169,8.418,8.418,0,0,0-7.872-2.053c-4.175.956-7.634.538-10.57-1.269a.376.376,0,0,1,.376-.64c2.763,1.7,6.023,2.082,10.013,1.175a9.306,9.306,0,0,1,6.544.785,6.772,6.772,0,0,0-4.936-1.572c-8.5.327-11.73-2.3-13.6-4.634a.376.376,0,0,1,.587-.471c1.882,2.326,4.871,4.664,12.987,4.352a7.357,7.357,0,0,1,5.748,2.029,7.648,7.648,0,0,1,1.352,1.875,8.221,8.221,0,0,1,.647.73.377.377,0,0,1-.06.527l-.033.024a16.624,16.624,0,0,1,.839,4.957,5.182,5.182,0,0,1,.316,1.49l.132,2.436a4.345,4.345,0,0,1,2.469.376,3.719,3.719,0,0,1,.8.518c2.338-3.868.519-8.744-.423-10.742a.376.376,0,1,1,.681-.32Zm-1.649-2c-4.683-10.318-13.634-14-26.6-10.95a.376.376,0,1,1-.173-.73,30.124,30.124,0,0,1,13.7-.489c6.2,1.411,10.826,5.4,13.759,11.858a.377.377,0,0,1-.685.312ZM29.951,10.062a.377.377,0,1,1,.527-.538c1.227,1.193,3.106,2.315,7.736,1.558a.381.381,0,1,1,.12.753,17.671,17.671,0,0,1-2.823.237A7.272,7.272,0,0,1,29.951,10.062Z" fill="#372168"/>
        </g>
      </g>
      <g id="Emotions" transform="translate(39.902 42.16)">
        <rect id="Setup_01_Emotions_happy_background" data-name="Setup/#01 Emotions/happy background" width="26.35" height="23.848" fill="none"/>
        <g id="Face" transform="translate(0 1.402)">
          <g id="Mouth" transform="translate(0 13.318)">
            <rect id="Setup_03_Face_Mouth_happy_mouth_background" data-name="Setup/#03 Face/Mouth/happy_mouth background" width="26.35" height="7.529" transform="translate(0 0.233)" fill="none"/>
            <g id="happy_mouth" transform="translate(7.337)">
              <path id="Path-4" data-name="Path" d="M2.39.753H.376A.376.376,0,1,1,.376,0H2.39a.376.376,0,1,1,0,.753Z" transform="translate(4.434 7.28)" fill="#372168"/>
              <g id="smile-2">
                <path id="Path-5" data-name="Path" d="M10.314,0A5.161,5.161,0,0,1,5.157,4.964,5.161,5.161,0,0,1,0,0Z" transform="translate(0.659 0.659)" fill="#f66"/>
                <path id="Shape" d="M5.816,6.279A5.725,5.725,0,0,1,0,.659.659.659,0,0,1,.659,0H10.973a.659.659,0,0,1,.659.659A5.725,5.725,0,0,1,5.909,6.28Z" fill="#372168"/>
                <g id="Path-6" data-name="Path" transform="translate(2.492 2.742)">
                  <path id="Path-7" data-name="Path" d="M6.9,1.437a4.991,4.991,0,0,1-3.6,1.442A4.826,4.826,0,0,1,0,1.663l.03-.275S1.272-.837,3.26.578L3.354.545A7.386,7.386,0,0,0,4.077.209c1.566-.8,2.612.941,2.612.941Z" transform="translate(0 0)" fill="#f66"/>
                  <path id="Path-8" data-name="Path" d="M6.9,1.437a4.991,4.991,0,0,1-3.6,1.442A4.826,4.826,0,0,1,0,1.663l.03-.275S1.272-.837,3.26.578L3.354.545A7.386,7.386,0,0,0,4.077.209c1.566-.8,2.612.941,2.612.941Z" transform="translate(0 0)" fill="rgba(255,255,255,0.09)"/>
                </g>
                <path id="Shape-2" data-name="Shape" d="M3.952,4.2A5.5,5.5,0,0,1,.21,2.807.666.666,0,0,1,0,2.254l.03-.275a.662.662,0,0,1,.079-.252A3.351,3.351,0,0,1,2.1.168,2.579,2.579,0,0,1,3.978.5c.154-.068.3-.143.448-.218A2.654,2.654,0,0,1,7.89,1.448l.192.267a.659.659,0,0,1-.053.836A5.647,5.647,0,0,1,4.041,4.2Z" transform="translate(1.834 2.079)" fill="#372168"/>
                <path id="Path-9" data-name="Path" d="M0,.519A2.635,2.635,0,0,1,.693,0" transform="translate(5.398 3.185)" fill="#f9f9f9"/>
                <path id="Path-10" data-name="Path" d="M.666,1.84a.651.651,0,0,1-.474-.2.659.659,0,0,1,0-.93A3.094,3.094,0,0,1,1.1.048a.66.66,0,1,1,.493,1.223,2.074,2.074,0,0,0-.486.376.663.663,0,0,1-.44.192Z" transform="translate(4.732 2.523)" fill="#372168"/>
              </g>
            </g>
          </g>
          <g id="Nose" transform="translate(0 9.411)">
            <rect id="Setup_03_Face_Nose_background" data-name="Setup/#03 Face/Nose background" width="26.35" height="3.011" fill="none"/>
            <g id="_Nose" data-name="ðŸ‘ƒNose" transform="translate(11 0.81)">
              <path id="Path-11" data-name="Path" d="M2.165,2.121A2.454,2.454,0,0,1,.106,1.052.659.659,0,0,1,1.212.337,1.2,1.2,0,0,0,2.173.8,1.2,1.2,0,0,0,3.125.318.66.66,0,0,1,4.254,1,2.432,2.432,0,0,1,2.165,2.121Z" transform="translate(0 0)" fill="#372168"/>
            </g>
          </g>
          <g id="Eyes" transform="translate(0 4.517)">
            <rect id="Setup_03_Face_Eyes_happy_kiss_swetdrop_eyes_background" data-name="Setup/#03 Face/Eyes/happy_kiss_swetdrop_eyes background" width="26.35" height="3.764" fill="none"/>
            <g id="happy_kiss_swetdrop_eyes" transform="translate(3.413 0.872)">
              <path id="Path-12" data-name="Path" d="M3.685,2.116A.651.651,0,0,1,3.124,1.8a1.2,1.2,0,0,0-1.912-.019A.659.659,0,1,1,.105,1.066a2.511,2.511,0,0,1,4.141.049.655.655,0,0,1-.222.9.632.632,0,0,1-.339.1Z" transform="translate(0 0)" fill="#372168"/>
              <path id="Path-13" data-name="Path" d="M3.708,2.119a.659.659,0,0,1-.565-.32,1.2,1.2,0,0,0-1.912-.019A.659.659,0,1,1,.124,1.069a2.507,2.507,0,0,1,4.141.049.663.663,0,0,1-.561,1Z" transform="translate(15.414 0.016)" fill="#372168"/>
            </g>
          </g>
          <g id="Eyebrows">
            <rect id="Setup_03_Face_Eyebrow_happy_eyebrows_background" data-name="Setup/#03 Face/Eyebrow/happy_eyebrows background" width="26.35" height="4.517" fill="none"/>
            <g id="happy_eyebrows" transform="translate(1.297 0.814)">
              <path id="Path-14" data-name="Path" d="M.751,2.946A.751.751,0,0,1,.3,1.595,8.612,8.612,0,0,1,7.613.364.753.753,0,0,1,7.158,1.8,7.234,7.234,0,0,0,1.2,2.8.753.753,0,0,1,.751,2.946Z" transform="translate(0 0)" fill="#372168"/>
              <path id="Path-15" data-name="Path" d="M7.413,2.95A.73.73,0,0,1,6.965,2.8a7.239,7.239,0,0,0-5.959-1A.753.753,0,1,1,.55.363,8.627,8.627,0,0,1,7.864,1.594.753.753,0,0,1,7.413,2.95Z" transform="translate(15.612 0)" fill="#372168"/>
            </g>
          </g>
        </g>
      </g>
      <g id="Accessories_02" data-name="Accessories#02" transform="translate(34.008 45.887)">
        <g id="_4_glasses" transform="translate(0 0.569)">
          <g id="Group_2-2" data-name="Group 2" transform="translate(5.092 0.753)" opacity="0.7">
            <g id="Path-16" data-name="Path" transform="translate(0 0.008)">
              <path id="Path-17" data-name="Path" d="M12.453.915c-.166,1.935-1.062,6.249-6.241,6.249a8.906,8.906,0,0,1-2.176-.245q-.173-.041-.339-.09a5.526,5.526,0,0,1-.625-.23,5.345,5.345,0,0,1-.606-.3,4.7,4.7,0,0,1-.689-.489,4.5,4.5,0,0,1-.915-1.05h0A6.1,6.1,0,0,1,.068.723.851.851,0,0,1,.911,0H11.6a.851.851,0,0,1,.851.915Z" transform="translate(0)" fill="#ffcb6d"/>
              <path id="Path-18" data-name="Path" d="M12.453.915c-.166,1.935-1.062,6.249-6.241,6.249a8.906,8.906,0,0,1-2.176-.245q-.173-.041-.339-.09a5.526,5.526,0,0,1-.625-.23,5.345,5.345,0,0,1-.606-.3,4.7,4.7,0,0,1-.689-.489,4.5,4.5,0,0,1-.915-1.05h0A6.1,6.1,0,0,1,.068.723.851.851,0,0,1,.911,0H11.6a.851.851,0,0,1,.851.915Z" transform="translate(0)" fill="rgba(255,255,255,0.05)"/>
            </g>
            <g id="Path-19" data-name="Path" transform="translate(15.646)">
              <path id="Path-20" data-name="Path" d="M6.24,7.167a7.423,7.423,0,0,1-2.021-.26c-.117-.03-.23-.068-.335-.105a4.924,4.924,0,0,1-.61-.252,4.035,4.035,0,0,1-.587-.335A4.867,4.867,0,0,1,2.024,5.7,5.375,5.375,0,0,1,1.132,4.6,8.372,8.372,0,0,1,0,.918.851.851,0,0,1,.853,0H11.544a.851.851,0,0,1,.843.723C12.666,2.537,12.259,7.167,6.24,7.167Z" transform="translate(0 0)" fill="#ffcb6d"/>
              <path id="Path-21" data-name="Path" d="M6.24,7.167a7.423,7.423,0,0,1-2.021-.26c-.117-.03-.23-.068-.335-.105a4.924,4.924,0,0,1-.61-.252,4.035,4.035,0,0,1-.587-.335A4.867,4.867,0,0,1,2.024,5.7,5.375,5.375,0,0,1,1.132,4.6,8.372,8.372,0,0,1,0,.918.851.851,0,0,1,.853,0H11.544a.851.851,0,0,1,.843.723C12.666,2.537,12.259,7.167,6.24,7.167Z" transform="translate(0 0)" fill="rgba(255,255,255,0.05)"/>
            </g>
          </g>
          <path id="Light_layer" data-name="Light layer" d="M4.781,0,.915,5.816A4.5,4.5,0,0,1,0,4.766H0L3.162.008Z" transform="translate(5.954 0.753)" fill="#fff" opacity="0.4"/>
          <path id="Light_layer-2" data-name="Light layer" d="M5,0,.606,6.6A5.345,5.345,0,0,1,0,6.3L4.186,0Z" transform="translate(7.558 0.753)" fill="#fff" opacity="0.4"/>
          <path id="Light_layer-3" data-name="Light layer" d="M4.946,0,.339,6.923Q.166,6.881,0,6.832L4.544,0Z" transform="translate(8.789 0.753)" fill="#fff" opacity="0.4"/>
          <path id="Light_layer-4" data-name="Light layer" d="M4.656,0,.892,5.7A5.375,5.375,0,0,1,0,4.6L3.06,0Z" transform="translate(21.889 0.753)" fill="#fff" opacity="0.4"/>
          <path id="Light_layer-5" data-name="Light layer" d="M4.939,0,.587,6.55A4.035,4.035,0,0,1,0,6.215L4.141,0Z" transform="translate(23.424 0.753)" fill="#fff" opacity="0.4"/>
          <path id="Light_layer-6" data-name="Light layer" d="M4.924,0,.335,6.908C.218,6.877.105,6.84,0,6.8L4.517,0Z" transform="translate(24.621 0.753)" fill="#fff" opacity="0.4"/>
          <path id="Shape-3" data-name="Shape" d="M1.432,6.535A6.608,6.608,0,0,1,.077,1.359,1.593,1.593,0,0,1,1.662,0H12.357a1.608,1.608,0,0,1,1.6,1.735c-.173,2.086-1.216,6.938-6.994,6.938A6.911,6.911,0,0,1,1.432,6.535Z" transform="translate(4.341)" fill="#372168"/>
          <path id="Shape-4" data-name="Shape" d="M.006,1.735A1.6,1.6,0,0,1,1.606,0H12.3a1.6,1.6,0,0,1,1.585,1.355,6.586,6.586,0,0,1-1.359,5.18A6.893,6.893,0,0,1,7,8.673C1.218,8.673.183,3.821.006,1.735Z" transform="translate(19.982 0)" fill="#372168"/>
          <path id="Path-22" data-name="Path" d="M5.22,2.954a.862.862,0,0,1-.233-.038L.522,1.471A.754.754,0,1,1,.985.037L5.45,1.482a.753.753,0,0,1-.23,1.472Z" transform="translate(0 1.315)" fill="#372168"/>
          <path id="Path-23" data-name="Path" d="M.756,2.854A.753.753,0,0,1,.53,1.382L4.821.035a.754.754,0,1,1,.452,1.438L.981,2.817a.678.678,0,0,1-.226.038Z" transform="translate(32.332 1.415)" fill="#372168"/>
          <path id="Path-24" data-name="Path" d="M5.218,2.028a.73.73,0,0,1-.35-.087,4.114,4.114,0,0,0-3.734,0A.757.757,0,1,1,.381.628a5.646,5.646,0,0,1,5.176,0A.753.753,0,0,1,5.2,2.043Z" transform="translate(16.147 3.103)" fill="#372168"/>
          <path id="Path-25" data-name="Path" d="M3.968,1.506H.753A.753.753,0,1,1,.753,0H3.968a.753.753,0,1,1,0,1.506Z" transform="translate(16.765 0.632)" fill="#372168"/>
        </g>
      </g>
      <path id="Union_6" data-name="Union 6" d="M0,58.769C0,26.312,23.258,0,51.948,0S103.9,26.312,103.9,58.769s-23.258,58.769-51.948,58.769S0,91.226,0,58.769Z" transform="translate(0.753 0)" fill="none"/>
    </g>
  </g>
</svg>
