<svg xmlns="http://www.w3.org/2000/svg" width="230.05" height="230.05" viewBox="0 0 230.05 230.05">
  <g id="Group_12624" data-name="Group 12624" transform="translate(-559.617 -397.719)">
    <g id="bell" transform="translate(559.617 397.719)">
      <path id="Path_14000" data-name="Path 14000" d="M186.916,230.05H43.134A43.132,43.132,0,0,1,0,186.916V43.134A43.132,43.132,0,0,1,43.134,0H186.916A43.132,43.132,0,0,1,230.05,43.134V186.916A43.132,43.132,0,0,1,186.916,230.05Z" fill="#28a745" opacity="0.2"/>
      <path id="Path_14001" data-name="Path 14001" d="M102.216,89.057a32.109,32.109,0,0,1-11.4-24.565V51.134A33.574,33.574,0,0,0,62.058,17.971V12.8a4.8,4.8,0,0,0-9.59,0v5.176A33.567,33.567,0,0,0,23.711,51.134V64.5A32.148,32.148,0,0,1,12.266,89.1a8.387,8.387,0,0,0,5.456,14.759H96.8a8.392,8.392,0,0,0,5.413-14.8Z" transform="translate(57.763 49.512)" fill="#28a745"/>
      <path id="Path_14002" data-name="Path 14002" d="M31.163,36.378A18,18,0,0,0,48.769,22H13.55A18.01,18.01,0,0,0,31.163,36.378Z" transform="translate(83.862 136.159)" fill="#28a745" opacity="0.5"/>
    </g>
  </g>
</svg>
