<svg xmlns="http://www.w3.org/2000/svg" width="149.248" height="182" viewBox="0 0 149.248 182">
  <g id="notification" transform="translate(-0.5 -32.368)">
    <path id="Path_14625" data-name="Path 14625" d="M182.7,414.976a22.756,22.756,0,1,0-22.756,22.719A22.737,22.737,0,0,0,182.7,414.976Zm0,0" transform="translate(-84.823 -223.327)" fill="#f7c92b"/>
    <path id="Path_14626" data-name="Path 14626" d="M186.344,392.258a22.766,22.766,0,0,0-6.614.978,22.711,22.711,0,0,1,0,43.48,22.726,22.726,0,1,0,6.614-44.459Zm0,0" transform="translate(-111.22 -223.327)" fill="#f2b51d"/>
    <path id="Path_14627" data-name="Path 14627" d="M177.743,59.055a13.476,13.476,0,1,1,10.573-15.865A13.5,13.5,0,0,1,177.743,59.055Zm0,0" transform="translate(-99.96)" fill="#f7c92b"/>
    <path id="Path_14628" data-name="Path 14628" d="M202.822,43.191a13.5,13.5,0,0,0-15.891-10.557,13.79,13.79,0,0,0-1.97.551,13.47,13.47,0,0,1,0,25.318,13.5,13.5,0,0,0,17.86-15.313Zm0,0" transform="translate(-114.466)" fill="#f2b51d"/>
    <path id="Path_14629" data-name="Path 14629" d="M131.485,223.787H18.763a18.291,18.291,0,0,1-11.39-32.581l3.621-2.917a35.507,35.507,0,0,0,13.247-27.654V141.473a51.271,51.271,0,0,1,102.542,0v19.515a35.507,35.507,0,0,0,12.8,27.288l3.526,2.935a18.424,18.424,0,0,1,6.641,14.16v.184A18.247,18.247,0,0,1,131.485,223.787Zm0,0" transform="translate(0 -35.94)" fill="#f7e249"/>
    <path id="Path_14630" data-name="Path 14630" d="M242.155,191.209l-3.526-2.935a35.51,35.51,0,0,1-12.8-27.29V141.469a51.308,51.308,0,0,0-65.717-49.123,51.218,51.218,0,0,1,36.825,49.123v19.515a35.51,35.51,0,0,0,12.8,27.29l3.528,2.935a18.428,18.428,0,0,1,6.641,14.16v.184a18.247,18.247,0,0,1-18.263,18.232h28.892A18.247,18.247,0,0,0,248.8,205.553v-.184A18.424,18.424,0,0,0,242.155,191.209Zm0,0" transform="translate(-99.047 -35.938)" fill="#f7c92b"/>
  </g>
</svg>
