<svg xmlns="http://www.w3.org/2000/svg" width="43.6" height="39.381" viewBox="0 0 43.6 39.381">
  <g id="parking" transform="translate(0 0)">
    <path id="Path_3263" data-name="Path 3263" d="M49.406,69.626h1.406a2.813,2.813,0,1,0,0-5.626H48.7a.7.7,0,0,0-.7.7v6.329a.7.7,0,0,0,1.406,0Zm2.813-2.813a1.408,1.408,0,0,1-1.406,1.406H49.406V65.406h1.406A1.408,1.408,0,0,1,52.219,66.813Z" transform="translate(-44.483 -61.187)"/>
    <path id="Path_3264" data-name="Path 3264" d="M251.215,328.481a.7.7,0,0,0-.667-.481h-8.439a.7.7,0,0,0-.667.481l-1.406,4.219a.7.7,0,0,0,.667.926h11.252a.7.7,0,0,0,.667-.926Zm-9.537,3.739.938-2.813h7.425l.938,2.813Z" transform="translate(-219.605 -301.981)"/>
    <path id="Path_3265" data-name="Path 3265" d="M170.813,328a2.813,2.813,0,1,0,2.813,2.813A2.813,2.813,0,0,0,170.813,328Zm0,4.219a1.406,1.406,0,1,1,1.406-1.406A1.406,1.406,0,0,1,170.813,332.219Z" transform="translate(-153.935 -301.981)"/>
    <path id="Path_3266" data-name="Path 3266" d="M394.813,328a2.813,2.813,0,1,0,2.813,2.813A2.813,2.813,0,0,0,394.813,328Zm0,4.219a1.406,1.406,0,1,1,1.406-1.406A1.406,1.406,0,0,1,394.813,332.219Z" transform="translate(-358.245 -301.981)"/>
    <path id="Path_3267" data-name="Path 3267" d="M50.9,69.974H48.666a2.1,2.1,0,0,0,.121-.7V67.864h.7a.7.7,0,0,0,.7-.7v-2.11a.7.7,0,0,0-.7-.7V58.723a2.816,2.816,0,0,0-2.813-2.813H45.155l-.919-5.048-.069-.377a2.81,2.81,0,0,0-2.767-2.31H28.045a2.81,2.81,0,0,0-2.767,2.31l-.069.377L24.29,55.91H22.768a2.816,2.816,0,0,0-2.813,2.813v5.626a.7.7,0,0,0-.7.7v2.11a.7.7,0,0,0,.7.7h.7v1.406a2.1,2.1,0,0,0,.121.7H19.252V68.568a.7.7,0,0,0-.7-.7H15.032V47.471h.7a.7.7,0,0,0,.7-.7V45.361h2.813a.7.7,0,0,0,.7-.7V32.7a.7.7,0,0,0-.7-.7H9.406a.7.7,0,0,0-.7.7V44.658a.7.7,0,0,0,.7.7h2.813v1.406a.7.7,0,0,0,.7.7h.7V67.864H10.11a.7.7,0,0,0-.7.7v1.406H8.7a.7.7,0,0,0,0,1.406H50.9a.7.7,0,0,0,0-1.406ZM15.032,46.064H13.626v-.7h1.406Zm-4.923-2.11V33.406h8.439V43.955Zm7.735,26.019H10.813v-.7h7.032Zm10.2-20.394H41.4a1.4,1.4,0,0,1,1.218.7H26.826A1.4,1.4,0,0,1,28.045,49.581Zm-1.557,2.11h16.47l.767,4.219h-18Zm-5.127,7.032a1.408,1.408,0,0,1,1.406-1.406h23.91a1.408,1.408,0,0,1,1.406,1.406v5.626H21.361Zm3.516,10.548a.7.7,0,0,1-.7.7H22.768a.7.7,0,0,1-.7-.7V67.864h2.813Zm1.285.7a2.1,2.1,0,0,0,.121-.7V67.864H43.161v1.406a2.1,2.1,0,0,0,.121.7Zm21.218-.7a.7.7,0,0,1-.7.7H45.271a.7.7,0,0,1-.7-.7V67.864h2.813ZM20.658,66.458v-.7H48.787v.7Z" transform="translate(-7.999 -32)"/>
  </g>
</svg>
