<svg xmlns="http://www.w3.org/2000/svg" width="28.5" height="28.5" viewBox="0 0 28.5 28.5">
  <g id="telephone" transform="translate(0 0)">
    <path id="Path_4887" data-name="Path 4887" d="M23.156,28.5H5.344A5.343,5.343,0,0,1,0,23.156V5.344A5.343,5.343,0,0,1,5.344,0H23.156A5.343,5.343,0,0,1,28.5,5.344V23.156A5.343,5.343,0,0,1,23.156,28.5Z" transform="translate(0 0)" fill="#28a745"/>
    <path id="Path_4888" data-name="Path 4888" d="M.445,4.75A.445.445,0,0,1,0,4.3V.445a.445.445,0,1,1,.891,0V4.3A.445.445,0,0,1,.445,4.75Z" transform="translate(14.539 14.41) rotate(-90)" fill="#fff"/>
    <path id="Path_4889" data-name="Path 4889" d="M.445,2.375A.445.445,0,0,1,0,1.93V.445a.445.445,0,0,1,.891,0V1.93A.445.445,0,0,1,.445,2.375Z" transform="translate(15.726 16.34) rotate(-90)" fill="#fff"/>
    <path id="Path_4890" data-name="Path 4890" d="M.445,2.375A.445.445,0,0,1,0,1.93V.445a.445.445,0,0,1,.891,0V1.93A.445.445,0,0,1,.445,2.375Z" transform="translate(15.726 12.48) rotate(-90)" fill="#fff"/>
    <path id="Path_4891" data-name="Path 4891" d="M2.586,5.921A1.093,1.093,0,0,1,1.809,5.6L.32,4.11A1.079,1.079,0,0,1,0,3.295a1.137,1.137,0,0,1,.4-.818,10.386,10.386,0,0,1,13.459,0,1.13,1.13,0,0,1,.391.808,1.092,1.092,0,0,1-.316.817L12.489,5.563a1.1,1.1,0,0,1-1.351.171l-1.51-.9a1.1,1.1,0,0,1-.524-1.1l.134-.918A7.881,7.881,0,0,0,5.07,2.8l.132.949a1.11,1.11,0,0,1-.527,1.1l-1.516.914a1.122,1.122,0,0,1-.573.158Z" transform="translate(9.211 21.09) rotate(-90)" fill="#fff"/>
  </g>
</svg>
