<svg xmlns="http://www.w3.org/2000/svg" width="28.5" height="28.5" viewBox="0 0 28.5 28.5">
  <g id="email_1_" data-name="email (1)" transform="translate(0 0)">
    <path id="Path_4882" data-name="Path 4882" d="M23.156,28.5H5.344A5.343,5.343,0,0,1,0,23.156V5.344A5.343,5.343,0,0,1,5.344,0H23.156A5.343,5.343,0,0,1,28.5,5.344V23.156A5.343,5.343,0,0,1,23.156,28.5Z" transform="translate(0 0)" fill="#007bff"/>
    <path id="Path_4883" data-name="Path 4883" d="M22.38,11.536a1.037,1.037,0,0,0-.794-.369H12.962a1.036,1.036,0,0,0-1.024.866l-.955,5.64a1.039,1.039,0,0,0,1.024,1.212h8.624a1.036,1.036,0,0,0,1.024-.866l.955-5.64A1.034,1.034,0,0,0,22.38,11.536Zm-1.274,2.333-3.77,1.561a1.264,1.264,0,0,1-.51.1,1.282,1.282,0,0,1-.588-.136l-3.426-1.686.154-.915L16.629,14.6A.463.463,0,0,0,17,14.61l4.281-1.775Zm1.313-.653.047-.3A.394.394,0,0,1,22.419,13.215Z" transform="translate(-1.2 -1.221)" fill="#fff"/>
    <g id="Group_11564" data-name="Group 11564" transform="translate(7.135 10.539)">
      <path id="Path_4884" data-name="Path 4884" d="M10.386,13.021H8.605a.594.594,0,0,1,0-1.188h1.781a.594.594,0,1,1,0,1.188Z" transform="translate(-8.011 -11.833)" fill="#fff"/>
      <path id="Path_4885" data-name="Path 4885" d="M9.792,15.687H8.605a.594.594,0,1,1,0-1.187H9.792a.594.594,0,1,1,0,1.187Z" transform="translate(-8.011 -12.125)" fill="#fff"/>
      <path id="Path_4886" data-name="Path 4886" d="M9.2,18.354H8.605a.594.594,0,1,1,0-1.188H9.2a.594.594,0,1,1,0,1.188Z" transform="translate(-8.011 -12.416)" fill="#fff"/>
    </g>
  </g>
</svg>
