<svg id="heart" xmlns="http://www.w3.org/2000/svg" width="229.769" height="229.769" viewBox="0 0 229.769 229.769">
  <path id="Path_14641" data-name="Path 14641" d="M186.687,229.769H43.082A43.079,43.079,0,0,1,0,186.687V43.082A43.079,43.079,0,0,1,43.082,0H186.687a43.079,43.079,0,0,1,43.082,43.082V186.687A43.088,43.088,0,0,1,186.687,229.769Zm0,0" fill="#ffe6e2"/>
  <path id="Path_14642" data-name="Path 14642" d="M210.525,138a31.672,31.672,0,0,0-25.755,13.183,31.709,31.709,0,0,0-57.442,18.44c0,31.026,47.361,68.018,51.619,71.279a8.253,8.253,0,0,0,11.647,0c4.258-3.261,51.619-40.252,51.619-71.279A31.694,31.694,0,0,0,210.525,138Zm0,0" transform="translate(-70.188 -76.07)" fill="#fc573b"/>
</svg>
