<svg id="Layer_9" xmlns="http://www.w3.org/2000/svg" width="43.23" height="39.25" viewBox="0 0 43.23 39.25">
  <path id="Path_10351" data-name="Path 10351" d="M63.382,44.45H25.848A2.851,2.851,0,0,0,23,47.3V70.944a2.851,2.851,0,0,0,2.848,2.848H39.141V77.54h-5.4a3.343,3.343,0,0,0-3.34,3.34v2.078a.742.742,0,0,0,.742.742h26.94a.742.742,0,0,0,.742-.742V80.88a3.343,3.343,0,0,0-3.34-3.34h-5.4V73.792H63.382a2.851,2.851,0,0,0,2.848-2.848V47.3A2.851,2.851,0,0,0,63.382,44.45ZM25.848,45.934H63.382A1.365,1.365,0,0,1,64.745,47.3V67.633H24.484V47.3A1.365,1.365,0,0,1,25.848,45.934ZM57.342,80.88v1.336H31.887V80.88a1.857,1.857,0,0,1,1.855-1.855H55.487a1.857,1.857,0,0,1,1.855,1.855ZM48.6,77.54H40.626V73.792H48.6Zm14.778-5.232H25.848a1.365,1.365,0,0,1-1.364-1.364V69.117H64.745v1.828A1.365,1.365,0,0,1,63.382,72.308Z" transform="translate(-23 -44.45)"/>
</svg>
