<svg xmlns="http://www.w3.org/2000/svg" width="39.601" height="27.154" viewBox="0 0 39.601 27.154">
  <g id="couch" transform="translate(0)">
    <g id="Group_12151" data-name="Group 12151" transform="translate(0 0)">
      <path id="Path_10341" data-name="Path 10341" d="M36.118,87.575v-2.47a4.649,4.649,0,0,0-4.644-4.644H8.127a4.649,4.649,0,0,0-4.644,4.644v2.47A4.652,4.652,0,0,0,0,92.072v13.221H3.483v2.323H5.8v-2.323H33.8v2.323h2.32v-2.323H39.6V92.072A4.652,4.652,0,0,0,36.118,87.575ZM5.8,85.106a2.326,2.326,0,0,1,2.323-2.323H31.474A2.326,2.326,0,0,1,33.8,85.106v2.47a4.652,4.652,0,0,0-3.483,4.5v.838H9.287v-.837a4.652,4.652,0,0,0-3.483-4.5v-2.47ZM30.314,95.23v2.324H20.961V95.23Zm-11.674,0v2.324H9.287V95.23Zm18.64,7.743H2.32v-10.9a2.323,2.323,0,0,1,4.646,0v7.8H32.634v-7.8a2.323,2.323,0,0,1,4.646,0Z" transform="translate(0 -80.462)"/>
    </g>
  </g>
</svg>
