<svg xmlns="http://www.w3.org/2000/svg" xmlns:xlink="http://www.w3.org/1999/xlink" width="48.593" height="48.593" viewBox="0 0 48.593 48.593">
  <defs>
    <clipPath id="clip-path">
      <circle id="Ellipse_1357" data-name="Ellipse 1357" cx="24.297" cy="24.297" r="24.297" transform="translate(121.36 199.16)" fill="none"/>
    </clipPath>
  </defs>
  <g id="Group_12053" data-name="Group 12053" transform="translate(-121.36 -199.16)" clip-path="url(#clip-path)">
    <circle id="Ellipse_1349" data-name="Ellipse 1349" cx="24.297" cy="24.297" r="24.297" transform="translate(121.36 199.16)" fill="#28a745" opacity="0.2"/>
    <path id="Path_10258" data-name="Path 10258" d="M407.256,334.444s-1.7-1.423-2.8.3-.173,3.934.157,4.812,1.306,5.249,1.306,5.249.2.734,1.626,1.709,1.171-1.769,1.171-1.769Z" transform="translate(-264.191 -125.971)" fill="#28a745"/>
    <path id="Path_10259" data-name="Path 10259" d="M168.028,521.364l-7.92.1-.46.005-24.929.309-2.578.032-10.73.13h0s.02-.536.07-1.486q.012-.228.026-.488c.016-.3.035-.635.057-1q.014-.232.029-.48c0-.055.007-.111.01-.167.035-.561.076-1.177.124-1.84q.015-.2.029-.4c.01-.137.02-.274.031-.414s.021-.281.033-.425.022-.288.034-.434.023-.295.035-.444.025-.3.037-.455a164.89,164.89,0,0,1,2.346-17.77q.137-.689.317-1.326.071-.256.15-.5t.162-.486q.126-.359.265-.7.185-.455.39-.882.155-.319.322-.622t.343-.591c.04-.065.079-.13.119-.19q.12-.189.245-.37c.042-.06.083-.12.126-.18q.315-.445.656-.85l.137-.161q.274-.318.562-.611l.144-.145c4.393-4.357,10.659-4.613,11.49-4.812l.036-.009c.041-.01.083-.023.124-.036l.058-.019.059-.02.058-.022.059-.023.055-.023a3.244,3.244,0,0,0,.6-.339c.033-.023.065-.047.1-.073l.06-.047c.04-.032.079-.065.118-.1l.059-.052.057-.053.059-.057c.038-.038.076-.077.114-.117.02-.02.038-.04.056-.061l.056-.065.055-.065.054-.065h0l.052-.065a5.785,5.785,0,0,0,1.073-2.779,59.765,59.765,0,0,0-.018-8.177l2.074,1.22,4.017,2.362c-.065,1.616-.088,2.915-.027,3.972a5.15,5.15,0,0,0,1.192,3.577h0c.056.057.114.111.175.163.03.027.061.053.092.078l.1.076c.031.025.065.05.1.073s.069.049.1.072a4.8,4.8,0,0,0,.579.33h0c.041.02.083.04.125.059l.13.06.137.059.135.055.151.059q.155.059.321.115l.121.041c.13.043.265.086.4.13l.13.038.049.014.207.059.325.087c.55.146,1.149.325,1.778.536q.235.08.476.166h0q.241.087.486.18h0q.245.094.494.2c4.148,1.673,8.9,4.843,9.649,10.435C167.106,502.808,168.028,521.364,168.028,521.364Z" transform="translate(-0.047 -254.574)" fill="#ffe6e6"/>
    <path id="Path_10260" data-name="Path 10260" d="M168,678.757l-2.448.031-5.472.065-.46.005-9.95.124-2.523.031-12.46.154-.886.011-1.691.021-5.227.07-5.5.065s.007-.179.022-.513c.007-.144.014-.319.024-.52.007-.138.014-.289.023-.455s.017-.315.026-.488c.017-.3.036-.635.057-1q.014-.232.029-.48c0-.055.007-.111.01-.166.036-.561.077-1.177.124-1.84q.015-.2.029-.4c.01-.137.02-.274.031-.414,0-.029,0-.059.007-.089.008-.111.017-.222.025-.336,0-.06.009-.122.014-.183l.02-.252q.018-.219.035-.444t.037-.455c.107-1.295.235-2.7.385-4.168.018-.171.035-.343.054-.52.178-1.7.39-3.49.632-5.306.023-.172.047-.343.071-.516.242-1.756.52-3.54.832-5.29q.046-.26.094-.515.135-.734.278-1.457.137-.689.317-1.326.071-.256.15-.5t.162-.486c.084-.239.173-.473.265-.7q.16-.394.338-.767c.018-.038.036-.077.055-.115l.2-.39c.041-.079.083-.157.126-.235q.166-.3.343-.591c.04-.065.079-.13.119-.19q.121-.189.245-.37c.042-.06.083-.12.126-.18q.316-.445.656-.85l.137-.161q.275-.318.562-.611l.144-.145a14.135,14.135,0,0,1,2.1-1.711q.376-.252.756-.474a22.826,22.826,0,0,1,8.634-2.629.126.126,0,0,0,.036-.009l.01,0,.114-.033.058-.019.059-.02.058-.022.059-.023.055-.023c.053-.023.106-.048.159-.075a3.353,3.353,0,0,0,.436-.265c.033-.023.065-.047.1-.073l.06-.047c.04-.031.079-.065.118-.1l.059-.052.057-.053.059-.057c.039-.038.077-.077.114-.117.02-.02.038-.04.056-.061s.038-.042.056-.065.037-.043.055-.065l.054-.065h0l.053-.065c4.884,2.087,7.482.771,8.311.177h0c.056.056.114.111.175.163.03.027.061.053.092.078l.1.076c.031.025.065.049.1.073l.1.072a5.09,5.09,0,0,0,.579.33h0l.125.059.13.06.137.058h0c.034.015.068.029.1.042l.029.012.151.059q.155.059.321.115l.121.041c.13.043.265.086.4.13l.016,0,.113.033.049.014.207.059.325.087c.55.146,1.149.325,1.778.536.157.053.316.108.476.166h0q.241.087.486.18h0q.245.094.494.2a23.137,23.137,0,0,1,2.895,1.4q.39.226.78.473a13.653,13.653,0,0,1,4.812,4.959q.13.244.249.5a10.558,10.558,0,0,1,.91,3.107c.083.626.166,1.34.249,2.121q.026.254.053.517.045.438.088.9h0c.13,1.353.254,2.846.375,4.4.013.172.027.345.04.52.13,1.744.26,3.551.375,5.31.011.174.023.347.034.52.122,1.886.233,3.707.325,5.314.01.176.02.35.03.52.151,2.624.254,4.617.289,5.318C168,678.662,168,678.757,168,678.757Z" transform="translate(-0.019 -411.966)" fill="#72bf44"/>
    <path id="Path_10261" data-name="Path 10261" d="M503.67,707.238l-2.523.031L500,671.517,501.009,670l1.4,1.972Z" transform="translate(-354.017 -440.221)" fill="#28a745"/>
    <path id="Path_10262" data-name="Path 10262" d="M451.55,486.54a10.794,10.794,0,0,0,2.211,5.426,2.886,2.886,0,0,0,3.611,1.145c-.062-1.057-.037-2.356.027-3.972l-4.016-2.362Z" transform="translate(-308.718 -268.691)" fill="#28a745"/>
    <path id="Path_10263" data-name="Path 10263" d="M415.182,360.954a1.447,1.447,0,0,1,1.029.2c-.031-2.64.23-5.853.23-5.853h9.841l-.026,5.81s-.018.287,0,2.111c.022,2.216-1.779,5.593-4.192,5.593-3.711,0-5.072-2.725-5.593-4.833-.585.13-1.5.2-1.821-.471C414.174,362.486,414.268,361.072,415.182,360.954Z" transform="translate(-273.954 -145.986)" fill="#ffe6e6"/>
    <circle id="Ellipse_1350" data-name="Ellipse 1350" cx="0.29" cy="0.29" r="0.29" transform="translate(146.336 216.459)" fill="#28a745"/>
    <circle id="Ellipse_1351" data-name="Ellipse 1351" cx="0.29" cy="0.29" r="0.29" transform="translate(149.367 216.459)" fill="#28a745"/>
    <path id="Path_10264" data-name="Path 10264" d="M497.708,433.7a5.174,5.174,0,0,1-.985.048c-.806,0-1.164.078-1.149,0,.065-.336,1.5-.5,1.74-.468S497.807,433.486,497.708,433.7Z" transform="translate(-349.878 -218.892)" fill="#28a745"/>
    <path id="Path_10265" data-name="Path 10265" d="M547.56,433.7a5.174,5.174,0,0,0,.985.048c.806,0,1.164.078,1.149,0-.065-.336-1.5-.5-1.74-.468S547.461,433.486,547.56,433.7Z" transform="translate(-398.464 -218.892)" fill="#28a745"/>
    <path id="Path_10266" data-name="Path 10266" d="M432.662,326.2l.6,2.086a32.538,32.538,0,0,1,.331-4.087,2.3,2.3,0,0,1,2.065-2.146.34.34,0,0,1,.089,0h6.461s1.874-.613.03-2.7c-.184-.094-1.25-.3-1.458-.354-2.53-.685-6.391-1.674-7.077.78,0,0-1.04-.9-1.392,1.163A17.471,17.471,0,0,0,432.662,326.2Z" transform="translate(-290.636 -111.307)" fill="#28a745"/>
    <path id="Path_10267" data-name="Path 10267" d="M536.219,476.471a.9.9,0,0,1,.15-.031c.205-.034.462-.075.5-.22.022-.077-.023-.163-.137-.26a1.568,1.568,0,0,1-.349-1.171l-.088-.009a1.623,1.623,0,0,0,.379,1.248c.081.07.12.13.109.17-.025.091-.29.134-.432.157a.576.576,0,0,0-.185.045Z" transform="translate(-387.835 -257.696)" fill="#28a745"/>
    <path id="Path_10268" data-name="Path 10268" d="M518.965,502.1a3.605,3.605,0,0,1-1.266-.38S517.825,502.625,518.965,502.1Z" transform="translate(-370.566 -282.884)" fill="#28a745"/>
    <path id="Path_10269" data-name="Path 10269" d="M449.453,354.939a6.062,6.062,0,0,0-1.348-2.922s-2.615-.943-3.87,2.15-5.085,1.279-5.085,1.279l.5-.254s2.861,1.037,3.845-.966c0,0-1.264,1.72-4.116.715l.576-4.866,9.722-.585S450.565,351.44,449.453,354.939Z" transform="translate(-297.124 -140.554)" fill="#28a745"/>
    <path id="Path_10270" data-name="Path 10270" d="M432.315,293s-1.128-1.9.5-3.069,4.812-.553,5.755,0,2.781-1.171,4.138.293-.139,4.194-.139,4.194Z" transform="translate(-290.378 -84.242)" fill="#28a745"/>
    <path id="Path_10271" data-name="Path 10271" d="M576.03,351.97s-.495,3.125,1.431,3.958a9.791,9.791,0,0,0,.144-6.488Z" transform="translate(-425.049 -140.507)" fill="#28a745"/>
    <path id="Path_10272" data-name="Path 10272" d="M288.988,821.247l-2.578.032c.754-7.988,3.148-29.044,3.2-29.539C289.581,792.232,288.208,812.388,288.988,821.247Z" transform="translate(-154.317 -554.044)" fill="#28a745"/>
    <path id="Path_10273" data-name="Path 10273" d="M675.566,827.814l-.46.005L672.72,799.1Z" transform="translate(-515.505 -560.926)" fill="#28a745"/>
    <path id="Path_10274" data-name="Path 10274" d="M614.74,678.973c-1.6-9.66-10.712-13.99-13.96-15.243l.113.033.049.014.207.059.325.087c.55.146,1.149.325,1.778.536.157.053.316.108.476.166h0q.241.087.486.18h0q.245.094.494.2a23.144,23.144,0,0,1,2.894,1.4q.39.226.78.473a13.653,13.653,0,0,1,4.812,4.959q.13.244.249.5a10.555,10.555,0,0,1,.91,3.106c.083.626.167,1.34.249,2.121q.026.254.053.517Z" transform="translate(-448.243 -434.359)" fill="#28a745"/>
    <path id="Path_10275" data-name="Path 10275" d="M423.168,641.128l-2.242,3.2a.265.265,0,0,1-.429.007l-1.831-2.439-1.637,2.5a.265.265,0,0,1-.377.069l-4.722-3.439a3.356,3.356,0,0,0,.436-.265c.032-.023.065-.047.1-.073l.06-.047c.04-.031.079-.065.118-.1l.059-.052.057-.053.059-.057c.039-.038.077-.077.114-.117.02-.02.038-.04.056-.061s.038-.042.056-.065.037-.043.055-.065l.054-.065h0l.053-.065c4.884,2.087,7.482.771,8.311.177h0c.056.056.114.111.175.163.03.027.061.053.092.078l.1.076c.031.025.065.049.1.073l.1.072a5.087,5.087,0,0,0,.579.33h0l.125.059.13.06.137.059h0C423.1,641.1,423.133,641.114,423.168,641.128Z" transform="translate(-271.674 -412.116)" fill="#72bf44"/>
    <path id="Path_10276" data-name="Path 10276" d="M422.671,657.606l-2.206,3.15a.329.329,0,0,1-.534.009l-1.775-2.365-.895,1.366-.183.283-.509.773a.33.33,0,0,1-.47.086l-4.719-3.437a1.486,1.486,0,0,0,.17.01h.065l4.563,3.322a.2.2,0,0,0,.284-.052l.608-.927.187-.285.894-1.366,1.886,2.513a.2.2,0,0,0,.325-.005l2.139-3.053A1.4,1.4,0,0,0,422.671,657.606Z" transform="translate(-271.16 -428.506)" fill="#28a745"/>
    <path id="Path_10277" data-name="Path 10277" d="M500.092,724.957l-.194.006-1.041-35.22-.007-.228.187-.285.007.228Z" transform="translate(-352.942 -458.2)" fill="#28c34b"/>
    <ellipse id="Ellipse_1352" data-name="Ellipse 1352" cy="0.5" ry="0.5" transform="translate(148 262.16)" fill="#120283"/>
    <circle id="Ellipse_1353" data-name="Ellipse 1353" cx="0.325" cy="0.325" r="0.325" transform="translate(147.694 254.918)" fill="#120283"/>
    <circle id="Ellipse_1354" data-name="Ellipse 1354" cx="0.325" cy="0.325" r="0.325" transform="translate(147.454 247.411)" fill="#120283"/>
    <circle id="Ellipse_1355" data-name="Ellipse 1355" cx="0.325" cy="0.325" r="0.325" transform="translate(147.214 239.904)" fill="#72bf44"/>
    <circle id="Ellipse_1356" data-name="Ellipse 1356" cx="0.325" cy="0.325" r="0.325" transform="translate(146.973 232.397)" fill="#72bf44"/>
  </g>
</svg>
