<svg id="tick-mark" xmlns="http://www.w3.org/2000/svg" width="38.44" height="38.44" viewBox="0 0 38.44 38.44">
  <path id="Path_1389" data-name="Path 1389" d="M31.232,38.44H7.207A7.207,7.207,0,0,1,0,31.232V7.207A7.207,7.207,0,0,1,7.207,0H31.232A7.207,7.207,0,0,1,38.44,7.207V31.232A7.207,7.207,0,0,1,31.232,38.44Z" fill="#fff9dd"/>
  <path id="Path_1390" data-name="Path 1390" d="M17.61,8a9.61,9.61,0,1,0,9.61,9.61A9.621,9.621,0,0,0,17.61,8Zm4.871,7.574-5.2,5.2a.8.8,0,0,1-1.132,0l-2.6-2.6a.8.8,0,1,1,1.133-1.133l2.036,2.036,4.639-4.639a.8.8,0,1,1,1.132,1.134Z" transform="translate(1.61 1.61)" fill="#ffd200"/>
</svg>
