<svg xmlns="http://www.w3.org/2000/svg" width="42.186" height="42.663" viewBox="0 0 42.186 42.663">
  <g id="bathtub" transform="translate(0.351 0.35)">
    <g id="Group_1107" data-name="Group 1107" transform="translate(-0.001)">
      <g id="Group_1106" data-name="Group 1106">
        <path id="Path_1784" data-name="Path 1784" d="M43.586,25.429V20.743H8.12V3.343a2.012,2.012,0,0,1,2.009-2.009h1.342A2.012,2.012,0,0,1,13.48,3.343V5.353H10.137V6.695h8.029V5.353H14.823V3.343A3.346,3.346,0,0,0,11.479,0H10.137A3.347,3.347,0,0,0,6.786,3.343v17.4H2.1v4.686a14.009,14.009,0,0,0,5.534,11.15L4.875,41.14l1.145.692,2.717-4.5a13.93,13.93,0,0,0,7.419,2.141H29.538a13.93,13.93,0,0,0,7.419-2.141l2.717,4.5,1.145-.692-2.759-4.562A14.025,14.025,0,0,0,43.586,25.429ZM3.442,22.085h38.8v2.676H3.442Zm26.1,16.058H16.148A12.721,12.721,0,0,1,3.467,26.1H42.211A12.713,12.713,0,0,1,29.538,38.143Z" transform="translate(-2.1)" stroke="#000" stroke-width="0.7"/>
      </g>
    </g>
    <g id="Group_1109" data-name="Group 1109" transform="translate(13.381 10.038)">
      <g id="Group_1108" data-name="Group 1108">
        <rect id="Rectangle_2352" data-name="Rectangle 2352" width="1.342" height="1.342" stroke="#000" stroke-width="0.7"/>
      </g>
    </g>
    <g id="Group_1111" data-name="Group 1111" transform="translate(9.37 10.038)">
      <g id="Group_1110" data-name="Group 1110" transform="translate(0)">
        <rect id="Rectangle_2353" data-name="Rectangle 2353" width="1.342" height="1.342" stroke="#000" stroke-width="0.7"/>
      </g>
    </g>
    <g id="Group_1113" data-name="Group 1113" transform="translate(11.372 8.029)">
      <g id="Group_1112" data-name="Group 1112">
        <rect id="Rectangle_2354" data-name="Rectangle 2354" width="1.342" height="1.342" stroke="#000" stroke-width="0.7"/>
      </g>
    </g>
    <g id="Group_1115" data-name="Group 1115" transform="translate(11.372 11.372)">
      <g id="Group_1114" data-name="Group 1114">
        <rect id="Rectangle_2355" data-name="Rectangle 2355" width="1.342" height="1.342" stroke="#000" stroke-width="0.7"/>
      </g>
    </g>
    <g id="Group_1117" data-name="Group 1117" transform="translate(8.028 8.029)">
      <g id="Group_1116" data-name="Group 1116">
        <rect id="Rectangle_2356" data-name="Rectangle 2356" width="1.342" height="1.342" stroke="#000" stroke-width="0.7"/>
      </g>
    </g>
    <g id="Group_1119" data-name="Group 1119" transform="translate(14.723 8.029)">
      <g id="Group_1118" data-name="Group 1118">
        <rect id="Rectangle_2357" data-name="Rectangle 2357" width="1.342" height="1.342" stroke="#000" stroke-width="0.7"/>
      </g>
    </g>
  </g>
</svg>
