<svg xmlns="http://www.w3.org/2000/svg" width="42.049" height="25.007" viewBox="0 0 42.049 25.007">
  <g id="workout" transform="translate(0.249 0.25)">
    <path id="Path_3258" data-name="Path 3258" d="M40.128,113.4H39.114v-4.1a1.747,1.747,0,0,0-1.745-1.745h-2.6a1.736,1.736,0,0,0-.527.082v-.244A2.4,2.4,0,0,0,31.851,105H28.605a2.4,2.4,0,0,0-2.394,2.394v7.165H15.337v-7.165A2.4,2.4,0,0,0,12.943,105H9.7A2.4,2.4,0,0,0,7.3,107.394v.244a1.736,1.736,0,0,0-.527-.082h-2.6A1.747,1.747,0,0,0,2.434,109.3v.786a.609.609,0,1,0,1.217,0V109.3a.528.528,0,0,1,.527-.527h2.6a.528.528,0,0,1,.527.527v15.905a.528.528,0,0,1-.527.527h-2.6a.528.528,0,0,1-.527-.527V112.691a.609.609,0,0,0-1.217,0v.708H1.42A1.422,1.422,0,0,0,0,114.819v4.869a1.422,1.422,0,0,0,1.42,1.42H2.434v4.1a1.747,1.747,0,0,0,1.745,1.745h2.6a1.736,1.736,0,0,0,.527-.082v.244A2.4,2.4,0,0,0,9.7,129.507h3.246a2.4,2.4,0,0,0,2.394-2.394v-7.165h.886a.609.609,0,1,0,0-1.217h-.886v-2.955H26.211v2.955h-7.35a.609.609,0,0,0,0,1.217h7.35v7.165a2.4,2.4,0,0,0,2.394,2.394h3.246a2.4,2.4,0,0,0,2.394-2.394v-.244a1.736,1.736,0,0,0,.527.082h2.6a1.747,1.747,0,0,0,1.745-1.745v-.822a.609.609,0,1,0-1.217,0v.822a.528.528,0,0,1-.527.527h-2.6a.528.528,0,0,1-.527-.527V109.3a.528.528,0,0,1,.527-.527h2.6a.528.528,0,0,1,.527.527v12.456a.609.609,0,1,0,1.217,0v-.649h1.014a1.422,1.422,0,0,0,1.42-1.42v-4.869A1.422,1.422,0,0,0,40.128,113.4ZM1.42,119.891a.2.2,0,0,1-.2-.2v-4.869a.2.2,0,0,1,.2-.2H2.434v5.275Zm12.7,7.222a1.178,1.178,0,0,1-1.177,1.177H9.7a1.178,1.178,0,0,1-1.177-1.177V107.394A1.178,1.178,0,0,1,9.7,106.217h3.246a1.178,1.178,0,0,1,1.177,1.177Zm18.908,0a1.178,1.178,0,0,1-1.177,1.177H28.605a1.178,1.178,0,0,1-1.177-1.177V107.394a1.178,1.178,0,0,1,1.177-1.177h3.246a1.178,1.178,0,0,1,1.177,1.177Zm7.3-7.425a.2.2,0,0,1-.2.2H39.114v-5.275h1.014a.2.2,0,0,1,.2.2Z" transform="translate(0.001 -105)" stroke="#000" stroke-width="0.5"/>
  </g>
</svg>
