<svg id="resort" xmlns="http://www.w3.org/2000/svg" width="55.269" height="58.596" viewBox="0 0 55.269 58.596">
  <path id="Path_3729" data-name="Path 3729" d="M146.346,289.637a.691.691,0,0,0-.553-.254h-3.476a.675.675,0,0,0-.585.3l-4.557,7.654H124.6a.669.669,0,0,0-.6.321l-2.832,4.76H97.429a.6.6,0,0,0-.652.539v2.586a.6.6,0,0,0,.652.538h5.259l-3.778,6.511a.457.457,0,0,0,.028.524.689.689,0,0,0,.555.256h3.477a.679.679,0,0,0,.583-.3l4.071-6.994h24.825l4.072,6.994a.677.677,0,0,0,.583.3h3.476a.691.691,0,0,0,.555-.256.458.458,0,0,0,.028-.524l-4.1-6.519,9.32-15.914A.46.46,0,0,0,146.346,289.637Zm-10.826,10.5-1.356,2.282h-9.191l1.343-2.284Z" transform="translate(-91.177 -254.777)" fill="#28a745"/>
  <path id="Path_3730" data-name="Path 3730" d="M74.936,45.929h-.068c-13.742,0-24.909,7.409-24.918,16.517a.449.449,0,0,0,.464.405.59.59,0,0,0,.4-.122A11.034,11.034,0,0,1,64.548,62.7a.567.567,0,0,0,.67.024,16.952,16.952,0,0,1,19.368,0,.567.567,0,0,0,.67-.024,11.035,11.035,0,0,1,13.737.025.59.59,0,0,0,.4.122.449.449,0,0,0,.464-.405C99.845,53.338,88.678,45.929,74.936,45.929Z" transform="translate(-49.95 -40.437)" fill="#72bf44"/>
  <path id="Path_3731" data-name="Path 3731" d="M210.631,449.761a1.624,1.624,0,0,0,1.622-1.622V444.5a.2.2,0,0,0-.063-.147.211.211,0,0,0-.15-.056h-2.828a.2.2,0,0,0-.2.2v3.641A1.624,1.624,0,0,0,210.631,449.761Z" transform="translate(-186.212 -391.164)" fill="#72bf44"/>
  <path id="Path_3732" data-name="Path 3732" d="M212.049,176.314a7.548,7.548,0,0,0-2.839.007c-.1.026-.2.086-.2.2v24.2a.2.2,0,0,0,.2.2h2.838a.2.2,0,0,0,.2-.2v-24.2A.235.235,0,0,0,212.049,176.314Z" transform="translate(-186.213 -155.114)" fill="#72bf44"/>
  <path id="Path_3733" data-name="Path 3733" d="M210.628,0h0a1.624,1.624,0,0,0-1.622,1.622v2.29a.2.2,0,0,0,.2.2h.01c.55-.029.988-.042,1.409-.042s.859.013,1.409.042h.01a.2.2,0,0,0,.2-.2V1.622A1.623,1.623,0,0,0,210.628,0Z" transform="translate(-186.208)" fill="#72bf44"/>
</svg>
