<svg id="architecture-and-city" xmlns="http://www.w3.org/2000/svg" width="62.43" height="58.403" viewBox="0 0 62.43 58.403">
  <g id="Group_11316" data-name="Group 11316" transform="translate(8.055 1.008)">
    <g id="Group_11315" data-name="Group 11315" transform="translate(0 0)">
      <path id="Path_3182" data-name="Path 3182" d="M72,256h46.319v4.028H72Z" transform="translate(-72 -227.807)" fill="#28a745"/>
      <path id="Path_3183" data-name="Path 3183" d="M96,320h12.083v20.139H96Z" transform="translate(-92.979 -283.751)" fill="#28a745"/>
      <path id="Path_3184" data-name="Path 3184" d="M232,320h8.055v10.069H232Z" transform="translate(-211.861 -283.751)" fill="#d9d9d9"/>
      <path id="Path_3185" data-name="Path 3185" d="M336,320h8.055v10.069H336Z" transform="translate(-302.771 -283.751)" fill="#d9d9d9"/>
      <path id="Path_3186" data-name="Path 3186" d="M122.629,38.046a3.545,3.545,0,0,0-.5.036c0-.013,0-.024,0-.036A6.042,6.042,0,0,0,110.7,35.308a5.035,5.035,0,1,0-1.664,9.787h13.09v-.036a3.524,3.524,0,1,0,.5-7.012Z" transform="translate(-99.973 -32.005)" fill="#28a745"/>
    </g>
    <path id="Path_3187" data-name="Path 3187" d="M72,448h3.021v4.028H72Z" transform="translate(-72 -395.64)" fill="#d9d9d9"/>
    <path id="Path_3188" data-name="Path 3188" d="M192,448h31.215v4.028H192Z" transform="translate(-176.896 -395.64)" fill="#28a745"/>
  </g>
  <g id="Group_11317" data-name="Group 11317" transform="translate(0 0)">
    <path id="Path_3189" data-name="Path 3189" d="M69.423,143.326H63.381v-26.18h4.028a1.007,1.007,0,0,0,.9-1.458l-4.028-8.055a1.008,1.008,0,0,0-.9-.556H54.319v-2.014H57.34a1.007,1.007,0,1,0,0-2.014H54.319v-2.014h2.014a1.007,1.007,0,0,0,0-2.014H54.319V98.014h1.007a1.007,1.007,0,0,0,0-2.014H51.3a1.007,1.007,0,1,0,0,2.014h1.007v1.007H47.27a1.007,1.007,0,0,0,0,2.014h5.035v2.014H51.3a1.007,1.007,0,1,0,0,2.014h1.007v2.014H15.049a1.008,1.008,0,0,0-.9.556l-4.028,8.056a1.007,1.007,0,0,0,.9,1.458h4.028v26.18H9.007a1.007,1.007,0,1,0,0,2.014H69.423a1.007,1.007,0,1,0,0-2.014Zm-51.354,0H17.062v-2.014h1.007Zm12.083,0H20.083V125.2H30.153Zm31.215,0h-29.2v-2.014h29.2Zm0-4.028h-29.2v-15.1a1.007,1.007,0,0,0-1.007-1.007H19.076a1.007,1.007,0,0,0-1.007,1.007v15.1H17.062V121.173H61.368Zm0-20.139H17.062v-2.014H61.368ZM12.65,115.132l3.021-6.042H62.76l3.021,6.042Z" transform="translate(-8 -86.937)" fill="#72bf44"/>
    <path id="Path_3190" data-name="Path 3190" d="M161.007,384A1.007,1.007,0,0,0,160,385.007v2.014a1.007,1.007,0,1,0,2.014,0v-2.014A1.007,1.007,0,0,0,161.007,384Z" transform="translate(-140.868 -338.687)" fill="#72bf44"/>
    <path id="Path_3191" data-name="Path 3191" d="M73.007,226.014h7.049a1.007,1.007,0,0,0,0-2.014H73.007a1.007,1.007,0,0,0,0,2.014Z" transform="translate(-63.945 -198.826)" fill="#72bf44"/>
    <path id="Path_3192" data-name="Path 3192" d="M153.007,226.014h1.007a1.007,1.007,0,1,0,0-2.014h-1.007a1.007,1.007,0,0,0,0,2.014Z" transform="translate(-133.875 -198.826)" fill="#72bf44"/>
    <path id="Path_3193" data-name="Path 3193" d="M217.007,324.083h10.069a1.007,1.007,0,0,0,0-2.014v-9.062A1.007,1.007,0,0,0,226.069,312h-8.055a1.007,1.007,0,0,0-1.007,1.007v9.062a1.007,1.007,0,0,0,0,2.014Zm6.042-2.014v-3.021h2.014v3.021Zm2.014-8.055v3.021h-2.014v-3.021Zm-6.042,0h2.014v3.021h-2.014Zm0,5.035h2.014v3.021h-2.014Z" transform="translate(-189.82 -275.75)" fill="#72bf44"/>
    <path id="Path_3194" data-name="Path 3194" d="M321.007,324.083h10.069a1.007,1.007,0,0,0,0-2.014v-9.062A1.007,1.007,0,0,0,330.069,312h-8.055a1.007,1.007,0,0,0-1.007,1.007v9.062a1.007,1.007,0,0,0,0,2.014Zm6.042-2.014v-3.021h2.014v3.021Zm2.014-8.055v3.021h-2.014v-3.021Zm-6.042,0h2.014v3.021h-2.014Zm0,5.035h2.014v3.021h-2.014Z" transform="translate(-280.73 -275.75)" fill="#72bf44"/>
    <path id="Path_3195" data-name="Path 3195" d="M116.075,30.058a7.049,7.049,0,0,0-12.843-2.924A6.042,6.042,0,1,0,102.047,39.1h13.594a4.531,4.531,0,0,0,.434-9.042Zm-14.028,7.028a4.028,4.028,0,1,1,1.33-7.829,1.008,1.008,0,0,0,1.23-.493,5.035,5.035,0,0,1,9.523,2.268c0,.014,0,.026,0,.039a1.007,1.007,0,0,0,1.15,1.007,2.517,2.517,0,1,1,.361,5.008Z" transform="translate(-84.93 -23.995)" fill="#72bf44"/>
  </g>
</svg>
