<svg id="hotel_1_" data-name="hotel (1)" xmlns="http://www.w3.org/2000/svg" width="61.675" height="61.675" viewBox="0 0 61.675 61.675">
  <g id="Group_11313" data-name="Group 11313" transform="translate(0.995 0.995)">
    <path id="Path_3168" data-name="Path 3168" d="M16,328H75.685v2.984H16Z" transform="translate(-16 -289.204)" fill="#e0e0e2"/>
    <path id="Path_3169" data-name="Path 3169" d="M16,80H75.685v2.984H16Z" transform="translate(-16 -72.042)" fill="#e0e0e2"/>
    <path id="Path_3170" data-name="Path 3170" d="M32,352H87.706v17.906H32Z" transform="translate(-30.01 -310.22)" fill="#28a745"/>
    <rect id="Rectangle_25956" data-name="Rectangle 25956" width="7" height="8" rx="3.5" transform="translate(13.852 20.381)" fill="#fff"/>
    <path id="Path_3171" data-name="Path 3171" d="M108.974,248h3.979a4.974,4.974,0,0,1,4.974,4.974v4.974H104v-4.974A4.974,4.974,0,0,1,108.974,248Z" transform="translate(-93.058 -219.152)" fill="#fff"/>
    <path id="Path_3172" data-name="Path 3172" d="M138.109,257.948,135,251.979,138.109,248l2.984,3.979Z" transform="translate(-120.203 -219.152)" fill="#e0e0e2"/>
    <rect id="Rectangle_25957" data-name="Rectangle 25957" width="6" height="8" rx="3" transform="translate(39.852 20.381)" fill="#fff"/>
    <path id="Path_3173" data-name="Path 3173" d="M308.974,248h3.979a4.974,4.974,0,0,1,4.974,4.974v4.974H304v-4.974A4.974,4.974,0,0,1,308.974,248Z" transform="translate(-268.189 -219.152)" fill="#fff"/>
    <path id="Path_3174" data-name="Path 3174" d="M338.109,257.948,335,251.979,338.109,248l2.984,3.979Z" transform="translate(-295.334 -219.152)" fill="#e0e0e2"/>
    <path id="Path_3175" data-name="Path 3175" d="M225.948,384v9.948h-2.984v-3.979h-3.979v3.979H216V384h2.984v2.984h3.979V384Z" transform="translate(-191.131 -338.241)" fill="#fff"/>
    <path id="Path_3176" data-name="Path 3176" d="M99.727,23.958H48L49.99,16H97.738Z" transform="translate(-44.021 -16)" fill="#28a745"/>
  </g>
  <g id="Group_11314" data-name="Group 11314" transform="translate(0 0)">
    <path id="Path_3177" data-name="Path 3177" d="M68.68,191.874a1,1,0,0,0,.995-.995V187.9a1,1,0,0,0-.995-.995H59.727v-3.979a5.977,5.977,0,0,0-5.365-5.939,3.969,3.969,0,0,0,1.386-3.014v-1.99a3.979,3.979,0,1,0-7.958,0v1.99a3.969,3.969,0,0,0,1.387,3.014,5.977,5.977,0,0,0-5.366,5.939V186.9H34.858v-3.979a5.977,5.977,0,0,0-5.365-5.939,3.969,3.969,0,0,0,1.386-3.014v-1.99a3.979,3.979,0,1,0-7.958,0v1.99a3.969,3.969,0,0,0,1.387,3.014,5.977,5.977,0,0,0-5.366,5.939V186.9H8.995A1,1,0,0,0,8,187.9v2.984a1,1,0,0,0,.995.995H9.99V207.79H8.995a.995.995,0,0,0,0,1.99H68.68a.995.995,0,0,0,0-1.99h-.995V191.874Zm-10.942-8.953V186.9h-4.36l2.266-4.529a1,1,0,0,0-.095-1.042l-1.791-2.387A3.984,3.984,0,0,1,57.738,182.921Zm-5.987,2.785-1.912-3.672,1.915-2.451,1.835,2.447ZM49.78,171.979a1.99,1.99,0,0,1,3.979,0v1.99a1.99,1.99,0,1,1-3.979,0ZM45.8,182.921a3.982,3.982,0,0,1,3.928-3.978l-1.851,2.371a1,1,0,0,0-.1,1.072l2.351,4.514H45.8Zm-12.932,0V186.9h-4.36l2.266-4.529a1,1,0,0,0-.094-1.042l-1.791-2.387a3.984,3.984,0,0,1,3.979,3.979Zm-5.987,2.785-1.912-3.672,1.915-2.451,1.835,2.447Zm-1.971-13.728a1.99,1.99,0,0,1,3.979,0v1.99a1.99,1.99,0,1,1-3.979,0Zm-3.979,10.942a3.982,3.982,0,0,1,3.928-3.978l-1.851,2.371a1,1,0,0,0-.1,1.072L25.26,186.9H20.932ZM65.7,207.79H11.979V191.874H65.7ZM9.99,189.885v-.995h57.7v.995Z" transform="translate(-8 -148.105)" fill="#72bf44"/>
    <path id="Path_3178" data-name="Path 3178" d="M68.68,15.958h-3.2l-1.8-7.2A1,1,0,0,0,62.712,8H14.963A1,1,0,0,0,14,8.753l-1.8,7.2h-3.2A1,1,0,0,0,8,16.953v2.984a1,1,0,0,0,.995.995H68.68a1,1,0,0,0,.995-.995V16.953A1,1,0,0,0,68.68,15.958ZM15.74,9.99H61.934l1.492,5.969H14.248Zm51.945,8.953H9.99v-.995h57.7Z" transform="translate(-8 -8)" fill="#72bf44"/>
    <path id="Path_3179" data-name="Path 3179" d="M218.942,376h-2.984a1,1,0,0,0-.995.995v1.99h-1.99v-1.99a1,1,0,0,0-.995-.995h-2.984a1,1,0,0,0-.995.995v9.948a1,1,0,0,0,.995.995h2.984a1,1,0,0,0,.995-.995v-2.984h1.99v2.984a1,1,0,0,0,.995.995h2.984a1,1,0,0,0,.995-.995v-9.948A1,1,0,0,0,218.942,376Zm-.995,9.948h-.995v-2.984a1,1,0,0,0-.995-.995h-3.979a1,1,0,0,0-.995.995v2.984h-.995V377.99h.995v1.989a1,1,0,0,0,.995.995h3.979a1,1,0,0,0,.995-.995V377.99h.995Z" transform="translate(-183.131 -330.241)" fill="#28a745"/>
    <path id="Path_3180" data-name="Path 3180" d="M360.995,465.99h6.963a.995.995,0,1,0,0-1.99h-6.963a.995.995,0,1,0,0,1.99Z" transform="translate(-316.231 -407.299)" fill="#72bf44"/>
    <path id="Path_3181" data-name="Path 3181" d="M440.995,465.99h.995a.995.995,0,0,0,0-1.99h-.995a.995.995,0,1,0,0,1.99Z" transform="translate(-386.283 -407.299)" fill="#72bf44"/>
  </g>
</svg>
