<svg id="real-estate" xmlns="http://www.w3.org/2000/svg" width="68.14" height="58.583" viewBox="0 0 68.14 58.583">
  <path id="Path_3676" data-name="Path 3676" d="M126.259,63.3,100.7,48.157,75.15,63.3l-3.194,1.9V60.934L100.7,43.9l28.749,17.036v4.259Z" transform="translate(-62.379 -42.833)" fill="#28a745"/>
  <g id="Group_11582" data-name="Group 11582" transform="translate(34.067 14.907)">
    <path id="Path_3677" data-name="Path 3677" d="M292.215,152.157h-4.259V147.9A4.258,4.258,0,0,1,292.215,152.157Z" transform="translate(-283.697 -147.898)" fill="#fff"/>
    <path id="Path_3678" data-name="Path 3678" d="M255.956,152.157a4.258,4.258,0,0,1,4.259-4.259v4.259Z" transform="translate(-255.956 -147.898)" fill="#fff"/>
    <path id="Path_3679" data-name="Path 3679" d="M260.215,179.9v4.259a4.265,4.265,0,0,1-4.259-4.259Z" transform="translate(-255.956 -175.639)" fill="#fff"/>
    <path id="Path_3680" data-name="Path 3680" d="M292.215,179.9a4.265,4.265,0,0,1-4.259,4.259V179.9Z" transform="translate(-283.697 -175.639)" fill="#fff"/>
  </g>
  <path id="Path_3681" data-name="Path 3681" d="M147.065,91.039v30.644h-21.3V105.711h-8.518v15.972H112.63l-9.721-9.721a9.251,9.251,0,0,0,.437-1.991h9.647V98.258H100.215v3.5a9.4,9.4,0,0,0-4.259-2.194V91.038L121.51,75.9Zm-4.259,18.932V98.258H130.029v11.712ZM121.51,94a4.259,4.259,0,1,0-4.259-4.259A4.265,4.265,0,0,0,121.51,94Z" transform="translate(-83.185 -70.574)" fill="#fff"/>
  <path id="Path_3682" data-name="Path 3682" d="M447.956,170.7v33.167h4.259V173.222Z" transform="translate(-388.335 -152.757)" fill="#28a745"/>
  <path id="Path_3683" data-name="Path 3683" d="M364.733,243.9v5.324H351.956V243.9Z" transform="translate(-305.112 -216.214)" fill="#f5f7fa"/>
  <path id="Path_3684" data-name="Path 3684" d="M358.345,283.9h6.389v6.389H351.956V283.9Z" transform="translate(-305.112 -250.89)" fill="#28a745"/>
  <rect id="Rectangle_26105" data-name="Rectangle 26105" width="8.518" height="15.971" transform="translate(34.067 35.137)" fill="#28a745"/>
  <path id="Path_3685" data-name="Path 3685" d="M140.733,243.9v3.194H127.956V243.9Z" transform="translate(-110.926 -216.214)" fill="#f5f7fa"/>
  <path id="Path_3686" data-name="Path 3686" d="M134.345,267.9h6.389v8.518h-9.647a9.538,9.538,0,0,0-2.747-7.847,3.933,3.933,0,0,0-.383-.351V267.9Z" transform="translate(-110.926 -237.02)" fill="#28a745"/>
  <path id="Path_3687" data-name="Path 3687" d="M119.037,356.952l-.011,6.037h-6.005l-1.448-1.459v-2.822H108.74l-.362-.373v-1.757h-1.768l-3.695-3.7a9.635,9.635,0,0,0,6.027-6.026l9.721,9.721Z" transform="translate(-89.218 -305.47)" fill="#fff"/>
  <path id="Path_3688" data-name="Path 3688" d="M151.39,276.432H148.2l2.84-8.518h3.194Z" transform="translate(-128.472 -237.034)" fill="#fff"/>
  <path id="Path_3689" data-name="Path 3689" d="M24.311,268.266a9.435,9.435,0,0,1-3.716,2.311,9.582,9.582,0,1,1-.926-18.419,9.39,9.39,0,0,1,4.259,2.194v.011a3.94,3.94,0,0,1,.383.351,9.536,9.536,0,0,1,2.747,7.847,9.251,9.251,0,0,1-.437,1.991A9.448,9.448,0,0,1,24.311,268.266Z" transform="translate(-6.897 -223.162)" fill="#fff"/>
  <path id="Path_3690" data-name="Path 3690" d="M471.956,157.187l1.065.631,3.194,1.9v-4.259l-4.259-2.525Z" transform="translate(-409.141 -137.354)" fill="#28a745"/>
  <path id="Path_3691" data-name="Path 3691" d="M383.15,290.287h-3.194l2.13-6.389h3.194Z" transform="translate(-329.385 -250.89)" fill="#fff"/>
  <path id="Path_3692" data-name="Path 3692" d="M10.642,265.2a10.647,10.647,0,1,1,7.529-3.118A10.573,10.573,0,0,1,10.642,265.2Zm0-19.165a8.518,8.518,0,1,0,6.023,2.495A8.465,8.465,0,0,0,10.642,246.037Z" transform="translate(0 -216.221)" fill="#72bf44"/>
  <path id="Path_3693" data-name="Path 3693" d="M106.112,396.384a1.064,1.064,0,0,1-.754-.312l-1.449-1.451a1.07,1.07,0,0,1-.311-.754V392.1h-1.765a1.06,1.06,0,0,1-.753-.312l-.364-.364a1.06,1.06,0,0,1-.312-.753v-.7h-.7a1.06,1.06,0,0,1-.753-.312l-3.693-3.693a1.065,1.065,0,0,1,1.506-1.506l3.381,3.381h1.325a1.064,1.064,0,0,1,1.065,1.065v1.065h2.13a1.064,1.064,0,0,1,1.065,1.065v2.387l1.138,1.139a1.066,1.066,0,0,1-.754,1.819Z" transform="translate(-82.309 -337.801)" fill="#72bf44"/>
  <path id="Path_3694" data-name="Path 3694" d="M151.351,351.117a1.062,1.062,0,0,1-.753-.312l-10.092-10.091a1.065,1.065,0,0,1,1.506-1.506L152.1,349.3a1.065,1.065,0,0,1-.753,1.818Z" transform="translate(-121.535 -298.568)" fill="#72bf44"/>
  <path id="Path_3695" data-name="Path 3695" d="M177.913,462.188h-6a1.065,1.065,0,1,1,0-2.13h6a1.065,1.065,0,1,1,0,2.13Z" transform="translate(-148.105 -403.604)" fill="#72bf44"/>
  <path id="Path_3696" data-name="Path 3696" d="M217.021,422.879h0a1.065,1.065,0,0,1-1.065-1.066l.009-6.035a1.065,1.065,0,0,1,1.065-1.064h0a1.064,1.064,0,0,1,1.064,1.066l-.008,6.035A1.065,1.065,0,0,1,217.021,422.879Z" transform="translate(-187.213 -364.295)" fill="#72bf44"/>
  <path id="Path_3697" data-name="Path 3697" d="M49.226,294.044a1.065,1.065,0,0,1-.012-2.13h.012a1.065,1.065,0,1,1,0,2.13Z" transform="translate(-41.747 -257.839)" fill="#28a745"/>
  <path id="Path_3698" data-name="Path 3698" d="M65.024,55.066a1.064,1.064,0,0,1-.543-1.98L93.23,36.049a1.065,1.065,0,0,1,1.085,1.832L65.566,54.918A1.069,1.069,0,0,1,65.024,55.066Z" transform="translate(-55.446 -35.9)" fill="#72bf44"/>
  <path id="Path_3699" data-name="Path 3699" d="M309.764,55.064a1.059,1.059,0,0,1-.542-.149L280.473,37.878a1.065,1.065,0,0,1,1.085-1.832l28.749,17.036a1.065,1.065,0,0,1-.543,1.982Z" transform="translate(-242.69 -35.898)" fill="#72bf44"/>
  <path id="Path_3700" data-name="Path 3700" d="M65.024,87.068a1.064,1.064,0,0,1-.543-1.98L93.23,68.051a1.065,1.065,0,0,1,1.085,1.832L65.566,86.92A1.068,1.068,0,0,1,65.024,87.068Z" transform="translate(-55.446 -63.643)" fill="#72bf44"/>
  <path id="Path_3701" data-name="Path 3701" d="M309.764,87.062a1.059,1.059,0,0,1-.542-.149L280.473,69.877a1.065,1.065,0,0,1,1.085-1.832l28.749,17.036a1.065,1.065,0,0,1-.543,1.982Z" transform="translate(-242.69 -63.637)" fill="#72bf44"/>
  <path id="Path_3702" data-name="Path 3702" d="M65.021,170.287a1.064,1.064,0,0,1-1.065-1.065v-4.259a1.065,1.065,0,0,1,2.13,0v4.259A1.064,1.064,0,0,1,65.021,170.287Z" transform="translate(-55.444 -146.862)" fill="#28a745"/>
  <path id="Path_3703" data-name="Path 3703" d="M497.021,170.287a1.064,1.064,0,0,1-1.065-1.065v-4.259a1.065,1.065,0,0,1,2.13,0v4.259A1.064,1.064,0,0,1,497.021,170.287Z" transform="translate(-429.946 -146.862)" fill="#28a745"/>
  <path id="Path_3704" data-name="Path 3704" d="M89.021,192.336a1.064,1.064,0,0,1-1.065-1.065v-8.525a1.065,1.065,0,0,1,2.13,0v8.525A1.064,1.064,0,0,1,89.021,192.336Z" transform="translate(-76.249 -162.279)" fill="#72bf44"/>
  <path id="Path_3705" data-name="Path 3705" d="M473.021,214.452a1.064,1.064,0,0,1-1.065-1.065V182.747a1.065,1.065,0,0,1,2.13,0v30.641A1.064,1.064,0,0,1,473.021,214.452Z" transform="translate(-409.141 -162.279)" fill="#72bf44"/>
  <path id="Path_3706" data-name="Path 3706" d="M248.708,414.028H214.269a1.065,1.065,0,0,1,0-2.13h34.439a1.065,1.065,0,0,1,0,2.13Z" transform="translate(-184.827 -361.854)" fill="#72bf44"/>
  <path id="Path_3707" data-name="Path 3707" d="M257.539,310h-8.518a1.064,1.064,0,0,1-1.065-1.065V292.963a1.064,1.064,0,0,1,1.065-1.065h8.518a1.064,1.064,0,0,1,1.065,1.065v15.971A1.064,1.064,0,0,1,257.539,310Zm-7.453-2.13h6.389V294.028h-6.389Z" transform="translate(-214.954 -257.825)" fill="#72bf44"/>
  <path id="Path_3708" data-name="Path 3708" d="M357.8,249.74H345.021a1.064,1.064,0,0,1-1.065-1.065V236.963a1.064,1.064,0,0,1,1.065-1.065H357.8a1.064,1.064,0,0,1,1.065,1.065v11.712A1.064,1.064,0,0,1,357.8,249.74Zm-11.712-2.13h10.648v-9.583H346.086Z" transform="translate(-298.177 -209.279)" fill="#72bf44"/>
  <path id="Path_3709" data-name="Path 3709" d="M357.8,278.028H345.021a1.065,1.065,0,0,1,0-2.13H357.8a1.065,1.065,0,0,1,0,2.13Z" transform="translate(-298.177 -243.955)" fill="#72bf44"/>
  <path id="Path_3710" data-name="Path 3710" d="M393.021,279.092a1.064,1.064,0,0,1-1.065-1.065v-1.065a1.065,1.065,0,1,1,2.13,0v1.065A1.064,1.064,0,0,1,393.021,279.092Z" transform="translate(-339.788 -243.955)" fill="#28a745"/>
  <path id="Path_3711" data-name="Path 3711" d="M133.8,249.74h-9.644a1.065,1.065,0,0,1,0-2.13h8.579v-9.583H122.086v2.453a1.065,1.065,0,0,1-2.13,0v-3.518a1.064,1.064,0,0,1,1.065-1.065H133.8a1.064,1.064,0,0,1,1.065,1.065v11.712A1.064,1.064,0,0,1,133.8,249.74Z" transform="translate(-103.99 -209.279)" fill="#72bf44"/>
  <path id="Path_3712" data-name="Path 3712" d="M133.8,262.028H121.021a1.065,1.065,0,0,1,0-2.13H133.8a1.065,1.065,0,0,1,0,2.13Z" transform="translate(-103.99 -230.085)" fill="#72bf44"/>
  <path id="Path_3713" data-name="Path 3713" d="M169.021,263.092a1.064,1.064,0,0,1-1.065-1.065v-1.065a1.065,1.065,0,1,1,2.13,0v1.065A1.064,1.064,0,0,1,169.021,263.092Z" transform="translate(-145.602 -230.085)" fill="#28a745"/>
  <path id="Path_3714" data-name="Path 3714" d="M253.28,150.546a5.324,5.324,0,1,1,5.324-5.324A5.33,5.33,0,0,1,253.28,150.546Zm0-8.518a3.194,3.194,0,1,0,3.194,3.194A3.2,3.2,0,0,0,253.28,142.028Z" transform="translate(-214.954 -126.056)" fill="#28a745"/>
  <path id="Path_3715" data-name="Path 3715" d="M281.021,150.546a1.064,1.064,0,0,1-1.065-1.065v-8.518a1.065,1.065,0,1,1,2.13,0v8.518A1.064,1.064,0,0,1,281.021,150.546Z" transform="translate(-242.695 -126.056)" fill="#28a745"/>
  <path id="Path_3716" data-name="Path 3716" d="M257.539,174.028h-8.518a1.065,1.065,0,1,1,0-2.13h8.518a1.065,1.065,0,0,1,0,2.13Z" transform="translate(-214.954 -153.797)" fill="#28a745"/>
</svg>
