<svg id="real-estate_1_" data-name="real-estate (1)" xmlns="http://www.w3.org/2000/svg" width="61.775" height="52.331" viewBox="0 0 61.775 52.331">
  <g id="Group_11594" data-name="Group 11594" transform="translate(0.905 0.904)">
    <g id="Group_11586" data-name="Group 11586" transform="translate(1.823 39.472)">
      <g id="Group_11584" data-name="Group 11584" transform="translate(46.612)">
        <path id="Path_3734" data-name="Path 3734" d="M418.36,379.262a2.555,2.555,0,0,0-.9-.99,2.319,2.319,0,0,1-1.026-1.479,3.789,3.789,0,1,0-5.28,4.221c.654.3,5.033,2.386,6.292,1.6A2.583,2.583,0,0,0,418.36,379.262Z" transform="translate(-408.934 -373.778)" fill="#28a745"/>
      </g>
      <g id="Group_11585" data-name="Group 11585" transform="translate(0 0)">
        <path id="Path_3735" data-name="Path 3735" d="M22.89,379.263a2.555,2.555,0,0,1,.9-.99,2.319,2.319,0,0,0,1.026-1.479,3.789,3.789,0,1,1,5.28,4.221c-.8.363-5.033,2.386-6.292,1.6A2.583,2.583,0,0,1,22.89,379.263Z" transform="translate(-22.609 -373.779)" fill="#28a745"/>
      </g>
    </g>
    <g id="Group_11593" data-name="Group 11593" transform="translate(0 0)">
      <g id="Group_11590" data-name="Group 11590" transform="translate(2.715)">
        <g id="Group_11589" data-name="Group 11589">
          <g id="Group_11588" data-name="Group 11588">
            <path id="Path_3736" data-name="Path 3736" d="M115.776,109.565h-44.6V74.231l22.3-11.174,22.3,11.174Z" transform="translate(-66.208 -61.075)" fill="#fff"/>
            <path id="Path_3737" data-name="Path 3737" d="M204,63.057l-7.135,3.575L217.2,76.822a2.591,2.591,0,0,1,1.43,2.316v30.426H226.3V74.231Z" transform="translate(-176.731 -61.075)" fill="#fff"/>
            <path id="Path_3738" data-name="Path 3738" d="M30,60.955v2.1a1.332,1.332,0,0,0,1.929,1.191l24.742-12.4a1.332,1.332,0,0,1,1.194,0l24.742,12.4a1.332,1.332,0,0,0,1.929-1.191v-2.1a1.332,1.332,0,0,0-.735-1.191l-25.936-13a1.332,1.332,0,0,0-1.194,0l-25.936,13A1.332,1.332,0,0,0,30,60.955Z" transform="translate(-30 -46.627)" fill="#fff"/>
            <g id="Group_11587" data-name="Group 11587" transform="translate(46.895 9.677)">
              <path id="Path_3739" data-name="Path 3739" d="M425.578,130.288l-6.905-3.46v5.081l5.712,2.862a1.332,1.332,0,0,0,1.929-1.191v-2.1A1.332,1.332,0,0,0,425.578,130.288Z" transform="translate(-418.673 -126.828)" fill="#28a745"/>
            </g>
          </g>
        </g>
      </g>
      <g id="Group_11591" data-name="Group 11591" transform="translate(0 46.438)">
        <path id="Path_3740" data-name="Path 3740" d="M65.423,435.594H9.542a2.042,2.042,0,1,1,0-4.085H65.423a2.042,2.042,0,1,1,0,4.085Z" transform="translate(-7.5 -431.509)" fill="#28a745"/>
      </g>
      <path id="Path_3741" data-name="Path 3741" d="M431.58,431.508H423.9a2.042,2.042,0,0,1,2.042,2.042v2.042h5.64a2.042,2.042,0,0,0,0-4.085Z" transform="translate(-373.657 -385.07)" fill="#4d4d4d"/>
      <g id="Group_11592" data-name="Group 11592" transform="translate(13.086 26.168)">
        <path id="Path_3742" data-name="Path 3742" d="M115.96,263.511h11.853v20.27H115.96Z" transform="translate(-115.96 -263.511)" fill="#28a745"/>
        <path id="Path_3743" data-name="Path 3743" d="M275.538,272.324H261.215a1.034,1.034,0,0,1-1.034-1.034v-6.743a1.034,1.034,0,0,1,1.034-1.034h14.323a1.034,1.034,0,0,1,1.034,1.034v6.743A1.034,1.034,0,0,1,275.538,272.324Z" transform="translate(-242.78 -263.512)" fill="#28a745"/>
        <path id="Path_3744" data-name="Path 3744" d="M335.272,263.511H328.11v8.812h7.161a1.034,1.034,0,0,0,1.034-1.034v-6.744A1.034,1.034,0,0,0,335.272,263.511Z" transform="translate(-302.513 -263.511)" fill="#28a745"/>
      </g>
    </g>
  </g>
  <g id="Group_11595" data-name="Group 11595" transform="translate(0 0)">
    <path id="Path_3745" data-name="Path 3745" d="M174.31,335.983v-1.569a.9.9,0,0,0-1.81,0v1.569a.9.9,0,0,0,1.81,0Z" transform="translate(-151.687 -297.993)"/>
    <path id="Path_3746" data-name="Path 3746" d="M59.93,85.789a3.407,3.407,0,0,0-.359-1.206,3.475,3.475,0,0,0-1.222-1.339,1.419,1.419,0,0,1-.625-.9A4.678,4.678,0,0,0,54.755,78.9a4.608,4.608,0,0,0-.662-.19V65.185a.9.9,0,0,0-1.81,0V85.574H26.749V67.115h.181a.9.9,0,1,0,0-1.81H12.905a.9.9,0,1,0,0,1.81h.181V79.148a.9.9,0,1,0,1.81,0V67.115H24.939v18.46H14.9V83.348a.9.9,0,1,0-1.81,0v2.227H9.493V56.7L30.7,46.073a.429.429,0,0,1,.383,0h0L52.283,56.7v4.258a.9.9,0,1,0,1.81,0V57.6l1.729.866a2.237,2.237,0,0,0,3.239-2v-2.1a2.225,2.225,0,0,0-1.235-2l-25.936-13a2.248,2.248,0,0,0-2,0l-25.936,13a2.225,2.225,0,0,0-1.235,2v2.1a2.237,2.237,0,0,0,3.239,2L7.683,57.6v21.1a4.606,4.606,0,0,0-.663.19,4.678,4.678,0,0,0-2.969,3.444,1.419,1.419,0,0,1-.625.9A3.476,3.476,0,0,0,2.2,84.583a3.406,3.406,0,0,0-.359,1.206,2.947,2.947,0,0,0,1.1,5.68h55.88a2.947,2.947,0,0,0,1.1-5.68Zm-5.838-5.2.033.01a2.878,2.878,0,0,1,1.827,2.118,3.238,3.238,0,0,0,1.426,2.058,1.662,1.662,0,0,1,.584.641,1.579,1.579,0,0,1,.071.162H54.092v-4.99ZM5.143,56.853a.427.427,0,0,1-.619-.382v-2.1a.425.425,0,0,1,.236-.382l25.936-13a.43.43,0,0,1,.383,0l25.936,13a.425.425,0,0,1,.236.382v2.1a.427.427,0,0,1-.619.382L31.89,44.455h0a2.246,2.246,0,0,0-2,0Zm-1.33,28.56a1.663,1.663,0,0,1,.584-.641,3.238,3.238,0,0,0,1.426-2.058A2.878,2.878,0,0,1,7.65,80.6l.033-.011v4.99H3.742a1.549,1.549,0,0,1,.071-.162Zm55.015,4.246H2.947a1.137,1.137,0,1,1,0-2.275h55.88a1.137,1.137,0,1,1,0,2.275Z" transform="translate(0 -39.138)" fill="#72bf44"/>
    <path id="Path_3747" data-name="Path 3747" d="M254.62,256.011a1.942,1.942,0,0,0-1.939,1.939v6.743a1.941,1.941,0,0,0,1.939,1.939h14.323a1.941,1.941,0,0,0,1.939-1.939V257.95a1.942,1.942,0,0,0-1.939-1.939Zm14.453,1.939v6.743a.13.13,0,0,1-.129.129H254.62a.13.13,0,0,1-.129-.129V257.95a.13.13,0,0,1,.129-.13h14.323A.13.13,0,0,1,269.073,257.95Z" transform="translate(-222.194 -229.844)" fill="#72bf44"/>
  </g>
</svg>
