<svg id="man-learning-online-laptop-education" xmlns="http://www.w3.org/2000/svg" width="59.009" height="59.008" viewBox="0 0 59.009 59.008">
  <g id="Group_11583" data-name="Group 11583" transform="translate(0.983 5.901)">
    <path id="Path_3717" data-name="Path 3717" d="M32.785,12.917H20a3.934,3.934,0,0,1,3.934-3.934,3.761,3.761,0,0,1,.885.108A4.867,4.867,0,0,1,27.868,8a4.917,4.917,0,0,1,4.917,4.917Z" transform="translate(-3.281 -8)" fill="#28a745"/>
    <path id="Path_3718" data-name="Path 3718" d="M31.719,29.95v4.917H27.785V38.8H17.95V29.95A2.95,2.95,0,0,0,15,27h5.9v.983a1.967,1.967,0,0,0,3.934,0V27h3.934A2.95,2.95,0,0,1,31.719,29.95Z" transform="translate(-3.198 -8.314)" fill="#28a745"/>
    <path id="Path_3719" data-name="Path 3719" d="M17.9,29.95v4.917H12V29.95a2.95,2.95,0,1,1,5.9,0Z" transform="translate(-3.149 -8.314)" fill="#28a745"/>
    <path id="Path_3720" data-name="Path 3720" d="M29,39h5.9v3.934H29Z" transform="translate(-3.43 -8.512)" fill="#fff"/>
    <path id="Path_3721" data-name="Path 3721" d="M3,43H54.14v3.934H3Z" transform="translate(-3 -8.579)" fill="#28a745"/>
    <path id="Path_3722" data-name="Path 3722" d="M4,47H53.174V60.769H4Z" transform="translate(-3.017 -8.645)" fill="#28a745"/>
    <path id="Path_3723" data-name="Path 3723" d="M35,39H50.736v3.934H35Z" transform="translate(-3.529 -8.512)" fill="#fff"/>
  </g>
  <path id="Path_3724" data-name="Path 3724" d="M56.966,27.112a.983.983,0,0,0-.875-1.426H39.372a.971.971,0,0,0-.9.61L33.8,37.488H31.5V35.521a.983.983,0,0,0,.983-.983V29.62a3.934,3.934,0,0,0-3.934-3.934H25.6V25.6a5.908,5.908,0,0,0,4.917-5.812v-5.9h1.967a.983.983,0,0,0,.983-.983A5.9,5.9,0,0,0,27.57,7a5.758,5.758,0,0,0-3.295,1.033,4.784,4.784,0,0,0-.639-.049A4.917,4.917,0,0,0,18.719,12.9v.983a2.95,2.95,0,1,0,0,5.9,6.528,6.528,0,0,0,.089.983H8.884a4.917,4.917,0,0,0-4.917,4.917V41.421H2.983A.983.983,0,0,0,2,42.4v3.934a.983.983,0,0,0,.983.983V60.107a.983.983,0,0,0,.983.983H53.141a.983.983,0,0,0,.983-.983V47.322a.983.983,0,0,0,.983-.983V42.4a.983.983,0,0,0-.983-.983h-2.95V38.707ZM18.719,17.818a.983.983,0,1,1,0-1.967ZM35.438,39.455H49.207v1.967H35.438Zm-1.967,0v1.967H29.537V39.455Zm-4.917-1.967V35.521h.983v1.967ZM23.636,9.95a3.245,3.245,0,0,1,.659.079.983.983,0,0,0,.836-.187,3.9,3.9,0,0,1,6.245,2.075H20.853A2.964,2.964,0,0,1,23.636,9.95Zm-2.95,3.934h7.868v5.9a3.934,3.934,0,0,1-7.868,0ZM23.636,25.6v2.055a.983.983,0,0,1-.983.983.933.933,0,0,1-.7-.3.913.913,0,0,1-.285-.679V24.889a5.886,5.886,0,0,0,1.967.708Zm-3.078,4.131a2.922,2.922,0,0,0,2.095.875,2.959,2.959,0,0,0,2.95-2.95h2.95a1.973,1.973,0,0,1,1.967,1.967v3.934H28.554V32.57H26.587v4.917H18.719V29.62a3.841,3.841,0,0,0-.551-1.967H19.7a2.905,2.905,0,0,0,.856,2.075ZM13.8,35.521h2.95v2.95a.983.983,0,0,0,.983.983H27.57v1.967H13.8Zm-.983-1.967V29.62a1.967,1.967,0,1,1,3.934,0v3.934ZM5.934,25.686a2.959,2.959,0,0,1,2.95-2.95H19.516c.059.1.118.207.187.3v2.646H14.785a3.934,3.934,0,0,0-3.934,3.934v4.917a.983.983,0,0,0,.983.983v5.9h-5.9ZM52.157,59.124H4.95v-11.8H52.157Zm.983-15.736v1.967H3.967V43.388Zm-3.56-5.9H35.93l4.1-9.835H54.5Z" transform="translate(-2 -2.083)" fill="#72bf44"/>
  <path id="Path_3725" data-name="Path 3725" d="M60.587,2h-23.6A.983.983,0,0,0,36,2.983V19.7a.983.983,0,0,0,.983.983h2.543l2.662,2.662a.983.983,0,0,0,1.391,0l2.662-2.662H60.587a.983.983,0,0,0,.983-.983V2.983A.983.983,0,0,0,60.587,2ZM59.6,18.719H45.835a.983.983,0,0,0-.7.288l-2.255,2.255-2.255-2.255a.983.983,0,0,0-.7-.288H37.967V3.967H59.6Z" transform="translate(-2.562 -2)" fill="#72bf44"/>
  <path id="Path_3726" data-name="Path 3726" d="M44.1,16.381a.983.983,0,0,0,.818.438A1.032,1.032,0,0,0,45.1,16.8a.983.983,0,0,0,.78-.753l1.793-8.081H57.7V6H46.884a.983.983,0,0,0-.961.77l-1.466,6.606-.688-1.033a.983.983,0,0,0-.818-.443H40v1.967h2.424Z" transform="translate(-2.628 -2.066)" fill="#28a745"/>
  <path id="Path_3727" data-name="Path 3727" d="M55.194,9.293l-2.255,2.255L50.684,9.293l-1.391,1.391,2.255,2.255-2.255,2.255,1.391,1.391,2.255-2.255,2.255,2.255,1.391-1.391-2.255-2.255,2.255-2.255Z" transform="translate(-2.782 -2.121)" fill="#28a745"/>
</svg>
